<svg width="20" height="22" viewBox="0 0 20 22" fill="none" xmlns="http://www.w3.org/2000/svg">
<g clip-path="url(#clip0_19038_4609)">
<path d="M12.0218 0.927002C10.9555 1.00075 9.7093 1.68325 8.98305 2.57199C8.32056 3.37824 7.77556 4.57573 7.98806 5.73947C9.15305 5.77572 10.3568 5.07698 11.0543 4.17323C11.7068 3.33199 12.2005 2.14199 12.0218 0.927002Z" fill="black"/>
<path d="M17.9634 7.76946C16.9397 6.48572 15.5009 5.74072 14.1422 5.74072C12.3485 5.74072 11.5897 6.59947 10.3435 6.59947C9.05847 6.59947 8.08223 5.74322 6.53099 5.74322C5.00724 5.74322 3.38475 6.67447 2.35601 8.26696C0.909769 10.5094 1.15727 14.7257 3.501 18.3169C4.33975 19.6019 5.45974 21.0469 6.92473 21.0594C8.22848 21.0719 8.59597 20.2231 10.3622 20.2144C12.1285 20.2044 12.4635 21.0706 13.7647 21.0569C15.2309 21.0456 16.4122 19.4444 17.2509 18.1594C17.8522 17.2382 18.0759 16.7744 18.5422 15.7344C15.1509 14.4432 14.6072 9.6207 17.9634 7.76946Z" fill="black"/>
</g>
<defs>
<clipPath id="clip0_19038_4609">
<rect width="20" height="20.1326" fill="white" transform="translate(0 0.927002)"/>
</clipPath>
</defs>
</svg>
