<svg width="44" height="44" viewBox="0 0 44 44" fill="none" xmlns="http://www.w3.org/2000/svg">
<circle cx="22" cy="22" r="22" fill="#F01F0E"/>
<path d="M13.4342 30.5656C13.4922 30.6237 13.5612 30.6698 13.637 30.7012C13.7129 30.7327 13.7942 30.7489 13.8764 30.7489C13.9585 30.7489 14.0398 30.7327 14.1157 30.7012C14.1916 30.6698 14.2605 30.6237 14.3186 30.5656L21.9998 22.8843L29.6842 30.5656C29.8015 30.6829 29.9605 30.7487 30.1264 30.7487C30.2922 30.7487 30.4513 30.6829 30.5686 30.5656C30.6858 30.4483 30.7517 30.2892 30.7517 30.1234C30.7517 29.9575 30.6858 29.7985 30.5686 29.6812L22.8842 22L30.5654 14.3156C30.6827 14.1983 30.7486 14.0392 30.7486 13.8734C30.7486 13.7075 30.6827 13.5485 30.5654 13.4312C30.4482 13.3139 30.2891 13.248 30.1232 13.248C29.9574 13.248 29.7983 13.3139 29.6811 13.4312L21.9998 21.1156L14.3154 13.4343C14.1959 13.3319 14.0421 13.2784 13.8848 13.2845C13.7275 13.2906 13.5783 13.3558 13.467 13.4671C13.3557 13.5784 13.2904 13.7276 13.2844 13.8849C13.2783 14.0422 13.3318 14.196 13.4342 14.3156L21.1154 22L13.4342 29.6843C13.3178 29.8014 13.2524 29.9598 13.2524 30.125C13.2524 30.2901 13.3178 30.4485 13.4342 30.5656Z" fill="white"/>
</svg>
