<svg width="16" height="9" viewBox="0 0 16 9" fill="none" xmlns="http://www.w3.org/2000/svg">
<path fill-rule="evenodd" clip-rule="evenodd" d="M8.00001 8C5.12305 8 2.69816 6.62184 1.1693 4.50001C2.69816 2.37816 5.12305 1 8.00001 1C10.8769 1 13.3019 2.37816 14.8307 4.50001C13.3019 6.62183 10.8769 8 8.00001 8ZM8.00001 0C4.59506 0 1.76682 1.70638 0.081067 4.23501C-0.0270228 4.39715 -0.0270223 4.60288 0.0810683 4.76501C1.76682 7.2936 4.59506 9 8.00001 9C11.4049 9 14.2332 7.2936 15.919 4.76501C16.027 4.60288 16.027 4.39715 15.919 4.23501C14.2332 1.70638 11.4049 0 8.00001 0ZM8.00001 6.5C9.17822 6.5 10.1333 5.60457 10.1333 4.5C10.1333 3.39543 9.17822 2.5 8.00001 2.5C6.8218 2.5 5.86668 3.39543 5.86668 4.5C5.86668 5.60457 6.8218 6.5 8.00001 6.5Z" fill="#393939"/>
</svg>
