<svg width="17" height="11" viewBox="0 0 17 11" fill="none" xmlns="http://www.w3.org/2000/svg">
<path d="M1.73097 0.221444C1.51304 0.391704 1.51304 0.667749 1.73097 0.838008L13.6149 10.1223C13.8328 10.2926 14.1861 10.2926 14.4041 10.1223C14.622 9.95205 14.622 9.676 14.4041 9.50574L2.52017 0.221444C2.30224 0.0511852 1.9489 0.0511852 1.73097 0.221444Z" fill="#393939"/>
<path d="M0 5.11812C0 4.74863 0.947501 3.66519 2.47323 2.68942L3.24692 3.3218C3.2012 3.35059 3.15592 3.37956 3.1111 3.4087C2.43354 3.84913 1.89445 4.30489 1.53438 4.678C1.35349 4.86544 1.23028 5.0191 1.15792 5.12855C1.1457 5.14703 1.13592 5.16276 1.12814 5.17587L1.12954 5.1805C1.1425 5.22261 1.16549 5.27912 1.20354 5.35001C1.28042 5.49325 1.40592 5.67131 1.58782 5.87514C1.95181 6.28303 2.4988 6.74621 3.19102 7.18248C4.58694 8.06224 6.43984 8.75125 8.37074 8.75125C8.83888 8.75125 9.29748 8.7085 9.74228 8.6308L10.6211 9.34912C9.91103 9.52217 9.15663 9.6232 8.37074 9.6232C3.85044 9.6232 0 6.42604 0 5.11812Z" fill="#393939"/>
<path d="M5.20846 5.40877C5.20846 5.25776 5.2258 5.10992 5.25901 4.96639L8.79578 7.85717C8.65676 7.87176 8.51487 7.8793 8.37074 7.8793C6.62426 7.8793 5.20846 6.7732 5.20846 5.40877Z" fill="#393939"/>
<path d="M7.60857 3.01047L11.4031 6.11193C11.4876 5.88906 11.533 5.65306 11.533 5.40877C11.533 4.04433 10.1172 2.93824 8.37074 2.93824C8.10796 2.93824 7.85268 2.96328 7.60857 3.01047Z" fill="#393939"/>
<path d="M13.3301 7.15049C13.2119 7.23135 13.09 7.31072 12.9646 7.3882L13.7387 8.02098C15.3669 6.99475 16.3694 5.74228 16.3694 5.11812C16.3694 4.10084 12.705 0.903683 8.18472 0.903683C7.24879 0.903683 6.34956 1.0532 5.51194 1.29678L6.36345 1.99276C6.95222 1.85488 7.56313 1.77563 8.18472 1.77563C10.1131 1.77563 11.9202 2.46293 13.2746 3.31009C13.9462 3.73017 14.4748 4.17043 14.8251 4.54491C15.0006 4.73252 15.1191 4.89064 15.1896 5.00999C15.2275 5.07433 15.2437 5.11427 15.2503 5.13242C15.2444 5.15878 15.2269 5.22026 15.1751 5.32117C15.104 5.45978 14.9878 5.63505 14.8195 5.83731C14.483 6.24179 13.9763 6.70864 13.3301 7.15049Z" fill="#393939"/>
</svg>
