<svg width="62" height="62" viewBox="0 0 62 62" fill="none" xmlns="http://www.w3.org/2000/svg">
<path d="M2.75285 17.587C2.13285 17.7689 2.38085 18.7011 3.01325 18.5443C7.62184 16.9648 8.33694 21.3612 9.76121 24.1705C9.99172 24.7001 10.8152 24.4474 10.7021 23.8776C10.6972 23.8513 10.2005 21.2328 10.0149 19.9897C9.66771 17.0881 10.9915 16.0876 13.0669 15.4161C13.6713 15.1898 13.3567 14.2777 12.7376 14.4804C11.2325 14.9188 8.86605 15.3459 7.69078 12.9056C7.10116 11.6181 6.10519 9.091 6.09515 9.0657C5.87083 8.5077 5.01746 8.76364 5.15052 9.35958C5.15672 9.38612 5.77052 12.0322 6.01591 13.4268C6.45276 16.0382 4.24209 17.1204 2.75285 17.587ZM7.05503 13.8145C7.78663 14.9817 8.99576 15.756 10.2472 15.7903C9.22082 16.7831 8.75668 18.4386 9.04436 20.2096C8.27693 18.5878 6.95546 17.488 5.54756 17.2527C6.55792 16.5146 7.11455 15.1907 7.05503 13.8145Z" fill="#C1768D"/>
<path d="M59.9746 51.7289C55.423 50.6264 57.0384 47.5187 57.3602 44.5081C57.4594 43.9174 56.5806 43.6984 56.3982 44.2772C56.3908 44.3006 55.6436 46.6373 55.1898 47.8322C54.3118 50.0687 52.1032 49.8241 50.7899 49.5233C50.1647 49.3621 49.9004 50.29 50.5232 50.4789C54.8105 51.3841 53.3069 55.097 53.1252 57.9155C53.0508 58.4845 53.8861 58.6958 54.0835 58.1455C54.0919 58.1228 54.917 55.8612 55.3476 54.8114C55.9645 53.3068 57.1488 52.4012 58.3681 52.5033C58.8412 52.5457 59.3119 52.6119 59.7783 52.7017C60.4131 52.8164 60.61 51.8716 59.9746 51.7289ZM54.5158 54.2351C54.5858 52.7454 54.0991 51.4437 53.2123 50.6366C54.2522 50.5077 55.2314 49.7971 55.8206 48.8014C55.8933 49.9567 56.4431 51.0342 57.3112 51.6214C56.1546 51.9373 55.1297 52.8763 54.5158 54.2351Z" fill="#C1768D"/>
<path d="M17.0616 13.8158C17.189 13.1123 16.1462 12.9051 15.9952 13.6036C15.8676 14.3069 16.9103 14.5143 17.0616 13.8158Z" fill="#C1768D"/>
<path d="M22.3936 2.96807C22.5211 2.26475 21.4784 2.05742 21.3272 2.75591C21.1996 3.45949 22.2423 3.66657 22.3936 2.96807Z" fill="#C1768D"/>
<path d="M5.40921 30.3526C5.28174 31.0559 6.32446 31.2634 6.47561 30.5648C6.60333 29.8614 5.56049 29.6541 5.40921 30.3526Z" fill="#C1768D"/>
<path d="M30.4756 30.0491C30.3481 30.7525 31.3909 30.9597 31.542 30.2612C31.6696 29.5579 30.6269 29.3507 30.4756 30.0491Z" fill="#C1768D"/>
<path d="M17.1785 36.3064C16.4753 36.179 16.2678 37.2218 16.9664 37.3728C17.6704 37.5005 17.877 36.4577 17.1785 36.3064Z" fill="#C1768D"/>
<path d="M17.1277 38.6253C16.4244 38.4978 16.2171 39.5405 16.9156 39.6917C17.6187 39.8193 17.8262 38.7766 17.1277 38.6253Z" fill="#C1768D"/>
<path d="M22.0172 50.9712C22.7206 51.0987 22.9279 50.056 22.2293 49.9048C21.526 49.7772 21.3186 50.8201 22.0172 50.9712Z" fill="#C1768D"/>
<path d="M58.0106 39.5547C57.3072 39.4272 57.0999 40.47 57.7984 40.6211C58.5016 40.7487 58.709 39.706 58.0106 39.5547Z" fill="#C1768D"/>
<path d="M37.167 4.43265C37.2944 3.72932 36.2518 3.52199 36.1006 4.22061C35.973 4.92394 37.0158 5.13127 37.167 4.43265Z" fill="#C1768D"/>
<path d="M1.69305 51.7477C3.09921 59.073 11.3905 59.1389 16.453 55.3843C17.3404 54.7995 18.2973 54.3151 19.3335 54.0706C22.6926 53.9053 25.3214 57.0896 28.3002 58.4908C34.595 61.6537 44.3105 58.3071 44.5799 50.5199C44.7439 47.4128 42.6925 44.906 39.4811 45.0621C39.9368 43.9571 40.048 42.7402 39.8 41.5709C39.552 40.4016 38.9564 39.3345 38.0913 38.5097C38.6953 37.9208 40.3135 37.951 40.7612 37.9551C41.4101 37.9537 41.4227 36.9843 40.7743 36.9631C39.9616 36.9273 39.1632 36.7367 38.422 36.4017C37.6146 36.0297 36.9945 35.0406 36.9139 33.995C36.812 32.672 36.7031 30.522 36.7019 30.5004C36.6689 29.9068 35.7918 29.868 35.7143 30.465C35.7116 30.4863 35.4496 32.6102 35.2183 33.9106C34.7537 36.3534 32.4832 36.5354 31.082 36.4804C30.4364 36.4369 30.3504 37.3989 30.9965 37.4687C31.4827 37.5155 31.9662 37.5868 32.4452 37.6824C33.6815 37.9358 34.5922 39.1828 34.7655 40.8605C34.8859 42.0261 35.0445 44.507 35.0461 44.5319C35.0782 45.1063 35.9396 45.1572 36.0305 44.5809C36.0346 44.5561 36.4388 42.1035 36.6744 40.9555C36.7962 40.3217 37.0517 39.7211 37.4239 39.1938C39.1041 40.7058 39.4276 43.2969 38.3036 45.2299C36.262 45.7564 34.2569 47.1368 34.1901 49.4159C29.5442 50.1239 27.1251 46.8395 25.5473 42.967C25.5647 42.8997 25.5859 42.8321 25.6093 42.7645C26.3202 42.4153 27.4759 44.0123 28.0417 44.35C29.325 45.4088 30.8394 45.9792 32.5072 45.3964C33.7402 44.8891 34.5581 43.4429 34.0144 42.1476C33.5516 41.0456 32.1255 40.5597 31.109 41.2037C30.5846 41.5359 31.07 42.3738 31.5969 42.0386C31.7978 41.9121 32.0358 41.8577 32.2717 41.8844C32.5076 41.911 32.7274 42.0172 32.8951 42.1853C33.3109 42.5768 33.2945 43.2231 33.0477 43.7032C32.5125 44.7448 31.2064 44.8652 30.1886 44.5374C28.4601 43.1184 28.1843 40.7118 29.8496 39.1133C30.2918 38.6669 29.6376 37.9959 29.18 38.4166C27.9688 39.53 27.4152 41.6012 28.0914 43.2146C26.9052 42.0757 25.9723 40.6994 25.3536 39.1757C20.4197 26.9563 25.0213 19.3836 25.3194 18.5875C27.0554 18.808 30.6466 19.4431 32.5894 20.0209C33.1713 29.1137 40.9533 32.8226 49.2292 32.3152C51.3144 32.2771 54.9845 32.069 56.6727 31.968C57.3389 31.9282 58.025 31.6918 58.4293 31.1606C59.6941 29.4287 61.0871 26.3807 59.853 24.6506C58.6536 22.8822 57.559 20.6745 56.7984 18.6795C55.734 13.9813 60.9341 10.5699 56.2224 5.45367C52.8328 1.77347 47.9777 1.69436 44.6215 5.16487C43.6559 6.13343 42.868 7.26481 41.9183 8.25086C41.1265 9.07298 40.2769 9.83037 39.4289 10.5915C38.3967 11.0101 37.4367 11.588 36.5837 12.3042C34.8163 10.9315 33.0014 8.8003 31.4059 7.07844C31.3369 7.0039 31.2515 6.94637 31.1565 6.91035C31.0615 6.87433 30.9594 6.8608 30.8583 6.87082C30.7572 6.88084 30.6598 6.91413 30.5737 6.96809C30.4876 7.02205 30.4152 7.09522 30.3621 7.18185C29.5725 8.46699 27.9972 11.0416 27.7209 11.5749C15.5937 12.4838 12.9442 26.3142 13.0446 36.2844C10.7499 33.3176 5.63886 34.7061 4.30115 37.9174C3.21813 40.139 3.31311 43.7206 5.35961 43.0634C6.23373 42.6588 7.19444 42.4771 8.15593 42.5344C9.50567 42.6651 10.6188 41.3127 10.4003 40.1137C10.2951 39.482 9.47728 38.5885 8.68913 38.8205C7.94712 39.005 7.53767 39.9722 8.20901 40.3006C8.80049 40.5754 8.40641 41.4618 7.80613 41.2071C6.35533 40.5578 6.65801 38.3707 8.41832 37.8662C9.74946 37.4484 11.1725 38.7371 11.3746 39.9257C11.7289 41.7485 10.0903 43.6794 8.11526 43.5255C4.32086 43.2062 1.17349 47.2165 1.69305 51.7477ZM35.7345 40.6084C35.535 39.0404 34.7797 37.7791 33.7027 37.1267C34.7557 36.8001 35.6247 35.8732 36.0275 34.7221C36.3144 35.9077 37.0867 36.9162 38.1021 37.3458C36.965 37.8879 36.0887 39.068 35.7345 40.6084ZM25.8607 15.2032C21.4398 17.6794 19.9007 23.3677 19.6711 28.0818C19.1039 29.6536 18.0072 29.358 17.8638 27.7825C18.5608 22.2336 20.4252 16.8098 26.2639 14.4166C26.1299 14.679 25.9943 14.9405 25.8607 15.2032ZM20.5846 35.4444C20.5496 35.4496 20.515 35.457 20.4809 35.4665C20.5094 35.4442 20.5402 35.425 20.5728 35.4095L20.5846 35.4444ZM41.9756 29.326C41.5151 29.1856 41.0644 29.0151 40.6263 28.8155C41.1223 28.4121 41.589 27.9742 42.0232 27.505C42.048 28.3162 42.4717 29.0674 43.0836 29.6225C42.7103 29.534 42.3404 29.4361 41.9756 29.326ZM44.7915 29.574C43.8266 29.3397 42.6448 28.2578 42.9017 27.1684C43.1918 25.9382 44.5829 25.8781 45.4959 25.3813C45.7863 25.2232 45.6263 24.8277 45.3392 24.8028C44.9099 24.7693 44.4784 24.8266 44.0727 24.9709C44.6148 24.2076 45.1089 23.4113 45.5522 22.5867C46.0368 24.2665 48.0967 25.4647 49.7646 24.9109C49.2356 25.972 48.6054 26.9797 47.8831 27.92C47.7547 26.4211 45.6399 25.4229 44.5432 26.6763C44.4405 26.8136 44.366 26.97 44.3241 27.1364C44.2822 27.3027 44.2736 27.4757 44.299 27.6454C44.3244 27.8151 44.3831 27.978 44.4719 28.1248C44.5606 28.2716 44.6776 28.3994 44.816 28.5007C45.3029 28.8557 45.7535 28.053 45.285 27.6985C45.0203 27.4981 45.3745 27.1787 45.5308 27.1207C45.6518 27.0774 45.7803 27.0589 45.9086 27.0662C46.037 27.0735 46.1625 27.1065 46.2779 27.1632C46.4349 27.2348 46.5755 27.3381 46.6907 27.4666C46.8059 27.5951 46.8933 27.7461 46.9475 27.9099C47.2911 29.1498 45.7715 29.811 44.7915 29.5729V29.574ZM48.4688 18.4636C47.9737 18.5319 47.4996 18.708 47.08 18.9796C47.2995 18.2906 47.4797 17.5898 47.6198 16.8804C48.3638 18.1809 50.226 19.7595 51.6709 18.5815C51.5573 19.5035 51.3783 20.4162 51.1351 21.3128C50.9869 21.0421 50.7809 20.8073 50.5318 20.6252C50.2826 20.443 49.9965 20.3179 49.6936 20.2588C48.213 19.9627 47.0997 21.9328 48.4378 22.8471C48.956 23.201 49.4429 22.3587 48.9287 22.0073C48.7458 21.8823 48.7853 21.6171 48.8867 21.4536C49.0742 21.1516 49.4261 21.1601 49.7123 21.28C49.957 21.3863 50.1629 21.5655 50.3021 21.793C50.4414 22.0205 50.5071 22.2854 50.4904 22.5517C50.4435 23.8603 49.1991 24.3318 48.0893 23.945C47.0561 23.5854 46.1746 22.5398 46.4003 21.3972C46.6414 20.1753 47.6938 19.7209 48.6581 19.1637C48.9578 18.9899 48.8547 18.4129 48.4688 18.4624V18.4636ZM49.4248 16.5758C49.7829 16.993 50.4306 16.4584 50.1704 16.0006C49.8638 15.4615 50.4745 14.587 50.9791 15.2468C51.7865 16.447 51.491 18.9088 49.5828 17.6347C48.0992 16.6972 47.2245 14.2536 49.0993 13.2404C49.62 12.9316 49.1549 12.1344 48.6243 12.428C48.4113 12.5454 48.2121 12.6862 48.0302 12.8477C48.0396 12.3746 48.0078 11.9016 47.9353 11.4341C49.1162 11.9121 50.2184 12.5652 51.2049 13.3714C51.435 13.7422 51.6025 14.1483 51.7009 14.5735C50.4712 12.9776 48.2139 15.1384 49.4248 16.5746V16.5758ZM48.2413 30.3206C47.8391 30.293 47.4366 30.2612 47.0337 30.2253C51.0789 26.2605 53.1028 20.3626 52.6517 14.7507C52.6568 14.7386 52.6609 14.7262 52.6641 14.7135C52.9266 14.9868 53.1803 15.2688 53.4252 15.5595C53.8228 20.9162 52.0222 26.4717 48.2413 30.3194V30.3206ZM58.8704 25.0323C59.7372 26.3866 58.971 28.3154 58.2779 29.4675C57.6014 30.4605 56.3575 30.5916 55.251 30.5782C53.295 30.603 51.3472 30.5061 49.3937 30.3922C52.7218 26.759 54.4206 21.7651 54.431 16.8556C56.3363 19.3501 57.1999 22.4164 58.8704 25.031V25.0323ZM46.0776 8.73396C47.9748 2.20437 59.2079 7.20393 53.809 14.447C51.9841 12.4041 49.6451 10.8226 47.0623 10.1033C46.7652 10.0241 46.5047 9.84433 46.3251 9.59467C46.1456 9.34501 46.0581 9.04085 46.0776 8.73396ZM30.9526 8.26995C32.2499 9.76919 33.6621 11.1651 35.1763 12.4449C36.1701 13.2523 35.8469 14.5384 35.2931 15.519C35.0217 16.0824 35.9007 16.4417 36.0955 15.8414C36.5903 14.1118 38.3313 10.0325 45.9737 10.88C46.1837 10.9115 46.3758 11.016 46.5165 11.175C46.6572 11.334 46.7375 11.5374 46.7432 11.7496C46.8705 14.2048 46.7061 22.4136 39.5636 28.2641C39.3231 28.1226 39.0879 27.9724 38.8582 27.8136C43.3266 23.9418 46.1428 18.0289 46.0891 12.1113C46.0732 11.5228 45.1759 11.5256 45.1774 12.1113C45.1252 20.15 40.3399 25.1301 37.9536 27.122C35.5751 25.1103 34.3976 22.6456 34.1171 19.5717C33.8717 17.9541 32.1834 17.9721 30.8807 17.7253C29.6035 17.4835 28.3276 17.2273 27.048 16.9963C26.722 16.7823 26.5892 16.4605 26.5299 16.093C27.6376 13.8828 29.7566 9.77916 30.9526 8.26995ZM21.3066 15.1C21.4382 14.9045 21.5833 14.7184 21.7406 14.543C23.2707 13.5294 25.0811 12.831 27.2196 12.5535C27.0763 12.8312 26.9344 13.1097 26.792 13.3876C25.2242 13.8109 23.7653 14.5656 22.514 15.6007C21.8083 16.0893 20.6838 16.3367 21.3066 15.1ZM15.676 23.9121C15.7936 22.1051 16.9602 20.0935 17.8355 18.6039C18.1703 18.2254 18.7877 17.5113 19.3386 17.931C19.8003 18.4822 19.4597 19.2471 19.2324 19.8683C18.4704 21.2921 18.1085 22.9553 17.4661 24.4663C17.2774 24.9409 16.9508 26.3689 16.1916 25.8632C15.64 25.4958 15.6566 24.4965 15.676 23.9121ZM16.798 30.009C16.7965 30.0272 16.7953 30.0455 16.7939 30.0637C16.7836 30.0532 16.7732 30.0429 16.7626 30.0326C16.7749 30.0256 16.7862 30.0168 16.798 30.009ZM14.2473 30.3079L14.2577 30.3102C14.2536 30.3149 14.2497 30.32 14.2453 30.3248C14.2461 30.3191 14.2468 30.3136 14.2473 30.3079ZM3.79733 46.6049C6.09481 42.6511 14.0356 44.7891 12.5872 49.6505C12.1915 50.6711 11.0833 51.3951 9.97514 51.1547C8.93106 50.9284 8.241 49.6998 8.72199 48.7103C8.99765 48.1429 8.14924 47.6439 7.8721 48.2136C7.18749 49.7919 7.82138 51.7228 9.15215 52.7781C12.0166 54.9189 15.9911 52.9455 17.056 49.7897C17.56 48.6961 17.6614 47.4579 17.6458 46.1937C17.8557 44.7534 17.7792 43.2366 17.6319 41.9994C17.6271 41.9515 17.612 41.9051 17.5876 41.8636C17.5632 41.822 17.5301 41.7863 17.4905 41.7588C17.2951 41.466 16.7093 41.5503 16.6822 42.0068C16.6362 42.7856 16.6584 43.5961 16.6822 44.4124C16.641 45.1531 16.3913 46.8311 15.5463 47.0706C14.3394 46.7785 14.1734 44.4311 14.1166 43.3927C14.3284 40.0577 13.8633 37.2624 14.0138 33.891C14.0448 32.7144 14.1233 30.7715 15.413 30.4635C16.7845 30.1944 16.6542 32.4227 16.6418 33.4185C16.6306 33.8574 16.4584 34.4858 16.9483 34.7234C17.5484 34.951 17.4998 34.1573 17.5448 33.7751C17.7416 33.008 18.0122 31.2827 19.1549 32.2483C19.3316 32.5831 19.4562 32.943 19.5244 33.3154C19.5557 37.1889 19.8686 41.0676 20.2673 44.9074C20.424 46.1709 20.611 47.4996 21.1592 48.6609C21.3302 49.0232 21.8715 48.761 21.785 48.397C20.7654 44.5111 20.5365 40.4822 20.4073 36.4662C20.4901 36.243 20.5971 36.1754 20.7531 36.221C20.8022 36.2677 20.8484 36.3174 20.8914 36.3698C21.9461 41.7466 23.3218 47.2694 27.8134 50.777C30.1347 52.5332 33.2384 53.9857 36.2427 53.6584C36.8814 54.1438 38.0373 54.2965 38.6749 54.1633C40.7346 53.7745 42.7049 51.1458 40.881 49.3756C40.14 48.7081 38.8413 48.5547 38.1182 49.3344C37.897 49.573 38.1112 50.0117 38.45 49.9048C40.4561 49.0988 41.4276 51.105 39.9161 52.4538C37.7917 53.8132 34.8707 51.7232 35.1486 49.3106C35.5206 45.9714 41.1329 44.7722 42.9443 47.5916C43.8085 48.9051 43.7591 50.7122 43.3587 52.1739C41.4966 59.0171 32.0315 60.5521 26.975 56.3474C25.509 55.224 24.409 53.8338 23.4241 52.287C23.1163 51.8034 22.4054 52.225 22.6595 52.7334C22.9563 53.3206 23.3071 53.879 23.7071 54.4013C21.4596 52.9717 18.5285 52.5982 16.259 54.1141C15.3886 54.6605 14.5488 55.2713 13.7146 55.8785C7.26351 59.1183 -0.543162 53.5757 3.79733 46.6049Z" fill="#C1768D"/>
</svg>
