<svg width="65" height="66" viewBox="0 0 65 66" fill="none" xmlns="http://www.w3.org/2000/svg">
<path d="M39.8618 27.8936C36.8588 27.9716 34.5469 30.8339 34.1891 33.4339C34.1381 33.6324 34.2363 33.8252 34.4361 33.8257C34.8663 33.9252 35.3016 32.2105 36.2059 31.9503C36.4304 31.863 36.6712 31.825 36.9117 31.8389C38.857 31.9337 40.7503 30.073 40.1396 28.0992C40.1164 28.0429 40.0782 27.994 40.0293 27.9578C39.9803 27.9215 39.9224 27.8993 39.8618 27.8936ZM36.9442 30.8543C36.7259 30.8501 36.4811 30.8443 36.2361 30.8563C36.9274 29.8341 38.0663 29.3202 39.1784 28.8827C39.4239 30.0527 38.0123 30.9209 36.9442 30.8543Z" fill="#C1768D"/>
<path d="M4.05345 58.6516C3.46845 58.9913 3.95205 59.879 4.55655 59.5616C5.09685 59.2696 5.65153 59.0049 6.21847 58.7686C7.71867 58.1526 9.57312 58.817 10.9431 60.461C11.8774 61.582 13.7631 64.034 13.782 64.0586C13.8306 64.1218 13.8931 64.173 13.9646 64.2083C14.0362 64.2435 14.1149 64.2618 14.1946 64.2618C16.6434 63.9077 8.39155 56.7461 15.0218 53.2694C15.5808 52.8886 15.034 52.0376 14.4534 52.3984C12.8459 53.3566 10.2119 54.4148 8.25778 52.002C7.23845 50.7116 5.41884 48.1367 5.40064 48.111C5.04093 47.5971 4.22245 48.0782 4.51183 48.6454C6.14255 52.2789 9.23889 55.5354 4.05345 58.6516ZM7.71178 52.9609C8.8875 54.2119 10.5761 54.8031 12.0951 54.4344C11.0731 55.8972 11.1015 58.194 12.0366 60.1536C10.7226 58.4157 8.82211 57.3242 6.95778 57.5234C7.99531 56.355 8.26532 54.5857 7.71178 52.9609Z" fill="#C1768D"/>
<path d="M45.2447 10.0607C45.8563 9.63664 45.2413 8.71637 44.6156 9.11924C44.0039 9.54317 44.619 10.4636 45.2447 10.0607Z" fill="#C1768D"/>
<path d="M8.64262 42.1779C8.03162 42.6018 8.64613 43.5222 9.27169 43.1192C9.88334 42.6953 9.26831 41.7749 8.64262 42.1779Z" fill="#C1768D"/>
<path d="M48.0103 59.4843C48.6213 59.0603 48.0067 58.1399 47.3812 58.5428C46.7695 58.9669 47.3847 59.8871 48.0103 59.4843Z" fill="#C1768D"/>
<path d="M60.3304 38.0919C59.7188 38.5159 60.3338 39.4363 60.9595 39.0333C61.5712 38.6093 60.956 37.6889 60.3304 38.0919Z" fill="#C1768D"/>
<path d="M5.82268 6.18198C5.2109 6.60591 5.82606 7.52631 6.45175 7.12344C7.06353 6.69938 6.44837 5.77911 5.82268 6.18198Z" fill="#C1768D"/>
<path d="M20.9595 61.958C21.5705 61.5341 20.956 60.6138 20.3304 61.0167C19.7188 61.4406 20.3338 62.361 20.9595 61.958Z" fill="#C1768D"/>
<path d="M30.5882 51.5075C29.9766 51.9314 30.5916 52.8517 31.2173 52.4488C31.829 52.0249 31.2138 51.1045 30.5882 51.5075Z" fill="#C1768D"/>
<path d="M56.6314 6.94595C57.2424 6.52189 56.628 5.60162 56.0023 6.00449C55.3907 6.42803 56.0057 7.34882 56.6314 6.94595Z" fill="#C1768D"/>
<path d="M58.8454 28.447C61.6002 20.26 56.0262 10.5438 47.3591 9.35299C47.2718 9.34091 47.1829 9.35334 47.1023 9.38891C47.0217 9.42447 46.9526 9.48176 46.9026 9.55436C46.8527 9.62696 46.824 9.71202 46.8197 9.80002C46.8153 9.88802 46.8356 9.97549 46.8781 10.0526C47.0201 10.441 48.0896 10.621 47.6013 11.0835C47.4919 11.1835 47.36 11.2557 47.2167 11.2938C46.4984 11.4979 46.0538 11.6537 44.8099 11.1077C41.3363 9.58283 37.6209 12.5561 37.3234 15.4791C37.2737 15.7993 37.2019 16.2015 37.1203 16.6334C37.1133 16.6703 37.0935 16.7036 37.0644 16.7274C37.0354 16.7513 36.9988 16.7641 36.9612 16.7637C36.9236 16.7634 36.8874 16.7498 36.8588 16.7254C36.8302 16.701 36.8111 16.6673 36.8048 16.6303C36.4305 14.3963 35.9624 12.3153 34.2099 11.3411C34.168 11.3185 34.1333 11.2845 34.1098 11.2431C34.0864 11.2017 34.0751 11.1545 34.0773 11.107C34.0795 11.0595 34.0951 11.0135 34.1222 10.9744C34.1494 10.9353 34.187 10.9047 34.2308 10.8861C34.7954 10.6467 35.306 10.2958 35.7318 9.85438C36.1576 9.41298 36.4899 8.89017 36.7088 8.31728C36.727 8.27057 36.7587 8.23032 36.7998 8.20162C36.8409 8.17291 36.8896 8.15705 36.9397 8.15603C36.9898 8.15501 37.0391 8.16889 37.0813 8.19591C37.1235 8.22292 37.1568 8.26186 37.1768 8.30779C37.4905 9.04 37.9915 9.67668 38.6293 10.1538C39.1787 10.5561 39.7963 9.74689 39.2566 9.32426C38.8866 9.05117 38.5754 8.70641 38.3415 8.31052C38.1076 7.91462 37.9558 7.47569 37.8951 7.01988C37.6863 5.38877 37.454 2.24446 37.4517 2.21287C37.4015 1.58367 36.4664 1.57587 36.4144 2.21287C36.4121 2.24446 36.1796 5.38838 35.971 7.01988C35.5827 10.0416 32.5751 10.4259 30.8653 10.5522C30.1939 10.54 30.1548 11.5414 30.8253 11.5915C32.7051 11.9371 34.1273 11.8184 35.0339 13.8038C34.029 14.991 33.2806 16.3733 32.8359 17.8638C29.0902 6.47765 13.0446 6.59556 7.90409 16.8766C4.28398 23.0668 6.55391 32.396 12.1512 36.6812C14.0797 38.2272 16.8637 38.7962 19.048 37.442C18.083 39.5946 16.7977 41.6247 16.1647 43.9105C14.8808 48.0133 16.8311 52.5799 21.44 52.9822C25.782 52.5485 25.0956 48.448 24.1607 47.4052C23.5417 46.7143 22.7948 46.2911 21.7886 46.2742C20.3456 46.2821 19.7509 47.9046 20.756 48.9421C20.8475 49.0431 20.8978 49.1748 20.897 49.3111C20.8961 49.4473 20.8442 49.5784 20.7515 49.6782C19.8744 50.4308 19.0717 48.1356 19.2086 47.5921C19.4793 44.528 23.5314 44.7073 24.9831 46.7687C25.7327 47.7368 26.2553 49.129 25.9533 50.3784C25.6292 51.7191 25.0389 53.0637 23.3212 53.6717C23.1949 53.7158 23.081 53.7894 22.9889 53.8865C22.8968 53.9835 22.8291 54.1011 22.7916 54.2295C22.7541 54.3579 22.7477 54.4934 22.773 54.6247C22.7984 54.7561 22.8547 54.8795 22.9373 54.9847C25.417 58.1216 29.1529 61.0593 31.9701 62.4904C33.6373 63.2624 35.2804 61.9258 36.6158 61.0458C39.6566 58.977 42.8482 56.3723 44.4947 53.0118C46.4391 53.0785 48.363 52.0888 49.5025 50.5623C49.2589 51.971 48.5365 55.13 48.5308 55.1699C48.3988 55.7601 49.2345 56.0641 49.5058 55.5107C49.5188 55.4827 50.8656 52.6976 51.5516 51.4098C53.2612 48.4349 55.18 48.412 57.6208 49.2274C58.2708 49.4159 58.5755 48.4474 57.9276 48.2338C52.1922 46.2378 54.6059 42.3667 55.439 38.5308C55.5981 37.9183 54.7197 37.6052 54.4598 38.1889C52.7122 41.7482 52.1869 46.2333 46.4712 44.2317C46.3429 44.1824 46.2004 44.1859 46.0746 44.2414C45.9489 44.2969 45.8503 44.3999 45.8003 44.5279C45.544 45.2559 46.626 45.3245 47.6983 45.9333C52.4141 49.5044 44.3154 54.5441 41.3319 50.4703C40.3365 49.208 40.4038 46.9674 42.0469 46.2677C42.7298 45.977 43.6495 46.0207 44.0762 46.7089C44.2623 46.991 44.3356 47.3327 44.2814 47.6663C44.2272 47.9998 44.0495 48.3008 43.7837 48.5095C43.3375 48.8569 43.9211 49.6135 44.3904 49.2959C45.6616 48.4355 45.6046 46.4468 44.3948 45.5407C42.9791 44.4803 40.8945 45.2451 40.0846 46.6921C38.6331 49.3571 40.6792 52.4433 43.5 52.9008C41.5494 56.2856 38.4021 58.7878 35.1261 60.8256C34.3634 61.3032 33.4499 62.0065 32.5108 61.6525C28.0104 58.7501 26.5958 51.7537 29.7471 47.4016C30.0337 48.0883 30.3403 48.9177 31.0932 49.2115C32.4744 49.8648 35.5062 49.8862 36.2098 48.201L36.8807 46.6694C37.1378 45.9169 37.4448 44.7946 38.1175 44.207C38.5433 43.778 38.9773 43.219 39.0716 42.8773L39.9735 39.9393C41.1201 38.5048 43.2495 38.0023 44.9016 38.8232C45.9451 39.3247 46.6258 40.2652 47.2126 41.2282C47.6919 42.0144 48.1166 43.3051 49.2393 43.1019C49.3629 43.0671 49.473 42.9955 49.555 42.8967C49.6369 42.7978 49.6869 42.6764 49.6982 42.5485C49.741 42.472 49.7646 42.3862 49.767 42.2985C49.7694 42.2108 49.7505 42.1239 49.712 42.0451C49.122 40.6533 48.3636 39.3115 47.7092 37.9317C53.1936 39.5756 57.6235 33.0434 58.8454 28.447ZM53.1865 43.4074C52.976 45.1112 53.6007 46.7874 54.8548 47.7204C53.2022 47.8929 51.6257 49.0586 50.6342 50.92C50.6342 50.92 51.3474 47.5199 49.1955 45.7436C50.7573 45.7948 52.2905 44.8716 53.1865 43.4074ZM57.4007 26.0241C56.9018 27.4691 56.0796 28.7812 54.9969 29.8604C55.1413 28.2614 53.6226 26.7368 52.2337 26.0913C51.5015 25.7511 50.3698 25.6419 49.5687 25.7248C50.3877 24.6718 51.685 24.2887 52.5555 24.1495C52.6338 24.1371 52.7066 24.1014 52.7644 24.047C52.8221 23.9926 52.8621 23.922 52.879 23.8445C52.896 23.767 52.8892 23.6862 52.8595 23.6126C52.8298 23.5391 52.7785 23.4762 52.7125 23.4322C52.1785 23.0899 51.5961 22.8298 50.9848 22.6607C52.7658 20.621 55.8702 20.3109 58.0849 21.8253C58.0909 23.2531 57.8597 24.672 57.4007 26.0241ZM10.6757 29.8604C8.54109 27.7828 7.57701 24.7545 7.58741 21.8253C9.80209 20.3109 12.9065 20.621 14.6875 22.6607C14.0762 22.8297 13.4938 23.0897 12.9598 23.432C12.8938 23.476 12.8425 23.5388 12.8128 23.6124C12.7831 23.6859 12.7763 23.7668 12.7933 23.8442C12.8102 23.9217 12.8502 23.9923 12.9079 24.0467C12.9657 24.1011 13.0385 24.1368 13.1168 24.1492C13.9878 24.2884 15.2848 24.6715 16.1036 25.7245C15.3028 25.6416 14.171 25.7505 13.4386 26.091C12.0499 26.7368 10.5313 28.261 10.6757 29.8604ZM16.2949 31.4577C14.8483 32.4548 12.9539 31.6501 11.6363 30.6818C10.9213 27.9858 14.7715 25.4545 16.936 27.1304C17.9977 28.5471 17.4831 30.6387 16.2949 31.4577ZM20.4893 23.8917C19.1693 22.8515 17.5095 22.3395 15.8329 22.4556C13.8422 19.7843 10.2368 19.1647 7.6086 20.9461C7.61146 19.8808 8.1546 18.9131 8.56683 17.9561C9.77583 16.2608 11.9393 14.5201 14.1145 15.3358C14.683 15.7176 15.1758 16.2015 15.5677 16.763C16.4572 18.05 16.794 19.5428 16.9511 21.0744C17.0153 21.7005 17.9805 21.7269 17.9495 21.0744C17.8378 18.2957 16.5455 15.2933 13.8827 14.0921C15.4436 13.6806 17.0813 13.6564 18.6537 14.0217C21.2699 15.8601 23.2202 21.4505 20.4893 23.8913V23.8917ZM33.2683 46.347C31.6494 46.3068 31.1308 45.8198 30.5617 44.3463C30.5662 44.3442 30.5708 44.3426 30.5747 44.3405C31.2648 44.2365 32.2987 43.9895 32.8351 43.435C33.3712 43.989 34.4047 44.2361 35.0955 44.3405C35.1681 44.3739 35.2427 44.4025 35.3189 44.4262C35.1422 45.6014 34.5167 46.364 33.2689 46.3466L33.2683 46.347ZM43.7853 25.3332C43.1801 26.2104 42.7576 27.2005 42.5431 28.2444C42.3286 29.2883 42.3263 30.3647 42.5365 31.4094C42.0289 32.213 41.3939 32.9287 40.6566 33.5284C40.1644 33.9763 39.4572 34.1944 39.0446 34.7081C38.6416 35.1111 38.4779 35.6749 38.3296 36.2206C38.11 37.0275 37.9136 37.8412 37.7076 38.6516C37.3808 39.9668 37.0357 41.2671 36.6936 42.5807C36.4638 42.9559 36.113 43.2415 35.699 43.3905C34.789 43.2951 33.7272 43.1354 33.2256 42.2887C33.2157 42.0038 33.1476 41.6988 33.1307 41.4227C34.5986 40.9855 35.0342 40.4045 35.6493 39.4415C36.0109 38.8752 35.3503 38.1923 34.9111 38.7032C34.3911 39.3082 34.2535 39.6419 33.356 40.0942C31.952 40.5622 29.8706 39.142 30.8882 37.3277C31.5122 36.5942 31.8502 35.9215 31.7311 34.9141C31.6156 33.9382 31.3473 31.5936 29.5481 29.7856C28.6689 28.8724 26.993 27.8567 25.7212 27.8364C25.6274 27.8362 25.5371 27.8728 25.47 27.9385C25.4029 28.0041 25.3643 28.0935 25.3624 28.1874C24.6545 29.8366 26.2349 31.6186 27.8683 31.8014C28.5793 31.9288 29.3778 31.5851 29.8963 32.2261C30.566 33.0543 31.6586 35.3439 30.6316 36.2656C27.9234 38.6966 30.7226 40.9066 32.2462 41.4352C32.2436 41.8103 32.1832 42.1925 32.243 42.5633C31.7418 43.2081 30.7269 43.2957 29.9664 43.3872C29.554 43.2383 29.2048 42.9531 28.9764 42.5788C28.4215 40.4955 27.9104 38.4079 27.3685 36.322C27.2162 35.7452 27.0541 35.1356 26.6275 34.7087C26.2545 34.2261 25.5532 34.0045 25.0897 33.5899C24.2129 32.8299 23.0859 31.9224 23.2463 30.6274C23.4859 28.4808 22.7645 26.1446 21.2409 24.5645C23.9874 21.8747 22.7091 17.5163 20.6847 14.6901C24.5375 16.3251 27.0609 20.368 27.2937 24.5497C27.1031 25.3573 26.2696 25.7587 25.6143 25.9089C25.5215 25.928 25.4398 25.9822 25.3863 26.0603C25.3328 26.1384 25.3116 26.2342 25.3272 26.3275C25.3428 26.4209 25.394 26.5046 25.4701 26.561C25.5461 26.6174 25.641 26.6421 25.7349 26.63C27.7117 26.3302 29.6116 25.2854 31.0167 23.8369C31.2483 23.5926 31.5267 23.3974 31.8354 23.2631C32.144 23.1287 32.4766 23.0579 32.8132 23.0548C33.1499 23.0518 33.4837 23.1166 33.7947 23.2453C34.1057 23.3741 34.3877 23.5642 34.6236 23.8043C36.0666 25.3066 38.0406 26.3819 40.0849 26.6531C40.5061 26.712 40.6569 26.0898 40.2446 25.9576C39.3975 25.679 38.371 25.4809 38.379 24.5495C38.6119 20.3675 41.135 16.3251 44.988 14.6899C42.9638 17.5146 41.6851 21.8758 44.4318 24.5643C44.1985 24.8047 43.9828 25.0616 43.7863 25.3328L43.7853 25.3332ZM29.1473 30.8564C28.9033 30.8446 28.6599 30.8506 28.4429 30.8546C27.372 30.9204 25.968 30.0499 26.2104 28.8837C27.3236 29.3193 28.4585 29.8342 29.1484 30.856L29.1473 30.8564ZM45.1821 23.8917C42.4521 21.4531 44.3995 15.862 47.0184 14.0222C48.5905 13.6571 50.228 13.6813 51.7887 14.0927C49.1271 15.294 47.8349 18.2956 47.7231 21.0746C47.692 21.727 48.6573 21.7006 48.7215 21.0746C48.8784 19.5429 49.2155 18.0499 50.1048 16.7631C53.4703 12.0043 57.702 18.1498 58.0639 20.9457C55.1581 19.2672 51.8303 19.7839 49.8396 22.4552C48.163 22.3392 46.5033 22.8511 45.1833 23.8913L45.1821 23.8917ZM49.6646 26.6737C51.9006 26.1964 54.6188 28.2836 54.0351 30.6823C48.323 34.8416 46.5558 27.2767 49.6658 26.6731L49.6646 26.6737Z" fill="#C1768D"/>
</svg>
