<svg width="65" height="66" viewBox="0 0 65 66" fill="none" xmlns="http://www.w3.org/2000/svg">
<path d="M6.50695 24.6859C6.30922 26.2199 5.76296 29.4511 5.7575 29.4829C5.73618 29.6088 5.76193 29.7381 5.82983 29.8462C5.89773 29.9544 6.00303 30.0337 6.12568 30.0692C6.24833 30.1047 6.37974 30.0938 6.49488 30.0387C6.61003 29.9835 6.70085 29.8879 6.75005 29.7701C7.84114 27.6251 9.08043 21.8321 13.0864 22.2787C13.7322 22.3664 14.3731 22.4867 15.0067 22.6391C15.666 22.7895 15.9183 21.8106 15.2592 21.6301C9.0621 19.8439 11.3749 15.607 12.0457 11.4753C12.1781 10.8629 11.2685 10.5888 11.0494 11.1872C11.0377 11.2186 9.87538 14.3499 9.18235 15.9493C7.85024 18.964 4.78926 18.6053 2.91024 18.0573C2.26414 17.8586 1.9407 18.8169 2.58524 19.0453C3.20232 19.255 3.80845 19.4956 4.40134 19.7662C5.97174 20.4929 6.79867 22.4242 6.50695 24.6859ZM10.018 16.6175C9.83365 18.5039 10.616 20.3213 12.0672 21.2548C10.1011 21.4788 8.27677 23.3136 7.44126 25.5228C7.91446 23.2088 7.35208 20.6837 5.80924 19.444C7.53473 19.4301 9.16688 18.3106 10.018 16.6175Z" fill="#C1768D"/>
<path d="M12.9438 6.43048C12.2438 6.58219 12.4518 7.62648 13.1564 7.49908C13.8563 7.34737 13.6484 6.30269 12.9438 6.43048Z" fill="#C1768D"/>
<path d="M38.4561 23.8219C38.6078 24.5218 39.6521 24.314 39.5248 23.6092C39.3731 22.9093 38.3283 23.1173 38.4561 23.8219Z" fill="#C1768D"/>
<path d="M12.0662 30.3848C12.7661 30.2331 12.5581 29.1888 11.8535 29.3162C11.1541 29.4677 11.3621 30.5126 12.0662 30.3848Z" fill="#C1768D"/>
<path d="M58.9165 24.537C58.2164 24.6887 58.4244 25.733 59.129 25.6057C59.829 25.4535 59.6211 24.4087 58.9165 24.537Z" fill="#C1768D"/>
<path d="M26.5766 52.5338C25.8767 52.6855 26.0845 53.7298 26.7891 53.6024C27.4892 53.4506 27.2812 52.406 26.5766 52.5338Z" fill="#C1768D"/>
<path d="M58.6586 57.2142C57.9586 57.3659 58.1666 58.4102 58.8712 58.2829C59.5712 58.1312 59.3633 57.0864 58.6586 57.2142Z" fill="#C1768D"/>
<path d="M7.81876 58.4256C7.11884 58.5773 7.32671 59.6216 8.03144 59.4942C8.73136 59.3425 8.52336 58.298 7.81876 58.4256Z" fill="#C1768D"/>
<path d="M57.48 35.6118C55.9047 34.9358 54.2971 34.8007 52.148 35.2054C51.511 35.3134 51.7828 36.2812 52.4151 36.1739C53.3849 36.0093 54.3807 35.8899 55.3648 35.9932C57.6827 36.2377 60.6711 38.7526 62.153 40.501C62.441 40.852 62.8865 40.4014 62.7311 40.0548C62.6376 39.849 62.529 39.6504 62.4061 39.4607C62.0207 38.1607 61.2155 36.915 60.4378 35.8304C57.7233 31.5424 54.1373 31.4494 49.5455 32.4688C49.4841 32.3316 49.417 32.197 49.3441 32.065C50.3397 31.4241 51.297 30.1744 51.6772 29.0282L51.6802 29.0239C51.7866 28.9435 51.9082 28.8855 52.0377 28.8535C54.7762 29.3272 54.9497 27.3101 54.7987 25.2029C54.7028 23.6549 54.3756 22.13 53.8279 20.6789C53.9728 19.5265 53.7488 18.3435 53.3675 17.2372C54.2267 18.5557 55.8619 21.2792 55.8787 21.307C55.9444 21.4164 56.0481 21.4979 56.1699 21.5358C56.2918 21.5738 56.4234 21.5656 56.5396 21.5128C57.9384 20.8875 52.6166 13.8524 56.7592 11.0679C57.3068 10.7148 57.8719 10.3894 58.4522 10.0929C59.0502 9.77923 58.606 8.87092 57.9876 9.16251C52.1196 11.8363 51.1171 7.11202 48.9412 3.53936C48.6357 2.98881 47.7805 3.36516 47.9969 3.96836C48.0085 3.99982 49.1626 7.13425 49.6764 8.79981C50.0973 10.1636 49.8002 11.7325 48.9537 12.6147C48.1922 13.4031 47.2855 14.0368 46.2834 14.4811C45.6636 14.7507 46.0412 15.6888 46.679 15.4431C48.0871 14.9025 49.667 14.1609 51.45 15.3034C53.8138 18.7795 53.8225 24.1044 48.4225 23.855C47.0131 23.7631 45.8721 23.1891 45.1504 21.9591C44.5298 20.901 44.1996 19.5512 44.7811 18.4004C45.3578 17.2593 46.8624 16.7185 47.8591 17.6854C48.8792 18.6162 48.6751 20.4951 47.0219 20.2392C46.598 20.1372 46.2999 20.7611 46.7159 20.9649C48.2357 21.7095 49.6187 20.1134 49.3468 18.6295C49.0191 16.6328 46.6087 15.6218 44.977 16.8163C44.4035 15.9878 41.571 12.8171 40.5985 11.734C39.8653 10.8045 44.0392 10.8738 45.8198 11.4863C46.4493 11.6783 46.7602 10.774 46.1422 10.5451C43.8465 9.74777 41.3417 9.56551 39.3218 10.4151C38.05 11.1004 40.332 12.8851 40.8187 13.5325C41.4203 14.2137 42.0223 14.8944 42.6248 15.5748C43.0437 16.0459 44.2399 17.1888 43.9751 17.9798C43.8961 18.1439 43.8305 18.3142 43.7789 18.489C42.5088 17.8709 41.1076 17.4416 39.7757 17.0015C39.7205 16.9805 39.6612 16.9723 39.6023 16.9775C39.5435 16.9827 39.4865 17.001 39.4358 17.0313C39.3434 17.0578 39.2612 17.1116 39.2 17.1856C39.1388 17.2597 39.1014 17.3505 39.0927 17.4462C38.8296 21.3202 41.5618 23.3491 45.6715 23.9072C46.1806 24.2571 46.75 24.5098 47.351 24.6528C47.6053 25.6312 48.1174 26.5234 48.834 27.2364C48.885 28.6034 47.798 29.4502 47.4611 29.7903C46.2391 28.2323 44.3857 27.9864 42.6418 28.0314C42.2459 25.2036 38.7398 25.7384 38.5028 27.8682C36.6656 27.8838 34.8227 27.7902 32.9865 27.888C32.7686 25.7439 29.2425 25.1932 28.8445 28.031C27.0977 27.9861 25.2478 28.2325 24.0253 29.7899C23.6885 29.4498 22.6014 28.603 22.6525 27.236C23.369 26.523 23.8811 25.6308 24.1354 24.6524C24.7364 24.5095 25.3058 24.2567 25.8149 23.9068C29.9239 23.3502 32.6576 21.3198 32.3938 17.4458C32.3851 17.3502 32.3477 17.2593 32.2865 17.1853C32.2253 17.1112 32.1431 17.0574 32.0507 17.0309C31.9999 17.0006 31.943 16.9823 31.8841 16.9771C31.8252 16.972 31.7659 16.9802 31.7107 17.0011C30.3789 17.4412 28.9777 17.8706 27.7076 18.4886C27.656 18.3139 27.5904 18.1436 27.5114 17.9794C27.2465 17.1887 28.4427 16.0457 28.8616 15.5744C29.4656 14.8954 30.0676 14.2147 30.6677 13.5321C31.1552 12.8887 33.4367 11.0895 32.1646 10.4147C26.0046 8.0761 16.9707 13.5759 17.6582 20.6791C17.1105 22.1301 16.7832 23.6551 16.6873 25.2031C16.5354 27.3115 16.712 29.3277 19.4483 28.8536C19.5778 28.8856 19.6995 28.9436 19.8059 29.024L19.8088 29.0283C20.1767 30.1708 21.3316 31.7227 22.4189 32.2003C22.3569 32.3111 22.2946 32.4213 22.2348 32.534C17.5799 31.468 13.8368 31.412 11.0483 35.8303C10.2705 36.9149 9.46544 38.1601 9.07986 39.4606C8.95711 39.6504 8.84848 39.8489 8.75486 40.0547C8.59886 40.4012 9.04502 40.8524 9.3331 40.5008C10.8119 38.7556 13.8022 36.2368 16.1212 35.993C17.1053 35.8897 18.1011 36.0092 19.071 36.1738C19.7033 36.281 19.975 35.3133 19.338 35.2053C16.8387 34.7355 15.0755 34.9944 13.2434 35.9816C13.1987 35.3089 13.3932 34.642 13.7925 34.0987C15.8574 32.5703 18.3695 32.5907 21.7178 33.3599C21.3538 34.4314 20.8411 35.4744 20.5957 36.5839C13.4558 39.1162 8.91983 41.5251 10.6288 49.8829C10.4759 50.2355 10.9772 50.5816 11.1904 50.2094C12.2122 48.332 12.6837 46.0587 14.1024 44.4086C15.5554 42.8107 18.1162 42.5023 20.0023 41.5226C20.4602 41.3054 20.1375 40.5606 19.6589 40.7078C15.7515 42.1348 14.1183 42.5031 12.641 44.9776C12.0456 43.7454 12.7015 42.3531 13.3753 41.23C15.444 39.6161 17.8814 38.4661 20.3624 37.6438C20.3613 38.1963 20.5508 38.7322 20.8989 39.1612C21.1487 39.6341 21.4326 40.0881 21.7484 40.5197C20.6954 41.8264 17.3954 45.2346 16.8771 47.4977C16.468 48.9428 17.0308 50.4003 17.5416 51.7454C18.0245 53.0175 18.6238 54.3677 19.5683 55.3713C19.6698 55.7541 20.2665 55.6785 20.2616 55.2774C20.2327 52.9612 19.2535 50.1438 20.594 48.0391C21.7432 46.2349 23.4229 45.0792 25.06 43.7853C27.8562 45.927 31.4113 46.8452 34.3058 46.9434C34.5468 46.9548 34.7838 46.879 34.9735 46.73C35.1631 46.581 35.2928 46.3686 35.3387 46.1318C35.5155 45.2259 35.6295 44.4502 35.6907 43.9904C35.7789 43.3633 36.7141 43.4253 36.7159 44.0608C36.7093 45.1771 36.5884 46.9347 36.5879 46.9412H36.5964C36.4302 51.1672 34.1493 51.9972 31.0049 52.0837C30.3304 52.0707 30.2838 53.0831 30.9669 53.1237C31.618 53.1536 32.2671 53.2162 32.9119 53.3113C34.6233 53.573 35.9539 55.1982 36.3029 57.4521C36.5392 58.9802 36.9126 62.2361 36.9164 62.2688C36.9309 62.3957 36.9916 62.5127 37.0868 62.5977C37.1821 62.6827 37.3053 62.7297 37.433 62.7297C39.239 62.527 36.3234 52.7227 43.8991 53.1238C44.574 53.0848 44.5436 52.076 43.861 52.0838C40.7233 52.0529 38.366 51.0308 38.2645 46.8898C41.2238 46.6493 44.0538 45.5728 46.425 43.7859C48.0619 45.0798 49.7417 46.2355 50.8909 48.0398C52.2314 50.1445 51.2521 52.9618 51.2234 55.2781C51.2183 55.6791 51.8152 55.7548 51.9167 55.3719C52.8611 54.3683 53.4603 53.0181 53.9434 51.7461C54.4542 50.401 55.0168 48.9434 54.6078 47.4983C53.7746 44.9783 51.7685 42.7162 49.8628 40.9203C49.834 40.7833 49.7917 40.6494 49.7365 40.5207C50.0522 40.0891 50.3361 39.6351 50.5859 39.1622C50.934 38.7332 51.1235 38.1973 51.1224 37.6449C53.7605 38.535 56.3973 39.7502 58.5178 41.5819C58.8762 42.2449 59.1652 43.2247 58.7634 43.9408C58.6504 44.1679 58.5025 44.2528 58.3202 44.1984C56.9552 42.4025 55.2763 41.9694 51.8258 40.7088C51.3472 40.5613 51.0246 41.3068 51.4824 41.5238C53.369 42.5043 55.9284 42.812 57.3824 44.4098C58.8014 46.06 59.2729 48.3333 60.2944 50.2107C60.5062 50.5806 61.0106 50.239 60.856 49.8842C62.5667 41.5181 58.0186 39.1154 50.8893 36.5852C50.67 35.4735 50.066 34.456 49.8502 33.3426C52.8142 32.6682 55.1062 32.5984 57.0132 33.6602C57.2591 33.8779 57.4594 34.1421 57.6026 34.4376C57.7568 34.7768 57.922 35.4701 57.48 35.6118ZM49.4053 13.6485H49.3882C50.6895 12.5157 51.201 10.6038 50.7463 8.76406C51.8334 10.3166 53.6097 11.1883 55.319 10.9534C53.9713 12.4024 53.7797 14.9821 54.5818 17.2042C53.4389 15.1447 51.3781 13.5947 49.4053 13.6485ZM50.0743 25.0518C50.5973 24.7578 51.2012 24.6358 51.7253 24.328C52.4086 23.9274 53.1774 23.2711 53.4873 22.4836C53.7652 23.6536 53.9756 24.8488 53.9362 26.0559C53.9232 26.5144 53.9899 27.6068 53.4691 27.8287C53.0058 28.0259 52.1691 27.8518 51.7071 27.7386C50.8996 27.5496 50.1608 27.1392 49.5736 26.5535C49.445 26.2872 49.4254 25.9813 49.519 25.7008C49.6126 25.4203 49.812 25.1875 50.0747 25.0518H50.0743ZM39.5393 27.6035C39.9709 26.7112 41.8391 26.8161 41.8039 28.4745C41.789 29.1754 41.0021 29.6331 40.3252 29.4127C40.1486 29.354 39.9864 29.2587 39.8491 29.1331C39.7118 29.0075 39.6025 28.8543 39.5283 28.6836C39.4541 28.5129 39.4168 28.3285 39.4187 28.1424C39.4206 27.9563 39.4617 27.7727 39.5393 27.6035ZM31.9473 27.6035C32.0248 27.7727 32.0658 27.9563 32.0677 28.1424C32.0695 28.3284 32.0321 28.5128 31.958 28.6835C31.8838 28.8541 31.7745 29.0073 31.6372 29.1329C31.4999 29.2585 31.3377 29.3537 31.1611 29.4125C30.4844 29.6335 29.6975 29.1751 29.6825 28.4743C29.6474 26.8161 31.5155 26.7112 31.9473 27.6035ZM19.6233 27.7867C17.7921 28.1565 17.5222 27.8276 17.5499 26.0559C17.5067 24.7346 17.762 23.4268 18.0786 22.1517C18.3491 22.7036 18.7343 23.1914 19.2084 23.5826C19.5711 24.0007 19.9574 24.3977 20.3654 24.7716C21.5389 25.8659 20.7355 27.0851 19.6238 27.7871L19.6233 27.7867ZM19.5172 22.7099C18.5335 21.7001 18.3676 20.1749 18.6117 18.8461C19.5347 12.681 26.7479 10.2337 30.7277 11.2343C30.7796 11.2461 30.8275 11.2712 30.8666 11.3072C30.9058 11.3432 30.9349 11.3888 30.9509 11.4395C30.967 11.4902 30.9696 11.5442 30.9583 11.5962C30.9471 11.6482 30.9224 11.6963 30.8868 11.7359C29.913 12.8203 27.0829 15.9885 26.5095 16.8166C24.8773 15.6231 22.4678 16.6324 22.1398 18.6299C21.8678 20.1138 23.2509 21.7098 24.7706 20.9653C25.1866 20.7615 24.8885 20.1376 24.4647 20.2395C22.8102 20.4955 22.6083 18.6145 23.6275 17.6858C24.6241 16.7186 26.1287 17.2594 26.7055 18.4008C27.287 19.5516 26.9567 20.9014 26.3361 21.9594C25.027 24.292 21.3729 24.469 19.5177 22.7099H19.5172ZM19.7028 47.8397C19.4511 48.3024 19.2764 48.8029 19.1855 49.3217C18.4235 48.6269 18.4807 46.9721 18.553 46.0577C19.5602 44.3007 20.9814 42.7617 22.4684 41.419C23.0451 42.0756 23.6757 42.6829 24.3534 43.2346C22.6224 44.6031 20.8233 45.864 19.7033 47.8397H19.7028ZM40.2726 52.4547C40.413 52.5106 40.5523 52.5621 40.6905 52.6093C38.864 53.371 37.6225 55.6404 37.4333 57.9948C37.2445 55.64 36.0025 53.3712 34.176 52.6093C35.8294 52.1163 37.0862 50.5874 37.4333 48.7244C37.7419 50.412 38.8568 51.8897 40.2727 52.4549L40.2726 52.4547ZM45.042 38.656C43.6605 38.5814 41.2658 37.278 42.0603 35.5554C42.5828 34.3174 44.7979 34.048 45.1693 35.5318C45.2663 35.9524 45.1114 36.5049 44.5921 36.511C44.1043 36.5168 44.0877 37.1358 44.4848 37.3031C45.2908 37.6423 46.0161 36.8862 46.1452 36.1314C46.2059 35.7217 46.1518 35.3033 45.989 34.9225C45.8262 34.5417 45.561 34.2135 45.2229 33.9743C42.162 32.1971 39.1434 36.2374 42.2995 38.5875C41.6039 38.4381 40.9175 38.2483 40.2439 38.0193C36.8823 36.8192 33.1789 37.2523 29.9016 38.4223C32.338 36.3514 30.4058 32.883 27.3945 33.6558C26.948 33.8 26.5561 34.0772 26.2716 34.4504C25.9871 34.8236 25.8235 35.2748 25.8027 35.7436C25.7872 36.6082 26.5201 37.7141 27.4967 37.3036C27.8907 37.1376 27.8809 36.5174 27.3895 36.5115C26.8754 36.5054 26.7135 35.9525 26.8124 35.5324C26.8651 35.3197 26.9696 35.1235 27.1168 34.9612C27.2639 34.7989 27.449 34.6757 27.6554 34.6025C28.4504 34.3179 29.4552 34.7128 29.8675 35.443C30.8481 37.1796 28.3362 38.581 26.9395 38.6565C23.8788 38.822 22.2225 35.708 22.963 33.1138C24.128 30.7342 25.6628 28.52 28.9354 28.9585C29.5978 30.816 32.3357 30.7318 32.8938 28.8366C34.793 28.9623 36.7062 28.8626 38.6079 28.8834C39.1988 30.7435 41.8998 30.7909 42.5501 28.9585C46.5193 28.4532 48.156 31.8661 49.1754 34.8224C48.9827 36.8957 47.4451 38.7861 45.0425 38.6561L45.042 38.656ZM51.5721 44.103C52.1252 44.7487 52.6167 45.4448 53.0401 46.1821C53.1731 46.6258 53.21 47.0927 53.1483 47.5518C53.0963 47.8753 52.8233 48.861 52.4017 49.1739C52.3442 49.1529 52.283 49.1434 52.2218 49.1461C51.6794 46.7827 50.0173 45.483 47.1323 43.235C47.8101 42.6833 48.4406 42.076 49.0173 41.4194C49.9512 42.232 50.8067 43.1306 51.5726 44.1033L51.5721 44.103Z" fill="#C1768D"/>
</svg>
