<svg width="65" height="66" viewBox="0 0 65 66" fill="none" xmlns="http://www.w3.org/2000/svg">
<path d="M27.5926 19.9871C27.6517 19.9288 27.6885 19.8517 27.6966 19.7691C27.7327 18.9982 26.4356 19.2621 26.8958 19.9598C27.0533 20.1907 27.4023 20.1603 27.5926 19.9871Z" fill="#C1768D"/>
<path d="M25.6469 31.6913C26.1992 31.9994 26.6698 31.193 26.1323 30.8609C25.5802 30.5527 25.1095 31.3592 25.6469 31.6913Z" fill="#C1768D"/>
<path d="M24.2507 29.8185C24.2051 29.7311 24.1424 29.6539 24.0662 29.5913C23.99 29.5288 23.902 29.4822 23.8074 29.4545C20.5396 28.5694 18.6464 35.452 22.5244 34.5833C23.5594 34.498 24.9201 34.0747 25.444 33.1052C25.6021 32.7572 25.2759 32.3859 24.9131 32.5743C24.5201 32.7785 24.2111 33.0518 23.8547 33.2738C24.3942 32.4252 24.8963 30.6971 24.2507 29.8185ZM22.3773 33.4918C21.508 33.5594 21.385 32.6875 21.5063 32.004C21.606 31.4983 21.8247 31.0237 22.1442 30.6193C22.5168 30.3559 22.9619 30.2147 23.4182 30.215C23.9366 31.2777 23.3559 32.8503 22.3773 33.4918Z" fill="#C1768D"/>
<path d="M5.37994 20.787C8.42792 18.5618 10.487 16.2475 14.1282 20.0413C14.6289 20.4963 15.3296 19.7652 14.8423 19.2852C11.0609 15.294 12.6402 14.157 15.4544 10.718C15.8499 10.2462 15.1991 9.58607 14.7221 9.98582C14.7029 10.0018 12.7868 11.5861 11.7321 12.3431C9.64901 13.8315 7.06942 11.5258 6.15409 10.5971C5.67998 10.1141 4.93911 10.8042 5.39801 11.3113C9.15891 14.9405 6.93409 16.9489 4.65233 20.0594C4.29834 20.5249 4.91064 21.1449 5.37994 20.787ZM8.17065 13.3871C9.41865 14.0439 10.9547 14.0206 12.0889 13.3506C11.4192 14.4839 11.3954 16.0185 12.0509 17.2661L12.0521 17.2685C10.5211 16.677 8.75708 16.9966 7.39494 18.0443C8.44274 16.6822 8.76228 14.9179 8.17065 13.3871Z" fill="#C1768D"/>
<path d="M51.965 16.9563C51.2676 17.5178 50.4683 17.9392 49.6111 18.1974C48.9611 18.3941 49.2175 19.3601 49.8841 19.201C50.4029 19.0652 50.9282 18.9557 51.4581 18.8729C52.8353 18.6649 54.2515 19.6031 55.0639 21.2634C55.6258 22.4119 56.7213 24.8925 56.7323 24.9174C56.7839 25.0341 56.8766 25.1278 56.9928 25.1806C57.109 25.2335 57.2406 25.2417 57.3625 25.2038C57.4843 25.1659 57.588 25.0844 57.6537 24.975C57.7195 24.8656 57.7427 24.7358 57.7189 24.6104C57.7138 24.5836 57.2085 21.9194 57.0196 20.6548C56.7466 18.8267 57.3799 17.251 58.6327 16.6406C59.1159 16.4082 59.6105 16.2003 60.1147 16.0177C60.7484 15.7802 60.4185 14.8239 59.7695 15.0366C58.9165 15.3075 58.0197 15.4139 57.127 15.35C56.1489 15.2736 55.1314 14.4891 54.6526 13.4425C54.0535 12.1326 53.0406 9.56149 53.0299 9.53575C52.7946 8.94997 51.9002 9.21946 52.0396 9.84385C52.046 9.87089 52.6702 12.5629 52.9202 13.9816C53.1199 15.115 52.7272 16.3381 51.965 16.9563ZM54.0101 14.4301C54.7532 15.5839 55.9601 16.353 57.2051 16.3975C56.1946 17.4011 55.7277 19.006 55.9874 20.7849C55.1917 19.1729 53.8965 18.1163 52.4952 17.8629C53.4953 17.12 54.0529 15.8011 54.0101 14.4301Z" fill="#C1768D"/>
<path d="M7.66534 36.6666C8.38034 36.7966 8.59198 35.7352 7.88114 35.5813C7.16549 35.4516 6.95463 36.5127 7.66534 36.6666Z" fill="#C1768D"/>
<path d="M18.8111 7.81015C18.9411 7.0945 17.8798 6.88351 17.7259 7.59435C17.5957 8.31 18.6569 8.52099 18.8111 7.81015Z" fill="#C1768D"/>
<path d="M11.591 56.9736C12.306 57.1036 12.5176 56.0423 11.8069 55.8884C11.0912 55.7587 10.8805 56.8197 11.591 56.9736Z" fill="#C1768D"/>
<path d="M48.6001 56.7396C48.7301 56.0246 47.6687 55.813 47.5149 56.5238C47.3851 57.2395 48.4462 57.4505 48.6001 56.7396Z" fill="#C1768D"/>
<path d="M58.9438 28.8454C59.0738 28.1304 58.0125 27.9187 57.8586 28.6295C57.729 29.3452 58.7901 29.5562 58.9438 28.8454Z" fill="#C1768D"/>
<path d="M43.1673 24.8863C43.0373 25.6021 44.0986 25.8129 44.2525 25.1021C44.3817 24.3864 43.3212 24.1756 43.1673 24.8863Z" fill="#C1768D"/>
<path d="M51.6594 48.36C51.5294 49.075 52.5908 49.2866 52.7446 48.5758C52.8744 47.8601 51.8132 47.6491 51.6594 48.36Z" fill="#C1768D"/>
<path d="M32.2478 37.2349C31.8085 37.3862 31.4158 37.5011 31.0611 37.648C30.4587 37.9099 30.8709 38.8071 31.4613 38.5258C32.273 38.0708 33.062 37.9382 33.8594 37.2989C34.6201 36.8223 35.3241 36.2672 35.8542 35.5309C37.1059 34.1558 35.6738 33.9628 34.6369 33.3883C35.1526 32.8901 35.6028 32.3283 35.9768 31.7165C36.0076 31.6624 36.0256 31.602 36.0297 31.5399C36.0337 31.4778 36.0236 31.4155 36.0002 31.3579C35.9767 31.3002 35.9405 31.2486 35.8942 31.2069C35.848 31.1653 35.7929 31.1347 35.7331 31.1174C34.739 30.8321 33.9493 30.501 32.8813 30.6006C31.8195 30.6569 30.8769 31.1501 29.9521 31.6207C29.6045 31.7897 29.8537 32.313 30.2075 32.2268C31.3379 31.951 32.3592 31.6259 33.4685 31.8382C32.9936 32.6572 32.189 33.1772 31.4419 33.7196C31.0876 34.0056 31.487 34.6036 31.8905 34.4476C32.7947 34.5741 33.5574 34.8941 34.3371 35.3291C33.8637 36.1725 33.131 36.8408 32.2478 37.2349Z" fill="#C1768D"/>
<path d="M12.9324 40.527C11.9964 42.2724 12.9697 43.985 14.1838 45.2918C14.9579 46.1385 15.9022 46.832 16.9003 46.78C16.457 47.8729 17.5503 49.6672 16.2653 50.3701C15.783 50.2974 15.7071 49.6855 15.7053 49.2828C15.69 48.9818 15.2443 48.8777 15.1436 49.1675C15.1002 49.1827 15.0615 49.209 15.0314 49.2437C15.0012 49.2785 14.9807 49.3205 14.9718 49.3656C14.6955 50.6897 15.0271 52.1468 16.3786 52.7258C17.6103 53.2536 19.2256 52.5601 20.1191 51.6699C21.11 50.6819 21.3281 49.268 21.255 47.922C21.4458 48.0867 21.6613 48.2205 21.8937 48.3182C22.2144 48.4518 22.4776 47.9586 22.2296 47.741C19.7567 45.6433 21.6607 42.7538 24.4338 42.4289C24.8249 42.3602 25.2162 42.2911 25.6008 42.1935C27.4811 43.7555 25.1958 46.4223 24.5051 48.0904C23.6423 50.1286 23.8969 52.681 26.1553 53.6369C26.1578 53.64 28.9058 54.7369 30.0431 51.7948C30.6481 50.2844 28.9761 49.0676 27.954 50.6156C27.8921 50.7181 27.7974 50.7968 27.6852 50.8389C27.5731 50.881 27.45 50.8841 27.3359 50.8477C27.2615 50.8223 27.1938 50.7803 27.138 50.725C27.0821 50.6697 27.0395 50.6025 27.0134 50.5283C26.9872 50.4542 26.9781 50.3751 26.9869 50.297C26.9957 50.2188 27.022 50.1437 27.0639 50.0772C27.9072 48.7419 29.1769 48.6392 30.0616 49.1293C30.9876 49.6426 31.6242 50.9095 30.98 52.2463C30.3803 53.491 29.524 54.9209 27.3286 54.8755C27.0445 54.8668 26.7666 54.96 26.5452 55.1384C26.3239 55.3168 26.1737 55.5685 26.1219 55.8481C25.894 57.1243 25.666 58.6836 26.4956 59.982C27.5047 61.7486 29.9935 62.5665 31.8457 61.4968C32.7911 61.0557 33.6779 60.2657 34.2319 59.6556C34.3224 59.5594 34.3795 59.4366 34.3945 59.3053C34.4095 59.1741 34.3818 59.0415 34.3153 58.9273C34.2488 58.8132 34.1472 58.7235 34.0257 58.6718C33.9041 58.6201 33.7691 58.609 33.6407 58.6403C32.9311 58.787 32.097 59.3813 31.5676 58.5951C31.4529 58.3981 31.3791 58.1799 31.3508 57.9537C31.3225 57.7275 31.3402 57.4978 31.4028 57.2786C31.4654 57.0594 31.5716 56.8551 31.7152 56.6779C31.8587 56.5008 32.0366 56.3545 32.238 56.2478C33.1929 55.7753 34.3596 56.0083 35.2921 56.4276C38.1297 58.4196 36.7786 60.4657 35.7553 63.9087C35.5603 64.4972 36.4117 64.8707 36.7078 64.3163C38.8084 60.6123 39.2379 58.0084 44.4986 60.1314C44.6234 60.1876 44.7653 60.1924 44.8935 60.1447C45.0218 60.0969 45.126 60.0006 45.1837 59.8765C45.2414 59.7524 45.2478 59.6106 45.2016 59.4818C45.1555 59.353 45.0604 59.2476 44.937 59.1884C44.1867 58.8176 42.9198 58.2859 42.22 57.3254C40.8971 55.7599 41.4514 52.6351 42.8154 51.3212C43.0942 51.0526 43.4222 51.413 43.2347 51.7406C42.7006 52.7199 42.3996 53.8092 42.3554 54.9239C42.3513 55.0162 42.3764 55.1075 42.4271 55.1848C42.4778 55.2621 42.5515 55.3214 42.6379 55.3544C42.7243 55.3874 42.8188 55.3923 42.9081 55.3685C42.9974 55.3447 43.077 55.2933 43.1354 55.2217C46.6236 50.7729 48.0172 44.5409 46.774 38.9969C46.7666 38.8685 46.7214 38.7452 46.644 38.6424C46.5971 38.5254 46.5477 38.4084 46.4927 38.2945C46.2553 37.8022 45.5697 38.1561 45.6535 38.6305C45.5943 38.7304 45.5662 38.8458 45.5729 38.9618C46.0073 43.1438 43.345 47.7645 38.7505 47.6683C35.5605 47.6276 32.2024 45.8839 30.7705 42.9582C30.2702 41.9066 30.2295 40.8373 29.9922 39.724C29.9222 39.3962 29.5481 39.2636 29.3298 39.2411C28.9812 39.2049 28.6497 39.4976 28.3785 39.7031C27.4754 40.4681 26.0905 41.0811 25.0565 41.3189C17.323 42.1345 18.2883 49.1807 14.2262 43.8503C15.1446 43.8496 15.7709 42.2485 15.7504 41.4815C15.7596 40.6603 15.3026 39.5719 14.3543 39.5773C14.9802 38.2209 15.3462 36.7592 15.4333 35.268C17.0542 26.7881 20.8352 24.04 29.1873 23.2095C31.3613 23.3735 33.5813 24.1127 35.7718 23.8545C35.5091 26.5133 32.6929 28.54 30.1326 27.4468C29.2755 27.111 28.7648 26.506 28.1719 25.8422C28.1365 25.8018 28.0896 25.7732 28.0375 25.7603C27.5045 25.3272 27.3121 26.1193 27.4295 26.5494C28.0211 28.9544 30.8788 29.8655 33.0247 29.0534C34.0337 28.659 35.15 28.636 36.1744 28.9884C39.656 30.1432 40.6854 34.5286 44.2344 35.5613C46.1568 36.106 48.4822 35.0941 48.7657 32.9613C49.02 31.0503 47.2082 29.2511 45.292 30.0666C43.7489 30.7232 44.0224 33.1476 45.7627 33.2496C46.2358 33.2773 46.357 32.4813 45.8765 32.4097C45.1734 32.3049 44.8436 31.437 45.4995 30.9917C46.385 30.3903 47.5634 31.2517 47.7472 32.1439C47.9953 33.349 47.0803 34.3821 45.9463 34.6318C41.3951 35.2189 40.0531 27.798 34.9743 27.8383C36.2768 26.6338 37.0734 24.9105 37.5627 23.1833C37.6515 22.87 37.3321 22.4875 36.996 22.6167C34.4495 23.5957 31.874 22.3536 29.3055 22.3928C29.338 21.7116 29.7294 21.0771 30.4504 21.0455C33.4832 20.8879 36.7146 21.014 39.0317 18.7403C44.3465 18.2578 46.6588 12.8071 45.6195 8.04549C45.1179 5.56678 43.7225 3.47521 42.1232 1.56681C41.7873 1.16602 41.2782 1.61634 41.3399 2.02285C41.6816 4.26678 41.6877 6.67074 40.7337 8.74593C40.0652 6.83883 38.9212 5.18003 37.6158 3.62237C37.2798 3.22145 36.7708 3.67177 36.8324 4.07828C37.251 6.82726 37.1396 9.85028 35.4341 12.1253C35.0691 12.4326 34.6591 12.6819 34.2183 12.8645C30.3983 12.947 27.3584 12.888 24.0925 15.2912C18.245 16.6182 13.9161 22.1487 17.2511 27.9056C15.7808 30.0746 14.9943 32.7209 14.784 35.3101C14.4713 37.1576 13.7228 38.8344 12.9324 40.527ZM40.7507 53.5508C40.2494 55.2848 40.5947 57.137 41.7066 58.3478C41.0051 58.2846 40.299 58.3987 39.653 58.6796C39.0071 58.9605 38.4422 59.3992 38.01 59.9554C38.1143 59.2588 38.0418 58.5472 37.7991 57.886C37.5564 57.2248 37.1514 56.6352 36.6213 56.1715C38.2647 56.14 39.8427 55.1104 40.7507 53.5508ZM42.4359 3.46845C43.3282 4.68486 44.0755 5.99227 44.5046 7.44645C44.4489 7.48706 44.4014 7.53783 44.3646 7.59608C44.0235 7.42572 43.6502 7.32954 43.2693 7.31385C42.8884 7.29817 42.5085 7.36334 42.1546 7.50508C42.4573 6.1823 42.5522 4.82044 42.4359 3.46845ZM38.9239 12.2812C40.038 11.5417 41.2591 12.1985 41.811 13.3668C42.019 13.756 42.624 13.4532 42.4895 13.0808C42.0454 11.8506 41.1996 11.4724 40.1775 11.2321C40.774 10.6065 41.2583 9.88291 41.6092 9.09303C42.0848 7.98166 43.6258 7.68318 44.4397 8.60189C45.5653 13.0112 41.6638 16.503 37.5591 17.0477C37.6226 16.3917 37.5429 15.7297 37.3253 15.1075C37.1077 14.4854 36.7574 13.9179 36.2989 13.4445C37.2319 13.2036 38.1188 12.8106 38.9239 12.2812ZM34.5994 13.7434C36.3744 13.5484 36.9634 15.7974 36.7393 17.1524C35.0704 17.3068 33.3593 17.1757 31.7498 17.6082C31.6524 16.0812 30.8845 14.6798 29.5173 13.9712C31.2025 13.76 32.9086 13.9094 34.5994 13.7434ZM26.1855 18.364C25.3205 17.6474 23.9089 17.7505 22.8445 18.1525C22.6983 18.0565 22.7413 17.8468 22.848 17.6222C24.4334 15.5253 26.4932 14.7778 27.4436 14.4519C29.3803 13.89 30.9681 16.076 30.879 17.907C27.3747 19.4906 28.5871 21.6821 27.4877 22.5708C25.9038 22.8178 23.4831 23.1875 22.5683 21.6038C22.2711 20.5271 22.5588 19.2549 23.5969 18.7048C24.3552 18.5541 25.1412 18.6336 25.8539 18.9333C26.1693 19.0621 26.4351 18.5773 26.1855 18.364Z" fill="#C1768D"/>
</svg>
