<svg width="65" height="66" viewBox="0 0 65 66" fill="none" xmlns="http://www.w3.org/2000/svg">
<path d="M1.64122 13.4821C2.27841 13.3453 2.92207 13.2405 3.56977 13.1683C5.29136 12.9854 6.99241 14.2183 7.90345 16.309C8.52108 17.7266 9.71136 20.78 9.72345 20.8107C9.93704 21.3731 10.8154 21.1521 10.7225 20.5476C10.7178 20.515 10.2498 17.2716 10.0893 15.7334C9.83148 12.0804 11.5026 10.9289 14.1471 10.1891C14.789 9.98199 14.5045 9.00608 13.8456 9.19367C11.9198 9.69833 8.89522 9.97848 7.62577 6.93505C6.97161 5.31941 5.8852 2.16041 5.8748 2.12869C5.67395 1.53472 4.7529 1.76729 4.87185 2.39285C5.4588 6.59705 7.6298 10.8296 1.4132 12.4673C0.753579 12.6257 0.973799 13.6182 1.64122 13.4821ZM6.77401 7.58232C7.5843 9.29585 9.18863 10.4541 10.9133 10.51C9.34099 11.7116 8.71764 14.2228 9.13494 16.5478C8.35273 14.319 6.57394 12.4405 4.6138 12.1688C6.08683 11.2711 6.91285 9.47239 6.77401 7.58232Z" fill="#C1768D"/>
<path d="M17.6284 25.4947C16.8767 25.576 12.7638 27.8026 13.1641 28.6455C13.7463 30.4952 16.587 30.0868 16.9614 28.2295C17.0751 27.7095 16.827 27.0607 17.2946 26.6733C17.5271 26.5655 17.7571 26.4531 17.979 26.3269C18.4365 26.0662 18.1237 25.3789 17.6284 25.4947ZM15.3526 28.7692C14.8654 28.9869 14.4337 28.7853 14.0829 28.4715C14.7221 28.0838 15.3199 27.6159 15.9875 27.2786C15.9589 27.8792 16.0161 28.4728 15.3526 28.7692Z" fill="#C1768D"/>
<path d="M30.4365 35.5182C29.704 35.6768 29.9217 36.7699 30.6589 36.6362C31.3913 36.4776 31.1741 35.3844 30.4365 35.5182Z" fill="#C1768D"/>
<path d="M53.2828 54.6189C53.9588 54.5831 53.9263 53.5659 53.2447 53.5789C52.1486 53.5888 51.0609 53.387 50.0414 52.9846C48.9059 52.5314 47.9862 51.2261 47.8054 49.8104C47.5844 48.0814 47.3373 44.7505 47.3355 44.717C47.2835 44.0841 46.3503 44.0823 46.2983 44.717C46.2964 44.743 46.154 46.6694 45.9886 48.3524C42.953 45.9221 41.4745 42.1794 39.875 38.7584L39.8761 38.7602C39.8761 38.7602 38.1952 33.7457 40.3422 33.766C43.2369 33.7932 46.1376 41.0653 48.9336 43.0409C49.2976 43.2981 49.749 42.8647 49.4263 42.5482C46.2793 39.3434 45.873 34.4779 43.7308 30.6887L43.7319 30.6897C43.7319 30.6897 41.8079 26.8953 43.2387 25.9616C45.1979 24.6828 46.8051 27.3578 47.5126 28.4339C47.7353 28.7727 48.4876 28.4449 48.174 27.8479C46.4218 24.1257 44.0855 21.1103 41.378 18.9738C40.6104 18.3604 38.7492 16.7549 39.8363 14.4725C40.9122 12.3675 43.2234 13.5656 43.4784 13.7061C44.911 14.5138 46.2659 15.4522 47.5257 16.5093C48.0067 16.9113 48.7031 16.222 48.2188 15.8163C45.9387 13.8879 43.3532 12.353 40.5685 11.2746C40.3861 11.2051 40.2208 11.097 40.0841 10.9577C39.9473 10.8183 39.8423 10.6511 39.7762 10.4674C39.7101 10.2837 39.6845 10.0879 39.7011 9.8934C39.7177 9.69889 39.7762 9.51027 39.8725 9.34046C40.5215 8.18827 40.7287 7.40411 41.0736 5.99413C41.2518 5.39951 40.5616 4.8539 40.0363 5.18696C33.7854 9.16496 25.5464 5.18514 19.6476 10.2109C17.4477 12.2983 16.5329 15.2661 15.5187 18.0339C15.0637 19.2058 14.4454 20.3026 13.9654 21.4572C7.52082 27.6923 13.4008 27.045 8.97253 31.356C7.11769 32.0437 7.65563 34.307 9.04156 35.241C9.90489 36.1732 9.27114 40.129 9.66556 41.6639C10.3924 44.4967 12.4417 44.8176 13.3836 45.4265C13.4704 45.4867 13.5747 45.5166 13.6802 45.5116C13.7858 45.5066 13.8867 45.467 13.9675 45.399C14.0516 45.3227 14.1045 45.218 14.1161 45.1051C14.1277 44.9921 14.0971 44.8789 14.0302 44.7872C13.7118 44.3435 13.5169 43.6182 13.8332 43.2499C14.2176 42.8022 14.7982 42.9213 15.2786 43.1961C16.4798 43.8387 17.0765 46.4981 17.0596 47.8723C17.0395 49.4397 16.6306 51.0165 16.7814 52.5817C17.3144 59.2217 27.2562 60.012 26.7698 53.0874C26.6794 52.5681 26.4813 52.0736 26.1883 51.6354C25.1567 49.8317 21.2578 50.3028 21.466 52.4381C21.5388 53.1229 22.1063 53.769 23.2092 53.671C23.2775 53.6644 23.3463 53.6715 23.4119 53.6916C23.4774 53.7118 23.5383 53.7447 23.5911 53.7885C23.6438 53.8323 23.6874 53.8861 23.7193 53.9468C23.7511 54.0076 23.7707 54.074 23.7768 54.1423C23.7829 54.2106 23.7755 54.2794 23.7549 54.3448C23.7343 54.4102 23.7009 54.4709 23.6568 54.5233C23.6127 54.5758 23.5586 54.619 23.4977 54.6505C23.4368 54.682 23.3702 54.7011 23.3019 54.7068C19.5189 54.8839 19.3785 49.9228 23.3204 49.5184C27.8905 49.1433 28.4615 53.6264 27.3673 56.1267C27.2657 56.3626 27.2479 56.6262 27.3169 56.8736C27.3858 57.121 27.5374 57.3374 27.7463 57.4867C29.9935 59.0518 32.8119 59.1435 35.2622 58.0802C36.0306 57.7301 43.7642 53.6148 45.366 57.679C45.509 58.0728 46.2975 63.7306 46.3014 63.763C46.357 64.361 47.2752 64.3701 47.3345 63.763C47.309 63.1469 48.0461 53.7141 53.2828 54.6189ZM21.5323 15.9889C23.7322 11.8809 29.0211 10.6125 33.8476 10.8669C35.3858 10.9644 38.1406 11.4361 37.7558 14.0259C37.446 16.108 35.5978 15.9369 34.3423 15.6357H34.3432C31.5621 15.079 28.6242 15.3078 25.6739 16.4407V16.4398C24.7249 16.7003 23.8012 17.0457 22.914 17.4716C22.71 17.5709 22.4795 17.6021 22.2565 17.5606C22.0334 17.5191 21.8296 17.4072 21.6749 17.2412C21.5202 17.0752 21.4229 16.864 21.3972 16.6385C21.3716 16.4131 21.4189 16.1854 21.5323 15.9889ZM21.3166 20.6978C21.7515 20.1294 23.0029 18.6546 24.7764 17.9075C28.0516 16.7601 31.6835 16.2606 35.0166 17.1605C40.8438 18.7335 43.8088 22.7808 41.1579 24.3813C39.3356 25.4816 34.7068 21.6097 28.9018 21.7803C26.214 21.8592 23.5043 22.3814 21.1148 23.605C21.4741 22.7286 21.806 21.5751 21.3166 20.6978ZM41.364 53.5315C37.4817 52.8361 36.9795 47.8407 31.7942 46.2183C31.0099 45.9453 30.0377 45.4983 29.4599 44.836C27.4887 42.556 25.8511 39.4846 24.3674 37.0792C24.088 36.5396 23.8497 35.9797 23.6545 35.4043C23.0825 33.7143 24.6913 32.0877 26.389 32.6275C27.0772 33.1411 27.6455 33.8052 28.313 34.3372C28.643 34.5988 29.2399 34.2592 28.9535 33.8432C27.3818 31.6982 24.0571 29.5549 21.4313 29.0919C20.9962 29.0321 20.6166 29.642 21.0994 29.879C21.4815 30.0572 21.8733 30.2139 22.2728 30.3485C22.6108 31.5668 22.2035 32.2086 21.1278 32.7893C21.0611 32.7146 20.9958 32.6384 20.9278 32.5647C20.5386 32.1421 19.9692 32.7532 20.3103 33.1823C21.4304 34.5917 22.5577 36.0404 23.5384 37.5494C25.2674 40.2152 26.3742 43.1453 27.9194 45.9322C24.623 45.791 22.1444 43.2246 20.9135 40.3308C20.6951 39.7001 20.5087 39.0579 20.3545 38.4096C20.0368 37.0745 19.284 35.3817 18.8595 34.4821L19.3078 33.7834C19.3348 33.741 19.3477 33.6911 19.3445 33.6408C19.3412 33.5906 19.3221 33.5427 19.2898 33.5041C19.2576 33.4655 19.2138 33.4381 19.165 33.426C19.1162 33.4139 19.0647 33.4177 19.0181 33.4367C17.0623 34.2158 16.0747 35.5446 16.0747 35.5446C15.9187 34.9043 15.609 34.3031 15.123 33.9033C14.746 33.5931 14.055 34.0016 14.3868 34.4713C14.9354 35.2478 15.3155 35.9621 15.1538 36.9515C15.0949 37.3113 14.9481 37.9315 14.6249 38.1564C14.2197 38.4384 13.3379 38.2084 12.9089 38.107C11.9766 37.8886 10.4808 37.3812 10.3022 36.3166C10.2612 36.0726 10.2256 35.8113 10.1646 35.566C11.1598 35.5022 11.4836 34.5087 11.4714 34.0875C11.456 33.5618 10.9698 32.9565 10.2915 32.8043C10.2191 32.786 10.1426 32.7919 10.0739 32.821C10.0051 32.8501 9.94765 32.9009 9.91036 32.9656C9.87308 33.0304 9.85796 33.1055 9.86729 33.1796C9.87663 33.2538 9.90991 33.3228 9.96209 33.3763C9.98068 33.3972 10.8812 33.9955 10.1872 34.4877C9.547 34.9794 8.30225 33.3616 9.0894 32.3902C9.90346 32.1096 10.4592 31.2734 10.9354 30.5962C12.0563 29.0863 11.7771 28.0512 11.6833 26.3305C11.6809 25.7036 11.8801 25.0925 12.2515 24.5874C14.1828 21.8294 14.8446 21.7473 17.5425 20.0289C17.3122 20.5207 17.1132 21.0266 16.9466 21.5434C16.8166 22.0916 17.5898 22.2454 17.7656 21.7233C18.3333 21.1227 19.2363 20.9314 20.0253 20.9149C20.9698 20.9244 20.7031 22.0834 20.5206 22.6886C20.3032 23.3707 19.9232 23.9897 19.4133 24.4922C19.1068 24.8079 19.4124 25.4823 19.879 25.2918C20.1748 25.155 20.5004 25.0478 20.7029 24.7791C25.4509 22.3351 31.0743 22.1204 35.9657 24.4671C37.8237 25.3585 40.9069 28.3115 38.5373 29.8467C36.7088 31.0312 32.891 28.5938 31.1383 27.4479C28.1828 25.5154 24.2077 25.5456 20.8359 26.2724C20.2213 26.4049 20.4805 27.3601 21.0959 27.2175C21.3993 27.1473 21.7074 27.0843 22.0204 27.0285C22.0074 27.4211 22.1953 27.8619 22.3087 28.2033C22.476 28.7073 23.2481 28.5038 23.1098 27.9823C23.0769 27.8583 23.0082 27.6767 22.9562 27.4909C22.9362 27.4179 22.9323 27.3414 22.9449 27.2668C22.9576 27.1921 22.9864 27.1212 23.0293 27.0588C23.0723 26.9965 23.1283 26.9443 23.1936 26.9059C23.2589 26.8675 23.3317 26.8439 23.4071 26.8366C25.8757 26.5952 28.4668 26.8846 30.5894 28.1131C32.4549 29.1928 33.9351 30.8287 35.1634 32.5769C36.2997 34.3812 40.4934 39.6749 37.2376 40.8106C35.5523 41.311 32.9166 38.0916 32.6763 37.8552C32.4293 37.6121 31.9921 37.9276 32.1866 38.2331C32.9239 39.3909 33.7291 40.4812 34.3935 41.6881C35.6055 43.903 36.5532 46.259 37.8515 48.4276C37.9102 48.5222 38.0039 48.5899 38.1122 48.6158C38.2205 48.6417 38.3346 48.6239 38.4298 48.5661C38.525 48.5083 38.5936 48.4152 38.6205 48.3072C38.6475 48.1991 38.6307 48.0848 38.5738 47.9891C38.3388 47.5941 38.1151 47.1918 37.8984 46.7854C37.3632 43.7591 38.6179 41.1495 41.6839 44.188V44.1868C42.5172 45.8755 43.5808 47.4404 44.8445 48.8365C46.1853 50.2912 45.2159 52.3285 43.5924 52.9843C42.8775 53.2657 42.128 53.4498 41.364 53.5315ZM46.9189 58.7875C46.8869 58.9955 46.8525 59.2333 46.8166 59.4907C46.6279 57.1359 45.3866 54.8671 43.5594 54.105C45.2128 53.6121 46.4695 52.0832 46.8166 50.2204C47.1247 51.9077 48.2397 53.3852 49.6559 53.9505C49.7963 54.0065 49.9356 54.058 50.0739 54.105C48.4554 54.8328 47.2636 56.5583 46.9189 58.7875Z" fill="#C1768D"/>
<path d="M4.92039 27.1299C4.22034 27.2817 4.42834 28.3259 5.13294 28.1987C5.83286 28.0471 5.62499 27.0022 4.92039 27.1299Z" fill="#C1768D"/>
<path d="M8.20554 55.7149C7.50549 55.8665 7.71349 56.9109 8.41809 56.7835C9.11801 56.6318 8.91014 55.5871 8.20554 55.7149Z" fill="#C1768D"/>
<path d="M57.1196 53.6011C56.4196 53.7528 56.6276 54.7971 57.3322 54.6697C58.0321 54.5182 57.8242 53.4733 57.1196 53.6011Z" fill="#C1768D"/>
<path d="M62.3123 19.927C63.0123 19.7754 62.8044 18.731 62.0998 18.8584C61.4001 19.01 61.6081 20.0549 62.3123 19.927Z" fill="#C1768D"/>
<path d="M49.3049 31.0913C50.0048 30.9396 49.7968 29.8953 49.0922 30.0227C48.3923 30.1743 48.6001 31.2191 49.3049 31.0913Z" fill="#C1768D"/>
<path d="M15.094 5.67969C15.7939 5.52798 15.586 4.48369 14.8814 4.61109C14.1812 4.7628 14.3892 5.80748 15.094 5.67969Z" fill="#C1768D"/>
<path d="M45.3071 7.14728C44.6071 7.29899 44.8151 8.34328 45.5197 8.21588C46.2196 8.06417 46.0117 7.01949 45.3071 7.14728Z" fill="#C1768D"/>
<path d="M59.258 9.30567C59.9581 9.15396 59.7501 8.10967 59.0455 8.23707C58.3456 8.38865 58.5529 9.43346 59.258 9.30567Z" fill="#C1768D"/>
<path d="M24.91 62.7109C25.6099 62.5592 25.402 61.5149 24.6974 61.6423C23.9978 61.7939 24.2058 62.8387 24.91 62.7109Z" fill="#C1768D"/>
<path d="M56.978 35.86C55.147 37.8351 57.371 40.0048 57.4617 40.1008C59.1502 41.8873 62.3133 41.1323 63.2196 39.2968C66.3225 33.0121 59.1506 30.5566 56.2056 26.6218C55.1403 25.1984 53.7918 23.8563 53.7294 22.0458C54.8759 20.0383 56.6447 20.0216 58.3 19.9328C58.9769 19.8956 58.944 18.8777 58.2619 18.8928C57.1658 18.9028 56.0782 18.701 55.0587 18.2984C53.9231 17.8451 53.0035 16.5399 52.8227 15.1242C52.6017 13.3952 52.3547 10.0642 52.3529 10.0308C52.3017 9.4025 51.3688 9.3921 51.3157 10.0308C51.3133 10.0642 51.067 13.3956 50.8458 15.1242C50.6647 16.5399 49.7451 17.8451 48.6098 18.2983C47.5903 18.7008 46.5026 18.9026 45.4066 18.8926C45.2687 18.8876 45.1344 18.9375 45.0333 19.0315C44.9322 19.1254 44.8726 19.2557 44.8675 19.3936C44.8625 19.5315 44.9124 19.6658 45.0064 19.7669C45.1003 19.8679 45.2306 19.9276 45.3685 19.9326C46.0196 19.9625 46.6688 20.0251 47.3136 20.1202C49.025 20.3819 50.3556 22.0072 50.7043 24.261C50.9407 25.789 51.3142 29.045 51.3179 29.0776C51.3803 29.6756 52.2874 29.6855 52.3511 29.0776C52.3659 28.9449 52.6631 26.2197 52.9361 24.4967C53.2167 25.2708 53.6648 25.9902 53.9987 26.739C54.5295 27.8908 54.8513 29.1277 54.9492 30.392C55.0922 32.683 54.3737 36.7787 52.006 35.0835C51.5661 34.7686 51.2383 34.142 50.9744 33.3076C50.962 33.2574 50.9396 33.2102 50.9086 33.1688C50.8775 33.1275 50.8385 33.0929 50.7937 33.067C50.749 33.0412 50.6994 33.0246 50.6481 33.0184C50.5968 33.0121 50.5448 33.0163 50.4951 33.0307C50.4454 33.045 50.3992 33.0693 50.3592 33.1019C50.3191 33.1346 50.2861 33.175 50.262 33.2208C50.238 33.2666 50.2234 33.3167 50.2192 33.3682C50.215 33.4197 50.2213 33.4716 50.2376 33.5206C52.2417 40.3835 58.8483 41.2008 57.1967 47.6956C56.6048 49.6268 54.5731 50.8076 52.6114 50.2046C50.8522 49.664 49.2174 47.3147 50.716 45.6625C51.3696 44.9422 52.6166 44.7661 53.5127 45.0792C54.5963 45.4576 54.4149 46.4746 53.9754 47.2666C53.9306 47.3483 53.9136 47.4424 53.9268 47.5346C53.94 47.6269 53.9827 47.7124 54.0486 47.7783C54.1145 47.8442 54.2 47.887 54.2923 47.9002C54.3846 47.9134 54.4787 47.8963 54.5604 47.8516C55.4003 47.3628 55.5224 46.1607 55.1683 45.3281C54.7141 44.261 53.5512 43.9187 52.4727 43.9443C50.3631 43.9942 48.8234 45.7084 49.1967 47.8313C50.2612 52.5066 56.8301 52.5066 58.1585 47.9597C58.4705 46.9287 59.3084 43.6713 56.7168 40.8236C55.6562 39.7873 54.2188 37.306 56.2167 35.1508C56.5834 34.7538 57.0753 34.4948 57.6101 34.4171C58.145 34.3394 58.6903 34.4478 59.1547 34.724C60.0953 35.2734 60.4832 36.3158 60.1427 37.3797C59.9203 38.0289 58.9558 37.7156 59.1521 37.0627C59.5858 35.5722 57.7702 34.9559 56.978 35.86ZM51.9362 24.1028C51.9041 24.3108 51.8695 24.5485 51.8339 24.8061C51.6452 22.4511 50.4039 20.1824 48.5766 19.4202C50.2301 18.9273 51.4868 17.3984 51.8339 15.5356C52.142 17.2229 53.2569 18.7005 54.6732 19.2656C54.8136 19.3216 54.953 19.3731 55.0912 19.42C53.4723 20.1483 52.2806 21.8738 51.936 24.103L51.9362 24.1028Z" fill="#C1768D"/>
</svg>
