<svg width="65" height="66" viewBox="0 0 65 66" fill="none" xmlns="http://www.w3.org/2000/svg">
<path d="M3.54603 32.261C4.08956 33.3346 5.7468 30.906 8.06795 32.009C8.05586 32.1142 5.31273 38.2423 5.30948 38.3465C5.46808 49.3378 21.4078 49.4875 21.8065 38.4838C21.8438 38.2156 14.3605 21.4538 14.3126 21.2093C22.4456 22.2593 24.5436 15.3667 31.8756 16.9397C31.8927 16.9645 31.9119 16.9875 31.9276 17.0133C30.5834 19.1242 30.946 22.6 31.3179 24.6132C32.5628 33.645 32.2346 48.6502 32.3084 52.7712C31.6837 53.0143 31.1322 53.4141 30.7068 53.9321C29.2866 55.6371 27.5228 55.6706 25.4331 55.6114C24.7448 55.6093 24.0783 55.853 23.5538 56.2987C23.0293 56.7444 22.6812 57.3628 22.5723 58.0424L22.3785 59.2269C22.3669 59.3012 22.3715 59.3771 22.3919 59.4495C22.4124 59.5219 22.4481 59.589 22.4968 59.6463C22.5455 59.7036 22.606 59.7498 22.6742 59.7816C22.7423 59.8134 22.8165 59.8302 22.8917 59.8307H41.4648C42.14 59.8207 42.1553 58.8037 41.4648 58.7907H23.5039L23.5988 58.2103C23.6687 57.7745 23.8919 57.3779 24.2283 57.0921C24.5646 56.8063 24.992 56.6501 25.4334 56.6514C27.3997 56.7034 29.1368 56.6751 30.702 55.3881C30.5958 57.0035 32.0455 58.4249 33.6674 58.1944C34.9572 58.0254 36.1347 56.7192 35.5159 55.3981C35.006 54.3098 33.3782 54.1265 32.8465 55.3071C32.5895 55.8773 33.4329 56.3765 33.6928 55.8011C34.0709 54.9647 34.9683 55.8752 34.553 56.5952C34.1421 57.3076 33.1009 57.3882 32.4446 57.0024C31.2817 56.2837 31.3794 54.7404 32.3383 53.9031C32.9258 53.5811 33.6072 53.4737 34.2653 53.5994C34.9234 53.7252 35.5172 54.0762 35.9446 54.5921C36.4673 55.2169 37.1171 55.7232 37.8507 56.0772C38.5844 56.4312 39.3851 56.6248 40.1994 56.6451C44.6454 56.7668 44.1033 60.8685 44.4797 63.6131C44.5274 64.2042 45.4186 64.244 45.5104 63.6496C46.1581 60.31 45.9055 56.6834 50.8043 56.9917C51.4803 56.9803 51.4912 55.9683 50.8073 55.9517C45.5735 55.7281 46.3034 52.8817 46.0255 49.1602C45.9909 48.5353 45.073 48.4972 44.9898 49.1237C44.4007 52.8817 45.0607 55.6541 39.7401 55.5602C37.0215 55.1806 37.1029 53.6072 35.2096 52.7955C35.2831 48.7114 34.9536 33.6496 36.1997 24.6135C36.5724 22.596 36.9359 19.1095 35.5819 17.0001C43.0515 15.2211 45.1458 22.0911 53.1031 21.2452C53.0672 21.3752 45.6281 38.2752 45.6329 38.4062C45.9134 49.4188 61.8569 49.4158 62.1353 38.4062C62.1271 38.2434 55.8579 24.0282 55.813 23.8749C55.5298 23.2546 54.5969 23.6591 54.86 24.2909L60.8287 37.9637H46.9393L54.3166 21.0637C54.7054 20.9853 55.0898 20.8865 55.4682 20.7677C55.7297 20.6928 55.9716 20.5615 56.1768 20.383C56.3821 20.2045 56.5457 19.9831 56.6561 19.7345C56.7665 19.4859 56.821 19.216 56.8157 18.9441C56.8105 18.6721 56.7457 18.4046 56.6258 18.1604C56.5803 18.0319 56.4862 17.9265 56.3638 17.8667C56.2413 17.8069 56.1003 17.7976 55.971 17.8407C47.3231 20.393 43.9862 11.2839 35.795 13.2399C35.7167 13.1421 35.6314 13.05 35.5398 12.9644C37.1044 11.0213 34.7438 8.82171 34.05 8.40688C33.9641 8.34887 33.8628 8.31787 33.7591 8.31787C33.6554 8.31787 33.5541 8.34887 33.4681 8.40688C32.7694 8.82652 30.4157 11.022 31.9785 12.9643C31.9018 13.0356 31.8294 13.1114 31.7616 13.1913C23.5905 11.4575 20.4355 20.3586 11.771 17.8419C11.6418 17.7987 11.5007 17.808 11.3783 17.8678C11.2558 17.9276 11.1617 18.033 11.1162 18.1614C10.4922 19.5975 11.4558 20.707 12.8972 20.945L11.1436 24.9636C11.1159 25.0262 11.1008 25.0937 11.0992 25.1622C11.0977 25.2307 11.1097 25.2989 11.1345 25.3627C11.1594 25.4266 11.1966 25.4849 11.2441 25.5343C11.2915 25.5837 11.3483 25.6232 11.4111 25.6506C11.4739 25.6781 11.5415 25.6928 11.61 25.694C11.6785 25.6952 11.7466 25.6828 11.8103 25.6576C11.874 25.6324 11.9321 25.5949 11.9813 25.5472C12.0305 25.4995 12.0697 25.4425 12.0968 25.3796L13.5478 22.0553L20.4926 37.9638H6.60311L8.95481 32.5769C9.7963 33.2859 11.5536 36.071 11.7002 36.2193C12.037 36.7144 12.8244 36.3103 12.618 35.7489C11.5851 32.5923 9.62093 29.6014 13.967 27.5244C14.5535 27.1856 14.0665 26.2959 13.4631 26.6144C12.6499 27.0401 11.7699 27.3233 10.8611 27.452C9.88704 27.5842 8.79738 27.0989 8.20913 26.2714C7.45851 25.2147 6.14395 23.1048 6.13082 23.0838C6.06187 22.9731 5.95387 22.8924 5.82821 22.8576C5.70255 22.8228 5.56841 22.8365 5.45237 22.8959C5.33633 22.9554 5.24686 23.0563 5.20169 23.1786C5.15651 23.3009 5.15894 23.4357 5.20847 23.5563C6.5294 27.0046 8.32197 29.2044 3.79147 31.5696C3.66748 31.629 3.57205 31.7351 3.52606 31.8646C3.48006 31.9942 3.48725 32.1367 3.54603 32.261ZM42.8171 56.2003C43.4095 56.0017 43.947 55.667 44.3866 55.223C44.8263 54.779 45.1557 54.2382 45.3484 53.6439C45.5002 54.2569 45.7951 54.8251 46.2091 55.3019C46.6231 55.7788 47.1443 56.1506 47.7299 56.3869C46.42 56.977 45.4362 58.2878 45.1267 59.9116C44.9324 58.2698 44.0442 56.893 42.779 56.2117L42.8171 56.2003ZM58.2127 39.0039C58.4086 39.039 58.5931 39.1208 58.7507 39.2424C58.8078 39.3738 58.8387 39.5151 58.8417 39.6584C58.7911 39.7716 58.7151 39.8715 58.6195 39.9505C58.5239 40.0294 58.4113 40.0852 58.2906 40.1134H54.0625C53.3793 40.1249 53.3787 41.1418 54.0625 41.1534H57.0265C58.627 41.7221 58.2788 43.4061 57.2679 44.3975C53.8511 47.5537 46.8728 44.4591 46.6839 39.0045L58.2127 39.0039ZM32.5009 11.3999C32.5567 10.6459 33.2731 9.8959 33.7592 9.4916C34.5262 10.1006 35.5865 11.4243 34.6463 12.4152C34.0736 12.2056 33.4451 12.2056 32.8723 12.4152C32.7456 12.2794 32.6474 12.1196 32.5836 11.9452C32.5198 11.7708 32.4917 11.5854 32.5009 11.3999ZM35.3243 14.8614C35.2694 16.9202 32.2486 16.9194 32.1941 14.8614C32.2597 12.7933 35.2585 12.7933 35.324 14.8614H35.3243ZM32.486 18.1938C32.7124 18.1739 32.9398 18.2176 33.1427 18.3199C34.9713 20.1529 34.908 22.9747 34.806 25.3879C34.5841 31.3577 34.2119 38.1255 34.1977 43.8428C33.9052 44.2766 33.6209 44.726 33.3354 45.1745C33.1713 38.9353 33.3214 31.0786 32.3414 24.4243C32.0918 23.0762 31.6949 20.139 32.4857 18.1938H32.486ZM12.5864 19.7766C12.2163 19.6503 11.9646 19.3866 11.9617 18.9865C16.1971 20.3318 21.1149 17.7645 22.1449 16.8562C26.6491 13.7591 30.0333 13.9406 31.2544 14.1531C31.1007 14.6917 31.1263 15.2656 31.3274 15.7883C23.6891 14.5659 21.235 22.3162 12.5864 19.7766ZM18.3974 39.0036C19.1254 39.2636 18.9824 39.9507 18.2941 40.1125H13.8026C13.1196 40.124 13.1188 41.1409 13.8026 41.1525H17.0248C17.2919 41.2189 17.5469 41.3267 17.7806 41.472C17.9056 41.6579 17.9869 41.8697 18.0184 42.0915C18.0499 42.3133 18.0309 42.5394 17.9626 42.7528C14.91 48.1669 6.84556 45.3509 6.34818 39.0036H18.3974ZM7.70213 27.2863C8.12364 27.7296 8.6428 28.0684 9.2183 28.2757C9.7938 28.483 10.4097 28.5532 11.0171 28.4806C10.1981 29.6027 9.97713 31.1526 10.4663 32.6815C9.51095 31.391 8.12632 30.6657 6.73532 30.6746C7.14917 30.2241 7.45208 29.6832 7.61993 29.0949C7.78778 28.5066 7.81593 27.8873 7.70213 27.2863Z" fill="#C1768D"/>
<path d="M10.9368 41.1921C11.674 41.3257 11.8914 40.2324 11.1591 40.0741C10.4217 39.9402 10.2038 41.034 10.9368 41.1921Z" fill="#C1768D"/>
<path d="M8.52238 41.1921C9.25974 41.3257 9.4771 40.2324 8.74481 40.0741C8.00745 39.9402 7.79009 41.034 8.52238 41.1921Z" fill="#C1768D"/>
<path d="M51.1981 41.1921C51.9354 41.3257 52.1528 40.2324 51.4205 40.0741C50.6831 39.9402 50.466 41.034 51.1981 41.1921Z" fill="#C1768D"/>
<path d="M48.7842 41.1921C49.5215 41.3257 49.7387 40.2324 49.0064 40.0741C48.2691 39.9402 48.0519 41.034 48.7842 41.1921Z" fill="#C1768D"/>
<path d="M52.5086 15.9207C52.4128 16.5057 53.2615 16.7625 53.4992 16.2078C53.5089 16.1853 54.4857 13.9464 54.9927 12.9119C55.717 11.4331 57.095 10.6133 58.5047 10.8228C59.2709 10.9372 59.985 11.1117 60.1205 11.1455C60.7796 11.3005 61.0358 10.3206 60.3775 10.1379C55.3707 8.59274 56.877 6.18111 57.4613 2.54111C57.5875 1.93193 56.6878 1.66361 56.4659 2.25277C55.0026 5.6862 54.9791 8.47509 49.9399 7.11477C49.292 6.91886 48.9734 7.87813 49.6182 8.10381C49.7511 8.14762 50.4502 8.38279 51.1564 8.69479C52.4592 9.2703 53.1857 10.7002 53.0076 12.3376C52.883 13.4822 52.5122 15.8964 52.5086 15.9207ZM52.6963 8.48029C53.3065 8.43611 53.8979 8.25007 54.4234 7.93699C54.949 7.62391 55.3942 7.19244 55.7236 6.67693C55.7263 7.28868 55.8718 7.89136 56.1486 8.43692C56.4254 8.98248 56.8258 9.45584 57.3179 9.81929C55.9519 10.0745 54.7281 11.0514 54.0363 12.5001C54.2261 10.906 53.715 9.4263 52.6963 8.48029Z" fill="#C1768D"/>
<path d="M24.5068 30.11C25.2441 30.2437 25.4615 29.1505 24.7292 28.992C23.9918 28.8583 23.7745 29.9514 24.5068 30.11Z" fill="#C1768D"/>
<path d="M2.87848 19.7222C2.74484 20.4596 3.83801 20.6769 3.99648 19.9446C4.13025 19.2069 3.03708 18.9899 2.87848 19.7222Z" fill="#C1768D"/>
<path d="M44.9996 6.42273C44.8659 7.16009 45.9592 7.37745 46.1176 6.64516C46.2513 5.90793 45.1582 5.69044 44.9996 6.42273Z" fill="#C1768D"/>
<path d="M53.0772 51.5529C53.8144 51.6865 54.0318 50.5934 53.2995 50.4349C52.5621 50.3011 52.3448 51.3949 53.0772 51.5529Z" fill="#C1768D"/>
<path d="M23.6246 47.0864C23.4908 47.8237 24.5841 48.0411 24.7426 47.3088C24.8764 46.5721 23.7831 46.3541 23.6246 47.0864Z" fill="#C1768D"/>
<path d="M42.4566 24.918C42.323 25.6555 43.4161 25.8727 43.5746 25.1404C43.7084 24.403 42.6151 24.1861 42.4566 24.918Z" fill="#C1768D"/>
<path d="M16.7964 10.0941C16.6629 10.8315 17.7561 11.0488 17.9144 10.3165C18.0483 9.57891 16.955 9.36155 16.7964 10.0941Z" fill="#C1768D"/>
<path d="M7.68254 53.4291C8.4199 53.5628 8.63726 52.4695 7.90497 52.3111C7.16761 52.1772 6.95025 53.2705 7.68254 53.4291Z" fill="#C1768D"/>
</svg>
