<svg width="58" height="58" viewBox="0 0 58 58" fill="none" xmlns="http://www.w3.org/2000/svg">
<path d="M33.5316 7.63939C33.9073 6.2844 32.4225 5.14876 31.1953 5.79372C30.5703 6.12211 30.1121 7.17412 30.6437 8.06337C31.3575 9.2584 33.1715 8.93778 33.5316 7.63939ZM31.4969 6.58275C31.8913 6.09485 32.8323 6.59435 32.76 7.28118C32.567 8.51798 30.5808 7.84158 31.4969 6.58275Z" fill="#C1768D"/>
<path d="M49.2105 17.8846C48.0621 15.7921 45.4405 15.561 43.6211 14.28C43.1724 13.963 42.865 14.3321 42.7992 14.4993C42.4582 15.3658 42.7732 16.4899 43.0584 17.3374C43.3492 18.2018 43.8178 18.9395 44.561 19.4804C46.0744 20.5956 48.9658 20.8811 48.215 23.518C42.5432 33.7383 34.6455 32.0007 26.5827 37.3883C21.2235 41.4921 18.8129 46.2214 18.2461 52.4618C18.2682 52.9919 18.7681 53.2291 18.7681 53.2291C24.7059 55.0263 30.4995 54.6864 36.0261 51.7622C41.2279 50.5311 48.5025 49.284 50.6514 43.6716C50.6963 42.7497 49.2032 43.1938 48.7079 42.9538C52.6086 40.5198 51.3295 38.5458 51.3337 34.6607C51.6303 29.0363 50.7817 25.3736 50.3732 23.9802C50.3109 23.7685 50.2926 23.5463 50.3196 23.3273C50.3465 23.1083 50.4181 22.8972 50.5299 22.707C50.8523 22.159 51.3237 21.4108 51.6639 21.0987C52.3802 20.4419 53.0865 19.7864 53.6631 18.9991C54.8172 17.4208 55.3261 15.3335 54.7473 13.4402C54.7224 13.3984 54.6871 13.3637 54.6448 13.3397C54.6025 13.3156 54.5546 13.303 54.5059 13.303C54.4573 13.303 54.4094 13.3156 54.3671 13.3397C54.3248 13.3637 54.2895 13.3984 54.2645 13.4402C53.5184 16.0127 50.4508 14.5349 49.2105 17.8846ZM45.0432 18.748C45.0426 18.7403 45.0432 18.7333 45.0422 18.7255C45.055 18.7422 45.0678 18.7589 45.0806 18.7755C45.0682 18.7663 45.0555 18.7573 45.0432 18.748ZM48.5401 24.6214C48.5807 24.5868 48.6313 24.5658 48.6845 24.5614C48.7377 24.557 48.791 24.5695 48.8368 24.597C48.8826 24.6245 48.9186 24.6656 48.9398 24.7147C48.961 24.7637 48.9662 24.8182 48.9548 24.8704C48.7319 25.9298 48.442 26.9741 48.087 27.9969C47.9821 27.757 47.8162 27.5488 47.6056 27.3932C47.3951 27.2376 47.1474 27.1399 46.8873 27.1101C47.4106 26.467 48.0189 25.0843 48.5401 24.6214ZM41.3027 32.5489C41.6238 31.7893 42.7678 30.8243 43.5743 31.5483C44.346 32.2408 43.6207 33.3898 42.6695 33.1491C42.1086 33.0068 41.8691 33.8731 42.4306 34.0159C44.9078 34.5632 45.7739 31.0848 43.3681 30.4848C44.0912 29.9486 44.7748 29.3611 45.4136 28.7268C45.496 28.9433 45.6483 29.1262 45.8463 29.2463C46.338 29.5535 46.7258 28.8202 46.2891 28.4889C45.9106 28.2017 46.7487 27.9128 46.9705 27.9982C47.4593 28.1863 47.4309 28.8355 47.2141 29.2068C46.793 29.9291 45.9368 30.0072 45.2842 30.4093C45.2339 30.4411 45.1952 30.4881 45.1737 30.5436C45.1521 30.599 45.1489 30.6599 45.1645 30.7173C45.18 30.7747 45.2136 30.8256 45.2601 30.8626C45.3067 30.8995 45.3639 30.9206 45.4234 30.9227C45.9544 30.9582 46.556 30.7693 47.0664 30.4417C46.3026 31.9799 45.3843 33.4363 44.3257 34.7885C43.6079 35.2499 42.7969 35.5462 42.0067 35.0197C41.6207 34.7537 41.3393 34.3616 41.2108 33.9107C41.0824 33.4599 41.1149 32.9784 41.3027 32.5489ZM29.7393 36.5554C30.5359 36.3213 31.488 36.1816 31.8942 36.9992C32.2538 37.722 31.6781 39.7235 30.6634 39.2246C30.4278 39.0738 30.1868 38.9332 29.9405 38.8044C29.8777 38.6988 29.8407 38.5798 29.8327 38.4572C29.8246 38.3345 29.8457 38.2117 29.8941 38.0988C30.0449 37.7415 30.4423 37.978 30.7625 38.0191C31.0422 38.0549 31.2459 37.667 31.0908 37.4471C30.3464 36.493 28.9369 37.3014 29.0876 38.4144C28.5237 38.1906 27.9349 38.0356 27.334 37.9526C28.1003 37.4284 28.9042 36.9614 29.7393 36.5554ZM34.1509 51.0044C32.4173 54.1623 19.381 53.9939 19.2449 51.869C19.6592 47.5873 21.4628 43.0027 25.0192 40.476C31.5775 37.4239 36.5921 45.2828 34.1509 51.0044ZM34.8988 51.3082C34.8988 51.3082 36.3481 48.9766 35.199 45.1899C38.7522 44.5885 40.9203 41.0641 41.5503 37.6802C41.6175 37.3191 41.213 36.8742 40.8959 37.3811C39.3161 39.7624 35.3962 38.7782 33.9193 41.7924C33.6576 41.5084 33.3619 41.2527 33.1218 41.0357C32.681 40.6373 32.1938 40.1012 31.6348 39.8097C31.9392 39.5964 32.1864 39.3116 32.3547 38.9803C32.6185 39.604 33.047 40.1355 33.6842 40.4032C33.9554 40.5171 34.149 40.1132 33.9601 39.9291C32.2726 38.5121 33.3438 36.4056 31.4646 35.7834C32.149 35.5029 32.844 35.2441 33.5424 34.9939C33.4156 35.2657 33.365 35.5669 33.3961 35.8652C33.4272 36.1635 33.5388 36.4477 33.719 36.6875C34.4389 37.6827 36.1601 37.4332 36.2211 36.0876C36.2379 35.7139 35.6453 35.5244 35.4847 35.8882C35.2241 36.8134 34.2991 36.5452 34.2455 35.6928C34.2095 34.6843 35.3939 34.4347 36.119 34.8228C38.2534 35.9398 36.8405 38.6752 34.7145 38.1931C34.3665 38.0975 34.1147 38.6339 34.4614 38.7935C35.8455 39.4324 37.5508 38.336 37.8869 36.9203C38.1653 35.7497 37.4452 34.4933 36.37 33.9994C37.7627 33.5126 39.1229 32.9376 40.4423 32.2777C40.2342 32.8163 40.1856 33.4035 40.3022 33.9691C40.1729 34.8102 39.6178 35.47 38.9883 36.0045C38.7297 36.2481 39.0579 36.6324 39.3552 36.4801C39.9622 36.1685 40.4238 35.5767 40.6915 34.9098C41.2135 35.7418 42.2512 36.2067 43.2427 36.1151C42.8929 36.5218 42.5333 36.9231 42.1639 37.3188C41.829 37.6784 42.3472 38.1987 42.7035 37.8583C46.173 34.4714 48.5753 30.1432 49.6142 25.4073C50 26.6681 50.1294 27.7675 50.1681 29.0392C50.6991 46.4742 34.8988 51.3082 34.8988 51.3082Z" fill="#C1768D"/>
<path d="M25.1687 48.415C24.793 49.7701 26.2778 50.9056 27.5049 50.2606C28.1299 49.9322 28.5881 48.8802 28.0566 47.991C27.3427 46.796 25.5287 47.1166 25.1687 48.415ZM27.2033 49.4717C26.8089 49.9589 25.8679 49.4601 25.9403 48.7732C26.1333 47.5368 28.1195 48.2128 27.2033 49.4717Z" fill="#C1768D"/>
<path d="M41.4776 15.1128C41.6255 14.5728 40.828 14.2859 40.6039 14.8076C39.04 17.9976 38.5716 21.9829 33.4755 20.1998C32.9091 19.9919 32.575 20.8297 33.1378 21.0642C33.6464 21.2684 34.1443 21.4981 34.6298 21.7524C35.908 22.4306 36.5098 24.0821 36.1629 25.9599C35.9264 27.2404 35.319 29.9329 35.3129 29.96C35.1908 30.482 35.9475 30.7583 36.1829 30.2639C37.7763 27.3436 38.6974 22.8563 43.424 24.6574C44.004 24.8239 44.2763 23.9633 43.6977 23.7707C42.1234 23.2139 39.8949 22.0096 40.4363 19.2931C40.7409 17.8573 41.4703 15.1401 41.4776 15.1128ZM40.9556 23.3133C39.369 23.4463 37.809 24.7756 36.9973 26.5349C37.4577 24.6524 37.0646 22.6417 35.9058 21.5494C37.2994 21.5958 38.6675 20.7714 39.467 19.4648C39.2795 20.9851 39.8368 22.4813 40.956 23.3133H40.9556Z" fill="#C1768D"/>
<path d="M2.86396 45.4356C2.87556 45.4573 3.99798 47.6118 4.52427 48.7636C5.48162 50.9245 3.89787 52.264 2.74831 52.9884C2.22875 53.296 2.66711 54.084 3.20442 53.7966C3.60254 53.5769 4.01179 53.3781 4.43054 53.2009C5.51584 52.7485 6.89183 53.2574 7.93618 54.4971C8.66002 55.3563 10.1253 57.2362 10.1402 57.2551C10.4754 57.6851 11.1587 57.2656 10.9257 56.7716C10.9154 56.7499 9.89751 54.5948 9.45648 53.5614C8.82033 52.0706 8.98621 50.6129 9.87895 49.8478C10.2258 49.5538 10.5878 49.278 10.9634 49.0217C11.4585 48.676 10.9615 47.9229 10.4477 48.2501C9.26554 48.9597 7.37056 49.7532 5.87579 47.9321C5.0849 46.9434 3.66715 44.9702 3.65288 44.9509C3.32692 44.4933 2.59902 44.932 2.86396 45.4356ZM5.58683 48.9769C6.45498 49.7638 7.59363 50.1485 8.61548 49.9413C8.02388 50.9695 7.9827 52.3702 8.54274 53.7799C7.52914 52.6489 6.31009 52.0582 5.08328 52.1152C5.72824 51.2958 5.89818 50.1064 5.58683 48.9769Z" fill="#C1768D"/>
<path d="M6.64045 35.261C4.46556 37.0827 2.80537 39.59 3.45497 42.5372C3.46474 42.6701 3.49937 42.7999 3.55705 42.92C3.58199 42.9618 3.61735 42.9964 3.65968 43.0205C3.702 43.0445 3.74984 43.0571 3.7985 43.0571C3.84717 43.0571 3.89501 43.0445 3.93733 43.0205C3.97966 42.9964 4.01502 42.9618 4.03996 42.92C4.23066 42.4987 4.32323 42.1182 4.68863 41.7973C5.09034 41.4444 5.60735 41.2789 6.10383 41.1075C7.47367 40.6989 8.61755 39.8725 9.09489 38.4753C10.2433 40.5681 12.8649 40.7987 14.6845 42.0798C15.133 42.3969 15.4404 42.0278 15.5062 41.8606C15.8472 40.9941 15.5322 39.87 15.2471 39.0224C14.9564 38.1582 14.4876 37.4205 13.7444 36.8795C12.2315 35.7653 9.3393 35.4781 10.0904 32.8418C15.7628 22.6222 23.6601 24.3592 31.7228 18.9716C37.0817 14.8678 39.4921 10.1384 40.0589 3.89763C40.0368 3.3674 39.5369 3.13029 39.5369 3.13029C33.5985 1.33403 27.8049 1.67333 22.2783 4.59758C20.1524 5.09638 18.4208 5.25449 16.1027 6.1891C13.1447 7.14946 12.3227 9.54521 13.0203 12.4286C12.1406 10.7416 10.6006 9.54834 9.09419 9.45485C10.1232 8.60538 10.5849 7.15329 10.3623 5.67731C10.743 6.24006 11.2433 6.71177 11.8275 7.05875C12.3556 7.35791 12.8217 6.57631 12.2993 6.25719C11.7296 5.91744 11.2614 5.43135 10.9431 4.84941C10.2451 3.56599 9.03561 1.03881 9.02297 1.01352C8.97174 0.908653 8.88288 0.826939 8.77409 0.784671C8.6653 0.742403 8.54457 0.742686 8.43598 0.785464C8.32739 0.828242 8.23891 0.910372 8.18818 1.01548C8.13744 1.12059 8.12819 1.24096 8.16225 1.35259C8.1706 1.37939 9.00905 4.05284 9.37294 5.46758C9.66921 6.61865 9.38141 7.89905 8.67288 8.58137C8.03541 9.19199 7.28242 9.66919 6.45809 9.98497C5.89213 10.1949 6.18677 11.0507 6.76515 10.8605C7.53237 10.614 8.94803 10.0497 10.0486 10.6604C8.22257 11.9417 8.33764 13.1488 8.96497 13.308L9.59613 13.406C5.69249 15.8446 6.97615 17.8106 6.97023 21.6991C6.67362 27.3236 7.52228 30.9862 7.93071 32.3797C7.99305 32.5914 8.0113 32.8136 7.98434 33.0326C7.95739 33.2515 7.8858 33.4627 7.774 33.6529C7.45221 34.2008 6.98067 34.9491 6.64045 35.261ZM14.771 41.0879C14.771 41.0932 14.7718 41.0981 14.7722 41.1034C14.769 41.1015 14.7659 41.0998 14.7629 41.0978C14.7658 41.0948 14.7681 41.0911 14.771 41.0879ZM13.3498 37.7028L13.3266 37.6848C13.3219 37.6802 13.3172 37.6759 13.3125 37.6714C13.3253 37.6816 13.3382 37.6923 13.3498 37.7028ZM9.76537 31.7383C9.72469 31.7729 9.6742 31.7938 9.621 31.7982C9.5678 31.8026 9.51458 31.7901 9.46881 31.7627C9.42304 31.7352 9.38704 31.6941 9.36587 31.6451C9.3447 31.5961 9.33942 31.5417 9.35079 31.4895C9.57361 30.43 9.86342 29.3858 10.2185 28.363C10.3233 28.6029 10.4893 28.811 10.6998 28.9666C10.9103 29.1222 11.158 29.2198 11.4181 29.2497C10.8944 29.8932 10.286 31.2755 9.76537 31.7383ZM17.0027 23.8109C16.6816 24.5706 15.5378 25.5355 14.7312 24.8116C13.9596 24.119 14.6841 22.97 15.6353 23.2108C16.1963 23.3529 16.4357 22.4868 15.8743 22.3438C13.3971 21.7966 12.5309 25.2749 14.9369 25.8751C14.214 26.4112 13.5307 26.9985 12.8921 27.6326C12.8098 27.4161 12.6575 27.2333 12.4595 27.1132C11.9677 26.806 11.5801 27.5394 12.0167 27.8707C12.3952 28.1579 11.5571 28.4466 11.3353 28.3612C10.8466 28.1731 10.8749 27.5241 11.0917 27.1526C11.5128 26.4304 12.369 26.3522 13.0216 25.9503C13.0718 25.9185 13.1106 25.8714 13.1321 25.8159C13.1537 25.7605 13.1569 25.6996 13.1413 25.6422C13.1258 25.5848 13.0922 25.5339 13.0456 25.497C12.999 25.46 12.9418 25.439 12.8824 25.4369C12.3512 25.4014 11.7497 25.5902 11.2393 25.9177C12.003 24.3795 12.9212 22.923 13.9799 21.5707C14.6977 21.1094 15.5086 20.8131 16.2988 21.3395C16.6849 21.6056 16.9662 21.9979 17.0945 22.4488C17.2229 22.8998 17.1902 23.3814 17.0021 23.8109H17.0027ZM28.5662 19.8044C27.7696 20.0385 26.8175 20.1782 26.4112 19.3606C26.0522 18.6379 26.6274 16.6364 27.642 17.1352C27.8777 17.286 28.1188 17.4267 28.3649 17.5554C28.4277 17.661 28.4647 17.78 28.4728 17.9026C28.4808 18.0252 28.4598 18.148 28.4113 18.261C28.2605 18.6184 27.8632 18.3817 27.5431 18.3408C27.2633 18.3048 27.0596 18.6929 27.2148 18.9128C27.959 19.8668 29.3684 19.0584 29.2179 17.9454C29.7817 18.1692 30.3705 18.3243 30.9714 18.4073C30.205 18.9315 29.4008 19.3985 28.5656 19.8044H28.5662ZM29.9839 17.3323H30.0256C30.0265 17.3365 30.0281 17.3406 30.0291 17.3448C30.0134 17.3404 29.9983 17.3366 29.9834 17.3323H29.9839ZM24.154 5.35552C24.4981 4.73666 26.941 3.75205 27.5393 3.5371C32 1.93526 39.0349 3.92884 39.0605 4.49074C38.4062 10.8829 34.7427 18.5281 27.1241 15.6926C24.0234 13.4346 22.6146 8.88726 24.154 5.35552ZM13.025 14.3621C13.5397 15.3144 14.011 16.2076 14.0187 16.2223C14.0719 16.3235 14.1606 16.4016 14.2678 16.4415C14.375 16.4813 14.4931 16.4802 14.5996 16.4383C14.706 16.3964 14.7932 16.3167 14.8444 16.2144C14.8956 16.1122 14.9073 15.9946 14.8771 15.8843C14.8716 15.8638 14.4439 14.2857 14.1144 12.9843C16.4701 9.68893 19.8977 6.75634 23.4601 5.02573L23.4653 5.03107C22.5554 6.94391 22.5489 9.17911 23.1064 11.1699C19.5946 11.7787 16.9878 15.2603 16.7552 18.6794C16.7069 19.3882 17.3004 19.2051 17.4095 18.9787C18.1452 17.4469 20.0913 17.3823 21.5159 16.8363C22.7687 16.3896 24.2462 15.5241 24.4723 14.0451C25.1091 14.9695 25.8776 15.796 26.7533 16.4983C26.4096 16.7123 26.132 17.0175 25.9514 17.3799C25.6875 16.756 25.259 16.2246 24.6218 15.9569C24.3506 15.8429 24.157 16.2469 24.3459 16.4309C26.0334 17.8483 24.9622 19.9545 26.8414 20.5767C26.157 20.8571 25.462 21.1159 24.7636 21.3662C24.8904 21.0944 24.9409 20.7932 24.9098 20.4949C24.8787 20.1966 24.7672 19.9124 24.587 19.6726C23.8678 18.6774 22.1459 18.9269 22.085 20.2725C22.0681 20.6462 22.6607 20.8357 22.8213 20.4719C23.0821 19.5468 24.0069 19.815 24.0606 20.6673C24.0965 21.6759 22.9122 21.9254 22.187 21.5373C20.0526 20.4203 21.4655 17.6849 23.5915 18.1671C23.9395 18.2627 24.1914 17.7263 23.8446 17.5667C22.4605 16.9278 20.7553 18.0241 20.4192 19.4398C20.1408 20.6106 20.8608 21.867 21.9361 22.3607C20.5429 22.8471 19.1822 23.4219 17.8622 24.0816C18.0703 23.5429 18.1189 22.9557 18.0022 22.3901C18.1315 21.549 18.6872 20.8892 19.3161 20.3548C19.5747 20.1112 19.2465 19.7268 18.9492 19.8792C18.3422 20.1909 17.8806 20.7827 17.6129 21.4495C17.0909 20.6175 16.0531 20.1527 15.0617 20.2442C15.4116 19.8375 15.7712 19.4363 16.1405 19.0406C16.4754 18.681 15.9572 18.1606 15.601 18.501C12.1318 21.8881 9.72975 26.2164 8.69109 30.9523C6.93741 25.4546 10.1018 18.9601 13.025 14.3621Z" fill="#C1768D"/>
<path d="M42.6126 11.1637C42.2343 10.6178 41.413 11.1667 41.7726 11.7249C42.1509 12.2707 42.972 11.7219 42.6126 11.1637Z" fill="#C1768D"/>
<path d="M15.8775 30.2528C15.3317 30.6311 15.8805 31.4524 16.4388 31.0929C16.9846 30.7145 16.4357 29.8932 15.8775 30.2528Z" fill="#C1768D"/>
<path d="M2.09288 11.8458C2.47115 12.391 3.29243 11.8427 2.93283 11.2845C2.55456 10.7386 1.73339 11.2875 2.09288 11.8458Z" fill="#C1768D"/>
<path d="M55.7708 29.5896C56.316 29.2113 55.7678 28.3901 55.2095 28.7497C54.6637 29.1276 55.2125 29.9491 55.7708 29.5896Z" fill="#C1768D"/>
<path d="M29.0871 27.7063C29.633 27.328 29.0841 26.5068 28.5259 26.8664C27.9801 27.2446 28.5289 28.0658 29.0871 27.7063Z" fill="#C1768D"/>
<path d="M51.6849 52.7452C52.2301 52.3668 51.6819 51.5456 51.1236 51.9051C50.5778 52.2838 51.1266 53.1048 51.6849 52.7452Z" fill="#C1768D"/>
<path d="M51.9953 5.95783C52.3735 6.50361 53.1948 5.95481 52.8352 5.3965C52.4569 4.85072 51.6357 5.39963 51.9953 5.95783Z" fill="#C1768D"/>
<path d="M14.7591 46.8941C15.3049 46.5157 14.756 45.6946 14.1978 46.0541C13.652 46.4325 14.2008 47.2536 14.7591 46.8941Z" fill="#C1768D"/>
<path d="M14.8892 0.655378C14.3434 1.03365 14.8923 1.85493 15.4505 1.49533C15.9963 1.11706 15.4475 0.295894 14.8892 0.655378Z" fill="#C1768D"/>
</svg>
