<svg width="65" height="66" viewBox="0 0 65 66" fill="none" xmlns="http://www.w3.org/2000/svg">
<path d="M16.2306 9.39806C15.4494 9.95318 14.5739 10.3618 13.6466 10.6041C12.991 10.7731 13.2153 11.7572 13.8843 11.6165C16.0869 11.0426 17.9578 11.0817 19.2812 13.783C19.8111 14.9441 20.8307 17.4505 20.8412 17.475C20.8891 17.5925 20.9783 17.6885 21.0921 17.7448C21.2058 17.8011 21.3362 17.8139 21.4587 17.7807C21.5812 17.7475 21.6874 17.6707 21.7572 17.5646C21.8269 17.4586 21.8555 17.3307 21.8375 17.2051C21.8338 17.1782 21.4488 14.4998 21.3201 13.2299C21.0974 10.2281 22.7027 9.24908 24.886 8.63574C25.5281 8.42514 25.237 7.45404 24.5799 7.64176C23.657 7.90042 22.695 7.98961 21.7403 7.90501C20.702 7.80777 19.665 7.00294 19.2183 5.94786C18.6585 4.62498 17.7311 2.02992 17.7217 2.00379C17.5049 1.41073 16.6085 1.65097 16.7207 2.27497C16.7258 2.30214 17.2349 5.01056 17.4195 6.43575C17.5668 7.57208 17.078 8.79018 16.2306 9.39806ZM16.837 10.2431C17.8712 9.50102 18.4987 8.16605 18.486 6.80807C19.1902 8.03592 20.4632 8.88183 21.797 8.95398C20.6356 9.962 20.0639 11.7066 20.3048 13.5226C19.5957 11.8326 18.2225 10.6159 16.7107 10.3317C16.7528 10.3028 16.7949 10.2732 16.837 10.2431Z" fill="#C1768D"/>
<path d="M28.2894 47.3359C28.8771 46.8579 29.4755 46.461 29.5894 46.3863C30.1498 46.0071 29.6051 45.1545 29.0237 45.5136C24.6037 48.1461 23.5733 44.9662 21.4257 42.1829C21.0653 41.6721 20.2522 42.1514 20.5369 42.7166C20.5483 42.7398 21.7015 45.0566 22.233 46.2958C23.234 48.676 21.089 50.2696 19.9047 50.9888C19.3197 51.329 19.8047 52.2165 20.4091 51.8988C22.256 50.825 23.9033 50.3699 25.8017 52.467C26.5773 53.3801 28.1402 55.3834 28.1559 55.4036C28.5218 55.8797 29.2917 55.4223 29.0409 54.8722C29.0305 54.8489 27.9972 52.5277 27.5559 51.4142C26.9232 49.814 27.2111 48.2137 28.2894 47.3359ZM26.5824 51.7789C25.4931 50.5168 24.108 49.8686 22.6904 49.9485C23.4559 49.0255 23.7051 47.6789 23.3822 46.4488C24.3162 47.312 25.6226 47.7251 26.7965 47.4835C26.073 48.658 25.9741 50.2287 26.5829 51.7789H26.5824Z" fill="#C1768D"/>
<path d="M52.7918 39.4144C52.6664 40.1069 53.6931 40.3114 53.8421 39.6233C53.967 38.9307 52.9403 38.7266 52.7918 39.4144Z" fill="#C1768D"/>
<path d="M29.4379 7.35545C29.5715 6.61796 28.4784 6.40073 28.3199 7.13302C28.1861 7.87103 29.2793 8.08774 29.4379 7.35545Z" fill="#C1768D"/>
<path d="M20.0707 37.6608C20.2044 36.9235 19.1111 36.7061 18.9527 37.4384C18.819 38.1758 19.9121 38.3931 20.0707 37.6608Z" fill="#C1768D"/>
<path d="M41.5582 32.742C41.4245 33.4793 42.5177 33.6967 42.6762 32.9643C42.8095 32.2269 41.7168 32.0095 41.5582 32.742Z" fill="#C1768D"/>
<path d="M55.8715 4.25162C56.0051 3.51426 54.9118 3.2969 54.7535 4.02932C54.6197 4.76668 55.7129 4.98391 55.8715 4.25162Z" fill="#C1768D"/>
<path d="M5.38322 32.7148C5.51686 31.9774 4.42369 31.76 4.26522 32.4925C4.13145 33.2298 5.22462 33.447 5.38322 32.7148Z" fill="#C1768D"/>
<path d="M33.8073 62.7095C33.0699 62.5759 32.8526 63.6691 33.585 63.8275C34.3218 63.9613 34.5397 62.8681 33.8073 62.7095Z" fill="#C1768D"/>
<path d="M60.2956 52.2652C59.5582 52.1316 59.3409 53.2249 60.0732 53.3832C60.8107 53.5171 61.028 52.4238 60.2956 52.2652Z" fill="#C1768D"/>
<path d="M58.1078 28.4614C58.0894 28.4798 56.2541 30.3029 55.2442 31.1977C54.9653 31.4419 54.6447 31.634 54.2978 31.7649C54.553 29.3275 55.8789 16.6617 55.8792 16.6494C56.4825 15.8087 56.8886 14.843 57.0674 13.8238C57.5985 11.2463 54.997 8.66801 52.5456 10.001C51.2831 10.716 52.1476 12.6204 53.5152 12.145C54.5963 12.0254 54.6061 13.4541 53.9372 14.2279C45.1824 22.6444 35.1262 7.34058 20.3116 22.2079C19.8826 22.6287 20.5089 23.305 20.9591 22.8803C35.2309 8.54152 43.9623 23.3563 54.2583 15.2861C54.4943 16.5071 53.9164 17.2091 53.0573 17.9804C41.9779 23.2287 33.9837 12.1364 22.2402 24.4143C21.8146 24.8338 22.4157 25.5121 22.8822 25.0916C34.7618 12.4324 44.3502 25.6291 54.8219 17.8179L53.3377 31.9692C52.2225 32.1494 50.1681 30.6324 50.057 30.4638C49.5578 30.0118 48.8571 30.7644 49.3525 31.229C50.9449 32.621 51.9039 34.0952 50.5095 36.5265C49.8868 37.55 48.477 39.6638 48.4628 39.6855C48.127 40.1772 48.8017 40.7731 49.2457 40.3584C51.7043 38.2819 53.9331 34.9634 57.4723 38.2095C58.0091 38.622 58.6465 37.8362 58.1223 37.3978C54.1919 33.9183 56.9482 32.104 58.8933 29.1376C59.2655 28.6347 58.5547 28.0132 58.1078 28.4614ZM51.4081 37.051C52.2692 35.6256 52.4364 34.061 51.9208 32.7809C53.0371 33.2171 54.3944 33.0301 55.4606 32.3363C54.9348 33.4946 54.9536 34.8644 55.5526 35.9029C54.2109 35.5854 52.6879 35.9857 51.4081 37.051Z" fill="#C1768D"/>
<path d="M59.4814 63.9717C60.2744 62.8537 58.1944 59.8938 57.1513 58.5045C57.0548 58.3761 56.9207 58.2808 56.7677 58.2319C56.6147 58.183 56.4503 58.1829 56.2972 58.2315C55.8917 58.3601 55.3891 58.5192 55.1088 58.6071C55.2604 58.0499 55.4431 57.5016 55.656 56.9648C55.6986 56.8555 55.709 56.7364 55.686 56.6214C55.6629 56.5064 55.6074 56.4004 55.526 56.316C54.7381 55.4989 53.7564 54.8945 52.6721 54.5588C52.4222 54.4634 52.1775 54.3549 51.9391 54.2338L53.4211 42.5095C53.4275 42.4485 53.4218 42.3868 53.4044 42.3281C53.3869 42.2693 53.3581 42.2145 53.3195 42.1669C53.2809 42.1192 53.2334 42.0797 53.1795 42.0504C53.1256 42.0212 53.0665 42.0028 53.0055 41.9964C52.9445 41.99 52.8829 41.9957 52.8241 42.0131C52.7653 42.0305 52.7106 42.0593 52.6629 42.0979C52.6153 42.1365 52.5757 42.1841 52.5465 42.238C52.5172 42.2919 52.4989 42.351 52.4925 42.412L51.0389 53.8668C50.5253 53.6631 50.01 53.4638 49.5006 53.2495C46.7882 51.7339 40.3544 45.9112 37.6657 43.0483C29.6477 35.035 22.1047 27.5219 14.3089 18.8626C14.2626 18.8112 14.2334 18.7468 14.2252 18.6782C14.217 18.6095 14.2303 18.5401 14.2631 18.4793C14.296 18.4185 14.3468 18.3693 14.4087 18.3385C14.4706 18.3077 14.5405 18.2969 14.6088 18.3074C14.9755 18.3649 15.3412 18.4345 15.7093 18.4977C15.7786 18.5103 15.85 18.5037 15.9158 18.4786C15.9816 18.4535 16.0393 18.4108 16.0826 18.3553C16.1259 18.2997 16.1532 18.2334 16.1614 18.1635C16.1697 18.0935 16.1587 18.0227 16.1295 17.9586C16.1213 17.8949 16.0973 17.8344 16.0595 17.7825C16.0217 17.7306 15.9715 17.6891 15.9134 17.6618C12.0524 15.6261 8.4716 13.2017 5.02439 10.5324C4.60839 10.2106 4.05134 10.7193 4.43133 11.1255C5.85407 12.6424 7.11418 14.304 8.19106 16.0832C8.703 16.931 9.17291 17.8027 9.60078 18.698C9.90576 19.1902 10.691 21.7514 11.1348 21.7282C11.1719 21.7678 11.2192 21.7965 11.2715 21.8111C11.3238 21.8257 11.3791 21.8256 11.4314 21.811C11.4837 21.7963 11.5309 21.7676 11.568 21.728C11.6051 21.6883 11.6306 21.6392 11.6418 21.5861C11.7423 21.2938 11.6548 20.6232 11.7217 20.1528C11.7312 20.0931 11.7566 20.037 11.7954 19.9906C11.8342 19.9442 11.8849 19.9092 11.942 19.8894C11.9991 19.8695 12.0606 19.8655 12.1198 19.8778C12.179 19.89 12.2338 19.9182 12.2783 19.9591C14.1135 21.6307 15.8967 23.2706 17.6279 24.879C10.7758 31.5995 9.03892 38.1437 11.0868 46.2899C11.4864 48.3328 11.8642 50.2627 11.8552 52.2803C11.8408 55.5634 10.4983 58.0153 9.17425 58.9883C8.4664 59.5302 7.53313 59.6825 7.14456 59.0035C7.07188 58.8697 7.05287 58.7133 7.09139 58.566C7.56771 57.1937 5.6584 56.3378 4.9473 57.5967C3.73908 59.772 5.7533 62.2449 8.10396 62.1768C9.24523 62.1248 10.1729 61.8307 11.3814 61.0784C11.4149 61.1153 43.0585 57.7816 43.1175 57.7894C43.7233 57.7167 43.6357 56.8076 43.0209 56.8605L12.627 60.0233C20.81 49.7354 7.03484 39.872 20.4426 27.5093C28.1345 34.7985 35.7087 42.4273 43.0356 49.9847C44.1536 51.9217 46.7276 57.3947 46.7276 57.3947C47.2418 58.6412 47.8685 59.8907 48.9426 60.651C49.1656 60.8089 50.1709 59.6802 50.2277 59.6519C50.2277 59.6982 50.0433 61.1216 50.3152 61.3623C54.4058 64.9837 59.1054 64.5021 59.4814 63.9717ZM13.6566 44.2099C14.5427 49.6268 15.3015 54.9468 12.4558 58.4819C12.2162 58.7281 11.8545 59.0713 11.488 58.9699C11.0037 58.8358 11.137 58.1899 11.27 57.7999C16.2812 49.852 6.75443 41.1469 14.3401 30.1072L15.2619 32.4966C13.2945 35.8341 12.6699 39.3473 13.6566 44.2099Z" fill="#C1768D"/>
</svg>
