<svg width="65" height="66" viewBox="0 0 65 66" fill="none" xmlns="http://www.w3.org/2000/svg">
<path d="M32.9549 37.508C32.0319 37.6134 31.2238 38.2426 30.6238 38.8975C30.3353 39.1935 30.7569 39.5783 31.0647 39.3385C31.9205 38.7248 32.3478 39.5907 33.0277 39.9327C33.4757 40.1277 34.0201 40.0381 34.5053 39.9631C35.924 39.7433 35.337 37.1663 32.9549 37.508ZM33.6716 39.184C33.1068 39.205 32.8062 38.7341 32.3395 38.5045C32.9179 38.3552 33.622 38.1828 34.1347 38.5777C34.4816 38.9905 34.0625 39.1751 33.6716 39.184Z" fill="#C1768D"/>
<path d="M37.8193 33.9371C37.9753 33.6442 37.7522 33.1819 37.4229 33.4234C37.2763 33.5284 37.138 33.6444 37.009 33.7704C36.0279 34.5707 35.0682 37.5664 37.0171 37.8548C38.1741 38.0196 38.8841 36.3739 38.098 35.5668C37.7388 35.1627 37.4595 34.6101 37.8193 33.9371ZM37.4756 36.6321C37.396 36.9465 37.1947 37.0091 36.8716 36.82C36.543 36.5171 36.7776 35.897 36.8811 35.557C37.0991 35.8607 37.7087 36.182 37.4756 36.6321Z" fill="#C1768D"/>
<path d="M53.63 36.9382C56.0111 37.1609 57.4284 40.4601 56.6479 42.5838C56.6135 42.6637 56.605 42.7524 56.6234 42.8374C56.6418 42.9224 56.6863 42.9995 56.7507 43.058C56.8038 43.1629 56.8891 43.2481 56.9941 43.301C57.0991 43.3539 57.2182 43.3717 57.3341 43.352C60.4823 42.9261 62.4668 38.8046 60.5433 36.1766C62.5532 32.0792 56.8507 26.4754 52.894 26.2093C52.1086 25.9599 51.2757 25.8984 50.4622 26.0297C48.7618 25.4957 43.8121 25.2309 43.1771 27.3404C41.5078 28.3024 39.4482 28.2587 37.7526 29.154C37.0222 29.5552 36.0785 28.6098 35.5993 27.854C36.5365 26.4122 36.9028 25.3346 37.7963 24.3003C38.9868 24.0403 40.505 26.0227 41.3092 25.6227C42.0511 25.3002 41.2131 24.0966 40.8932 23.69C39.8322 22.4059 37.7732 19.699 36.1752 21.7804C35.2313 20.7712 33.9205 20.2351 33.2315 21.6764C32.6235 21.3317 31.7244 21.1575 31.2425 21.5354C30.9085 21.7968 30.8157 22.3171 30.6795 22.6941C30.5222 23.1296 30.3135 23.5911 30.2105 24.0576C29.3675 23.5185 28.4581 22.9775 27.4309 22.9548C27.957 21.7009 27.5634 20.0038 26.5832 19.1588C27.5517 18.1159 27.316 16.3057 26.358 15.308C27.5315 14.749 28.1074 13.2141 27.5978 11.9996C28.6517 11.8639 29.4767 10.7755 29.3797 9.72436C31.0602 10.6709 32.9851 10.9583 34.6344 11.9806C36.0703 12.86 37.1256 14.0216 38.1363 15.3448C38.1997 15.43 38.287 15.4943 38.3872 15.5298C38.6325 15.797 39.1608 15.8012 39.2734 15.3462C39.7688 13.339 38.8321 11.4558 38.8139 9.47567C38.7749 8.32088 39.3092 7.21224 39.0799 6.06616C38.0789 0.638007 27.8581 0.601087 27.2083 6.2115C25.614 5.8995 23.7334 8.29878 24.1081 9.9243C23.096 10.0854 22.2512 10.7814 21.8389 11.805C21.5486 12.5256 21.3319 14.1371 21.951 14.8835C20.3924 15.8672 19.7247 18.5421 21.0663 19.9589C19.9389 21.347 20.3724 23.518 22.0524 24.2619C21.8156 24.3959 21.6096 24.5781 21.4477 24.7969C21.2859 25.0156 21.1719 25.2659 21.113 25.5316C20.5403 25.0672 19.903 24.6887 19.2211 24.4082C18.33 24.0442 17.5505 24.4166 16.7149 24.7603C14.6232 25.6205 12.5643 26.557 10.5109 27.5033C10.1435 27.6723 10.2563 28.2573 10.6212 28.3483C11.9644 28.6842 13.3608 28.7513 14.73 28.5456C15.6707 28.4373 16.602 28.0443 17.4917 27.791C15.8699 30.0259 14.2027 32.4566 13.5535 35.1777C13.5321 35.2648 13.5395 35.3564 13.5745 35.4389C13.6096 35.5214 13.6703 35.5903 13.7478 35.6354C13.8252 35.6805 13.9152 35.6993 14.0042 35.689C14.0933 35.6787 14.1766 35.6399 14.2417 35.5784C15.5256 34.3044 16.7878 32.998 18.1038 31.7581C19.2167 30.6492 19.6937 31.1601 20.5998 32.1183C19.1617 31.5333 18.1038 32.9967 17.4777 34.0856C16.5405 35.6201 16.0666 37.3926 16.1127 39.19C16.123 39.6393 16.1369 40.1204 16.5919 40.3412C16.6787 40.3897 16.7787 40.409 16.8773 40.3962C16.9759 40.3835 17.0678 40.3394 17.1394 40.2705C18.1982 39.0556 18.4654 37.3211 19.6105 36.187C20.8975 34.8924 22.6811 35.7667 24.0095 36.4934C24.5032 36.9971 24.9667 37.5294 25.3977 38.0876C23.7143 39.3798 23.1276 41.6106 21.5468 42.9905C19.3321 42.8605 18.0139 47.7286 17.9726 49.4876C17.5939 50.208 17.3864 51.0059 17.366 51.8195C16.2643 55.5462 19.9829 62.9911 24.3546 62.268C26.2498 64.965 30.7779 64.3602 32.2036 61.4992C32.2664 61.3892 32.2856 61.2596 32.2574 61.1361C32.2292 61.0126 32.1557 60.9041 32.0515 60.8322C32.0079 60.7662 31.9477 60.7129 31.8769 60.6777C31.8062 60.6425 31.7274 60.6266 31.6485 60.6316C29.397 60.6836 26.741 58.2716 27.2962 55.9625C27.524 55.5868 28.0668 55.6045 28.4294 55.7737C28.8125 55.9524 28.6125 56.3288 28.6006 56.6735C28.4017 57.4983 29.65 57.224 30.1159 57.4588C30.5536 57.6018 30.7642 57.9949 31.1551 58.1943C31.4333 58.368 31.8541 58.2771 31.9427 57.9092C32.1204 57.2073 32.1323 56.4737 31.9776 55.7664C31.823 55.0591 31.5058 54.3974 31.0514 53.8338C30.623 53.31 30.0832 52.8883 29.4712 52.5995C28.9122 52.3373 28.2262 52.2777 27.7348 51.8927C27.3297 50.5685 26.0877 49.8485 25.0402 49.0604C24.8505 48.3584 24.9119 47.7056 24.8343 46.9822C24.7587 46.1547 24.4917 45.3561 24.0543 44.6496C24.2049 43.0014 25.0532 41.6309 26.0541 40.3509C26.1972 40.2644 26.3523 40.1995 26.5144 40.1583C27.6748 42.2264 30.1957 42.7193 32.3827 42.9596C33.1994 45.0195 35.925 45.9427 37.8608 44.8921C38.1142 44.8496 38.3444 44.5961 38.2549 44.3164C38.0662 43.7257 37.5319 43.7694 37.055 43.5123C36.8041 43.377 36.5968 43.1732 36.4572 42.9246C36.3176 42.6761 36.2515 42.3929 36.2666 42.1083C37.2585 41.5351 38.1483 40.7507 38.9289 39.9524C40.8906 41.4181 39.7834 42.5988 40.3485 42.9424C40.4156 43.0111 40.5027 43.057 40.5973 43.0736C40.692 43.0901 40.7895 43.0765 40.876 43.0346C41.8455 42.5946 42.1898 41.0658 42.1731 40.1085C42.1323 37.8465 40.6863 38.1402 40.6411 36.5179C40.5387 32.8389 38.7918 31.3132 38.7918 31.3132C38.9177 31.1227 42.3259 29.8617 43.9454 30.2454C44.9154 31.5485 46.5564 31.7938 47.8395 32.6098C48.2391 33.8218 48.5178 35.2254 49.6149 36.0101C49.8322 36.6355 49.6684 37.3266 49.754 37.978C49.845 38.6924 50.1033 39.3751 50.508 39.9708C50.9069 40.543 51.4285 41.0188 52.0349 41.3635C52.6412 41.7083 53.3169 41.9132 54.0126 41.9633C54.3951 41.9967 54.554 41.6409 54.4945 41.3322C54.4747 40.875 54.1148 40.5425 54.1419 40.0606C54.0667 39.5805 54.7019 38.4915 53.9405 38.4096C53.652 38.2406 53.202 38.4388 53.0973 38.0187C52.9824 37.601 53.2044 37.0531 53.63 36.9382ZM31.7847 3.03352C34.6224 2.39834 38.3744 3.90725 38.1093 7.14711C37.9436 7.44949 37.8123 7.77332 37.6176 8.05997C36.1245 9.0273 33.7788 8.83269 32.371 7.82948C30.8297 6.73293 30.009 4.28295 31.7847 3.03352ZM14.1468 27.7564C14.1524 27.7524 14.1587 27.7491 14.1639 27.7448C14.174 27.7409 14.1839 27.736 14.194 27.7318C14.1999 27.7388 14.2049 27.7459 14.2111 27.7528C14.1897 27.7543 14.1683 27.7551 14.1468 27.7564ZM21.9199 44.0806C22.138 44.1665 22.3415 44.2853 22.5234 44.4331C23.0481 45.27 22.849 46.2819 22.4974 47.2C21.2976 46.8215 19.9273 47.2693 19.0524 48.0832C19.3778 46.931 20.2605 43.5098 21.9199 44.0806ZM27.3517 59.4538C28.2364 60.5446 29.4741 61.3743 30.8581 61.5916C29.4694 63.3317 26.8727 63.4414 25.2822 61.8887C26.2817 61.2672 26.9418 60.0445 26.7212 58.858C26.9537 59.0316 27.1653 59.2315 27.3517 59.4538ZM24.2187 49.7087C24.9367 50.3327 25.8724 50.7648 26.4342 51.5511C27.5537 53.1185 26.7103 56.3204 24.4842 56.2746C23.5341 56.255 22.7331 55.4976 22.8258 54.5135C22.9216 53.4956 24.0782 53.1225 24.8577 53.6545C25.3309 53.9773 25.9367 53.2109 25.4774 52.8513C23.8591 51.5848 21.5514 52.9828 21.8157 54.994C22.0573 56.8308 23.9445 57.6503 25.5221 57.1268C25.5017 57.7755 25.7066 58.4432 25.7292 59.0941C25.1301 60.6931 23.9825 61.0103 22.547 60.216C20.3121 58.926 18.361 54.6442 18.5285 52.0976C18.6122 50.5086 19.2798 49.4598 20.3585 48.3617C22.1294 47.4949 23.0382 48.5517 24.2187 49.7087ZM36.8547 22.288C37.476 21.585 38.1348 22.1335 38.6472 22.6616C38.7361 22.9018 38.9341 23.3506 38.6403 23.5028C38.0707 23.2854 37.5366 23.2334 37.2279 23.6683C36.8521 24.0883 35.7979 25.724 35.224 26.6927C35.1816 26.7643 35.1246 26.8261 35.0566 26.8741C34.9887 26.9221 34.9113 26.9552 34.8297 26.9713C34.7481 26.9873 34.664 26.9859 34.5829 26.9672C34.5019 26.9484 34.4257 26.9128 34.3594 26.8625C33.6533 26.2515 34.6929 25.4765 35.0758 24.7524C35.6702 23.9288 36.1885 23.042 36.8547 22.288ZM34.0489 22.1334C34.2339 21.8228 34.2699 21.6983 34.6198 21.8458C35.0075 22.0094 35.3047 22.3268 35.6155 22.6019C35.2334 23.1209 34.9208 23.7005 34.4795 24.174C33.9479 24.7147 33.2486 25.7671 32.6496 24.9593C33.1914 24.0526 33.5444 23.0475 34.0489 22.1327V22.1334ZM26.2214 22.1433C25.7664 22.9806 24.7925 23.1101 24.0959 22.7003C23.3716 21.9363 23.5841 20.2778 24.6144 19.9087C26.0638 19.3889 26.8694 20.9489 26.2214 22.1426V22.1433ZM26.2528 9.14001C26.3063 8.60311 26.6181 7.74173 27.2694 7.78164C27.3818 7.83469 27.489 7.89829 27.5893 7.97157C27.6413 8.06959 27.6983 8.16423 27.7584 8.2564C27.9168 8.69177 28.2712 9.05551 28.392 9.51376C28.3899 9.52676 28.3881 9.53976 28.3859 9.55341C28.1549 9.79746 27.8553 9.96551 27.5266 10.0352C27.1979 10.105 26.8558 10.0731 26.5457 9.9438C26.4626 9.87158 26.3835 9.79485 26.3089 9.71396C26.2574 9.52704 26.2385 9.33269 26.2528 9.13936V9.14001ZM26.1006 11.487C26.4638 11.8487 26.6975 12.3201 26.7654 12.8281C26.3637 13.5332 25.8409 14.2296 24.9258 13.6684C24.7367 13.5494 24.5732 13.3937 24.445 13.2107C24.3168 13.0276 24.2265 12.8208 24.1792 12.6024C24.2957 11.4914 25.0989 10.9608 26.1006 11.4864V11.487ZM24.8158 15.53C25.6033 15.893 26.1743 16.7667 26.0217 17.6727C25.8974 17.8803 25.7319 18.0601 25.5353 18.2012C25.3388 18.3423 25.1154 18.4416 24.879 18.493C24.5524 18.4684 24.2242 18.4795 23.9001 18.5261C23.5737 18.4794 23.2597 18.369 22.9759 18.2011C22.8644 18.03 22.7715 17.8474 22.6989 17.6564C22.5632 16.4101 23.5128 15.2939 24.8158 15.5295V15.53ZM15.9657 27.2201C15.3049 27.2662 14.5182 27.3123 15.112 26.4301C18.3951 25.1069 18.0294 24.3176 21.1525 26.5991C21.1538 26.6046 21.1549 26.6101 21.1563 26.6155C21.0975 27.1651 21.1212 27.7204 21.2266 28.263C20.5326 27.7983 19.1349 25.7654 15.9657 27.2201ZM18.3566 30.4259C17.6735 30.8219 17.102 31.4506 16.5496 32.0433C16.4352 32.0097 16.4532 31.5475 16.4411 31.4269C16.4818 30.1009 17.647 29.1812 18.4185 28.2279C18.9557 27.7794 19.3702 28.1617 19.865 28.5058C20.5383 28.9738 21.139 29.5297 21.763 30.0548C22.3953 30.6212 21.59 31.5807 20.9344 31.0031C20.2138 30.321 19.4087 29.8159 18.3566 30.4259ZM19.6512 34.9597C18.809 35.4454 18.3265 36.209 17.9181 37.0323C17.5457 36.9404 17.6302 36.1223 17.7776 35.4203C18.1184 34.7156 18.5665 34.068 19.1061 33.5008C19.5052 33.0825 19.8401 32.937 20.4169 33.1328C21.2537 33.4169 21.9792 33.6431 22.8587 34.0003C23.3281 34.1677 23.4398 34.6668 23.5826 35.0885C22.3042 34.5931 20.8947 34.2586 19.6512 34.959V34.9597ZM25.1547 28.1769C23.8968 28.2235 23.0732 26.853 23.7536 25.7941C24.6741 24.3612 27.1316 23.4859 28.8658 24.366C29.4831 24.7027 29.9755 25.4671 28.9048 26.3216C27.9011 27.1232 26.5289 28.1257 25.1547 28.1769ZM39.0876 38.1583C38.0952 39.7219 35.6371 41.743 33.7623 41.9715C31.5506 42.1557 27.482 41.4802 27.0283 38.8515C27.0397 38.7772 27.0307 38.7012 27.0023 38.6315C26.9304 37.707 27.398 36.7562 27.9684 35.9615C28.0582 35.8388 28.1222 35.6991 28.1565 35.551C28.1907 35.4029 28.1945 35.2493 28.1677 35.0996C28.1409 34.95 28.084 34.8073 28.0004 34.6803C27.9168 34.5533 27.8083 34.4445 27.6815 34.3607C27.5194 34.2607 27.3376 34.1969 27.1485 34.1737C26.9443 34.15 26.7472 34.0844 26.5694 33.981C26.3917 33.8776 26.2372 33.7387 26.1155 33.573C25.2508 32.3548 25.501 30.5509 26.4038 29.3924C27.438 28.5735 28.4631 27.6958 29.7364 27.2387C31.0494 27.0965 32.6094 27.7869 32.4441 29.3282C31.8953 31.2485 27.9739 32.133 29.5443 33.607C29.9863 34.0055 30.789 33.2644 31.0659 32.9981C33.6973 30.469 36.8587 30.5234 38.1989 32.2079C39.2444 33.8696 40.1039 36.3046 39.0875 38.1581L39.0876 38.1583ZM59.9113 40.2188C59.4827 41.0945 58.7339 41.7719 57.8198 42.1109C58.1188 40.2629 57.374 38.3114 56.0175 37.0171C56.0175 37.0171 58.2102 38.2718 59.8837 36.9354C60.351 37.9546 60.4089 39.1926 59.9113 40.2188ZM45.0283 29.0901C44.8785 29.0597 44.7363 28.9997 44.61 28.9136C44.4836 28.8274 44.3758 28.717 44.2928 28.5886C44.2098 28.4602 44.1533 28.3166 44.1265 28.166C44.0998 28.0155 44.1034 27.8612 44.1372 27.7121C44.392 26.4455 47.7557 26.5161 48.8016 26.6013C47.0661 27.5236 47.0808 29.5412 45.0283 29.0901ZM49.821 34.8376C49.1769 34.0566 49.0725 32.9622 48.6943 32.0499C48.3162 31.1376 47.6502 30.2689 47.8956 29.2289C48.3028 27.5019 50.2654 26.7732 51.8652 26.966C55.7089 27.4521 59.5114 30.4438 60.0175 34.426C59.8494 35.3777 59.2566 36.1042 58.2588 36.1887C54.9774 35.8143 57.01 34.0058 56.0678 32.1457C55.7679 31.6242 55.28 31.2371 54.704 31.0637C54.1279 30.8902 53.5074 30.9435 52.9694 31.2127C51.6908 31.4272 50.7854 32.8966 51.2253 34.1282C51.4412 34.7417 52.3909 34.4983 52.2115 33.8564C51.9796 33.0267 52.6038 32.1221 53.5127 32.2098C54.5035 32.3055 55.0751 33.3084 54.8626 34.2248C54.3501 36.4349 51.0356 36.3107 49.821 34.8376Z" fill="#C1768D"/>
<path d="M4.38126 20.0601C4.51919 20.0134 5.24758 19.7723 6.0346 19.5943C7.49398 19.2641 9.0376 20.0814 9.96801 21.6757C10.6115 22.7781 11.8765 25.1701 11.8893 25.1941C12.1672 25.7271 13.0042 25.411 12.8538 24.8259C12.1447 21.4523 10.1812 17.6723 15.03 15.9947C15.648 15.7195 15.2607 14.7842 14.6258 15.0362C9.41434 16.9671 9.00783 13.4591 7.23788 10.1117C6.97281 9.54582 6.0879 9.87537 6.26938 10.4816C6.27718 10.5076 7.05458 13.1522 7.38088 14.5516C7.97602 17.2344 5.50303 18.5134 4.04326 19.0769C3.40795 19.3087 3.72983 20.2672 4.38126 20.0601ZM8.47938 14.8156C9.30332 15.9667 10.6522 16.6807 11.9882 16.6195C10.9334 17.7387 10.5395 19.5315 10.9606 21.3145C10.0863 19.7043 8.59781 18.6306 7.06537 18.4989C8.10082 17.6557 8.63226 16.2228 8.47899 14.8156H8.47938Z" fill="#C1768D"/>
<path d="M49.7045 5.29116C49.69 5.31456 48.2335 7.65417 47.4057 8.82898C45.7988 11.0582 43.198 10.0632 41.8076 9.3482C41.2109 9.02827 40.7097 9.9072 41.2976 10.2547C41.4239 10.3266 42.0873 10.709 42.7452 11.179C43.9624 12.0486 44.3799 13.7448 43.8086 15.5005C43.4138 16.7141 42.4696 19.2502 42.4607 19.2757C42.2473 19.8334 43.0374 20.2547 43.3772 19.7505C45.4239 16.9762 46.9392 12.9959 51.4175 15.4995C52.0344 15.7779 52.4748 14.8668 51.8642 14.5602C50.4593 13.8249 48.1699 12.2792 49.0604 9.68633C49.5428 8.33264 50.6144 5.79374 50.6252 5.76813C50.871 5.19288 50.0366 4.75244 49.7045 5.29116ZM48.9274 13.6441C47.3905 13.5987 45.7895 14.5004 44.7388 16.0008C45.3592 14.2769 45.1703 12.4518 44.2488 11.2197C45.5682 11.4316 46.9909 10.8748 47.9393 9.82439C47.6279 11.2053 47.9944 12.6889 48.9274 13.6441Z" fill="#C1768D"/>
<path d="M40.6371 53.8455C39.9598 53.8306 39.92 54.8483 40.6014 54.8855C45.743 54.7202 45.2411 58.9841 45.7845 62.3598C45.8518 62.9542 46.7487 62.962 46.8168 62.3598C47.3581 58.9548 46.871 54.724 51.9999 54.8857C52.6769 54.8484 52.6446 53.8365 51.964 53.8457C51.0057 53.8542 50.0538 53.6887 49.1546 53.3574C48.1779 52.9923 47.3875 51.9443 47.2324 50.8094C47.0374 49.3855 46.8212 46.6383 46.819 46.6104C46.7734 45.9872 45.8288 45.9795 45.7824 46.6104C45.7802 46.638 45.5635 49.385 45.369 50.8094C44.9677 53.5271 42.2018 53.8401 40.6371 53.8455ZM46.3006 51.4471C46.6434 52.761 47.5981 53.8855 48.7903 54.3313C48.8389 54.3494 48.8872 54.3667 48.9354 54.3833C47.5509 55.0525 46.5434 56.587 46.3008 58.4029C46.058 56.5869 45.0509 55.0528 43.666 54.3833C44.9344 53.9654 45.9419 52.8162 46.3006 51.4471Z" fill="#C1768D"/>
<path d="M18.0113 14.0434C17.8778 14.7807 18.9708 14.9981 19.1293 14.2658C19.263 13.5284 18.1699 13.3111 18.0113 14.0434Z" fill="#C1768D"/>
<path d="M55.6441 9.28795C55.5105 10.0253 56.6036 10.2427 56.7621 9.51025C56.8959 8.77237 55.8026 8.55514 55.6441 9.28795Z" fill="#C1768D"/>
<path d="M59.7372 24.3525C60.4746 24.4862 60.6919 23.3929 59.9597 23.2345C59.2223 23.1007 59.0049 24.194 59.7372 24.3525Z" fill="#C1768D"/>
<path d="M10.155 44.2425C9.41766 44.1089 9.20017 45.202 9.93259 45.3605C10.67 45.4943 10.8873 44.401 10.155 44.2425Z" fill="#C1768D"/>
<path d="M46.1318 42.9274C46.8691 43.0611 47.0865 41.9679 46.3542 41.8094C45.6168 41.6756 45.3995 42.7688 46.1318 42.9274Z" fill="#C1768D"/>
<path d="M32.4636 49.1695C31.7261 49.0359 31.5089 50.1292 32.2412 50.2875C32.9785 50.4214 33.1959 49.328 32.4636 49.1695Z" fill="#C1768D"/>
<path d="M31.7418 15.9167C31.6081 16.654 32.7013 16.8714 32.8598 16.1391C32.9935 15.4017 31.9005 15.1844 31.7418 15.9167Z" fill="#C1768D"/>
</svg>
