<svg width="65" height="66" viewBox="0 0 65 66" fill="none" xmlns="http://www.w3.org/2000/svg">
<path d="M3.75195 24.7107C3.10533 24.9095 3.37664 25.8839 4.03795 25.7107C4.63006 25.5477 5.22998 25.4145 5.83546 25.3117C7.43576 25.0482 9.09326 26.1128 10.0586 28.0228C10.7171 29.325 12.0033 32.1383 12.0162 32.1666C12.2642 32.7187 13.1251 32.4417 12.9987 31.8467C12.7199 29.6107 10.6131 24.4331 13.9607 22.6673C14.5108 22.394 15.0743 22.1485 15.649 21.9319C15.7785 21.8844 15.8839 21.7875 15.9419 21.6624C15.9999 21.5372 16.0059 21.3942 15.9584 21.2647C15.911 21.1352 15.814 21.0299 15.6889 20.9718C15.5638 20.9138 15.4208 20.9079 15.2913 20.9553C14.314 21.2831 13.2826 21.4192 12.2537 21.356C11.1119 21.2816 9.91512 20.3853 9.34312 19.1764C8.64021 17.6898 7.44616 14.7719 7.43446 14.7425C7.20046 14.1615 6.29345 14.4457 6.44815 15.0634C7.20046 19.02 9.55346 22.7717 3.75195 24.7107ZM8.59588 19.988C9.46038 21.471 10.9731 22.4269 12.5358 22.4091C11.211 23.6047 10.7225 25.8499 11.1931 27.9689C10.3258 25.9777 8.61057 24.4513 6.83555 24.2639C8.10916 23.359 8.76982 21.6957 8.59588 19.988Z" fill="#C1768D"/>
<path d="M49.8116 21.1837C51.2198 17.8076 51.8343 12.608 57.2579 14.121C57.9232 14.2437 58.1298 13.25 57.4639 13.1015C51.5574 11.6889 53.5733 7.59496 54.018 3.69587C54.1151 3.07044 53.21 2.8471 53.0096 3.45355C51.6259 7.17155 51.5514 11.6848 45.6646 10.2646C45.0092 10.0943 44.7317 11.0693 45.3846 11.2656C46.3622 11.5749 48.0213 11.931 48.7175 13.3164C45.7652 14.9392 42.1614 14.2031 39.0218 15.2234C36.3712 16.0847 34.0416 18.4949 33.7406 21.3375C33.3767 21.2745 33.0092 21.2347 32.6403 21.2182C30.9263 18.7627 28.9679 16.6292 30.936 13.5969C31.8913 12.2877 33.4754 11.6079 34.6994 10.5947C37.0632 8.63756 38.3533 5.53134 38.1766 2.48271C38.1431 1.90317 37.2878 1.86651 37.2189 2.38144C31.9413 10.3019 24.9767 4.31766 21.0707 12.1479C21.0707 12.1479 18.774 16.6648 20.9956 23.0611C21.0793 23.3223 21.0933 23.6009 21.0362 23.8693C20.9792 24.1376 20.853 24.3864 20.6703 24.591C15.0971 29.1207 11.9171 37.7804 16.175 44.1598C16.2281 44.2092 16.2957 44.2402 16.3678 44.2482C16.4399 44.2562 16.5127 44.2408 16.5753 44.2043C16.638 44.1678 16.6873 44.1121 16.7158 44.0455C16.7444 43.9788 16.7508 43.9047 16.734 43.8341C16.1742 42.6572 15.7628 41.4153 15.5093 40.1369C15.4864 39.9757 14.1079 29.9319 25.528 28.4291C26.5314 28.6375 27.5688 28.6165 28.5629 28.3677C33.6249 27.1717 33.9247 24.252 33.1503 22.296C36.8007 23.0852 40.3887 24.8495 42.9826 27.5752C44.7975 29.5063 45.801 31.9706 47.7519 33.8095C47.4855 33.8837 45.9859 34.5704 45.5765 34.8861C43.7421 35.082 41.9643 32.8147 40.7813 31.229C39.0263 28.9905 36.3587 27.818 34.4797 25.7032C34.2381 25.4315 33.796 25.782 33.9804 26.0885C34.3914 26.7416 34.9057 27.3236 35.5033 27.8118C35.5073 27.8853 35.5356 27.9554 35.5839 28.0109C35.7629 28.2248 35.6158 28.7046 35.5998 28.9556C35.5695 29.4418 35.6479 29.9285 35.8293 30.3805C36.0108 30.8325 36.2906 31.2384 36.6486 31.5686C38.4283 33.1208 39.3526 31.9638 40.6997 32.6102C41.9076 34.3912 43.5443 36.0237 45.8583 35.8666C45.1108 38.6729 48.2987 39.0923 50.3503 38.9494C51.7556 38.874 52.2248 37.5398 52.064 36.4457C51.9933 35.6715 51.4412 34.6586 50.1026 34.2087C46.5243 32.5825 45.4746 27.6507 42.1645 25.4511C41.4726 22.7426 42.392 20.4604 45.0461 19.3493C46.5234 18.6908 48.2133 18.2453 49.2589 16.9217C49.1085 18.4823 48.8108 20.915 48.8075 20.9424C48.7296 21.541 49.6043 21.7592 49.8116 21.1837ZM31.7754 7.77995C33.9152 6.97551 36.0102 5.75611 37.2046 3.73695C36.9836 5.95345 36.2724 7.42674 35.3603 8.53486C34.4482 9.64298 33.0912 11.2678 31.5093 10.2334C29.9275 9.19903 31.7754 7.77995 31.7754 7.77995ZM32.3674 24.004C32.1667 25.1274 31.2494 26.2895 30.036 26.4398C25.6479 27.1425 22.5445 20.7939 21.7453 16.8608C20.8442 11.6065 24.6703 8.1862 29.7336 8.08441C27.7625 10.3298 28.0972 13.6484 28.788 16.3976C29.4023 19.0846 32.7143 21.369 32.3674 24.004ZM37.4363 30.918C36.7187 30.3625 36.5326 29.4546 36.5069 28.6007C37.6759 29.4282 38.8101 30.3282 39.7189 31.3839C38.8833 31.4454 38.131 31.4789 37.4363 30.9179V30.918ZM48.5264 11.4979C50.0855 11.3929 51.5187 10.3208 52.2638 8.77458C52.2225 10.3506 52.9175 11.8916 54.0651 12.7033C54.1616 12.7716 54.2582 12.8369 54.3549 12.8992C52.5999 13.2251 51.0098 14.8822 50.3019 16.9349C50.6042 14.7837 49.9411 12.5857 48.5264 11.4979Z" fill="#C1768D"/>
<path d="M50.8578 40.8943C51.0268 40.4024 50.3248 40.1694 50.0596 40.5577C47.4788 43.7594 38.5667 40.1208 34.6837 41.4962C21.2795 43.6152 26.742 33.2412 29.824 35.7684C30.6751 36.644 30.3888 38.571 28.904 37.7228C28.5543 37.4801 28.215 37.9384 28.3691 38.2578C28.7021 38.9511 29.5521 39.0542 30.2078 38.7823C31.0008 38.4533 31.3693 37.6277 31.3137 36.8014C29.7797 29.8864 19.1457 39.3398 29.1356 43.3173C29.2701 43.3566 29.3952 43.4229 29.5034 43.5121C29.6115 43.6013 29.7003 43.7116 29.7645 43.8362C29.8287 43.9608 29.8669 44.0972 29.8767 44.237C29.8866 44.3769 29.8679 44.5172 29.8218 44.6496C28.8171 47.4773 27.1365 54.9138 33.9579 61.5386C29.6136 59.8815 24.4207 56.4517 22.396 52.1515C23.4955 50.0441 25.178 50.0084 26.904 49.9675C27.58 49.9441 27.5741 48.9338 26.8897 48.9275C25.859 48.9134 24.8408 48.7003 23.8908 48.3002C22.8378 47.852 22.0058 46.6102 21.8658 45.2801C21.6944 43.6446 21.5335 40.4961 21.5319 40.4641C21.4953 39.8349 20.5648 39.8047 20.495 40.4406C20.492 40.4721 20.188 43.6103 19.9423 45.2363C19.7424 46.5587 18.854 47.7614 17.782 48.1613C16.815 48.5184 15.788 48.6849 14.7577 48.6517C14.6213 48.6457 14.488 48.6936 14.3866 48.785C14.2852 48.8764 14.2238 49.0041 14.2158 49.1404C14.2077 49.2767 14.2535 49.4107 14.3434 49.5134C14.4332 49.6162 14.5599 49.6795 14.6961 49.6897C15.3088 49.7319 15.919 49.8048 16.5244 49.9083C18.1214 50.1897 19.3334 51.7427 19.6123 53.8644C19.8025 55.3113 20.0848 58.3917 20.0877 58.4226C20.0993 58.5497 20.1573 58.6682 20.2506 58.7553C20.3439 58.8424 20.466 58.8922 20.5937 58.8951C20.7213 58.898 20.8456 58.8539 20.9427 58.7711C21.0399 58.6883 21.1033 58.5726 21.1207 58.4461C21.1263 58.3711 21.5822 55.0893 21.8478 53.6875C26.2831 60.116 34.3824 64.306 42.1856 63.9555C42.2922 63.9502 42.3927 63.9041 42.4662 63.8268C42.5398 63.7494 42.5808 63.6468 42.5808 63.5401C42.5808 63.4333 42.5398 63.3307 42.4662 63.2533C42.3927 63.176 42.2922 63.1299 42.1856 63.1246C39.8941 62.8633 38.9616 63.0726 37.178 61.3219C34.691 56.6719 34.389 50.7621 36.7666 46.0042C37.6259 44.2169 38.8577 43.0855 40.8629 42.7743C41.3829 42.6778 41.9246 42.8277 42.4271 42.6832C44.8632 42.8658 49.764 43.7639 50.8578 40.8943ZM20.779 53.7326C20.7541 53.8722 20.7278 54.0259 20.701 54.1897C20.5415 52.0237 19.4283 50.0158 17.815 49.2515C19.3165 48.819 20.4906 47.468 20.8916 45.799C21.1848 47.3482 22.19 48.7072 23.4834 49.2577C23.5923 49.304 23.7006 49.3474 23.8084 49.3877C22.2891 50.0613 21.1486 51.6562 20.779 53.7326Z" fill="#C1768D"/>
<path d="M45.8539 62.9001C45.154 63.0518 45.3619 64.0961 46.0665 63.9687C46.7665 63.8177 46.5585 62.7729 45.8539 62.9001Z" fill="#C1768D"/>
<path d="M11.1859 48.8275C10.486 48.9792 10.6939 50.0235 11.3986 49.8961C12.0985 49.7441 11.8905 48.6997 11.1859 48.8275Z" fill="#C1768D"/>
<path d="M48.1547 24.5067C47.4548 24.6584 47.6626 25.7027 48.3674 25.5754C49.0673 25.4237 48.8593 24.3789 48.1547 24.5067Z" fill="#C1768D"/>
<path d="M60.9711 33.7345C60.2712 33.886 60.4791 34.9305 61.1837 34.8031C61.8836 34.6511 61.6757 33.6065 60.9711 33.7345Z" fill="#C1768D"/>
<path d="M45.8266 49.0681C45.1267 49.2197 45.3345 50.2641 46.0391 50.1367C46.7387 49.9855 46.5308 48.9407 45.8266 49.0681Z" fill="#C1768D"/>
<path d="M21.2422 4.51587C21.9421 4.36429 21.7342 3.31987 21.0296 3.44727C20.3298 3.59898 20.5377 4.64379 21.2422 4.51587Z" fill="#C1768D"/>
<path d="M18.1798 21.1722C18.8797 21.0205 18.6719 19.9762 17.9673 20.1035C17.2672 20.2552 17.4752 21.3 18.1798 21.1722Z" fill="#C1768D"/>
<path d="M5.72507 33.7877C5.02502 33.9394 5.23302 34.9837 5.93762 34.8563C6.63754 34.7046 6.42967 33.6599 5.72507 33.7877Z" fill="#C1768D"/>
</svg>
