<svg width="65" height="66" viewBox="0 0 65 66" fill="none" xmlns="http://www.w3.org/2000/svg">
<path d="M60.0339 27.3677C59.2965 27.2341 59.0792 28.3273 59.8114 28.4857C60.5488 28.619 60.7662 27.527 60.0339 27.3677Z" fill="#C1768D"/>
<path d="M6.81462 35.6766C6.32985 36.1493 7.01781 36.8917 7.52611 36.435C10.8849 32.9232 13.0606 35.7288 15.769 37.6741C16.2339 38.0439 16.8693 37.4132 16.4982 36.9448C16.4832 36.9254 14.9934 34.9897 14.3317 34.0458C13.3857 32.6973 13.3328 31.094 14.1967 29.9612C14.6665 29.3451 15.1643 28.8034 15.2592 28.7011C15.7127 28.1984 14.978 27.5013 14.5005 27.9899C10.8483 31.5901 9.29463 29.1719 6.43788 26.8803C5.96533 26.4763 5.29596 27.1345 5.7052 27.6131C5.72119 27.6322 7.32591 29.5307 8.1011 30.5694C9.57309 32.6229 7.78572 34.6804 6.81462 35.6766ZM12.745 30.5169C12.3091 31.8369 12.5747 33.3804 13.51 34.6855C12.2246 33.7801 10.7636 33.4694 9.34156 33.9202C9.59749 33.3643 9.71999 32.7562 9.69932 32.1446C9.67865 31.5329 9.51536 30.9346 9.22248 30.3972C9.75975 30.6901 10.358 30.8534 10.9695 30.8742C11.5811 30.895 12.1891 30.7726 12.745 30.5169Z" fill="#C1768D"/>
<path d="M53.5226 9.38996C52.6113 9.28054 51.7255 9.01589 50.9036 8.60749C50.2983 8.30407 49.8217 9.19652 50.4191 9.52763C50.5425 9.59341 51.1909 9.94363 51.8351 10.3709C53.0213 11.1589 53.4949 12.6913 53.0418 14.2748C52.7248 15.3826 51.9498 17.6989 51.9418 17.7222C51.7482 18.2827 52.5415 18.6792 52.8695 18.1729C52.8825 18.1525 54.225 16.1116 54.9002 15.1779C55.8652 13.8431 57.3628 13.2685 58.7152 13.7145C59.4523 13.9575 60.1257 14.2504 60.2531 14.3067C60.8762 14.5705 61.2953 13.6494 60.6773 13.3577C56.0049 10.9861 57.898 8.86476 59.0913 5.37569C59.3186 4.79641 58.4777 4.38002 58.1592 4.92277C58.1462 4.94422 56.8767 7.08077 56.1486 8.15353C55.5785 8.99333 54.4986 9.5028 53.5226 9.38996ZM56.6774 9.15726C56.5764 9.76058 56.6177 10.3792 56.798 10.9637C56.9783 11.5482 57.2926 12.0826 57.7159 12.5243C56.3264 12.5443 54.9549 13.2996 54.0276 14.6098C54.485 13.0708 54.2312 11.526 53.3883 10.4212C53.9971 10.4811 54.6115 10.398 55.1825 10.1786C55.7535 9.95915 56.2654 9.60942 56.6774 9.15726Z" fill="#C1768D"/>
<path d="M14.569 59.0303C14.036 59.443 14.6557 60.2644 15.1991 59.8578C18.6934 56.8418 20.6981 60.1424 22.9875 62.1458C23.4173 62.565 24.1156 62.0011 23.7868 61.4923C23.7738 61.4716 22.4678 59.4097 21.8929 58.4128C20.6136 56.0578 21.5525 54.6877 23.0943 53.4045C23.5935 52.9495 22.9331 52.1825 22.4085 52.6225C18.5413 55.7153 17.2241 52.7968 14.7874 50.4792C14.3559 50.0264 13.6212 50.6174 13.9845 51.1356C13.9988 51.156 15.4171 53.1974 16.0951 54.3009C17.3532 56.3855 15.6349 58.1549 14.569 59.0303ZM17.2772 54.3441C18.2636 54.9949 19.5132 55.1978 20.5588 54.8381C20.0731 56.0123 20.186 57.4511 20.9148 58.7947C19.743 57.8133 18.3554 57.4167 17.108 57.6587C17.6691 56.7053 17.7189 55.4401 17.2772 54.3441Z" fill="#C1768D"/>
<path d="M54.0074 36.0784C53.8737 36.8157 54.9669 37.0331 55.1254 36.3008C55.2592 35.5633 54.166 35.346 54.0074 36.0784Z" fill="#C1768D"/>
<path d="M50.3394 21.3483C50.2058 22.0857 51.299 22.3031 51.4574 21.5708C51.5912 20.8333 50.498 20.6161 50.3394 21.3483Z" fill="#C1768D"/>
<path d="M16.7075 6.60236C16.8411 5.86513 15.748 5.64777 15.5895 6.38006C15.4555 7.11703 16.5489 7.33478 16.7075 6.60236Z" fill="#C1768D"/>
<path d="M4.4716 39.3859C5.20896 39.5195 5.42632 38.4264 4.69403 38.2679C3.95667 38.1341 3.73931 39.2269 4.4716 39.3859Z" fill="#C1768D"/>
<path d="M12.2372 49.5199C12.9746 49.6536 13.1919 48.5604 12.4597 48.4019C11.7223 48.2682 11.5049 49.3613 12.2372 49.5199Z" fill="#C1768D"/>
<path d="M47.1918 3.37298C47.3254 2.63562 46.2322 2.41826 46.0738 3.15055C45.9404 3.88726 47.0337 4.10462 47.1918 3.37298Z" fill="#C1768D"/>
<path d="M7.12766 14.4903C6.39017 14.3565 6.17294 15.4499 6.90523 15.6083C7.64259 15.7421 7.85995 14.6488 7.12766 14.4903Z" fill="#C1768D"/>
<path d="M27.3942 22.9027C27.3358 22.564 27.6022 22.1681 27.7919 21.9196C28.0057 21.6394 27.5397 21.2856 27.3046 21.5437C26.4682 22.4088 26.4358 23.524 27.5658 24.1394C27.9117 24.3383 28.3156 23.8526 28.0027 23.5731C27.7988 23.391 27.4458 23.2022 27.3942 22.9027Z" fill="#C1768D"/>
<path d="M13.3639 19.7713C13.2273 21.3363 14.5753 22.6053 16.1062 22.5433C17.4073 22.4903 18.4202 21.7083 19.0832 20.6686C18.5231 27.3766 18.9686 34.6046 22.1539 40.632C21.0468 40.0885 19.8075 40.2593 18.6262 40.3643C17.7345 40.4326 16.8376 40.3727 15.9629 40.1864C15.084 39.9952 14.2989 39.6282 13.4669 39.3055C12.3801 38.8822 10.5639 38.8796 10.3218 40.3612C10.2858 40.4287 10.2733 40.5062 10.2862 40.5815C10.2992 40.6568 10.3369 40.7257 10.3933 40.7772C13.3753 43.5757 15.3136 43.6401 18.9993 44.5156C21.8955 45.2508 23.609 47.7482 25.1375 50.1339C25.6484 51.3263 25.9444 52.5962 26.209 53.86C27.0108 57.6642 29.7888 61.5593 33.8184 61.8389C35.8285 61.9785 38.0502 60.8443 38.529 58.7674C38.9698 56.8546 37.8025 54.6056 35.6472 54.6169C34.5675 54.6226 33.5523 55.3853 33.3517 56.4658C33.1511 57.5462 33.9247 58.6339 35.0231 58.7246C35.5739 58.7701 35.6288 57.9599 35.148 57.801C33.9506 57.4049 34.2184 55.8909 35.369 55.656C36.4655 55.432 37.368 56.3402 37.5727 57.3414C37.9926 59.3954 36.0848 60.8347 34.1996 60.8734C32.0819 60.917 30.2385 59.4658 28.9509 57.9158C24.8595 52.8087 26.973 45.3213 29.6624 40.0485C28.3008 44.1782 27.7726 51.7303 30.9373 55.1071C31.2118 55.3662 31.5652 55.0421 31.4295 54.7274C31.0155 53.7679 30.4995 52.8896 30.1945 51.8788C28.5045 46.0548 30.0717 39.766 33.5956 34.9398C36.8951 30.9945 39.6363 25.0627 40.035 19.4061C40.0864 19.0009 40.1978 18.6057 40.3656 18.2333C40.6859 17.5678 41.4605 16.9192 42.2301 17.2705C43.3278 17.7718 43.3523 19.0876 43.3133 20.2714C42.4053 26.6024 38.0513 31.8544 36.3583 37.9904C35.2891 41.5956 34.8903 45.499 35.967 49.1527C37.8205 55.8717 45.7199 62.3362 52.6312 58.3029C50.2756 61.3035 46.2993 62.6526 42.5366 62.0775C41.1958 61.9112 39.9426 61.4496 38.6248 61.2047C38.1878 61.1235 37.8528 61.7377 38.3024 61.9694C54.921 69.127 62.5926 45.3647 52.6522 39.8475C51.641 39.3522 50.4377 39.1356 49.3641 39.5435C48.0641 40.1011 47.2808 41.7374 48.0086 43.0378C48.6164 44.124 50.4806 44.4197 50.8706 42.9915C51.0006 42.5143 50.3453 42.2539 50.0863 42.6608C50.0589 42.7034 50.0278 42.7433 49.9931 42.7803C49.2272 42.8964 48.9921 42.1318 49.3308 41.5323C49.4572 41.3118 49.6394 41.1286 49.8591 41.0009C50.0789 40.8733 50.3283 40.8057 50.5824 40.805C51.5716 40.9835 52.2186 42.1858 52.3504 43.2048C52.525 44.607 51.715 46.2244 50.9415 47.1136C49.256 48.9628 46.5927 48.1442 45.0435 46.5747C40.8739 42.3903 42.0587 36.4677 43.1644 31.2867C44.2757 33.8209 48.292 33.2118 49.2018 30.7797C49.7859 29.2859 48.9434 27.4517 47.2443 27.3111C46.4489 27.2451 45.6036 27.6831 45.3276 28.4591C45.0806 29.1547 45.3911 30.0955 46.1726 30.2611C46.5857 30.3486 46.9738 29.8249 46.6137 29.5031C45.8844 28.9691 46.4203 28.2941 47.1576 28.3291C47.9614 28.379 48.4376 29.1805 48.365 29.9208C47.9534 32.6427 42.4742 33.3353 43.9242 27.4949C45.9392 18.0675 44.3571 4.58354 32.8425 2.81463C30.2664 2.51732 27.4333 3.36063 25.8355 5.49263C25.5534 5.84727 25.3155 6.14263 24.9187 6.37559C21.3449 8.25201 20.6195 12.8912 19.7307 16.4693C19.283 18.2187 18.9598 20.3624 17.2152 21.3073C15.9832 21.9525 14.0527 21.4422 14.3058 19.737C14.4082 19.0464 14.9837 18.378 15.7263 18.3903C16.4381 18.4022 16.797 19.1595 16.2546 19.6503C15.8757 19.993 16.3656 20.6205 16.7985 20.3553C17.9526 19.6483 17.4667 17.897 16.275 17.543C14.831 17.1152 13.4852 18.3819 13.3639 19.7713ZM48.2925 58.6665C41.0675 58.5462 36.4782 51.4362 36.2545 44.9805C36.0307 38.5248 36.0734 41.5425 38.4747 40.8833C40.6147 40.2957 40.6197 42.8125 40.596 43.3676C40.1755 50.6091 41.5444 57.0667 48.2925 58.6665ZM43.6317 23.4907C43.3484 26.5487 42.3447 30.9345 41.5539 35.5872C40.1629 37.2528 38.351 36.0823 38.7242 34.0961C40.2646 30.5392 42.2082 27.1671 43.3712 23.4395C43.3817 23.4089 43.403 23.3832 43.431 23.3671C43.4591 23.3509 43.492 23.3455 43.5237 23.3517C43.5555 23.358 43.5839 23.3755 43.6038 23.401C43.6236 23.4266 43.6335 23.4584 43.6317 23.4907ZM20.1447 31.4597C20.0892 31.1064 20.0407 30.7519 19.9939 30.3969C20.0292 29.585 20.3438 28.6043 20.9103 28.0619C21.9159 27.2107 22.2259 29.2137 22.4508 29.8464C22.9776 32.2826 23.7756 34.652 24.8298 36.9105C25.0604 37.883 25.8491 38.8751 25.3228 39.8269C24.9536 40.4947 24.0827 40.2581 23.5452 39.962C21.0012 37.9998 20.6949 34.3716 20.1447 31.4594V31.4597ZM19.9968 25.6062L19.9976 25.6071H19.9969L19.9968 25.6062ZM22.6528 24.9161C23.1468 26.0358 23.8588 27.0192 24.9042 27.7278C25.1179 29.4752 25.6271 31.2111 26.2187 32.8697C26.3428 33.7199 26.7341 34.6802 26.3684 35.468C23.8722 36.445 22.7823 26.6088 22.6528 24.9157V24.9161ZM25.8421 49.452C20.5232 40.82 17.9601 45.4566 11.175 40.3831C12 39.3775 13.7317 40.5512 14.6803 40.8733C20.9786 42.6933 19.832 38.6493 26.5484 45.3375C26.1667 46.6797 25.93 48.059 25.8421 49.4516V49.452ZM31.0062 35.8517C30.8155 33.5543 30.2324 30.6371 32.2046 28.926C32.8301 28.456 33.8756 28.3434 34.4406 28.9589C33.8513 31.487 32.3555 33.676 31.0062 35.8517ZM33.22 26.6109C30.4982 28.7919 25.8736 28.2783 23.9076 25.2672C22.0868 22.4788 22.6245 17.8727 22.6245 17.8727C22.8271 16.1606 23.4765 14.5321 24.5075 13.1504C24.8484 19.1857 28.5842 21.7004 33.1785 21.1907C33.659 21.1196 34.1496 21.2022 34.5802 21.4267C35.2884 21.8291 35.1328 25.0784 33.2203 26.6109H33.22ZM21.2548 13.6412C22.0738 10.7078 22.882 8.25019 25.7788 6.79133C26.4765 6.22518 26.8813 5.38811 27.6273 4.84926C31.9953 1.82104 38.1877 4.65309 40.7175 8.61107C41.2931 9.81084 42.0234 11.3529 41.4047 12.681C40.7621 14.0128 39.6072 13.3596 39.0691 12.3466C38.1697 10.0763 36.6067 8.12998 34.5841 6.76169C34.195 6.53783 33.8583 7.12153 34.2338 7.36086C38.0818 10.1776 39.4005 14.5038 39.1793 18.9968C39.1641 19.1233 38.8404 21.6893 37.5038 22.0227C36.5141 22.2697 36.1943 21.0462 36.0929 20.3472C36.0791 20.1947 35.9546 16.2711 34.3142 14.005C34.1109 13.7242 33.6371 13.9056 33.7472 14.2442C34.0662 15.2263 34.3422 16.2114 34.564 17.2052C34.8009 18.4865 33.5006 19.191 32.432 18.5962C30.5509 17.6275 29.7464 15.3019 29.624 12.9483C29.621 12.8635 29.5853 12.7832 29.5243 12.7242C29.4633 12.6653 29.3818 12.6323 29.2969 12.6323C29.2121 12.6323 29.1306 12.6653 29.0696 12.7242C29.0086 12.7832 28.9728 12.8635 28.9699 12.9483C28.821 14.4854 29.1138 16.0331 29.8138 17.4097C30.1453 18.0934 30.9295 18.7425 30.6927 19.5727C30.6096 19.7376 30.4449 19.959 30.1928 19.9323C26.8954 18.9951 25.3758 15.8561 25.4536 12.0051C25.4814 11.9344 25.4831 11.856 25.4584 11.7841C25.4742 11.0486 25.5408 10.3151 25.6575 9.5888C25.6785 9.5051 25.6658 9.41652 25.6223 9.34201C25.5788 9.26749 25.5079 9.21294 25.4247 9.19002C25.3415 9.16711 25.2527 9.17763 25.1771 9.21935C25.1016 9.26108 25.0454 9.33069 25.0205 9.4133C24.6508 10.3047 24.684 11.3205 24.2322 12.1923C20.8406 15.2333 21.6557 20.5357 21.7232 24.7299C21.6683 25.3265 21.0644 25.4857 20.6234 25.1731C19.9191 24.6568 19.8628 23.6044 19.7112 22.816C19.8785 19.7094 20.3964 16.6315 21.2551 13.6412H21.2548Z" fill="#C1768D"/>
<path d="M25.1354 19.1356C24.9433 19.1181 24.7569 19.0612 24.5878 18.9685C24.4187 18.8758 24.2704 18.7493 24.1523 18.5968C23.9242 18.3267 23.5242 18.6713 23.6794 18.9618C23.8264 19.2302 24.0354 19.4598 24.2888 19.6314C24.2084 20.3804 24.2579 21.5402 24.9886 21.7207C26.2464 21.8389 26.2082 19.2813 25.1354 19.1356Z" fill="#C1768D"/>
</svg>
