<svg width="17" height="20" viewBox="0 0 17 20" fill="none" xmlns="http://www.w3.org/2000/svg">
<path d="M8.52754 9.935C11.2597 9.935 13.495 7.69963 13.495 4.9675C13.495 2.23538 11.2597 0 8.52754 0C5.79542 0 3.56004 2.23538 3.56004 4.9675C3.56004 7.69963 5.79542 9.935 8.52754 9.935ZM8.52754 0.827917C10.8457 0.827917 12.6671 2.64933 12.6671 4.9675C12.6671 7.28567 10.8457 9.10708 8.52754 9.10708C6.20938 9.10708 4.38796 7.28567 4.38796 4.9675C4.38796 2.64933 6.29217 0.827917 8.52754 0.827917ZM16.8067 15.7304V19.87H15.9788V15.7304C15.9788 13.909 14.4885 12.4187 12.6671 12.4187H4.13958C2.31817 12.4187 0.827917 13.909 0.827917 15.7304V19.87H0V15.7304C0 13.4123 1.82142 11.5908 4.13958 11.5908H12.6671C14.9853 11.5908 16.8067 13.4123 16.8067 15.7304Z" fill="#C1768D"/>
</svg>
