<svg width="17" height="21" viewBox="0 0 17 21" fill="none" xmlns="http://www.w3.org/2000/svg">
<path d="M8.52754 10.7368C11.2597 10.7368 13.495 8.50138 13.495 5.76926C13.495 3.03713 11.2597 0.801758 8.52754 0.801758C5.79542 0.801758 3.56004 3.03713 3.56004 5.76926C3.56004 8.50138 5.79542 10.7368 8.52754 10.7368ZM8.52754 1.62967C10.8457 1.62967 12.6671 3.45109 12.6671 5.76926C12.6671 8.08742 10.8457 9.90884 8.52754 9.90884C6.20938 9.90884 4.38796 8.08742 4.38796 5.76926C4.38796 3.45109 6.29217 1.62967 8.52754 1.62967ZM16.8067 16.5322V20.6718H15.9788V16.5322C15.9788 14.7108 14.4885 13.2205 12.6671 13.2205H4.13958C2.31817 13.2205 0.827917 14.7108 0.827917 16.5322V20.6718H0V16.5322C0 14.214 1.82142 12.3926 4.13958 12.3926H12.6671C14.9853 12.3926 16.8067 14.214 16.8067 16.5322Z" fill="#393939"/>
</svg>
