<svg width="22" height="22" viewBox="0 0 22 22" fill="none" xmlns="http://www.w3.org/2000/svg">
<path d="M11 21.1922L10.7336 21.0075C10.2953 20.7067 0 13.4922 0 7.12427C0 3.70396 2.56523 0.915283 5.72773 0.915283C8.05664 0.915283 10.1191 2.56528 11 4.86411C11.8809 2.57388 13.9434 0.915283 16.2723 0.915283C19.4348 0.915283 22 3.70396 22 7.11997C22 13.4922 11.6961 20.7067 11.2664 21.0118L11 21.1922ZM5.72773 1.83481C3.11523 1.83481 0.915234 4.25396 0.915234 7.12427C0.915234 12.4868 9.39297 18.902 11 20.0751C12.6027 18.902 21.0848 12.4868 21.0848 7.12427C21.0848 4.25396 18.8848 1.83481 16.2723 1.83481C13.6598 1.83481 11.4598 4.40005 11.4598 7.33481V7.52817L10.5445 7.14146C10.4543 4.29263 8.2457 1.82622 5.73203 1.82622L5.72773 1.83481Z" fill="#F0D3E3"/>
</svg>
