<svg width="19" height="19" viewBox="0 0 19 19" fill="none" xmlns="http://www.w3.org/2000/svg">
<path d="M18.509 7.00625C18.1369 6.57875 17.5907 6.33333 17.0207 6.33333H16.5773C16.1815 2.755 13.1415 0 9.49983 0C5.85816 0 2.81816 2.755 2.42233 6.33333H1.979C1.409 6.33333 0.862746 6.57875 0.490663 7.00625C0.118579 7.43375 -0.0555874 8.00375 0.0156626 8.57375L0.902329 15.2238C1.18733 17.3771 3.04775 19 5.21691 19H13.7748C15.9519 19 17.8044 17.3771 18.0894 15.2238L18.9761 8.57375C19.0473 8.01167 18.8811 7.43375 18.5011 7.00625H18.509ZM9.49983 0.791667C12.7061 0.791667 15.3898 3.19042 15.7857 6.33333H3.214C3.60191 3.19042 6.28566 0.791667 9.49983 0.791667ZM18.2002 8.47083L17.3136 15.1208C17.0761 16.8863 15.564 18.2163 13.7827 18.2163H5.21691C3.43566 18.2163 1.92358 16.8863 1.68608 15.1208L0.799413 8.47083C0.751913 8.13042 0.854829 7.79 1.08441 7.52875C1.314 7.2675 1.63858 7.125 1.979 7.125H17.0207C17.3611 7.125 17.6857 7.27542 17.9152 7.52875C18.1448 7.78208 18.2477 8.13042 18.2002 8.47083Z" fill="#C1768D"/>
</svg>
