<svg width="20" height="20" viewBox="0 0 20 20" fill="none" xmlns="http://www.w3.org/2000/svg">
<g clip-path="url(#clip0_241_2083)">
<path d="M10 20C4.48578 20 0 15.5142 0 10C0 4.48578 4.48578 0 10 0C15.5142 0 20 4.48578 20 10C20 15.5142 15.5142 20 10 20ZM10 1.25C5.17502 1.25 1.25 5.17502 1.25 10C1.25 14.825 5.17502 18.75 10 18.75C14.825 18.75 18.75 14.825 18.75 10C18.75 5.17502 14.825 1.25 10 1.25Z" fill="#979797"/>
<path d="M6.90659 13.7183C6.74652 13.7183 6.58646 13.6576 6.46484 13.5351C6.2207 13.2909 6.2207 12.8951 6.46484 12.651L12.6523 6.46338C12.8966 6.21924 13.2924 6.21924 13.5365 6.46338C13.7807 6.70752 13.7807 7.10333 13.5365 7.34763L7.34894 13.5351C7.22565 13.6576 7.06573 13.7183 6.90659 13.7183Z" fill="#979797"/>
<path d="M13.0935 13.7183C12.9336 13.7183 12.7735 13.6575 12.6519 13.535L6.46447 7.34832C6.22018 7.10418 6.22018 6.70837 6.46447 6.46423C6.70861 6.21993 7.10442 6.21993 7.34856 6.46423L13.536 12.6517C13.7803 12.8958 13.7803 13.2916 13.536 13.5358C13.4136 13.6575 13.2536 13.7183 13.0935 13.7183Z" fill="#979797"/>
</g>
<defs>
<clipPath id="clip0_241_2083">
<rect width="20" height="20" fill="white"/>
</clipPath>
</defs>
</svg>
