<svg width="19" height="19" viewBox="0 0 19 19" fill="none" xmlns="http://www.w3.org/2000/svg">
<path d="M4.35541 17.8139L4.19003 14.4173C1.56188 13.0308 0 10.7364 0 8.2434C0 6.23748 1.00065 4.35767 2.81765 2.95037C4.60657 1.56483 6.97976 0.801758 9.49998 0.801758C12.0202 0.801758 14.3934 1.56483 16.1824 2.95041C17.9993 4.35771 19 6.23752 19 8.24344C19 10.2494 17.9993 12.1292 16.1824 13.5365C14.3934 14.922 12.0202 15.6851 9.49998 15.6851C9.42733 15.6851 9.35217 15.6843 9.26883 15.6825L4.90707 18.1199C4.55657 18.3106 4.35541 18.1041 4.35541 17.8139ZM9.49998 1.54391C4.67091 1.54391 0.742191 4.54933 0.742191 8.24347C0.742191 10.5102 2.22792 12.6075 4.71641 13.8534C4.83626 13.9134 4.91441 14.0334 4.92091 14.1672L5.06761 17.1801L8.99529 14.9853C9.05352 14.9525 9.1196 14.9363 9.18637 14.9383C9.3059 14.9415 9.40552 14.9431 9.4999 14.9431C14.329 14.9431 18.2577 11.9377 18.2577 8.24355C18.2577 4.54944 14.3291 1.54391 9.49998 1.54391Z" fill="#393939"/>
</svg>
