<svg width="8" height="11" viewBox="0 0 8 11" fill="none" xmlns="http://www.w3.org/2000/svg">
<path d="M7.88119 9.36951C8.0396 9.57209 8.0396 9.87597 7.88119 10.0786C7.80198 10.1798 7.68317 10.2305 7.60396 10.2305C7.52475 10.2305 7.40594 10.1798 7.32673 10.0786L4 5.82429L0.673268 10.0786C0.59406 10.1798 0.475248 10.2305 0.39604 10.2305C0.316832 10.2305 0.19802 10.1798 0.118812 10.0786C-0.039604 9.87597 -0.039604 9.57209 0.118812 9.36951L3.44554 5.11525L0.118812 0.860982C-0.039604 0.658398 -0.039604 0.354522 0.118812 0.151938C0.277228 -0.050646 0.514852 -0.050646 0.673268 0.151938L4 4.4062L7.32673 0.151938C7.48515 -0.050646 7.72277 -0.050646 7.88119 0.151938C8.0396 0.354522 8.0396 0.658398 7.88119 0.860982L4.55446 5.11525L7.88119 9.36951Z" fill="black"/>
</svg>
