<svg width="11" height="13" viewBox="0 0 11 13" fill="none" xmlns="http://www.w3.org/2000/svg">
<path d="M10.0773 1.56435H8.26118V1.30507C8.26118 0.696909 7.76642 0.202148 7.15826 0.202148H3.84446C3.2363 0.202148 2.74154 0.696909 2.74154 1.30507V1.56435H0.92546C0.44974 1.56435 0.0625 1.95145 0.0625 2.42717V2.83625C0.0625 3.28159 0.40172 3.64909 0.83516 3.69445L1.72374 11.4919C1.80844 12.2365 2.43774 12.7981 3.1873 12.7981H7.81528C8.56484 12.7981 9.19414 12.2365 9.27884 11.4919L10.1674 3.69445C10.601 3.64923 10.9401 3.28159 10.9401 2.83625V2.42717C10.9401 1.95145 10.553 1.56435 10.0773 1.56435ZM3.30168 1.30507C3.30168 1.00561 3.54514 0.762148 3.8446 0.762148H7.1584C7.45786 0.762148 7.70132 1.00561 7.70132 1.30507V1.56435H3.30168V1.30507ZM8.72262 11.4285C8.67012 11.89 8.28008 12.2381 7.81556 12.2381H3.18758C2.72306 12.2381 2.33302 11.89 2.28052 11.4285L1.39978 3.69921H9.6035L8.72262 11.4285ZM10.3804 2.83625C10.3804 3.00327 10.2444 3.13921 10.0774 3.13921H0.92546C0.75844 3.13921 0.6225 3.00327 0.6225 2.83625V2.42717C0.6225 2.26029 0.75844 2.12435 0.92546 2.12435H10.0771C10.2441 2.12435 10.3801 2.26029 10.3801 2.42717V2.83625H10.3804Z" fill="black"/>
<path d="M5.50266 10.7225C5.65722 10.7225 5.78266 10.597 5.78266 10.4425V5.4946C5.78266 5.34004 5.65722 5.2146 5.50266 5.2146C5.3481 5.2146 5.22266 5.34004 5.22266 5.4946V10.4425C5.22266 10.597 5.3481 10.7225 5.50266 10.7225Z" fill="black"/>
<path d="M7.17479 10.7095C7.18403 10.7105 7.19327 10.7109 7.20223 10.7109C7.34475 10.7109 7.46655 10.6028 7.48055 10.4581L7.96019 5.53345C7.97517 5.37945 7.86261 5.24253 7.70875 5.22755C7.55265 5.21173 7.41783 5.32513 7.40285 5.47899L6.92321 10.4036C6.90823 10.5576 7.02093 10.6945 7.17479 10.7095Z" fill="black"/>
<path d="M3.7985 10.7109C3.80746 10.7109 3.8167 10.7105 3.82594 10.7095C3.9798 10.6947 4.09236 10.5576 4.07738 10.4036L3.59774 5.47897C3.58276 5.32511 3.44794 5.21184 3.29184 5.22752C3.13798 5.24236 3.02542 5.37943 3.0404 5.53343L3.52004 10.4581C3.53418 10.6027 3.65612 10.7109 3.7985 10.7109Z" fill="black"/>
</svg>
