<svg width="12" height="10" viewBox="0 0 12 10" fill="none" xmlns="http://www.w3.org/2000/svg">
<path d="M10.7759 6.23755C10.6764 6.23755 10.581 6.27706 10.5107 6.34738C10.4404 6.41771 10.4009 6.51309 10.4009 6.61255V7.89317C10.4009 8.19502 10.281 8.48451 10.0675 8.69795C9.85407 8.91139 9.56458 9.0313 9.26274 9.0313H2.73773C2.43588 9.0313 2.1464 8.91139 1.93296 8.69795C1.71952 8.48451 1.59961 8.19502 1.59961 7.89317V6.61255C1.59961 6.51309 1.5601 6.41771 1.48977 6.34738C1.41945 6.27706 1.32407 6.23755 1.22461 6.23755C1.12515 6.23755 1.02977 6.27706 0.959444 6.34738C0.889118 6.41771 0.849609 6.51309 0.849609 6.61255V7.89317C0.850106 8.39378 1.04919 8.87375 1.40318 9.22773C1.75716 9.58172 2.23712 9.7808 2.73773 9.7813H9.26274C9.76334 9.7808 10.2433 9.58172 10.5973 9.22773C10.9513 8.87375 11.1504 8.39378 11.1509 7.89317V6.61255C11.1509 6.51309 11.1114 6.41771 11.041 6.34738C10.9707 6.27706 10.8753 6.23755 10.7759 6.23755Z" fill="white"/>
<path d="M5.73365 7.3325C5.76851 7.36765 5.80998 7.39555 5.85568 7.41458C5.90138 7.43362 5.95039 7.44342 5.9999 7.44342C6.0494 7.44342 6.09842 7.43362 6.14411 7.41458C6.18981 7.39555 6.23128 7.36765 6.26615 7.3325L8.3999 5.19875C8.45943 5.12711 8.49017 5.03588 8.48614 4.94282C8.4821 4.84976 8.44358 4.76154 8.37807 4.69532C8.31255 4.62911 8.22474 4.58964 8.13173 4.58461C8.03872 4.57959 7.94716 4.60936 7.8749 4.66813L6.3749 6.16813V0.59375C6.3749 0.494294 6.33539 0.398911 6.26506 0.328585C6.19474 0.258259 6.09935 0.21875 5.9999 0.21875C5.90044 0.21875 5.80506 0.258259 5.73473 0.328585C5.66441 0.398911 5.6249 0.494294 5.6249 0.59375V6.1625L4.1249 4.6625C4.05453 4.59213 3.9591 4.5526 3.85958 4.5526C3.76007 4.5526 3.66464 4.59213 3.59427 4.6625C3.52391 4.73287 3.48438 4.8283 3.48438 4.92781C3.48437 5.02732 3.52391 5.12276 3.59427 5.19312L5.73365 7.3325Z" fill="white"/>
</svg>
