<svg width="14" height="11" viewBox="0 0 14 11" fill="none" xmlns="http://www.w3.org/2000/svg">
<path fill-rule="evenodd" clip-rule="evenodd" d="M4.19993 2.35006C4.04451 2.95387 3.4964 3.40004 2.84406 3.40004C2.07087 3.40004 1.44409 2.77326 1.44409 2.00007C1.44409 1.22688 2.07087 0.600098 2.84406 0.600098C3.4964 0.600098 4.04451 1.04627 4.19993 1.65008H13.6941C13.8873 1.65008 14.044 1.80675 14.044 2.00007C14.044 2.19338 13.8873 2.35006 13.6941 2.35006H4.19993ZM3.54405 2.00007C3.54405 2.3867 3.23062 2.70005 2.84406 2.70005C2.4575 2.70005 2.14408 2.38663 2.14408 2.00007C2.14408 1.61351 2.4575 1.30008 2.84406 1.30008C3.23062 1.30008 3.54405 1.61344 3.54405 2.00007Z" fill="#393939"/>
<path d="M0.349993 2.35013H1.44407C1.41526 2.23829 1.39997 2.12099 1.39997 2.00014C1.39997 1.87929 1.41526 1.76198 1.44407 1.65015H0.349993C0.156677 1.65015 0 1.80682 0 2.00014C0 2.19345 0.156677 2.35013 0.349993 2.35013Z" fill="#393939"/>
<path fill-rule="evenodd" clip-rule="evenodd" d="M8.35587 9.25017C8.20045 8.64637 7.65227 8.2002 7 8.2002C6.34773 8.2002 5.79948 8.64637 5.64413 9.25017H0.349993C0.156677 9.25017 0 9.40692 0 9.60017C0 9.79341 0.156677 9.95016 0.349993 9.95016H5.64406C5.79948 10.554 6.34766 11.0001 6.99993 11.0001C7.65219 11.0001 8.20045 10.554 8.3558 9.95016H13.6499C13.8431 9.95016 13.9999 9.79341 13.9999 9.60017C13.9999 9.40692 13.8431 9.25017 13.6499 9.25017H8.35587ZM7 10.3002C7.38663 10.3002 7.69999 9.9868 7.69999 9.60017C7.69999 9.21353 7.38663 8.90018 7 8.90018C6.61337 8.90018 6.30001 9.21353 6.30001 9.60017C6.30001 9.9868 6.61337 10.3002 7 10.3002Z" fill="#393939"/>
<path fill-rule="evenodd" clip-rule="evenodd" d="M12.5559 5.45012C12.4004 4.84632 11.8523 4.40015 11.2 4.40015C10.5477 4.40015 9.99946 4.84632 9.84412 5.45012H0.349993C0.156677 5.45012 0 5.60688 0 5.80012C0 5.99336 0.156677 6.15011 0.349993 6.15011H9.84412C9.99954 6.75392 10.5477 7.20009 11.2 7.20009C11.8523 7.20009 12.4005 6.75392 12.5559 6.15011H13.6499C13.8432 6.15011 13.9999 5.99336 13.9999 5.80012C13.9999 5.60688 13.8432 5.45012 13.6499 5.45012H12.5559ZM11.2 6.5001C11.5866 6.5001 11.9 6.18675 11.9 5.80012C11.9 5.41349 11.5865 5.10013 11.2 5.10013C10.8134 5.10013 10.5 5.41349 10.5 5.80012C10.5 6.18675 10.8134 6.5001 11.2 6.5001Z" fill="#393939"/>
</svg>
