<svg width="19" height="20" viewBox="0 0 19 20" fill="none" xmlns="http://www.w3.org/2000/svg">
<path d="M7.06225 15.5647C6.80222 15.5647 6.59143 15.7755 6.59143 16.0355C6.59143 16.2955 6.80222 16.5063 7.06225 16.5063H11.7704C12.0304 16.5063 12.2412 16.2955 12.2412 16.0355C12.2412 15.7755 12.0304 15.5647 11.7704 15.5647H7.06225Z" fill="#393939"/>
<path fill-rule="evenodd" clip-rule="evenodd" d="M11.4585 1.51072C10.2611 0.565437 8.57147 0.565437 7.37413 1.51072L1.25354 6.34277C0.461879 6.96777 0 7.92087 0 8.92951V16.5061C0 18.3262 1.47553 19.8018 3.29571 19.8018H15.5369C17.3571 19.8018 18.8326 18.3262 18.8326 16.5061V8.92951C18.8326 7.92087 18.3707 6.96777 17.5791 6.34277L11.4585 1.51072ZM7.95762 2.24979C8.81291 1.57458 10.0197 1.57458 10.875 2.24979L16.9956 7.08184C17.561 7.52827 17.891 8.20905 17.891 8.92951V16.5061C17.891 17.8062 16.837 18.8601 15.5369 18.8601H3.29571C1.99559 18.8601 0.94163 17.8062 0.94163 16.5061V8.92951C0.94163 8.20905 1.27154 7.52827 1.83702 7.08184L7.95762 2.24979Z" fill="#393939"/>
</svg>
