<svg width="19" height="19" viewBox="0 0 19 19" fill="none" xmlns="http://www.w3.org/2000/svg">
<path d="M7.06212 14.7632C6.8021 14.7632 6.59131 14.974 6.59131 15.234C6.59131 15.494 6.8021 15.7048 7.06212 15.7048H11.7703C12.0303 15.7048 12.2411 15.494 12.2411 15.234C12.2411 14.974 12.0303 14.7632 11.7703 14.7632H7.06212Z" fill="#C1768D"/>
<path fill-rule="evenodd" clip-rule="evenodd" d="M11.4585 0.708963C10.2611 -0.236321 8.57147 -0.236321 7.37413 0.708963L1.25354 5.54101C0.461879 6.16601 0 7.11911 0 8.12775V15.7043C0 17.5245 1.47553 19 3.29571 19H15.5369C17.3571 19 18.8326 17.5245 18.8326 15.7043V8.12775C18.8326 7.11911 18.3707 6.16601 17.5791 5.54101L11.4585 0.708963ZM7.95762 1.44803C8.81291 0.772824 10.0197 0.772824 10.875 1.44803L16.9956 6.28008C17.561 6.72651 17.891 7.4073 17.891 8.12775V15.7043C17.891 17.0044 16.837 18.0584 15.5369 18.0584H3.29571C1.99559 18.0584 0.94163 17.0044 0.94163 15.7043V8.12775C0.94163 7.4073 1.27154 6.72651 1.83702 6.28008L7.95762 1.44803Z" fill="#C1768D"/>
</svg>
