<svg width="24" height="27" viewBox="0 0 24 27" fill="none" xmlns="http://www.w3.org/2000/svg">
<g clip-path="url(#clip0_221_1884)">
<path d="M19.314 7.31096C18.9257 6.86486 18.3557 6.60877 17.7609 6.60877H17.2983C16.8852 2.87482 13.713 0 9.91298 0C6.11294 0 2.94073 2.87482 2.52768 6.60877H2.06506C1.47027 6.60877 0.900267 6.86486 0.512002 7.31096C0.123736 7.75705 -0.058005 8.35184 0.0163437 8.94663L0.941572 15.8858C1.23897 18.1328 3.18029 19.8263 5.4438 19.8263H14.3739C16.6457 19.8263 18.5787 18.1328 18.8761 15.8858L19.8014 8.94663C19.8757 8.3601 19.7022 7.75705 19.3057 7.31096H19.314ZM9.91298 0.826097C13.2587 0.826097 16.0591 3.32917 16.4722 6.60877H3.35378C3.75856 3.32917 6.55903 0.826097 9.91298 0.826097ZM18.9918 8.83923L18.0666 15.7784C17.8187 17.6206 16.2409 19.0085 14.3822 19.0085H5.4438C3.58508 19.0085 2.00724 17.6206 1.75941 15.7784L0.83418 8.83923C0.784614 8.48401 0.892006 8.12879 1.13157 7.85618C1.37114 7.58357 1.70984 7.43487 2.06506 7.43487H17.7609C18.1161 7.43487 18.4548 7.59183 18.6944 7.85618C18.934 8.12053 19.0414 8.48401 18.9918 8.83923Z" fill="#C1768D"/>
</g>
<path d="M15.6515 22.8266C18.461 22.8266 20.7385 20.5491 20.7385 17.7396C20.7385 14.9301 18.461 12.6526 15.6515 12.6526C12.842 12.6526 10.5645 14.9301 10.5645 17.7396C10.5645 20.5491 12.842 22.8266 15.6515 22.8266Z" fill="white"/>
<path d="M15.6517 14.4851C15.7886 14.4851 15.9028 14.596 15.9028 14.7362V17.5732H18.7398C18.8767 17.5732 18.9908 17.6841 18.9908 17.8243C18.9908 17.9612 18.88 18.0754 18.7398 18.0754H15.9028V20.9124C15.9028 21.0493 15.7919 21.1634 15.6517 21.1634C15.5147 21.1634 15.4006 21.0526 15.4006 20.9124V18.0754H12.5636C12.4266 18.0754 12.3125 17.9645 12.3125 17.8243C12.3125 17.6873 12.4234 17.5732 12.5636 17.5732H15.4006V14.7362C15.4006 14.596 15.5147 14.4851 15.6517 14.4851Z" fill="#C1768D"/>
<path fill-rule="evenodd" clip-rule="evenodd" d="M15.6516 23.2504C18.694 23.2504 21.1625 20.7851 21.1625 17.7394C21.1625 14.6938 18.694 12.2285 15.6516 12.2285C12.6091 12.2285 10.1406 14.697 10.1406 17.7394C10.1406 20.7819 12.6091 23.2504 15.6516 23.2504ZM15.6516 22.7482C18.4168 22.7482 20.6603 20.5047 20.6603 17.7394C20.6603 14.9742 18.4168 12.7307 15.6516 12.7307C12.8863 12.7307 10.6428 14.9742 10.6428 17.7394C10.6428 20.5047 12.8863 22.7482 15.6516 22.7482Z" fill="#C1768D"/>
<defs>
<clipPath id="clip0_221_1884">
<rect width="19.8263" height="19.8263" fill="white"/>
</clipPath>
</defs>
</svg>
