<svg width="56" height="62" viewBox="0 0 56 62" fill="none" xmlns="http://www.w3.org/2000/svg">
<path d="M39.9416 41.87C45.7316 33.61 48.6716 26.61 48.6716 21.06C48.6716 9.46003 39.3916 0.0300293 27.9816 0.0300293C16.5816 0.0300293 7.30156 9.46003 7.30156 21.06C7.30156 26.63 10.2416 33.63 16.0416 41.89C6.63156 43.63 0.851562 47.22 0.851562 51.41C0.851562 57.33 12.7816 61.98 28.0016 61.98C43.2216 61.98 55.1516 57.34 55.1516 51.41C55.1516 47.21 49.3616 43.61 39.9416 41.87ZM27.9716 1.91003C38.3516 1.91003 46.7916 10.5 46.7916 21.06C46.7916 26.4 43.6016 33.64 37.5516 42C36.3716 43.64 35.0516 45.35 33.5116 47.24C31.0916 50.19 29.0016 52.46 27.9816 53.54C27.8516 53.41 27.7116 53.25 27.5516 53.08C26.4316 51.88 24.5716 49.83 22.4516 47.25C21.8516 46.51 21.2816 45.79 20.7316 45.09C19.9116 44.03 19.1416 43 18.4216 42C14.2016 36.18 9.17156 27.83 9.17156 21.06C9.17156 10.5 17.6116 1.91003 27.9716 1.91003ZM26.2516 54.44C18.9716 54.18 15.0316 52.37 15.0316 51.4C15.0316 50.9 16.6316 49.59 21.3316 48.84C21.6316 49.2 21.9216 49.55 22.2116 49.89C22.2616 49.95 22.3016 50 22.3516 50.06C22.7016 50.48 23.0516 50.88 23.3816 51.25C23.4116 51.28 23.4316 51.31 23.4616 51.34C23.7916 51.72 24.1116 52.08 24.4116 52.41C24.4716 52.48 24.5416 52.55 24.6016 52.62C24.8816 52.93 25.1516 53.22 25.3916 53.49C25.4516 53.55 25.5016 53.6 25.5516 53.66C25.7716 53.9 25.9716 54.12 26.1616 54.32C26.1916 54.35 26.2116 54.38 26.2416 54.4C26.2416 54.43 26.2516 54.44 26.2516 54.44ZM30.4716 53.61C30.4916 53.58 30.5116 53.56 30.5416 53.54C30.7916 53.26 31.0716 52.96 31.3616 52.63L31.5416 52.42C31.8416 52.09 32.1416 51.74 32.4716 51.37C32.5216 51.31 32.5816 51.25 32.6316 51.19C32.9216 50.85 33.2216 50.5 33.5316 50.14C33.6116 50.05 33.6916 49.96 33.7716 49.86C34.0516 49.53 34.3316 49.19 34.6216 48.84C39.3616 49.59 40.9716 50.91 40.9716 51.41C40.9716 52.38 37.0116 54.2 29.6916 54.45C29.9216 54.2 30.1816 53.92 30.4716 53.61ZM28.0016 60.09C12.8816 60.09 2.72156 55.6 2.72156 51.4C2.72156 48.16 8.53156 45.04 17.2316 43.57C17.2716 43.63 17.3216 43.69 17.3616 43.75C17.8716 44.44 18.3916 45.15 18.9516 45.87C19.0116 45.94 19.0716 46.02 19.1216 46.09C19.4016 46.45 19.6816 46.81 19.9716 47.18C16.9016 47.77 13.1416 48.99 13.1416 51.41C13.1416 54.81 20.8416 56.36 27.9916 56.36C35.1416 56.36 42.8416 54.81 42.8416 51.41C42.8416 48.95 38.8116 47.73 35.9616 47.17C36.2516 46.81 36.5216 46.46 36.7916 46.12C36.8716 46.02 36.9516 45.92 37.0216 45.83C37.5716 45.13 38.0816 44.44 38.5716 43.77C38.6216 43.7 38.6716 43.64 38.7216 43.57C47.3116 45.02 53.2616 48.22 53.2616 51.41C53.2816 55.6 43.1216 60.09 28.0016 60.09Z" fill="#383838"/>
<path d="M28.3434 34.4101C35.4034 34.4101 41.1534 28.5701 41.1534 21.3901C41.1534 14.2101 35.4034 8.37012 28.3434 8.37012C21.2734 8.37012 15.5234 14.2101 15.5234 21.3901C15.5234 28.5701 21.2734 34.4101 28.3434 34.4101ZM28.3434 10.2401C34.3734 10.2401 39.2734 15.2401 39.2734 21.3801C39.2734 27.5201 34.3734 32.5201 28.3434 32.5201C22.3134 32.5201 17.4034 27.5201 17.4034 21.3801C17.4034 15.2401 22.3034 10.2401 28.3434 10.2401Z" fill="#383838"/>
<path d="M22.2708 27.5801C22.4508 27.7601 22.6908 27.8501 22.9308 27.8501C23.1708 27.8501 23.4208 27.7601 23.6008 27.5701L28.3308 22.7301L33.0608 27.5701C33.2408 27.7601 33.4908 27.8501 33.7308 27.8501C33.9708 27.8501 34.2008 27.7601 34.3908 27.5801C34.7608 27.2201 34.7708 26.6201 34.4008 26.2501L29.6408 21.3801L34.4008 16.5101C34.7608 16.1401 34.7608 15.5401 34.3908 15.1801C34.0208 14.8201 33.4208 14.8201 33.0608 15.1901L28.3308 20.0301L23.6008 15.2001C23.2408 14.8301 22.6408 14.8201 22.2708 15.1901C21.9008 15.5501 21.8908 16.1501 22.2608 16.5201L27.0208 21.3901L22.2608 26.2601C21.9008 26.6301 21.9008 27.2201 22.2708 27.5801Z" fill="#383838"/>
</svg>
