<svg width="60" height="60" viewBox="0 0 60 60" fill="none" xmlns="http://www.w3.org/2000/svg">
<path d="M40.0023 33.7312C39.9367 33.4124 40.0492 33.0843 40.2836 32.8687L46.0773 27.4593C46.8836 26.7093 47.1742 25.5843 46.8367 24.5343C46.4992 23.4843 45.5992 22.7437 44.5023 22.6125L36.6367 21.6468C36.318 21.6093 36.0367 21.4031 35.8961 21.1125L32.5492 13.9312C32.0805 12.9281 31.1055 12.3093 29.9992 12.3093C28.893 12.3093 27.918 12.9281 27.4492 13.9312L24.1023 21.1125C23.9617 21.4031 23.6898 21.6093 23.3711 21.6468L15.5055 22.6125C14.4086 22.7437 13.518 23.4843 13.1711 24.5343C12.8336 25.5843 13.1148 26.7093 13.9305 27.4593L19.7336 32.8687C19.968 33.0937 20.0805 33.4124 20.0148 33.7312L18.5055 41.5124C18.2898 42.5999 18.7211 43.6781 19.6117 44.3249C20.1086 44.6812 20.6805 44.8687 21.2617 44.8687C21.7305 44.8687 22.1992 44.7468 22.6305 44.5125L29.568 40.6687C29.8492 40.5093 30.1961 40.5093 30.4773 40.6687L37.4148 44.5125C38.3805 45.0468 39.5336 44.9812 40.4336 44.3249C41.3242 43.6781 41.7555 42.5999 41.5398 41.5124L40.0305 33.7312H40.0023ZM39.3086 42.8062C39.1961 42.8906 38.793 43.1343 38.3055 42.8625L31.368 39.0187C30.5148 38.5499 29.493 38.5499 28.6398 39.0187L21.7023 42.8625C21.2148 43.1343 20.8117 42.8812 20.6992 42.7968C20.5867 42.7125 20.2211 42.4031 20.3336 41.8593L21.843 34.0781C22.0305 33.1218 21.7117 32.1468 20.9992 31.4812L15.1961 26.0718C14.793 25.6968 14.8961 25.2281 14.943 25.0968C14.9898 24.9656 15.168 24.525 15.7211 24.4593L23.5867 23.4937C24.5523 23.3718 25.3773 22.7718 25.7898 21.8906L29.1367 14.7093C29.3711 14.2031 29.8492 14.1656 29.9898 14.1656C30.1305 14.1656 30.6086 14.2031 30.843 14.7093L34.1898 21.9C34.6023 22.7812 35.4273 23.3812 36.393 23.5031L44.2586 24.4687C44.8117 24.5343 44.9898 24.975 45.0367 25.1062C45.0836 25.2375 45.1867 25.7062 44.7836 26.0812L38.9898 31.4906C38.2773 32.1562 37.9586 33.1218 38.1461 34.0875L39.6555 41.8687C39.7586 42.4125 39.4023 42.7218 39.2898 42.8062H39.3086Z" fill="#393939"/>
<path d="M57.4504 26.8686L51.7035 24.9374C51.5441 24.8811 51.4223 24.7499 51.3754 24.5811L49.9691 18.6843C49.7535 17.7749 49.0504 17.0999 48.141 16.9124C47.2316 16.7249 46.3129 17.0718 45.7598 17.8218L44.241 19.8655C43.9316 20.278 44.016 20.8686 44.4379 21.178C44.8504 21.4874 45.441 21.403 45.7504 20.9811L47.2691 18.9374C47.4379 18.7124 47.6723 18.7311 47.766 18.7499C47.8598 18.7686 48.0848 18.8436 48.1504 19.1249L49.5566 25.0218C49.7441 25.8186 50.3254 26.4561 51.1035 26.7186L56.8504 28.6499C57.1223 28.7436 57.1785 28.9686 57.1879 29.0624C57.1973 29.1561 57.1879 29.3905 56.9535 29.5405L51.7785 32.6999C51.0754 33.1311 50.6535 33.8718 50.6441 34.6968L50.5785 40.753C50.5785 41.0343 50.3723 41.1655 50.2879 41.203C50.2035 41.2405 49.9785 41.3155 49.7629 41.128L45.1598 37.1811C44.5316 36.6468 43.6879 36.4686 42.8535 36.7405L43.1254 37.6405L43.4723 38.5124C43.6316 38.4655 43.8098 38.4936 43.941 38.6061L48.5441 42.553C48.9848 42.928 49.5285 43.1249 50.0816 43.1249C50.4098 43.1249 50.7473 43.0499 51.066 42.9093C51.9098 42.5249 52.4441 41.7093 52.4535 40.7718L52.5191 34.7155C52.5191 34.5468 52.6129 34.3874 52.7535 34.2936L57.9285 31.1343C58.7254 30.6468 59.1566 29.7749 59.0535 28.8468C58.9504 27.9186 58.3316 27.1593 57.4504 26.8686Z" fill="#393939"/>
<path d="M17.0905 36.7218C16.3123 36.478 15.4592 36.6468 14.8405 37.1811L10.2373 41.128C10.0217 41.3155 9.79672 41.2405 9.71235 41.203C9.62797 41.1655 9.42172 41.0436 9.42172 40.753L9.3561 34.6968C9.3561 33.8718 8.92485 33.1311 8.22172 32.6999L3.04672 29.5405C2.80297 29.3905 2.80297 29.1561 2.81235 29.0624C2.82172 28.9686 2.87797 28.7343 3.14985 28.6499L8.89672 26.7186C9.67485 26.4561 10.2561 25.8186 10.4436 25.0218L11.8498 19.1249C11.9155 18.8436 12.1405 18.7686 12.2342 18.7499C12.328 18.7311 12.5623 18.7124 12.7311 18.9374L14.2498 20.9811C14.5592 21.3936 15.1405 21.4874 15.5623 21.178C15.9748 20.8686 16.0686 20.278 15.7592 19.8655L14.2405 17.8218C13.6873 17.0718 12.778 16.7249 11.8592 16.9124C10.9498 17.0999 10.2467 17.7749 10.0311 18.6843L8.62485 24.5811C8.58735 24.7499 8.46547 24.8811 8.29672 24.9374L2.54985 26.8686C1.6686 27.1686 1.04985 27.928 0.946722 28.8468C0.843597 29.7749 1.27485 30.6468 2.07172 31.1343L7.24672 34.2936C7.39672 34.3874 7.4811 34.5374 7.4811 34.7155L7.54672 40.7718C7.5561 41.6999 8.09047 42.5249 8.93422 42.9093C9.25297 43.0499 9.59047 43.1249 9.9186 43.1249C10.4717 43.1249 11.0155 42.928 11.4561 42.553L16.0592 38.6061C16.1905 38.4936 16.3686 38.4561 16.5936 38.5311C17.0905 38.6811 17.578 38.3999 17.7373 37.903C17.8873 37.4061 17.5873 36.8718 17.0905 36.7218Z" fill="#393939"/>
</svg>
