<svg width="39" height="34" viewBox="0 0 39 34" fill="none" xmlns="http://www.w3.org/2000/svg">
<path d="M37.031 14.8403C37.4315 14.8403 37.8329 14.6871 38.138 14.3811C38.7468 13.77 38.7454 12.7805 38.1343 12.1708C33.0874 7.14144 26.398 4.37207 19.2973 4.37207C18.4313 4.37207 17.5548 4.41551 16.6179 4.5041C15.7588 4.58566 15.1287 5.34863 15.2102 6.2077C15.2918 7.06598 16.0479 7.69613 16.9138 7.61535C17.7507 7.53598 18.5305 7.49707 19.2973 7.49707C25.5655 7.49707 31.4715 9.943 35.9279 14.3849C36.2329 14.6886 36.6319 14.8403 37.031 14.8403Z" fill="#C1768D"/>
<path d="M30.9693 20.919C31.3691 20.919 31.7688 20.7663 32.074 20.4611C32.6843 19.8508 32.6843 18.8621 32.074 18.2516C29.8027 15.9804 26.9691 14.353 23.8793 13.5474C23.043 13.3285 22.1908 13.8305 21.9727 14.6651C21.7552 15.5005 22.2558 16.3535 23.0904 16.5716C25.6432 17.2369 27.9854 18.5819 29.8644 20.4611C30.1697 20.7663 30.5694 20.919 30.9693 20.919Z" fill="#C1768D"/>
<path d="M16.9785 30.7227C16.9785 32.0055 18.0184 33.0455 19.3013 33.0455C20.5843 33.0455 21.6241 32.0055 21.6241 30.7227C21.6241 29.4399 20.5841 28.3999 19.3013 28.3999C18.0185 28.3999 16.9785 29.4397 16.9785 30.7227Z" fill="#C1768D"/>
<path d="M27.7336 32.9261C28.0578 32.9261 28.3859 32.8253 28.6659 32.6164C29.358 32.1006 29.5006 31.1218 28.9849 30.4298L16.7944 14.0792C16.78 14.0586 16.7656 14.04 16.7503 14.0201L7.47751 1.58294C6.96251 0.891692 5.9822 0.748254 5.29095 1.26404C4.59892 1.77982 4.45626 2.75857 4.97204 3.4506L7.67032 7.06966C5.01313 8.36435 2.58657 10.0589 0.461571 12.1695C-0.151085 12.7776 -0.154054 13.7672 0.453915 14.379C0.759071 14.6865 1.1611 14.8406 1.56251 14.8406C1.96079 14.8406 2.35907 14.6895 2.66345 14.3867C4.68548 12.3781 7.01735 10.7992 9.5786 9.62935L12.9338 14.1293C10.5514 15.0254 8.36782 16.4201 6.5361 18.2518C5.92579 18.8622 5.92579 19.8509 6.5361 20.4614C6.84126 20.7665 7.2411 20.9192 7.64079 20.9192C8.04048 20.9192 8.44032 20.7665 8.74548 20.4614C10.4819 18.725 12.6056 17.4879 14.9117 16.7825L18.4911 21.5834C16.2642 21.7711 14.1983 22.7284 12.6075 24.3362C12.0009 24.9497 12.0063 25.9384 12.6197 26.5458C12.9241 26.8472 13.3208 26.9975 13.7183 26.9975C14.1211 26.9975 14.5231 26.8426 14.8291 26.5336C16.0184 25.3312 17.6055 24.6689 19.2969 24.6689C19.8841 24.6689 20.4424 24.7672 20.9784 24.9197L26.4791 32.2976C26.7859 32.7086 27.2567 32.9261 27.7336 32.9261Z" fill="#C1768D"/>
</svg>
