<svg width="29" height="29" viewBox="0 0 29 29" fill="none" xmlns="http://www.w3.org/2000/svg">
<circle cx="14.5" cy="14.5" r="14" fill="white" stroke="#F0D3E3"/>
<path d="M14.06 13.2395C13.477 13.2395 13 13.7165 13 14.2995C13 14.8825 13.477 15.3595 14.06 15.3595C14.643 15.3595 15.12 14.8825 15.12 14.2995C15.12 13.7165 14.643 13.2395 14.06 13.2395Z" fill="#393939"/>
<path d="M14.06 17.4807C13.477 17.4807 13 17.9577 13 18.5407C13 19.1237 13.477 19.6007 14.06 19.6007C14.643 19.6007 15.12 19.1237 15.12 18.5407C15.12 17.9577 14.643 17.4807 14.06 17.4807Z" fill="#393939"/>
<path d="M14.06 11.12C14.643 11.12 15.12 10.643 15.12 10.06C15.12 9.47699 14.643 9 14.06 9C13.477 9 13 9.47699 13 10.06C13 10.643 13.477 11.12 14.06 11.12Z" fill="#393939"/>
</svg>
