<svg width="29" height="28" viewBox="0 0 29 28" fill="none" xmlns="http://www.w3.org/2000/svg">
<g clip-path="url(#clip0_19289_7992)">
<path d="M8.23223 6.3722C7.82842 5.96806 7.17326 5.96806 6.76945 6.3722C5.27014 7.87151 4.53322 9.96013 4.74738 12.1029C4.80081 12.6367 5.2505 13.0346 5.77567 13.0346C5.81018 13.0346 5.84496 13.0329 5.87946 13.0294C6.4481 12.9725 6.86291 12.4653 6.80603 11.897C6.65362 10.3742 7.17364 8.89356 8.23223 7.83492C8.63637 7.43117 8.63637 6.77596 8.23223 6.3722Z" fill="#393939"/>
<path d="M12.3276 0C5.80584 0 0.5 5.30584 0.5 11.8276C0.5 18.3494 5.80584 23.6552 12.3276 23.6552C18.8494 23.6552 24.1552 18.3494 24.1552 11.8276C24.1552 5.30584 18.8493 0 12.3276 0ZM12.3276 21.5862C6.94656 21.5862 2.56899 17.2086 2.56899 11.8276C2.56899 6.44656 6.94656 2.06899 12.3276 2.06899C17.7083 2.06899 22.0862 6.44656 22.0862 11.8276C22.0862 17.2086 17.7086 21.5862 12.3276 21.5862Z" fill="#393939"/>
<path d="M28.1972 26.2342L20.6799 18.7169C20.2758 18.3128 19.6213 18.3128 19.2172 18.7169C18.813 19.1207 18.813 19.7759 19.2172 20.1797L26.7345 27.6969C26.9365 27.899 27.201 28 27.4658 28C27.7307 28 27.9952 27.899 28.1972 27.6969C28.6013 27.2931 28.6013 26.638 28.1972 26.2342Z" fill="#393939"/>
</g>
<defs>
<clipPath id="clip0_19289_7992">
<rect width="28" height="28" fill="white" transform="translate(0.5)"/>
</clipPath>
</defs>
</svg>
