<svg width="18" height="18" viewBox="0 0 18 18" fill="none" xmlns="http://www.w3.org/2000/svg">
<path d="M19.2054 18.5625L13.3393 12.6964C14.5446 11.3304 15.2679 9.5625 15.2679 7.55357C15.2679 3.45536 11.8125 0 7.63393 0C3.45536 0 0 3.45536 0 7.63393C0 11.8125 3.45536 15.2679 7.63393 15.2679C11.8125 15.2679 11.4107 14.5446 12.7768 13.3393L18.6429 19.2054C18.6429 19.2054 18.8036 19.2857 18.9643 19.2857C19.125 19.2857 19.2054 19.2857 19.2857 19.2054C19.4464 19.0446 19.4464 18.8036 19.2857 18.6429L19.2054 18.5625ZM0.803571 7.63393C0.803571 3.85714 3.85714 0.803571 7.63393 0.803571C11.4107 0.803571 14.4643 3.85714 14.4643 7.63393C14.4643 11.4107 11.4107 14.4643 7.63393 14.4643C3.85714 14.4643 0.803571 11.4107 0.803571 7.63393Z" fill="#393939"/>
</svg>
