<svg width="19" height="19" viewBox="0 0 19 19" fill="none" xmlns="http://www.w3.org/2000/svg">
<path d="M6.94231 0H1.82692C1.34257 0.000580179 0.878223 0.193245 0.535734 0.535734C0.193245 0.878223 0.000580179 1.34257 0 1.82692V6.94231C0.000580179 7.42666 0.193245 7.89101 0.535734 8.2335C0.878223 8.57598 1.34257 8.76865 1.82692 8.76923H6.94231C7.42666 8.76865 7.89101 8.57598 8.2335 8.2335C8.57598 7.89101 8.76865 7.42666 8.76923 6.94231V1.82692C8.76865 1.34257 8.57598 0.878223 8.2335 0.535734C7.89101 0.193245 7.42666 0.000580179 6.94231 0ZM8.03846 6.94231C8.03846 7.23302 7.92297 7.51184 7.7174 7.7174C7.51184 7.92297 7.23303 8.03846 6.94231 8.03846H1.82692C1.5362 8.03846 1.25739 7.92297 1.05183 7.7174C0.846256 7.51184 0.730769 7.23302 0.730769 6.94231V1.82692C0.730769 1.5362 0.846256 1.25739 1.05183 1.05182C1.25739 0.846256 1.5362 0.730769 1.82692 0.730769H6.94231C7.23303 0.730769 7.51184 0.846256 7.7174 1.05182C7.92297 1.25739 8.03846 1.5362 8.03846 1.82692V6.94231ZM17.1731 0H12.0577C11.5733 0.000580179 11.109 0.193245 10.7665 0.535734C10.424 0.878223 10.2313 1.34257 10.2308 1.82692V6.94231C10.2313 7.42666 10.424 7.89101 10.7665 8.2335C11.109 8.57598 11.5733 8.76865 12.0577 8.76923H17.1731C17.6574 8.76865 18.1218 8.57598 18.4643 8.2335C18.8068 7.89101 18.9994 7.42666 19 6.94231V1.82692C18.9994 1.34257 18.8068 0.878223 18.4643 0.535734C18.1218 0.193245 17.6574 0.000580179 17.1731 0ZM18.2692 6.94231C18.2692 7.23302 18.1537 7.51184 17.9482 7.7174C17.7426 7.92297 17.4638 8.03846 17.1731 8.03846H12.0577C11.767 8.03846 11.4882 7.92297 11.2826 7.7174C11.077 7.51184 10.9615 7.23302 10.9615 6.94231V1.82692C10.9615 1.5362 11.077 1.25739 11.2826 1.05182C11.4882 0.846256 11.767 0.730769 12.0577 0.730769H17.1731C17.4638 0.730769 17.7426 0.846256 17.9482 1.05182C18.1537 1.25739 18.2692 1.5362 18.2692 1.82692V6.94231ZM6.94231 10.2308H1.82692C1.34257 10.2313 0.878223 10.424 0.535734 10.7665C0.193245 11.109 0.000580179 11.5733 0 12.0577V17.1731C0.000580179 17.6574 0.193245 18.1218 0.535734 18.4643C0.878223 18.8068 1.34257 18.9994 1.82692 19H6.94231C7.42666 18.9994 7.89101 18.8068 8.2335 18.4643C8.57598 18.1218 8.76865 17.6574 8.76923 17.1731V12.0577C8.76865 11.5733 8.57598 11.109 8.2335 10.7665C7.89101 10.424 7.42666 10.2313 6.94231 10.2308ZM8.03846 17.1731C8.03846 17.4638 7.92297 17.7426 7.7174 17.9482C7.51184 18.1537 7.23303 18.2692 6.94231 18.2692H1.82692C1.5362 18.2692 1.25739 18.1537 1.05183 17.9482C0.846256 17.7426 0.730769 17.4638 0.730769 17.1731V12.0577C0.730769 11.767 0.846256 11.4882 1.05183 11.2826C1.25739 11.077 1.5362 10.9615 1.82692 10.9615H6.94231C7.23303 10.9615 7.51184 11.077 7.7174 11.2826C7.92297 11.4882 8.03846 11.767 8.03846 12.0577V17.1731ZM14.6154 10.2308C13.7482 10.2308 12.9005 10.4879 12.1794 10.9697C11.4584 11.4515 10.8964 12.1363 10.5645 12.9375C10.2327 13.7386 10.1458 14.6202 10.315 15.4708C10.4842 16.3213 10.9018 17.1026 11.515 17.7158C12.1282 18.329 12.9095 18.7466 13.76 18.9157C14.6105 19.0849 15.4921 18.9981 16.2933 18.6662C17.0945 18.3344 17.7793 17.7724 18.2611 17.0513C18.7428 16.3303 19 15.4826 19 14.6154C18.9987 13.4529 18.5364 12.3384 17.7144 11.5164C16.8924 10.6944 15.7779 10.232 14.6154 10.2308ZM14.6154 18.2692C13.8927 18.2692 13.1863 18.0549 12.5854 17.6534C11.9845 17.252 11.5162 16.6813 11.2397 16.0136C10.9631 15.346 10.8908 14.6113 11.0317 13.9026C11.1727 13.1938 11.5207 12.5427 12.0317 12.0317C12.5427 11.5207 13.1938 11.1727 13.9026 11.0317C14.6113 10.8908 15.346 10.9631 16.0136 11.2397C16.6813 11.5162 17.252 11.9845 17.6534 12.5854C18.0549 13.1863 18.2692 13.8927 18.2692 14.6154C18.2682 15.5841 17.8829 16.5129 17.1979 17.1979C16.5129 17.8829 15.5841 18.2682 14.6154 18.2692Z" fill="#393939"/>
</svg>
