<svg width="19" height="20" viewBox="0 0 19 20" fill="none" xmlns="http://www.w3.org/2000/svg">
<path d="M6.94231 0.801758H1.82692C1.34257 0.802338 0.878223 0.995003 0.535734 1.33749C0.193245 1.67998 0.000580179 2.14433 0 2.62868V7.74406C0.000580179 8.22842 0.193245 8.69276 0.535734 9.03525C0.878223 9.37774 1.34257 9.57041 1.82692 9.57099H6.94231C7.42666 9.57041 7.89101 9.37774 8.2335 9.03525C8.57598 8.69276 8.76865 8.22842 8.76923 7.74406V2.62868C8.76865 2.14433 8.57598 1.67998 8.2335 1.33749C7.89101 0.995003 7.42666 0.802338 6.94231 0.801758ZM8.03846 7.74406C8.03846 8.03478 7.92297 8.31359 7.7174 8.51916C7.51184 8.72473 7.23303 8.84022 6.94231 8.84022H1.82692C1.5362 8.84022 1.25739 8.72473 1.05183 8.51916C0.846256 8.31359 0.730769 8.03478 0.730769 7.74406V2.62868C0.730769 2.33796 0.846256 2.05915 1.05183 1.85358C1.25739 1.64801 1.5362 1.53253 1.82692 1.53253H6.94231C7.23303 1.53253 7.51184 1.64801 7.7174 1.85358C7.92297 2.05915 8.03846 2.33796 8.03846 2.62868V7.74406ZM17.1731 0.801758H12.0577C11.5733 0.802338 11.109 0.995003 10.7665 1.33749C10.424 1.67998 10.2313 2.14433 10.2308 2.62868V7.74406C10.2313 8.22842 10.424 8.69276 10.7665 9.03525C11.109 9.37774 11.5733 9.57041 12.0577 9.57099H17.1731C17.6574 9.57041 18.1218 9.37774 18.4643 9.03525C18.8068 8.69276 18.9994 8.22842 19 7.74406V2.62868C18.9994 2.14433 18.8068 1.67998 18.4643 1.33749C18.1218 0.995003 17.6574 0.802338 17.1731 0.801758ZM18.2692 7.74406C18.2692 8.03478 18.1537 8.31359 17.9482 8.51916C17.7426 8.72473 17.4638 8.84022 17.1731 8.84022H12.0577C11.767 8.84022 11.4882 8.72473 11.2826 8.51916C11.077 8.31359 10.9615 8.03478 10.9615 7.74406V2.62868C10.9615 2.33796 11.077 2.05915 11.2826 1.85358C11.4882 1.64801 11.767 1.53253 12.0577 1.53253H17.1731C17.4638 1.53253 17.7426 1.64801 17.9482 1.85358C18.1537 2.05915 18.2692 2.33796 18.2692 2.62868V7.74406ZM6.94231 11.0325H1.82692C1.34257 11.0331 0.878223 11.2258 0.535734 11.5683C0.193245 11.9107 0.000580179 12.3751 0 12.8594V17.9748C0.000580179 18.4592 0.193245 18.9235 0.535734 19.266C0.878223 19.6085 1.34257 19.8012 1.82692 19.8018H6.94231C7.42666 19.8012 7.89101 19.6085 8.2335 19.266C8.57598 18.9235 8.76865 18.4592 8.76923 17.9748V12.8594C8.76865 12.3751 8.57598 11.9107 8.2335 11.5683C7.89101 11.2258 7.42666 11.0331 6.94231 11.0325ZM8.03846 17.9748C8.03846 18.2655 7.92297 18.5444 7.7174 18.7499C7.51184 18.9555 7.23303 19.071 6.94231 19.071H1.82692C1.5362 19.071 1.25739 18.9555 1.05183 18.7499C0.846256 18.5444 0.730769 18.2655 0.730769 17.9748V12.8594C0.730769 12.5687 0.846256 12.2899 1.05183 12.0844C1.25739 11.8788 1.5362 11.7633 1.82692 11.7633H6.94231C7.23303 11.7633 7.51184 11.8788 7.7174 12.0844C7.92297 12.2899 8.03846 12.5687 8.03846 12.8594V17.9748ZM14.6154 11.0325C13.7482 11.0325 12.9005 11.2897 12.1794 11.7715C11.4584 12.2533 10.8964 12.938 10.5645 13.7392C10.2327 14.5404 10.1458 15.422 10.315 16.2725C10.4842 17.1231 10.9018 17.9043 11.515 18.5175C12.1282 19.1307 12.9095 19.5483 13.76 19.7175C14.6105 19.8867 15.4921 19.7999 16.2933 19.468C17.0945 19.1361 17.7793 18.5741 18.2611 17.8531C18.7428 17.1321 19 16.2843 19 15.4171C18.9987 14.2547 18.5364 13.1401 17.7144 12.3181C16.8924 11.4961 15.7779 11.0338 14.6154 11.0325ZM14.6154 19.071C13.8927 19.071 13.1863 18.8567 12.5854 18.4552C11.9845 18.0537 11.5162 17.4831 11.2397 16.8154C10.9631 16.1478 10.8908 15.4131 11.0317 14.7043C11.1727 13.9955 11.5207 13.3445 12.0317 12.8335C12.5427 12.3225 13.1938 11.9745 13.9026 11.8335C14.6113 11.6925 15.346 11.7649 16.0136 12.0414C16.6813 12.318 17.252 12.7863 17.6534 13.3872C18.0549 13.988 18.2692 14.6945 18.2692 15.4171C18.2682 16.3859 17.8829 17.3146 17.1979 17.9996C16.5129 18.6846 15.5841 19.0699 14.6154 19.071Z" fill="#C1768D"/>
</svg>
