<svg width="20" height="18" viewBox="0 0 20 18" fill="none" xmlns="http://www.w3.org/2000/svg">
<path d="M16.4124 8.83787C16.3734 8.83786 16.3348 8.84513 16.2988 8.85926C16.2627 8.87339 16.23 8.89411 16.2024 8.92023C16.1749 8.94634 16.153 8.97735 16.1381 9.01148C16.1232 9.04561 16.1155 9.08218 16.1155 9.11912V13.2536C16.1152 13.5026 16.0107 13.7414 15.8248 13.9175C15.6389 14.0936 15.3869 14.1926 15.124 14.1929H3.27276C3.00988 14.1926 2.75785 14.0936 2.57196 13.9175C2.38608 13.7414 2.28153 13.5026 2.28125 13.2536V6.9058C2.28152 6.65674 2.38607 6.41795 2.57195 6.24183C2.75783 6.0657 3.00987 5.96662 3.27276 5.96633H5.59152C5.65376 5.96631 5.71442 5.94776 5.76493 5.91331C5.81544 5.87886 5.85326 5.83025 5.87303 5.77435L6.09569 5.144C6.16128 4.95743 6.28726 4.79517 6.45572 4.68027C6.62418 4.56536 6.82657 4.50366 7.03415 4.50392H11.3626C11.6213 4.50296 11.8699 4.59921 12.0538 4.77157C12.1102 4.82217 12.1853 4.8498 12.263 4.84854C12.3407 4.84728 12.4147 4.81722 12.4693 4.76481C12.5239 4.7124 12.5546 4.64183 12.5548 4.56822C12.5551 4.49462 12.5249 4.42385 12.4707 4.3711C12.1759 4.09458 11.7774 3.94006 11.3626 3.94142H7.03415C6.70198 3.94102 6.37813 4.03979 6.10859 4.22369C5.83905 4.4076 5.63754 4.6673 5.53267 4.96589L5.37785 5.40383H3.27276C2.85245 5.4043 2.4495 5.56269 2.1523 5.84427C1.85511 6.12585 1.68795 6.50761 1.6875 6.9058V13.2536C1.68798 13.6517 1.85516 14.0335 2.15235 14.315C2.44954 14.5965 2.85248 14.7549 3.27276 14.7554H15.124C15.5443 14.7549 15.9472 14.5965 16.2444 14.315C16.5416 14.0335 16.7088 13.6517 16.7093 13.2536V9.11912C16.7093 9.08218 16.7016 9.04561 16.6867 9.01148C16.6718 8.97735 16.6499 8.94634 16.6223 8.92023C16.5948 8.89411 16.562 8.87339 16.526 8.85926C16.49 8.84513 16.4514 8.83786 16.4124 8.83787Z" fill="#C1768D"/>
<path d="M9.20061 6.38135C8.16559 6.38248 7.17331 6.77252 6.44147 7.4659C5.70963 8.15927 5.298 9.09935 5.29688 10.0799C5.5112 14.9865 12.891 14.9848 13.1046 10.0799C13.1034 9.0993 12.6917 8.15922 11.9598 7.46586C11.228 6.77249 10.2356 6.38247 9.20061 6.38135ZM9.20061 13.2158C8.32304 13.2148 7.48171 12.8841 6.86119 12.2962C6.24067 11.7083 5.89162 10.9113 5.89062 10.0799C6.07248 5.91936 12.3298 5.92085 12.5109 10.0799C12.5099 10.9113 12.1608 11.7084 11.5402 12.2963C10.9196 12.8842 10.0782 13.2149 9.20061 13.2158Z" fill="#C1768D"/>
<path d="M9.19739 7.39404C9.11966 7.39548 9.04562 7.42574 8.99118 7.47833C8.93674 7.53092 8.90625 7.60164 8.90625 7.67529C8.90625 7.74895 8.93674 7.81967 8.99118 7.87226C9.04562 7.92484 9.11966 7.95511 9.19739 7.95654C9.79165 7.9572 10.3614 8.18114 10.7816 8.57924C11.2017 8.97734 11.4381 9.51709 11.4387 10.0801C11.4387 10.1547 11.47 10.2262 11.5257 10.2789C11.5814 10.3317 11.6569 10.3613 11.7356 10.3613C11.8144 10.3613 11.8899 10.3317 11.9455 10.2789C12.0012 10.2262 12.0325 10.1547 12.0325 10.0801C12.0317 9.36795 11.7327 8.68523 11.2012 8.18168C10.6697 7.67813 9.94907 7.39487 9.19739 7.39404Z" fill="#C1768D"/>
<path d="M16.7713 5.52286H15.9053V4.70232C15.9038 4.62868 15.8719 4.55854 15.8164 4.50697C15.7609 4.4554 15.6862 4.42651 15.6085 4.42651C15.5307 4.42652 15.4561 4.45541 15.4006 4.50698C15.345 4.55856 15.3131 4.6287 15.3116 4.70234V5.52287H14.4453C14.3666 5.52287 14.2911 5.5525 14.2354 5.60524C14.1797 5.65799 14.1484 5.72952 14.1484 5.80412C14.1484 5.87871 14.1797 5.95024 14.2354 6.00299C14.2911 6.05573 14.3666 6.08537 14.4453 6.08537H15.3116V6.90577C15.3116 6.98036 15.3429 7.0519 15.3985 7.10465C15.4542 7.15739 15.5297 7.18702 15.6085 7.18702C15.6872 7.18702 15.7627 7.15739 15.8184 7.10465C15.8741 7.0519 15.9053 6.98036 15.9053 6.90577V6.08537H16.7713C16.8491 6.08395 16.9231 6.05369 16.9776 6.0011C17.032 5.94851 17.0625 5.87778 17.0625 5.80411C17.0625 5.73044 17.032 5.65972 16.9776 5.60712C16.9231 5.55453 16.8491 5.52428 16.7713 5.52286Z" fill="#C1768D"/>
<path d="M15.608 3.24463C14.8917 3.24537 14.205 3.51525 13.6985 3.99507C13.192 4.47488 12.9071 5.12545 12.9062 5.80403C13.0519 9.19812 18.1643 9.19743 18.3094 5.804C18.3086 5.12546 18.0238 4.47494 17.5173 3.99513C17.0109 3.51533 16.3242 3.24542 15.608 3.24463ZM15.608 7.80079C15.0492 7.80021 14.5134 7.58966 14.1182 7.21533C13.723 6.841 13.5007 6.33345 13.5 5.80403C13.599 3.16124 17.6172 3.16165 17.7157 5.80407C17.7151 6.33345 17.4928 6.84099 17.0977 7.21532C16.7025 7.58965 16.1668 7.8002 15.608 7.80079Z" fill="#C1768D"/>
</svg>
