<svg width="42" height="42" viewBox="0 0 42 42" fill="none" xmlns="http://www.w3.org/2000/svg">
<g clip-path="url(#clip0_18922_3462)">
<path d="M41.3644 32.7756L25.0602 4.53602C24.2127 3.06815 22.6948 2.19189 21 2.19189C19.3051 2.19189 17.7872 3.06824 16.9398 4.53602L0.6356 32.7756C-0.211867 34.2435 -0.211867 35.9961 0.6356 37.464C1.48307 38.9318 3.00089 39.8081 4.69583 39.8081H37.3042C38.9991 39.8081 40.517 38.9318 41.3644 37.464C42.2118 35.9961 42.2118 34.2435 41.3644 32.7756ZM39.2316 36.2325C38.8293 36.9293 38.1088 37.3453 37.3042 37.3453H4.69583C3.89126 37.3453 3.1707 36.9293 2.76842 36.2325C2.36613 35.5357 2.36613 34.7037 2.76842 34.0069L19.0726 5.76731C19.4749 5.07054 20.1954 4.65456 21 4.65456C21.8045 4.65456 22.5251 5.07054 22.9274 5.76731L39.2316 34.0069C39.6339 34.7037 39.6339 35.5357 39.2316 36.2325Z" fill="#C1768D"/>
<path d="M20.9993 29.136C20.094 29.136 19.3574 29.8725 19.3574 30.7779C19.3574 31.6832 20.094 32.4197 20.9993 32.4197C21.9046 32.4197 22.6412 31.6832 22.6412 30.7779C22.6412 29.8725 21.9046 29.136 20.9993 29.136Z" fill="#C1768D"/>
<path d="M22.2323 13.949H19.7695V26.6732H22.2323V13.949Z" fill="#C1768D"/>
</g>
<defs>
<clipPath id="clip0_18922_3462">
<rect width="42" height="42" fill="white"/>
</clipPath>
</defs>
</svg>
