<svg width="19" height="18" viewBox="0 0 19 18" fill="none" xmlns="http://www.w3.org/2000/svg">
<path d="M9.305 17.5763L9.07965 17.42C8.7089 17.1656 0 11.0628 0 5.67606C0 2.78279 2.16996 0.423828 4.84514 0.423828C6.81519 0.423828 8.55987 1.81958 9.305 3.76418C10.0501 1.82685 11.7948 0.423828 13.7649 0.423828C16.44 0.423828 18.61 2.78279 18.61 5.67243C18.61 11.0628 9.89383 17.1656 9.53036 17.4236L9.305 17.5763ZM4.84514 1.20167C2.63521 1.20167 0.774205 3.24804 0.774205 5.67606C0.774205 10.2123 7.9456 15.639 9.305 16.6312C10.6608 15.639 17.8358 10.2123 17.8358 5.67606C17.8358 3.24804 15.9748 1.20167 13.7649 1.20167C11.5549 1.20167 9.69392 3.37162 9.69392 5.85417V6.01773L8.91971 5.6906C8.84338 3.28075 6.97512 1.1944 4.84878 1.1944L4.84514 1.20167Z" fill="#393939"/>
</svg>
