<svg width="25" height="24" viewBox="0 0 25 24" fill="none" xmlns="http://www.w3.org/2000/svg">
<path d="M24.5 9.5V19.5C24.5 21.98 22.48 24 20 24H5C2.52 24 0.5 21.98 0.5 19.5V7.5C0.5 5.02 2.52 3 5 3H14C14.28 3 14.5 3.22 14.5 3.5C14.5 3.78 14.28 4 14 4H5C3.39 4 2.03 5.09 1.62 6.57L10.02 14.97C11.38 16.34 13.6 16.33 14.97 14.97L19.64 10.15C19.83 9.95 20.15 9.95 20.35 10.14C20.55 10.33 20.55 10.65 20.36 10.85L15.69 15.68C14.81 16.56 13.65 17 12.5 17C11.35 17 10.2 16.56 9.32 15.68L1.5 7.86V19.5C1.5 21.43 3.07 23 5 23H20C21.93 23 23.5 21.43 23.5 19.5V9.5C23.5 9.22 23.72 9 24 9C24.28 9 24.5 9.22 24.5 9.5ZM16.5 4C16.5 1.79 18.29 0 20.5 0C22.71 0 24.5 1.79 24.5 4C24.5 6.21 22.71 8 20.5 8C18.29 8 16.5 6.21 16.5 4ZM17.5 4C17.5 5.65 18.85 7 20.5 7C22.15 7 23.5 5.65 23.5 4C23.5 2.35 22.15 1 20.5 1C18.85 1 17.5 2.35 17.5 4Z" fill="#393939"/>
</svg>
