<svg width="22" height="26" viewBox="0 0 22 26" fill="none" xmlns="http://www.w3.org/2000/svg">
<path d="M18.6143 3.40648H16.2621V2.3542C16.2621 2.01374 15.8908 1.85901 15.5503 1.85901H13.7243C13.291 0.621005 12.2077 0.00200396 10.9697 0.00200396C9.74535 -0.0440257 8.6317 0.706726 8.21518 1.85901H6.42008C6.07963 1.85901 5.73918 2.01374 5.73918 2.3542V3.40648H3.38693C1.993 3.42135 0.852629 4.52097 0.787109 5.91341V23.6477C0.787109 25.0095 2.02511 25.9999 3.38693 25.9999H18.6143C19.9761 25.9999 21.2141 25.0095 21.2141 23.6477V5.91347C21.1486 4.52097 20.0082 3.42135 18.6143 3.40648ZM6.97712 3.09701H8.67939C8.97653 3.06075 9.21521 2.83469 9.26746 2.53991C9.45075 1.74171 10.151 1.16874 10.9697 1.14718C11.7808 1.17176 12.4706 1.74651 12.641 2.53991C12.6965 2.84488 12.951 3.07385 13.26 3.09701H15.0242V5.57301H6.97712V3.09701ZM19.9761 23.6478C19.9761 24.3287 19.2952 24.762 18.6143 24.762H3.38693C2.70602 24.762 2.02511 24.3287 2.02511 23.6478V5.91347C2.08826 5.20472 2.67545 4.65751 3.38693 4.64454H5.73912V6.223C5.77182 6.56979 6.07217 6.8292 6.42002 6.81107H15.5502C15.9045 6.83044 16.2143 6.57459 16.2621 6.223V4.64448H18.6143C19.3257 4.65751 19.9129 5.20466 19.9761 5.91341V23.6478H19.9761Z" fill="#393939"/>
<path d="M8.61819 13.8368C8.38603 13.5921 8.00061 13.5783 7.75156 13.8059L5.77075 15.6938L4.93511 14.8272C4.70294 14.5824 4.31753 14.5687 4.06848 14.7962C3.82874 15.0474 3.82874 15.4426 4.06848 15.6938L5.33741 16.9937C5.44724 17.1167 5.60588 17.1847 5.77069 17.1794C5.93396 17.1771 6.0897 17.1103 6.20397 16.9937L8.61807 14.7034C8.8574 14.4839 8.8734 14.1118 8.65379 13.8726C8.64254 13.8601 8.63063 13.8482 8.61819 13.8368Z" fill="#393939"/>
<path d="M17.4992 15.1675H10.3807C10.0388 15.1675 9.76172 15.4446 9.76172 15.7865C9.76172 16.1284 10.0388 16.4055 10.3807 16.4055H17.4992C17.8411 16.4055 18.1182 16.1284 18.1182 15.7865C18.1182 15.4446 17.8411 15.1675 17.4992 15.1675Z" fill="#393939"/>
<path d="M8.61819 8.88463C8.38603 8.63991 8.00061 8.62611 7.75156 8.85371L5.77075 10.7416L4.93511 9.87501C4.70294 9.63029 4.31753 9.61648 4.06848 9.84408C3.82874 10.0953 3.82874 10.4905 4.06848 10.7416L5.33741 12.0415C5.44724 12.1645 5.60588 12.2325 5.77069 12.2273C5.93396 12.2249 6.0897 12.1582 6.20397 12.0415L8.61807 9.75126C8.8574 9.53171 8.8734 9.15968 8.65379 8.92041C8.64254 8.90791 8.63063 8.896 8.61819 8.88463Z" fill="#393939"/>
<path d="M17.4992 10.2156H10.3807C10.0388 10.2156 9.76172 10.4927 9.76172 10.8346C9.76172 11.1765 10.0388 11.4536 10.3807 11.4536H17.4992C17.8411 11.4536 18.1182 11.1765 18.1182 10.8346C18.1182 10.4927 17.8411 10.2156 17.4992 10.2156Z" fill="#393939"/>
<path d="M8.61819 18.7887C8.38603 18.5439 8.00061 18.5302 7.75156 18.7577L5.77075 20.6457L4.93511 19.779C4.70294 19.5343 4.31753 19.5206 4.06848 19.7481C3.82874 19.9993 3.82874 20.3945 4.06848 20.6457L5.33741 21.9456C5.44724 22.0686 5.60588 22.1366 5.77069 22.1313C5.93396 22.129 6.0897 22.0622 6.20397 21.9456L8.61807 19.6553C8.8574 19.4357 8.8734 19.0637 8.65379 18.8244C8.64254 18.812 8.63063 18.8001 8.61819 18.7887Z" fill="#393939"/>
<path d="M17.4992 20.1196H10.3807C10.0388 20.1196 9.76172 20.3968 9.76172 20.7386C9.76172 21.0805 10.0388 21.3576 10.3807 21.3576H17.4992C17.8411 21.3576 18.1182 21.0805 18.1182 20.7386C18.1182 20.3968 17.8411 20.1196 17.4992 20.1196Z" fill="#393939"/>
</svg>
