<svg width="29" height="29" viewBox="0 0 29 29" fill="none" xmlns="http://www.w3.org/2000/svg">
<path d="M27.852 6.39878L14.6848 0.0422256C14.5681 -0.0140752 14.4322 -0.0140752 14.3155 0.0422256L1.1483 6.39878C1.00149 6.46963 0.908203 6.61832 0.908203 6.78133V22.2187C0.908203 22.3817 1.00149 22.5304 1.1483 22.6012L14.3154 28.9578C14.3738 28.9859 14.437 29 14.5001 29C14.5633 29 14.6264 28.9859 14.6848 28.9578L27.852 22.6012C27.9988 22.5304 28.0921 22.3817 28.0921 22.2187V6.78138C28.0921 6.61826 27.9987 6.46969 27.852 6.39878ZM14.5001 0.896536L26.6902 6.78133L23.1565 8.48723C23.1342 8.47018 23.1105 8.45443 23.0846 8.44192L10.9774 2.59717L14.5001 0.896536ZM10.018 3.07748L22.1903 8.95372L19.6973 10.1573L7.53 4.28342L10.018 3.07748ZM22.4751 9.75961V14.2085L20.1464 15.3327V10.8838L22.4751 9.75961ZM27.2425 21.9521L14.9249 27.8984V13.4045L17.8631 11.9861C18.0743 11.8841 18.1629 11.6302 18.0609 11.4188C17.9589 11.2076 17.705 11.1189 17.4937 11.221L14.5001 12.6662L13.3222 12.0975C13.1109 11.9954 12.857 12.0841 12.755 12.2953C12.653 12.5066 12.7416 12.7606 12.9528 12.8626L14.0753 13.4045V27.8984L1.75781 21.952V7.45813L11.1375 11.9863C11.197 12.015 11.26 12.0286 11.3219 12.0286C11.4798 12.0286 11.6315 11.9402 11.7047 11.7884C11.8067 11.5771 11.7181 11.3232 11.5069 11.2212L2.31012 6.78133L6.53013 4.74408L19.2909 10.9045C19.2928 10.9071 19.2949 10.9094 19.2968 10.912V16.0096C19.2968 16.1557 19.372 16.2916 19.4958 16.3694C19.5646 16.4126 19.643 16.4344 19.7217 16.4344C19.7847 16.4344 19.8478 16.4204 19.9063 16.3921L23.0846 14.8578C23.2314 14.7869 23.3247 14.6383 23.3247 14.4752V9.34953L27.2425 7.45818V21.9521Z" fill="#C1768D"/>
</svg>
