<svg width="25" height="24" viewBox="0 0 25 24" fill="none" xmlns="http://www.w3.org/2000/svg">
<path d="M18.4859 5.09367L13.5335 0.110625C13.4986 0.0755645 13.4572 0.0477413 13.4116 0.028756C13.3659 0.00977061 13.317 -2.11034e-06 13.2675 3.41821e-10L2.42188 3.41821e-10C2.01176 0.000471437 1.61858 0.163597 1.32859 0.45359C1.0386 0.743583 0.875471 1.13676 0.875 1.54688V22.4531C0.875471 22.8632 1.0386 23.2564 1.32859 23.5464C1.61858 23.8364 2.01176 23.9995 2.42188 24H17.0482C17.4583 23.9995 17.8515 23.8364 18.1415 23.5464C18.4315 23.2564 18.5946 22.8632 18.5951 22.4531V15.1312L23.4836 10.2427C23.8957 9.83058 24.1272 9.27162 24.1272 8.6888C24.1272 8.10597 23.8957 7.54701 23.4836 7.13489C23.0714 6.72277 22.5125 6.49124 21.9297 6.49124C21.3468 6.49124 20.7879 6.72277 20.3758 7.13489L18.595 8.91567V5.35786C18.5949 5.25886 18.5557 5.16389 18.4859 5.09367ZM19.1769 9.3945L21.224 11.4416L14.0474 18.6181L12.0003 16.5711L19.1769 9.3945ZM20.2111 8.3602L22.2582 10.4073L21.7543 10.9112L19.7073 8.86406L20.2111 8.3602ZM11.6613 17.2922L13.3188 18.9497L11.2503 19.3354L11.6613 17.2922ZM13.8278 1.4707L17.1044 4.76728H13.8278V1.4707ZM17.8451 22.4531C17.8449 22.6644 17.7608 22.8669 17.6115 23.0163C17.4621 23.1657 17.2595 23.2498 17.0482 23.25H2.42188C2.2106 23.2498 2.00805 23.1657 1.85866 23.0163C1.70927 22.8669 1.62524 22.6644 1.625 22.4531V1.54688C1.62524 1.3356 1.70927 1.13305 1.85866 0.98366C2.00805 0.834268 2.2106 0.750236 2.42188 0.75H13.0778V5.14219C13.0778 5.24164 13.1173 5.33703 13.1877 5.40735C13.258 5.47768 13.3534 5.51719 13.4528 5.51719H17.845V9.66562L11.1471 16.3637C11.0948 16.416 11.0592 16.4825 11.0446 16.5549L10.4055 19.7321C10.3934 19.7922 10.3963 19.8544 10.4138 19.9132C10.4314 19.972 10.4631 20.0256 10.5061 20.0693C10.5492 20.113 10.6023 20.1454 10.6609 20.1638C10.7194 20.1822 10.7816 20.1859 10.8419 20.1747L14.0584 19.575C14.1328 19.5611 14.2013 19.5251 14.2549 19.4715L17.8451 15.8812V22.4531ZM22.9531 7.66528C23.2233 7.93743 23.3749 8.30535 23.3749 8.68882C23.3749 9.07229 23.2233 9.44021 22.9531 9.71236L22.7885 9.87698L20.7415 7.82991L20.906 7.66528C21.1777 7.39422 21.5458 7.24199 21.9296 7.24199C22.3134 7.24199 22.6815 7.39422 22.9531 7.66528ZM9.97063 17.5785C9.97063 17.6779 9.93112 17.7733 9.86079 17.8436C9.79047 17.9139 9.69508 17.9535 9.59563 17.9535H3.7408C3.64134 17.9535 3.54596 17.9139 3.47563 17.8436C3.40531 17.7733 3.3658 17.6779 3.3658 17.5785C3.3658 17.479 3.40531 17.3836 3.47563 17.3133C3.54596 17.243 3.64134 17.2035 3.7408 17.2035H9.59549C9.64474 17.2034 9.69352 17.2131 9.73904 17.232C9.78455 17.2508 9.8259 17.2784 9.86074 17.3132C9.89558 17.3481 9.92321 17.3894 9.94207 17.4349C9.96092 17.4804 9.97063 17.5292 9.97063 17.5785ZM3.36594 14.3103C3.36594 14.2109 3.40545 14.1155 3.47577 14.0452C3.5461 13.9748 3.64148 13.9353 3.74094 13.9353H11.477C11.5764 13.9353 11.6718 13.9748 11.7421 14.0452C11.8124 14.1155 11.852 14.2109 11.852 14.3103C11.852 14.4098 11.8124 14.5052 11.7421 14.5755C11.6718 14.6458 11.5764 14.6853 11.477 14.6853H3.7408C3.64134 14.6853 3.54596 14.6458 3.47563 14.5755C3.40531 14.5052 3.3658 14.4098 3.3658 14.3103H3.36594ZM3.36594 11.0422C3.36594 10.9427 3.40545 10.8474 3.47577 10.777C3.5461 10.7067 3.64148 10.6672 3.74094 10.6672H15.7293C15.8288 10.6672 15.9242 10.7067 15.9945 10.777C16.0648 10.8474 16.1043 10.9427 16.1043 11.0422C16.1043 11.1417 16.0648 11.237 15.9945 11.3074C15.9242 11.3777 15.8288 11.4172 15.7293 11.4172H3.7408C3.64134 11.4172 3.54596 11.3777 3.47563 11.3074C3.40531 11.237 3.3658 11.1417 3.3658 11.0422H3.36594ZM3.36594 7.77413C3.36594 7.67467 3.40545 7.57929 3.47577 7.50896C3.5461 7.43863 3.64148 7.39913 3.74094 7.39913H15.7293C15.8288 7.39913 15.9242 7.43863 15.9945 7.50896C16.0648 7.57929 16.1043 7.67467 16.1043 7.77413C16.1043 7.87358 16.0648 7.96896 15.9945 8.03929C15.9242 8.10962 15.8288 8.14913 15.7293 8.14913H3.7408C3.64134 8.14913 3.54596 8.10962 3.47563 8.03929C3.40531 7.96896 3.3658 7.87358 3.3658 7.77413H3.36594ZM3.36594 4.506C3.36594 4.40654 3.40545 4.31116 3.47577 4.24084C3.5461 4.17051 3.64148 4.131 3.74094 4.131H11.6793C11.7788 4.131 11.8742 4.17051 11.9445 4.24084C12.0148 4.31116 12.0543 4.40654 12.0543 4.506C12.0543 4.60546 12.0148 4.70084 11.9445 4.77116C11.8742 4.84149 11.7788 4.881 11.6793 4.881H3.7408C3.64134 4.881 3.54596 4.84149 3.47563 4.77116C3.40531 4.70084 3.3658 4.60546 3.3658 4.506H3.36594Z" fill="#393939"/>
</svg>
