<svg width="25" height="25" viewBox="0 0 25 25" fill="none" xmlns="http://www.w3.org/2000/svg">
<g clip-path="url(#clip0_18185_3015)">
<path d="M10.9373 25C7.59769 25 4.45915 23.7 2.09766 21.3385C1.89453 21.1353 1.89453 20.8052 2.09766 20.602C2.30079 20.3989 2.63096 20.3989 2.83409 20.602C4.99874 22.7667 7.87693 23.9584 10.9373 23.9584C13.9976 23.9584 16.8748 22.7667 19.0393 20.602C21.204 18.4376 22.3957 15.5603 22.3957 12.5C22.3957 9.43966 21.204 6.56147 19.0393 4.39682C16.8748 2.23236 13.9976 1.0416 10.9373 1.0416C7.87693 1.0416 4.99969 2.23331 2.83523 4.39796C2.6321 4.6011 2.30194 4.6011 2.09881 4.39796C1.89567 4.19483 1.89567 3.86467 2.09881 3.66154C4.4601 1.30005 7.59865 0 10.9373 0C14.2768 0 17.4154 1.30005 19.7769 3.66154C22.1384 6.02283 23.4373 9.16138 23.4373 12.5C23.4373 15.8386 22.1372 18.9772 19.7757 21.3385C17.4144 23.7 14.2759 25 10.9373 25Z" fill="#393939"/>
<path d="M6.25 5.2084H2.0834C1.79577 5.2084 1.5625 4.97494 1.5625 4.6875V0.520897C1.5625 0.233269 1.79577 0 2.0834 0C2.37083 0 2.6041 0.233269 2.6041 0.520897V4.1666H6.25C6.53744 4.1666 6.7709 4.40006 6.7709 4.6875C6.7709 4.97494 6.53744 5.2084 6.25 5.2084Z" fill="#393939"/>
</g>
<defs>
<clipPath id="clip0_18185_3015">
<rect width="25" height="25" fill="white"/>
</clipPath>
</defs>
</svg>
