<svg width="35" height="35" viewBox="0 0 35 35" fill="none" xmlns="http://www.w3.org/2000/svg">
<g clip-path="url(#clip0_18185_3050)">
<path fill-rule="evenodd" clip-rule="evenodd" d="M12.2466 31.01H1.74043C0.780664 31.01 0 30.2293 0 29.2702V7.06025C0 6.10049 0.780664 5.31982 1.74043 5.31982H10.917C11.1433 5.31982 11.3271 5.50371 11.3271 5.72998C11.3271 5.95693 11.1433 6.14014 10.917 6.14014H1.74043C1.2332 6.14014 0.820312 6.55303 0.820312 7.06025V29.2702C0.820312 29.7768 1.2332 30.1896 1.74043 30.1896H12.2466C12.7538 30.1896 13.1667 29.7768 13.1667 29.2695C13.1667 29.0433 13.3499 28.8594 13.5769 28.8594C13.8031 28.8594 13.987 29.0433 13.987 29.2695C13.987 30.2293 13.2063 31.01 12.2466 31.01Z" fill="#393939"/>
<path fill-rule="evenodd" clip-rule="evenodd" d="M22.7544 29.6797H12.2476C11.2885 29.6797 10.5078 28.8997 10.5078 27.9399V5.72998C10.5078 4.7709 11.2885 3.99023 12.2476 3.99023H22.7544C23.7135 3.99023 24.4941 4.7709 24.4941 5.72998V27.9399C24.4941 28.8997 23.7135 29.6797 22.7544 29.6797ZM12.2476 4.81055C11.7403 4.81055 11.3281 5.22344 11.3281 5.72998V27.9399C11.3281 28.4472 11.7403 28.8601 12.2476 28.8601H22.7544C23.2609 28.8601 23.6738 28.4472 23.6738 27.9399V5.72998C23.6738 5.22344 23.2609 4.81055 22.7544 4.81055H12.2476Z" fill="#393939"/>
<path fill-rule="evenodd" clip-rule="evenodd" d="M33.2603 31.01H22.7541C21.7943 31.01 21.0137 30.2293 21.0137 29.2695C21.0137 29.0433 21.1976 28.8601 21.4238 28.8601C21.6508 28.8601 21.834 29.0433 21.834 29.2695C21.834 29.7768 22.2469 30.1896 22.7541 30.1896H33.2603C33.7675 30.1896 34.1804 29.7768 34.1804 29.2695V7.06025C34.1804 6.55303 33.7675 6.14014 33.2603 6.14014H24.0837C23.8574 6.14014 23.6735 5.95693 23.6735 5.72998C23.6735 5.50371 23.8574 5.31982 24.0837 5.31982H33.2603C34.22 5.31982 35.0007 6.10049 35.0007 7.06025V29.2702C35.0007 30.2293 34.22 31.01 33.2603 31.01Z" fill="#393939"/>
<path fill-rule="evenodd" clip-rule="evenodd" d="M5.66279 15.4528C4.50137 15.4528 3.55664 14.5081 3.55664 13.3466C3.55664 13.1204 3.74053 12.9365 3.9668 12.9365C4.19375 12.9365 4.37695 13.1204 4.37695 13.3466C4.37695 14.0555 4.95391 14.6325 5.66279 14.6325C6.37168 14.6325 6.94863 14.0555 6.94863 13.3466C6.94863 12.6377 6.37168 12.0615 5.66279 12.0615C4.50137 12.0615 3.55664 11.1167 3.55664 9.95532C3.55664 8.79458 4.50137 7.84985 5.66279 7.84985C6.82422 7.84985 7.76895 8.79458 7.76895 9.95532C7.76895 10.1823 7.58506 10.3655 7.35879 10.3655C7.13184 10.3655 6.94863 10.1823 6.94863 9.95532C6.94863 9.24644 6.37168 8.67017 5.66279 8.67017C4.95391 8.67017 4.37695 9.24644 4.37695 9.95532C4.37695 10.6642 4.95391 11.2412 5.66279 11.2412C6.82422 11.2412 7.76895 12.1859 7.76895 13.3466C7.76895 14.5081 6.82422 15.4528 5.66279 15.4528Z" fill="#393939"/>
<path fill-rule="evenodd" clip-rule="evenodd" d="M8.55674 17.3906H2.77148C2.54453 17.3906 2.36133 17.2067 2.36133 16.9805C2.36133 16.7535 2.54453 16.5703 2.77148 16.5703H8.55674C8.78301 16.5703 8.96689 16.7535 8.96689 16.9805C8.96689 17.2067 8.78301 17.3906 8.55674 17.3906Z" fill="#393939"/>
<path fill-rule="evenodd" clip-rule="evenodd" d="M8.55674 21.1812H2.77148C2.54453 21.1812 2.36133 20.9973 2.36133 20.771C2.36133 20.544 2.54453 20.3608 2.77148 20.3608H8.55674C8.78301 20.3608 8.96689 20.544 8.96689 20.771C8.96689 20.9973 8.78301 21.1812 8.55674 21.1812Z" fill="#393939"/>
<path fill-rule="evenodd" clip-rule="evenodd" d="M8.55674 24.9709H2.77148C2.54453 24.9709 2.36133 24.7877 2.36133 24.5608C2.36133 24.3345 2.54453 24.1506 2.77148 24.1506H8.55674C8.78301 24.1506 8.96689 24.3345 8.96689 24.5608C8.96689 24.7877 8.78301 24.9709 8.55674 24.9709Z" fill="#393939"/>
<path fill-rule="evenodd" clip-rule="evenodd" d="M8.82168 28.4807H2.50391C2.27764 28.4807 2.09375 28.2968 2.09375 28.0705V26.5078C2.09375 26.2809 2.27764 26.0977 2.50391 26.0977H8.82168C9.04795 26.0977 9.23184 26.2809 9.23184 26.5078V28.0705C9.23184 28.2968 9.04795 28.4807 8.82168 28.4807ZM2.91475 27.6604H8.41152V26.918H2.91475V27.6604Z" fill="#393939"/>
<path fill-rule="evenodd" clip-rule="evenodd" d="M29.3366 15.4528C28.1752 15.4528 27.2305 14.5081 27.2305 13.3466C27.2305 13.1204 27.4144 12.9365 27.6406 12.9365C27.8669 12.9365 28.0508 13.1204 28.0508 13.3466C28.0508 14.0555 28.6277 14.6325 29.3366 14.6325C30.0455 14.6325 30.6218 14.0555 30.6218 13.3466C30.6218 12.6377 30.0455 12.0615 29.3366 12.0615C28.1752 12.0615 27.2305 11.1167 27.2305 9.95532C27.2305 8.79458 28.1752 7.84985 29.3366 7.84985C30.4974 7.84985 31.4421 8.79458 31.4421 9.95532C31.4421 10.1823 31.2589 10.3655 31.0319 10.3655C30.8057 10.3655 30.6218 10.1823 30.6218 9.95532C30.6218 9.24644 30.0455 8.67017 29.3366 8.67017C28.6277 8.67017 28.0508 9.24644 28.0508 9.95532C28.0508 10.6642 28.6277 11.2412 29.3366 11.2412C30.4974 11.2412 31.4421 12.1859 31.4421 13.3466C31.4421 14.5081 30.4974 15.4528 29.3366 15.4528Z" fill="#393939"/>
<path fill-rule="evenodd" clip-rule="evenodd" d="M32.2286 17.3948H26.4434C26.2171 17.3948 26.0332 17.2109 26.0332 16.9846C26.0332 16.7583 26.2171 16.5745 26.4434 16.5745H32.2286C32.4556 16.5745 32.6388 16.7583 32.6388 16.9846C32.6388 17.2109 32.4556 17.3948 32.2286 17.3948Z" fill="#393939"/>
<path fill-rule="evenodd" clip-rule="evenodd" d="M32.2286 21.1853H26.4434C26.2171 21.1853 26.0332 21.0014 26.0332 20.7751C26.0332 20.5482 26.2171 20.365 26.4434 20.365H32.2286C32.4556 20.365 32.6388 20.5482 32.6388 20.7751C32.6388 21.0014 32.4556 21.1853 32.2286 21.1853Z" fill="#393939"/>
<path fill-rule="evenodd" clip-rule="evenodd" d="M32.2286 24.9751H26.4434C26.2171 24.9751 26.0332 24.7919 26.0332 24.5649C26.0332 24.3387 26.2171 24.1548 26.4434 24.1548H32.2286C32.4556 24.1548 32.6388 24.3387 32.6388 24.5649C32.6388 24.7919 32.4556 24.9751 32.2286 24.9751Z" fill="#393939"/>
<path fill-rule="evenodd" clip-rule="evenodd" d="M32.4948 28.4807H26.1777C25.9515 28.4807 25.7676 28.2968 25.7676 28.0705V26.5078C25.7676 26.2809 25.9515 26.0977 26.1777 26.0977H32.4948C32.7218 26.0977 32.905 26.2809 32.905 26.5078V28.0705C32.905 28.2968 32.7218 28.4807 32.4948 28.4807ZM26.5879 27.6604H32.0847V26.918H26.5879V27.6604Z" fill="#393939"/>
<path fill-rule="evenodd" clip-rule="evenodd" d="M17.5007 13.7541C16.3393 13.7541 15.3945 12.81 15.3945 11.6486C15.3945 11.4223 15.5784 11.2384 15.8047 11.2384C16.0316 11.2384 16.2148 11.4223 16.2148 11.6486C16.2148 12.3575 16.7918 12.9337 17.5007 12.9337C18.2096 12.9337 18.7865 12.3575 18.7865 11.6486C18.7865 10.9397 18.2096 10.3627 17.5007 10.3627C16.3393 10.3627 15.3945 9.41802 15.3945 8.25728C15.3945 7.09585 16.3393 6.15112 17.5007 6.15112C18.6621 6.15112 19.6068 7.09585 19.6068 8.25728C19.6068 8.48354 19.4229 8.66743 19.1967 8.66743C18.9697 8.66743 18.7865 8.48354 18.7865 8.25728C18.7865 7.54839 18.2096 6.97144 17.5007 6.97144C16.7918 6.97144 16.2148 7.54839 16.2148 8.25728C16.2148 8.96616 16.7918 9.54243 17.5007 9.54243C18.6621 9.54243 19.6068 10.4872 19.6068 11.6486C19.6068 12.81 18.6621 13.7541 17.5007 13.7541Z" fill="#393939"/>
<path fill-rule="evenodd" clip-rule="evenodd" d="M20.392 16.0645H14.6074C14.3805 16.0645 14.1973 15.8813 14.1973 15.6543C14.1973 15.4281 14.3805 15.2449 14.6074 15.2449H20.392C20.6189 15.2449 20.8021 15.4281 20.8021 15.6543C20.8021 15.8813 20.6189 16.0645 20.392 16.0645Z" fill="#393939"/>
<path fill-rule="evenodd" clip-rule="evenodd" d="M20.392 19.855H14.6074C14.3805 19.855 14.1973 19.6718 14.1973 19.4448C14.1973 19.2186 14.3805 19.0347 14.6074 19.0347H20.392C20.6189 19.0347 20.8021 19.2186 20.8021 19.4448C20.8021 19.6718 20.6189 19.855 20.392 19.855Z" fill="#393939"/>
<path fill-rule="evenodd" clip-rule="evenodd" d="M20.392 23.6455H14.6074C14.3805 23.6455 14.1973 23.4616 14.1973 23.2354C14.1973 23.0091 14.3805 22.8252 14.6074 22.8252H20.392C20.6189 22.8252 20.8021 23.0091 20.8021 23.2354C20.8021 23.4616 20.6189 23.6455 20.392 23.6455Z" fill="#393939"/>
<path fill-rule="evenodd" clip-rule="evenodd" d="M20.6589 27.5187H14.3418C14.1155 27.5187 13.9316 27.3349 13.9316 27.1086V25.5459C13.9316 25.3196 14.1155 25.1357 14.3418 25.1357H20.6589C20.8858 25.1357 21.069 25.3196 21.069 25.5459V27.1086C21.069 27.3355 20.8858 27.5187 20.6589 27.5187ZM14.752 26.6984H20.2487V25.9561H14.752V26.6984Z" fill="#393939"/>
</g>
<defs>
<clipPath id="clip0_18185_3050">
<rect width="35" height="35" fill="white"/>
</clipPath>
</defs>
</svg>
