<svg width="38" height="38" viewBox="0 0 38 38" fill="none" xmlns="http://www.w3.org/2000/svg">
<g clip-path="url(#clip0_18185_3000)">
<path d="M32.6249 29.5197C31.981 29.5202 31.3513 29.3296 30.8157 28.9722C30.28 28.6148 29.8624 28.1066 29.6157 27.5118C29.3689 26.917 29.3041 26.2624 29.4294 25.6307C29.5548 24.9991 29.8646 24.4188 30.3198 23.9633C30.775 23.5078 31.355 23.1976 31.9866 23.0718C32.6181 22.946 33.2728 23.0103 33.8677 23.2566C34.4627 23.5029 34.9713 23.9202 35.3291 24.4556C35.6869 24.9909 35.8779 25.6204 35.8779 26.2644C35.8774 27.1272 35.5347 27.9546 34.9248 28.5649C34.3149 29.1753 33.4877 29.5187 32.6249 29.5197ZM32.6249 24.1965C32.2158 24.1961 31.8158 24.3169 31.4754 24.5439C31.1351 24.7708 30.8696 25.0936 30.7128 25.4714C30.5559 25.8492 30.5146 26.265 30.5941 26.6663C30.6737 27.0676 30.8704 27.4363 31.1595 27.7257C31.4486 28.0151 31.817 28.2123 32.2182 28.2923C32.6194 28.3723 33.0353 28.3315 33.4133 28.175C33.7913 28.0186 34.1144 27.7535 34.3417 27.4134C34.569 27.0733 34.6904 26.6734 34.6904 26.2644C34.6901 25.7164 34.4725 25.1909 34.0853 24.8033C33.6981 24.4156 33.1728 24.1974 32.6249 24.1965Z" fill="#393939"/>
<path d="M15.4714 29.5197C14.8274 29.5203 14.1977 29.3299 13.662 28.9726C13.1262 28.6153 12.7085 28.1071 12.4616 27.5123C12.2147 26.9175 12.1498 26.2629 12.2751 25.6312C12.4003 24.9995 12.7101 24.4192 13.1652 23.9636C13.6204 23.508 14.2004 23.1977 14.832 23.0718C15.4635 22.946 16.1182 23.0102 16.7133 23.2565C17.3083 23.5028 17.8169 23.9201 18.1747 24.4555C18.5326 24.9909 18.7236 25.6204 18.7236 26.2644C18.7229 27.127 18.3802 27.9542 17.7705 28.5644C17.1608 29.1747 16.334 29.5182 15.4714 29.5197ZM15.4714 24.1965C15.0623 24.1959 14.6622 24.3167 14.3217 24.5435C13.9812 24.7703 13.7157 25.0931 13.5587 25.4708C13.4017 25.8486 13.3603 26.2645 13.4397 26.6658C13.5192 27.0672 13.7159 27.4359 14.0049 27.7254C14.294 28.0149 14.6624 28.2122 15.0636 28.2922C15.4649 28.3723 15.8808 28.3315 16.2588 28.1751C16.6368 28.0187 16.96 27.7536 17.1873 27.4135C17.4147 27.0734 17.5361 26.6735 17.5361 26.2644C17.5356 25.7166 17.3181 25.1914 16.9311 24.8038C16.544 24.4162 16.0191 24.1978 15.4714 24.1965Z" fill="#393939"/>
<path d="M36.908 26.8581H35.2843C35.1268 26.8581 34.9758 26.7956 34.8644 26.6842C34.7531 26.5729 34.6905 26.4219 34.6905 26.2644C34.6905 26.1069 34.7531 25.9559 34.8644 25.8445C34.9758 25.7332 35.1268 25.6706 35.2843 25.6706H36.7402V22.5222C36.7398 22.0965 36.6308 21.678 36.4235 21.3062L33.2093 15.5436C33.1819 15.4945 33.1418 15.4535 33.0932 15.425C33.0446 15.3964 32.9894 15.3814 32.933 15.3813H28.5527V25.673H29.9667C30.1241 25.673 30.2751 25.7356 30.3865 25.8469C30.4978 25.9583 30.5604 26.1093 30.5604 26.2668C30.5604 26.4242 30.4978 26.5753 30.3865 26.6866C30.2751 26.798 30.1241 26.8605 29.9667 26.8605H27.959C27.8015 26.8605 27.6505 26.798 27.5391 26.6866C27.4278 26.5753 27.3652 26.4242 27.3652 26.2668V14.7876C27.3652 14.6301 27.4278 14.4791 27.5391 14.3678C27.6505 14.2564 27.8015 14.1938 27.959 14.1938H32.933C33.2009 14.1937 33.4639 14.2651 33.695 14.4007C33.926 14.5362 34.1166 14.731 34.2472 14.9649L37.4606 20.7283C37.7661 21.2768 37.9266 21.8943 37.9269 22.5222V25.8393C37.9264 26.1094 37.819 26.3683 37.628 26.5592C37.437 26.7502 37.1781 26.8577 36.908 26.8581Z" fill="#393939"/>
<path d="M12.812 26.8581H7.11914C6.96167 26.8581 6.81065 26.7955 6.6993 26.6842C6.58795 26.5728 6.52539 26.4218 6.52539 26.2643V21.698C6.52539 21.5405 6.58795 21.3895 6.6993 21.2782C6.81065 21.1668 6.96167 21.1042 7.11914 21.1042C7.27661 21.1042 7.42764 21.1668 7.53899 21.2782C7.65034 21.3895 7.71289 21.5405 7.71289 21.698V25.6706H12.812C12.9695 25.6706 13.1205 25.7331 13.2319 25.8445C13.3432 25.9558 13.4058 26.1069 13.4058 26.2643C13.4058 26.4218 13.3432 26.5728 13.2319 26.6842C13.1205 26.7955 12.9695 26.8581 12.812 26.8581Z" fill="#393939"/>
<path d="M7.11914 19.5913C6.96167 19.5913 6.81065 19.5288 6.6993 19.4174C6.58795 19.3061 6.52539 19.155 6.52539 18.9976V15.0107C6.52539 14.8533 6.58795 14.7022 6.6993 14.5909C6.81065 14.4795 6.96167 14.417 7.11914 14.417C7.27661 14.417 7.42764 14.4795 7.53899 14.5909C7.65034 14.7022 7.71289 14.8533 7.71289 15.0107V18.9999C7.71226 19.157 7.64943 19.3074 7.53815 19.4183C7.42687 19.5291 7.2762 19.5913 7.11914 19.5913Z" fill="#393939"/>
<path d="M27.9598 26.858H18.1296C17.9722 26.858 17.8211 26.7954 17.7098 26.6841C17.5984 26.5727 17.5359 26.4217 17.5359 26.2642C17.5359 26.1068 17.5984 25.9558 17.7098 25.8444C17.8211 25.7331 17.9722 25.6705 18.1296 25.6705H27.366V10.1372H7.71289V12.5827C7.71289 12.7401 7.65034 12.8912 7.53899 13.0025C7.42764 13.1139 7.27661 13.1764 7.11914 13.1764C6.96167 13.1764 6.81065 13.1139 6.6993 13.0025C6.58795 12.8912 6.52539 12.7401 6.52539 12.5827V10.028C6.52581 9.74198 6.63965 9.46785 6.84195 9.2657C7.04424 9.06356 7.31845 8.94992 7.60443 8.94971H27.4753C27.7611 8.95013 28.0351 9.06386 28.2372 9.26598C28.4394 9.4681 28.5531 9.74212 28.5535 10.028V26.2642C28.5535 26.4217 28.491 26.5727 28.3796 26.6841C28.2683 26.7954 28.1172 26.858 27.9598 26.858Z" fill="#393939"/>
<path d="M9.46556 22.2917H1.92969C1.77222 22.2917 1.62119 22.2292 1.50984 22.1178C1.39849 22.0065 1.33594 21.8555 1.33594 21.698C1.33594 21.5405 1.39849 21.3895 1.50984 21.2782C1.62119 21.1668 1.77222 21.1042 1.92969 21.1042H9.46556C9.62303 21.1042 9.77406 21.1668 9.88541 21.2782C9.99676 21.3895 10.0593 21.5405 10.0593 21.698C10.0593 21.8555 9.99676 22.0065 9.88541 22.1178C9.77406 22.2292 9.62303 22.2917 9.46556 22.2917Z" fill="#393939"/>
<path d="M15.4708 19.5913H4.95508C4.79761 19.5913 4.64658 19.5288 4.53523 19.4174C4.42388 19.3061 4.36133 19.155 4.36133 18.9976C4.36133 18.8401 4.42388 18.6891 4.53523 18.5777C4.64658 18.4664 4.79761 18.4038 4.95508 18.4038H15.4708C15.6283 18.4038 15.7793 18.4664 15.8906 18.5777C16.002 18.6891 16.0645 18.8401 16.0645 18.9976C16.0645 19.155 16.002 19.3061 15.8906 19.4174C15.7793 19.5288 15.6283 19.5913 15.4708 19.5913Z" fill="#393939"/>
<path d="M4.62786 16.4563H0.521485C0.364012 16.4563 0.21299 16.3937 0.10164 16.2824C-0.00970998 16.171 -0.0722656 16.02 -0.0722656 15.8625C-0.0722656 15.7051 -0.00970998 15.5541 0.10164 15.4427C0.21299 15.3314 0.364012 15.2688 0.521485 15.2688H4.62786C4.78533 15.2688 4.93636 15.3314 5.04771 15.4427C5.15906 15.5541 5.22161 15.7051 5.22161 15.8625C5.22161 16.02 5.15906 16.171 5.04771 16.2824C4.93636 16.3937 4.78533 16.4563 4.62786 16.4563Z" fill="#393939"/>
<path d="M11.2133 13.1765H3.96484C3.80737 13.1765 3.65635 13.114 3.545 13.0026C3.43365 12.8913 3.37109 12.7402 3.37109 12.5828C3.37109 12.4253 3.43365 12.2743 3.545 12.1629C3.65635 12.0516 3.80737 11.989 3.96484 11.989H11.2133C11.3708 11.989 11.5218 12.0516 11.6332 12.1629C11.7445 12.2743 11.8071 12.4253 11.8071 12.5828C11.8071 12.7402 11.7445 12.8913 11.6332 13.0026C11.5218 13.114 11.3708 13.1765 11.2133 13.1765Z" fill="#393939"/>
</g>
<defs>
<clipPath id="clip0_18185_3000">
<rect width="38" height="38" fill="white"/>
</clipPath>
</defs>
</svg>
