<svg width="32" height="32" viewBox="0 0 32 32" fill="none" xmlns="http://www.w3.org/2000/svg">
<path d="M22.7388 18.4625C22.5804 18.3734 22.4008 18.2723 22.1845 18.1421C22.0637 18.0692 21.9119 17.9695 21.751 17.864C20.9253 17.322 20.2996 16.9383 19.767 16.9383C19.6422 16.9383 19.5242 16.9595 19.4166 17.001C18.95 17.1806 18.5668 17.6607 18.1963 18.1249C18.0605 18.295 17.8661 18.5385 17.7481 18.6473C17.2803 18.5622 16.2935 17.9509 15.2286 16.886C14.1625 15.8199 13.551 14.832 13.4671 14.3652C13.5758 14.2468 13.8211 14.051 13.9923 13.9143C14.4547 13.5451 14.9329 13.1634 15.1136 12.6982C15.3441 12.1005 14.9216 11.3857 14.2507 10.3636C14.1451 10.2027 14.0454 10.0508 13.973 9.93096C13.8423 9.71377 13.7413 9.53409 13.6522 9.37571C13.2864 8.72559 13.0447 8.2959 12.1365 8.2959C11.5471 8.2959 10.7137 8.8529 10.1492 9.40527C9.32883 10.2082 8.87695 11.1352 8.87695 12.0173C8.87852 14.4132 10.2156 17.1592 12.5455 19.554C12.5495 19.558 12.5535 19.559 12.5576 19.563C14.9524 21.893 17.6999 23.2255 20.0957 23.2255H20.0966C20.9776 23.2255 21.9049 22.7788 22.7078 21.9589C23.2606 21.3945 23.8183 20.5672 23.8183 19.9781C23.8184 19.07 23.389 18.8284 22.7388 18.4625ZM20.096 21.9877C18.0552 21.9862 15.5658 20.7495 13.4355 18.6793C11.3651 16.5488 10.1283 14.0591 10.127 12.0186C10.127 10.7843 11.7288 9.61071 12.1476 9.5464C12.2332 9.54677 12.2781 9.55184 12.2995 9.55546C12.3548 9.61921 12.4649 9.81484 12.5629 9.98902C12.6516 10.1466 12.762 10.3429 12.9026 10.5766C12.9876 10.7174 13.0936 10.8788 13.2058 11.0497C13.4181 11.3732 13.845 12.0235 13.9169 12.301C13.7966 12.4713 13.4233 12.7693 13.2125 12.9376C12.6731 13.3683 12.2072 13.7401 12.2072 14.2657C12.2085 15.5352 13.8437 17.269 14.3448 17.7701C14.846 18.2712 16.5797 19.9064 17.8519 19.9077C18.3741 19.906 18.7444 19.442 19.1733 18.9048C19.3424 18.693 19.6422 18.3175 19.8132 18.1978C20.0905 18.2692 20.7415 18.6965 21.0653 18.9091C21.2361 19.0212 21.3975 19.1272 21.5392 19.2127C21.7721 19.3528 21.9683 19.4633 22.126 19.552C22.3001 19.65 22.4958 19.7601 22.5595 19.8155C22.5631 19.8368 22.5681 19.8817 22.5686 19.9672C22.5038 20.3857 21.3298 21.9862 20.096 21.9877Z" fill="#393939"/>
<path d="M28.7736 16.0599C28.7297 12.6823 27.374 9.49071 24.9562 7.07289C22.4939 4.61052 19.2436 3.25439 15.8039 3.25439C12.4836 3.25439 9.3775 4.53202 7.05762 6.85183C4.999 8.91046 3.736 11.6561 3.50106 14.583C3.27825 17.36 3.98518 20.1703 5.49475 22.5331L3.43337 28.1051C3.34687 28.339 3.40762 28.602 3.58806 28.7741C3.70662 28.8873 3.86193 28.947 4.01968 28.947C4.10193 28.947 4.18493 28.9232 4.26362 28.8898L9.63231 26.6051C11.6818 27.8808 14.0253 28.5382 16.4317 28.5382H16.4319C19.7517 28.5382 22.8577 27.2758 25.1773 24.9563C27.5403 22.5932 28.8176 19.4435 28.7736 16.0599ZM24.2933 24.0876C22.2097 26.1712 19.4177 27.3186 16.4316 27.3186C14.1583 27.3185 11.9466 26.6531 10.0354 25.3943C9.93181 25.326 9.81206 25.2913 9.69162 25.2913C9.60893 25.2913 9.52593 25.3076 9.44762 25.3409L5.10787 27.1815L6.77662 22.6708C6.84643 22.482 6.82106 22.2711 6.7085 22.1043C3.64125 17.5603 4.15981 11.5174 7.9415 7.73577C10.0252 5.65202 12.8175 4.50439 15.8039 4.50439C18.9096 4.50439 21.8461 5.73046 24.0723 7.95677C26.2584 10.1428 27.4841 13.0263 27.5237 16.0761C27.5632 19.1198 26.416 21.965 24.2933 24.0876Z" fill="#393939"/>
</svg>
