<svg width="16" height="18" viewBox="0 0 16 18" fill="none" xmlns="http://www.w3.org/2000/svg">
<path d="M13.2716 2.35833H11.6432V1.62983C11.6432 1.39413 11.3861 1.28701 11.1504 1.28701H9.88619C9.58623 0.429927 8.83627 0.00138736 7.9792 0.00138736C7.13155 -0.0304793 6.36056 0.489272 6.0722 1.28701H4.82944C4.59374 1.28701 4.35804 1.39413 4.35804 1.62983V2.35833H2.72956C1.76454 2.36863 0.975047 3.1299 0.929688 4.0939V16.3715C0.929688 17.3143 1.78677 18 2.72956 18H13.2716C14.2144 18 15.0715 17.3143 15.0715 16.3715V4.09394C15.0261 3.1299 14.2366 2.36863 13.2716 2.35833ZM5.21508 2.14408H6.39357C6.59929 2.11898 6.76453 1.96248 6.8007 1.7584C6.9276 1.2058 7.4124 0.809128 7.9792 0.794199C8.54074 0.811219 9.01825 1.20912 9.13624 1.7584C9.17467 1.96953 9.35082 2.12805 9.56478 2.14408H10.7861V3.85824H5.21508V2.14408ZM14.2144 16.3716C14.2144 16.8429 13.743 17.1429 13.2716 17.1429H2.72956C2.25816 17.1429 1.78677 16.8429 1.78677 16.3716V4.09394C1.83049 3.60327 2.237 3.22443 2.72956 3.21545H4.358V4.30823C4.38064 4.54832 4.58857 4.72791 4.8294 4.71536H11.1503C11.3956 4.72877 11.61 4.55164 11.6431 4.30823V3.21541H13.2716C13.7641 3.22443 14.1706 3.60322 14.2144 4.0939V16.3716H14.2144Z" fill="#383838"/>
<path d="M6.35045 9.57916C6.18972 9.40974 5.9229 9.40018 5.75048 9.55775L4.37915 10.8648L3.80063 10.2648C3.6399 10.0954 3.37307 10.0859 3.20065 10.2434C3.03468 10.4173 3.03468 10.6909 3.20065 10.8648L4.07914 11.7647C4.15518 11.8499 4.26501 11.8969 4.37911 11.8933C4.49214 11.8917 4.59996 11.8455 4.67907 11.7647L6.35037 10.1791C6.51606 10.0271 6.52713 9.76958 6.3751 9.60393C6.36731 9.59528 6.35907 9.58703 6.35045 9.57916Z" fill="#383838"/>
<path d="M12.4993 10.5005H7.57112C7.33443 10.5005 7.14258 10.6923 7.14258 10.929C7.14258 11.1657 7.33443 11.3576 7.57112 11.3576H12.4993C12.736 11.3576 12.9278 11.1657 12.9278 10.929C12.9278 10.6923 12.736 10.5005 12.4993 10.5005Z" fill="#383838"/>
<path d="M6.35045 6.15094C6.18972 5.98151 5.9229 5.97196 5.75048 6.12953L4.37915 7.43655L3.80063 6.83658C3.6399 6.66716 3.37307 6.6576 3.20065 6.81517C3.03468 6.98907 3.03468 7.26266 3.20065 7.43655L4.07914 8.33649C4.15518 8.42163 4.26501 8.46871 4.37911 8.46506C4.49214 8.46346 4.59996 8.41724 4.67907 8.33649L6.35037 6.75091C6.51606 6.59891 6.52713 6.34136 6.3751 6.17571C6.36731 6.16705 6.35907 6.15881 6.35045 6.15094Z" fill="#383838"/>
<path d="M12.4993 7.07227H7.57112C7.33443 7.07227 7.14258 7.26412 7.14258 7.50081C7.14258 7.73749 7.33443 7.92934 7.57112 7.92934H12.4993C12.736 7.92934 12.9278 7.73749 12.9278 7.50081C12.9278 7.26412 12.736 7.07227 12.4993 7.07227Z" fill="#383838"/>
<path d="M6.35045 13.0076C6.18972 12.8382 5.9229 12.8287 5.75048 12.9862L4.37915 14.2932L3.80063 13.6933C3.6399 13.5238 3.37307 13.5143 3.20065 13.6718C3.03468 13.8457 3.03468 14.1193 3.20065 14.2932L4.07914 15.1932C4.15518 15.2783 4.26501 15.3254 4.37911 15.3217C4.49214 15.3201 4.59996 15.2739 4.67907 15.1932L6.35037 13.6076C6.51606 13.4556 6.52713 13.198 6.3751 13.0324C6.36731 13.0238 6.35907 13.0155 6.35045 13.0076Z" fill="#383838"/>
<path d="M12.4993 13.929H7.57112C7.33443 13.929 7.14258 14.1208 7.14258 14.3575C7.14258 14.5942 7.33443 14.786 7.57112 14.786H12.4993C12.736 14.786 12.9278 14.5942 12.9278 14.3575C12.9278 14.1208 12.736 13.929 12.4993 13.929Z" fill="#383838"/>
</svg>
