<svg width="28" height="28" viewBox="0 0 28 28" fill="none" xmlns="http://www.w3.org/2000/svg">
<circle cx="14" cy="14" r="14" fill="#C1768D"/>
<g clip-path="url(#clip0_18667_3085)">
<path d="M19.9906 9.39578L16.689 6.07375C16.6658 6.05038 16.6381 6.03183 16.6077 6.01917C16.5773 6.00651 16.5446 6 16.5117 6H9.28125C9.00784 6.00031 8.74572 6.10906 8.55239 6.30239C8.35906 6.49572 8.25031 6.75784 8.25 7.03125V20.9688C8.25031 21.2422 8.35906 21.5043 8.55239 21.6976C8.74572 21.8909 9.00784 21.9997 9.28125 22H19.0322C19.3056 21.9997 19.5677 21.8909 19.761 21.6976C19.9543 21.5043 20.0631 21.2422 20.0634 20.9688V16.0875L23.3224 12.8285C23.5971 12.5537 23.7515 12.1811 23.7515 11.7925C23.7515 11.404 23.5971 11.0313 23.3224 10.7566C23.0476 10.4818 22.675 10.3275 22.2864 10.3275C21.8979 10.3275 21.5252 10.4818 21.2505 10.7566L20.0633 11.9438V9.57191C20.0633 9.5059 20.0372 9.44259 19.9906 9.39578ZM20.4513 12.263L21.816 13.6277L17.0316 18.4121L15.6669 17.0474L20.4513 12.263ZM21.1408 11.5735L22.5055 12.9382L22.1695 13.2742L20.8049 11.9094L21.1408 11.5735ZM15.4409 17.5281L16.5459 18.6332L15.1669 18.8903L15.4409 17.5281ZM16.8852 6.98047L19.0696 9.17819H16.8852V6.98047ZM19.5634 20.9688C19.5633 21.1096 19.5072 21.2446 19.4076 21.3442C19.308 21.4438 19.173 21.4998 19.0322 21.5H9.28125C9.1404 21.4998 9.00537 21.4438 8.90577 21.3442C8.80618 21.2446 8.75016 21.1096 8.75 20.9688V7.03125C8.75016 6.8904 8.80618 6.75537 8.90577 6.65577C9.00537 6.55618 9.1404 6.50016 9.28125 6.5H16.3852V9.42812C16.3852 9.49443 16.4116 9.55802 16.4584 9.6049C16.5053 9.65179 16.5689 9.67812 16.6352 9.67812H19.5633V12.4437L15.0981 16.9092C15.0632 16.944 15.0395 16.9883 15.0298 17.0366L14.6037 19.1547C14.5956 19.1948 14.5975 19.2363 14.6092 19.2755C14.6209 19.3147 14.642 19.3504 14.6708 19.3795C14.6995 19.4087 14.7349 19.4303 14.7739 19.4425C14.8129 19.4548 14.8544 19.4573 14.8946 19.4498L17.0389 19.05C17.0886 19.0408 17.1342 19.0167 17.1699 18.981L19.5634 16.5875V20.9688ZM22.9688 11.1102C23.1489 11.2916 23.2499 11.5369 23.2499 11.7925C23.2499 12.0482 23.1489 12.2935 22.9688 12.4749L22.859 12.5847L21.4943 11.2199L21.604 11.1102C21.7851 10.9295 22.0305 10.828 22.2864 10.828C22.5422 10.828 22.7876 10.9295 22.9688 11.1102ZM14.3138 17.719C14.3138 17.7853 14.2874 17.8489 14.2405 17.8957C14.1936 17.9426 14.1301 17.969 14.0638 17.969H10.1605C10.0942 17.969 10.0306 17.9426 9.98375 17.8957C9.93687 17.8489 9.91053 17.7853 9.91053 17.719C9.91053 17.6527 9.93687 17.5891 9.98375 17.5422C10.0306 17.4953 10.0942 17.469 10.1605 17.469H14.0637C14.0965 17.469 14.129 17.4754 14.1594 17.488C14.1897 17.5005 14.2173 17.5189 14.2405 17.5422C14.2637 17.5654 14.2821 17.5929 14.2947 17.6233C14.3073 17.6536 14.3138 17.6861 14.3138 17.719ZM9.91063 15.5402C9.91063 15.4739 9.93696 15.4103 9.98385 15.3634C10.0307 15.3166 10.0943 15.2902 10.1606 15.2902H15.318C15.3843 15.2902 15.4479 15.3166 15.4947 15.3634C15.5416 15.4103 15.568 15.4739 15.568 15.5402C15.568 15.6065 15.5416 15.6701 15.4947 15.717C15.4479 15.7639 15.3843 15.7902 15.318 15.7902H10.1605C10.0942 15.7902 10.0306 15.7639 9.98375 15.717C9.93687 15.6701 9.91053 15.6065 9.91053 15.5402H9.91063ZM9.91063 13.3615C9.91063 13.2952 9.93696 13.2316 9.98385 13.1847C10.0307 13.1378 10.0943 13.1115 10.1606 13.1115H18.1529C18.2192 13.1115 18.2828 13.1378 18.3297 13.1847C18.3765 13.2316 18.4029 13.2952 18.4029 13.3615C18.4029 13.4278 18.3765 13.4914 18.3297 13.5382C18.2828 13.5851 18.2192 13.6115 18.1529 13.6115H10.1605C10.0942 13.6115 10.0306 13.5851 9.98375 13.5382C9.93687 13.4914 9.91053 13.4278 9.91053 13.3615H9.91063ZM9.91063 11.1828C9.91063 11.1164 9.93696 11.0529 9.98385 11.006C10.0307 10.9591 10.0943 10.9328 10.1606 10.9328H18.1529C18.2192 10.9328 18.2828 10.9591 18.3297 11.006C18.3765 11.0529 18.4029 11.1164 18.4029 11.1828C18.4029 11.2491 18.3765 11.3126 18.3297 11.3595C18.2828 11.4064 18.2192 11.4328 18.1529 11.4328H10.1605C10.0942 11.4328 10.0306 11.4064 9.98375 11.3595C9.93687 11.3126 9.91053 11.2491 9.91053 11.1828H9.91063ZM9.91063 9.004C9.91063 8.9377 9.93696 8.87411 9.98385 8.82722C10.0307 8.78034 10.0943 8.754 10.1606 8.754H15.4529C15.5192 8.754 15.5828 8.78034 15.6297 8.82722C15.6765 8.87411 15.7029 8.9377 15.7029 9.004C15.7029 9.0703 15.6765 9.13389 15.6297 9.18078C15.5828 9.22766 15.5192 9.254 15.4529 9.254H10.1605C10.0942 9.254 10.0306 9.22766 9.98375 9.18078C9.93687 9.13389 9.91053 9.0703 9.91053 9.004H9.91063Z" fill="white"/>
</g>
<defs>
<clipPath id="clip0_18667_3085">
<rect width="16" height="16" fill="white" transform="translate(8 6)"/>
</clipPath>
</defs>
</svg>
