<svg width="27" height="27" viewBox="0 0 27 27" fill="none" xmlns="http://www.w3.org/2000/svg">
<g clip-path="url(#clip0_20085_8472)">
<path d="M13.5 0C6.03793 0 0 6.03846 0 13.5C0 20.9621 6.03846 27 13.5 27C20.9621 27 27 20.9615 27 13.5C27 6.03793 20.9615 0 13.5 0ZM13.5 24.8906C7.20389 24.8906 2.10938 19.7957 2.10938 13.5C2.10938 7.20389 7.20431 2.10938 13.5 2.10938C19.7961 2.10938 24.8906 7.20431 24.8906 13.5C24.8906 19.7961 19.7957 24.8906 13.5 24.8906Z" fill="#C1768D"/>
<path d="M13.5 6.79614C12.9175 6.79614 12.4453 7.26833 12.4453 7.85083V14.6426C12.4453 15.2252 12.9175 15.6973 13.5 15.6973C14.0825 15.6973 14.5547 15.2252 14.5547 14.6426V7.85083C14.5547 7.26833 14.0825 6.79614 13.5 6.79614Z" fill="#C1768D"/>
<path d="M13.502 19.8367C14.2883 19.8367 14.9258 19.1992 14.9258 18.4128C14.9258 17.6265 14.2883 16.989 13.502 16.989C12.7156 16.989 12.0781 17.6265 12.0781 18.4128C12.0781 19.1992 12.7156 19.8367 13.502 19.8367Z" fill="#C1768D"/>
</g>
<defs>
<clipPath id="clip0_20085_8472">
<rect width="27" height="27" fill="white"/>
</clipPath>
</defs>
</svg>
