<svg width="37" height="36" viewBox="0 0 37 36" fill="none" xmlns="http://www.w3.org/2000/svg">
<path d="M34.6188 10.5122C34.6199 10.4801 34.6299 10.4491 34.6249 10.4164L33.5382 3.2956C33.315 1.86779 32.2649 0.831543 31.0409 0.831543H5.9146C4.63023 0.831543 3.5314 1.91708 3.29989 3.42354L2.37497 10.4269C2.36777 10.4834 2.37608 10.5366 2.38605 10.5898C2.38328 10.6402 2.37109 10.6883 2.37109 10.7393V32.4623C2.37109 33.9554 3.58291 35.17 5.0722 35.17H31.931C33.4203 35.17 34.6315 33.9554 34.6315 32.4623V10.7393C34.6315 10.6679 34.6249 10.5909 34.6188 10.5122ZM32.5097 3.45456L33.2641 8.39764C32.8686 8.17222 32.415 8.03874 31.9304 8.03874H22.3461L21.5801 1.87222H31.0415C31.7493 1.87222 32.3663 2.5385 32.5097 3.45456ZM15.5643 8.59591L16.2887 1.87222H20.5317L21.3669 8.5937L21.486 13.3429L18.7948 11.5119C18.6204 11.3934 18.3928 11.3917 18.2177 11.5064L15.3848 13.3573L15.5643 8.59647V8.59591ZM4.33005 3.57087C4.48125 2.58668 5.14808 1.87222 5.9146 1.87222H15.2419L14.5773 8.03874H5.0722C4.56432 8.03874 4.09411 8.18828 3.68814 8.43253L4.33005 3.57087ZM33.5908 32.4623C33.5908 33.3816 32.8459 34.1293 31.931 34.1293H5.0722C4.15669 34.1293 3.41177 33.3816 3.41177 32.4623V10.7393C3.41177 9.82379 4.15669 9.07942 5.0722 9.07942H14.5048L14.3065 14.3238C14.2987 14.5182 14.4006 14.7004 14.5701 14.7962C14.739 14.8926 14.9478 14.8859 15.1107 14.7791L18.4958 12.567L21.7385 14.7735C21.7579 14.7868 21.7795 14.7923 21.7995 14.8029C21.8172 14.8117 21.8338 14.8217 21.8532 14.8283C21.9113 14.8494 21.9706 14.8638 22.031 14.8638H22.0443C22.0487 14.8638 22.0526 14.861 22.057 14.861C22.1157 14.8583 22.1722 14.8444 22.2265 14.8223C22.2359 14.8184 22.2448 14.8162 22.2536 14.8123C22.3057 14.7879 22.3528 14.7536 22.3948 14.712C22.4043 14.7026 22.412 14.6927 22.4203 14.6827C22.4336 14.6672 22.4491 14.6539 22.4608 14.6367C22.4718 14.6207 22.4735 14.6018 22.4824 14.5852C22.499 14.5542 22.5128 14.5232 22.5228 14.4888C22.5328 14.4539 22.5383 14.4207 22.5411 14.3853C22.5427 14.3664 22.551 14.3498 22.5505 14.331L22.4187 9.07997H31.9293C32.775 9.07997 33.4845 9.71357 33.5776 10.5371C33.5831 10.6047 33.5892 10.6723 33.5892 10.7399V32.4623H33.5908Z" fill="#393939"/>
<path d="M30.4061 24.4775H24.6783C24.3908 24.4775 24.1582 24.7107 24.1582 24.9976V30.7249C24.1582 31.0124 24.3908 31.245 24.6783 31.245H30.4061C30.6936 31.245 30.9262 31.0118 30.9262 30.7249V24.9976C30.9262 24.7102 30.6936 24.4775 30.4061 24.4775ZM29.8861 30.2049H25.1989V25.5182H29.8861V30.2049Z" fill="#393939"/>
<path d="M22.6416 17.5044H14.3599C14.0725 17.5044 13.8398 17.7376 13.8398 18.0245C13.8398 18.3113 14.0725 18.5445 14.3599 18.5445H22.6416C22.929 18.5445 23.1616 18.3113 23.1616 18.0245C23.1616 17.7376 22.929 17.5044 22.6416 17.5044Z" fill="#393939"/>
<path d="M22.6416 21.0164H14.3599C14.0725 21.0164 13.8398 21.2495 13.8398 21.5364C13.8398 21.8233 14.0725 22.0565 14.3599 22.0565H22.6416C22.929 22.0565 23.1616 21.8233 23.1616 21.5364C23.1616 21.2495 22.929 21.0164 22.6416 21.0164Z" fill="#393939"/>
<path d="M22.6416 24.5286H14.3599C14.0725 24.5286 13.8398 24.7617 13.8398 25.0486C13.8398 25.3355 14.0725 25.5687 14.3599 25.5687H22.6416C22.929 25.5687 23.1616 25.3355 23.1616 25.0486C23.1616 24.7617 22.929 24.5286 22.6416 24.5286Z" fill="#393939"/>
</svg>
