<svg width="28" height="28" viewBox="0 0 28 28" fill="none" xmlns="http://www.w3.org/2000/svg">
<circle cx="14" cy="14" r="14" fill="#C1768D"/>
<path d="M18.7526 10.6983V15.3125C18.7541 15.3896 18.73 15.465 18.684 15.5269C18.638 15.5888 18.5728 15.6337 18.4985 15.6545L14.1384 17.1846C14.0953 17.2053 14.0481 17.2161 14.0004 17.2161C13.9526 17.2161 13.9054 17.2053 13.8624 17.1846L9.48219 15.6545C9.41149 15.6304 9.3505 15.5841 9.30832 15.5224C9.26614 15.4608 9.24504 15.3871 9.24818 15.3125L9.22618 10.6983C9.22937 10.6195 9.25798 10.5438 9.30772 10.4825C9.35746 10.4212 9.42567 10.3777 9.50219 10.3583L13.8844 8.82825C13.9195 8.80749 13.9596 8.79654 14.0004 8.79654C14.0412 8.79654 14.0812 8.80749 14.1164 8.82825L18.5165 10.3583C18.5869 10.3823 18.6477 10.4284 18.6898 10.4896C18.7319 10.5508 18.7532 10.624 18.7506 10.6983H18.7526ZM9.8422 20.9907C9.75938 20.9444 9.69807 20.8674 9.67144 20.7763C9.64482 20.6853 9.65502 20.5874 9.69985 20.5037C9.74469 20.4201 9.82056 20.3574 9.91115 20.3292C10.0017 20.3009 10.0998 20.3094 10.1842 20.3527C11.8721 21.2328 13.8117 21.5046 15.6765 21.1223C17.5413 20.7401 19.2176 19.7271 20.4231 18.254C21.6287 16.7808 22.29 14.9373 22.2957 13.0337C22.3014 11.1301 21.6513 9.28264 20.4546 7.80221C20.4447 7.78453 20.4287 7.77113 20.4095 7.76458C20.3904 7.75803 20.3695 7.75881 20.3508 7.76675C20.3322 7.7747 20.3172 7.78926 20.3086 7.80762C20.3001 7.82598 20.2987 7.84685 20.3046 7.86621L20.3686 8.12222C20.4966 8.59024 19.7946 8.76025 19.6666 8.32223L19.1566 6.36415C19.1387 6.30317 19.1379 6.23846 19.1542 6.17704C19.1705 6.11562 19.2033 6.05984 19.249 6.01574C19.2948 5.97164 19.3517 5.9409 19.4137 5.92687C19.4757 5.91284 19.5403 5.91604 19.6006 5.93614L21.5367 6.44616C21.5828 6.45929 21.6258 6.48137 21.6634 6.51115C21.7009 6.54092 21.7323 6.5778 21.7556 6.61968C21.7789 6.66156 21.7937 6.70762 21.7992 6.75524C21.8047 6.80285 21.8008 6.85108 21.7877 6.89718C21.7745 6.94327 21.7525 6.98633 21.7227 7.02389C21.6929 7.06145 21.656 7.09278 21.6141 7.11609C21.5723 7.1394 21.5262 7.15423 21.4786 7.15974C21.431 7.16524 21.3827 7.16132 21.3367 7.14819L20.9546 7.04218C20.8686 7.02018 20.8046 7.10618 20.8686 7.16819C22.2161 8.76129 22.9691 10.7726 22.9991 12.8589C23.029 14.9453 22.3341 16.9774 21.033 18.6085C19.7318 20.2397 17.9049 21.3688 15.8641 21.8032C13.8233 22.2377 11.6949 21.9505 9.8422 20.9907ZM18.3705 5.12811C18.7946 5.36211 18.4345 6.00014 18.0305 5.76613C16.3507 4.8313 14.3981 4.50961 12.5072 4.85617C10.6163 5.20273 8.90473 6.19597 7.66563 7.66577C6.42654 9.13557 5.73704 10.9905 5.71524 12.9128C5.69343 14.835 6.34068 16.7051 7.54611 18.2026C7.55943 18.2176 7.57749 18.2276 7.59728 18.231C7.61706 18.2343 7.6374 18.2308 7.6549 18.221C7.67241 18.2112 7.68604 18.1957 7.69354 18.1771C7.70104 18.1584 7.70194 18.1378 7.69611 18.1186L7.63211 17.8846C7.50411 17.4166 8.20613 17.2466 8.33414 17.6846L8.84416 19.6407C8.86319 19.7021 8.86495 19.7675 8.84924 19.8299C8.83352 19.8922 8.80095 19.949 8.75508 19.9941C8.70921 20.0391 8.65183 20.0706 8.58921 20.0852C8.5266 20.0998 8.46119 20.0968 8.40014 20.0767L6.46407 19.5667C5.99605 19.4387 6.18806 18.7366 6.63407 18.8646L7.03409 18.9707C7.12009 18.9927 7.18409 18.9067 7.12009 18.8226C4.10197 15.2925 4.33598 9.9343 7.63211 6.63817C9.0158 5.25539 10.8117 4.36024 12.7489 4.08784C14.686 3.81544 16.6592 4.18056 18.3705 5.12811ZM14.3504 12.5484V16.2285C14.351 16.2435 14.3551 16.2581 14.3625 16.2712C14.3698 16.2842 14.3802 16.2953 14.3927 16.3035C14.4053 16.3117 14.4196 16.3169 14.4345 16.3184C14.4494 16.32 14.4644 16.318 14.4784 16.3125L17.9865 15.0785C18.0085 15.0585 18.0505 15.0365 18.0505 14.9945V11.3164C18.0505 11.2723 17.9865 11.2303 17.9245 11.2523L14.4144 12.4644C14.3724 12.4844 14.3504 12.5064 14.3504 12.5484ZM13.6283 16.2285V12.5484C13.628 12.5322 13.624 12.5162 13.6168 12.5017C13.6095 12.4872 13.5991 12.4744 13.5863 12.4644L12.1603 11.9744C12.1463 11.9693 12.1313 11.9676 12.1165 11.9695C12.1017 11.9714 12.0876 11.9767 12.0753 11.9851C12.063 11.9935 12.0528 12.0047 12.0457 12.0178C12.0386 12.0309 12.0347 12.0455 12.0343 12.0604V13.4204C12.0346 13.468 12.0254 13.5152 12.0073 13.5593C11.9892 13.6033 11.9625 13.6433 11.9288 13.677C11.8952 13.7107 11.8552 13.7373 11.8111 13.7554C11.7671 13.7735 11.7199 13.7827 11.6723 13.7824C11.5771 13.7799 11.4864 13.741 11.4191 13.6736C11.3517 13.6063 11.3128 13.5156 11.3103 13.4204V11.7404C11.3099 11.7241 11.3059 11.7082 11.2987 11.6937C11.2914 11.6791 11.281 11.6664 11.2683 11.6564L10.0682 11.2563C10.0062 11.2343 9.9422 11.2763 9.9422 11.3204V15.0025C9.9422 15.0445 9.9622 15.0665 10.0062 15.0865L13.5143 16.3205C13.5783 16.3425 13.6203 16.2985 13.6203 16.2365L13.6283 16.2285ZM10.9282 10.7843L11.8643 11.1023C11.8678 11.1073 11.8724 11.1113 11.8778 11.1141C11.8832 11.1169 11.8892 11.1184 11.8953 11.1184C11.9014 11.1184 11.9073 11.1169 11.9127 11.1141C11.9181 11.1113 11.9228 11.1073 11.9263 11.1023L14.9684 10.0403C15.0104 10.0403 15.0324 9.9983 15.0324 9.9543C15.031 9.93778 15.0239 9.92228 15.0121 9.91056C15.0004 9.89884 14.9849 9.89166 14.9684 9.89029L14.0324 9.55028H13.9684L10.9282 10.6143C10.9095 10.6193 10.893 10.6304 10.8812 10.6458C10.8694 10.6611 10.863 10.68 10.863 10.6993C10.863 10.7187 10.8694 10.7375 10.8812 10.7529C10.893 10.7683 10.9095 10.7793 10.9282 10.7843ZM13.2243 11.5844L13.9684 11.8384H14.0324L17.0725 10.7763C17.0912 10.7713 17.1077 10.7603 17.1195 10.7449C17.1313 10.7295 17.1377 10.7107 17.1377 10.6913C17.1377 10.672 17.1313 10.6531 17.1195 10.6378C17.1077 10.6224 17.0912 10.6113 17.0725 10.6063L16.3085 10.3303H16.2445L13.2243 11.4224C13.1383 11.4424 13.1383 11.5504 13.2243 11.5924V11.5844ZM17.1365 14.0385C17.2253 14.0127 17.3205 14.0221 17.4026 14.0646C17.4846 14.1072 17.5472 14.1797 17.5772 14.2671C17.6073 14.3545 17.6026 14.4501 17.5641 14.5341C17.5257 14.6182 17.4563 14.6842 17.3705 14.7185L16.1805 15.1425C16.0917 15.1683 15.9964 15.1589 15.9144 15.1163C15.8323 15.0738 15.7698 15.0013 15.7397 14.9139C15.7096 14.8265 15.7143 14.7309 15.7528 14.6468C15.7913 14.5628 15.8606 14.4968 15.9464 14.4625L17.1365 14.0385Z" fill="white"/>
</svg>
