<svg width="28" height="28" viewBox="0 0 28 28" fill="none" xmlns="http://www.w3.org/2000/svg">
<circle cx="14" cy="14" r="14" fill="#C1768D"/>
<g clip-path="url(#clip0_18965_3739)">
<path d="M21.0469 15.3077V10.0624C21.0471 10.0128 21.0342 9.96411 21.0095 9.92114C20.9848 9.87817 20.9492 9.84249 20.9063 9.81771L14.0859 5.88021C14.0432 5.85552 13.9947 5.84253 13.9453 5.84253C13.8959 5.84253 13.8474 5.85552 13.8047 5.88021L6.98438 9.81771C6.94146 9.84249 6.90585 9.87817 6.88115 9.92114C6.85646 9.96411 6.84356 10.0128 6.84375 10.0624V17.9374C6.84356 17.987 6.85646 18.0357 6.88115 18.0787C6.90585 18.1216 6.94146 18.1573 6.98438 18.1821L13.8047 22.1196C13.8474 22.1443 13.8959 22.1573 13.9453 22.1573C13.9947 22.1573 14.0432 22.1443 14.0859 22.1196L16.6481 20.6402C16.9675 21.0877 17.3855 21.4556 17.8699 21.7156C18.3542 21.9756 18.8919 22.1207 19.4413 22.1396C19.9907 22.1585 20.5371 22.0508 21.0382 21.8247C21.5393 21.5986 21.9816 21.2602 22.331 20.8358C22.6804 20.4114 22.9274 19.9123 23.053 19.3771C23.1785 18.8419 23.1793 18.285 23.0551 17.7494C22.931 17.2139 22.6853 16.7141 22.337 16.2888C21.9888 15.8634 21.5474 15.5239 21.0469 15.2965V15.3077ZM13.9453 6.44833L20.2031 10.0624L17.0644 11.8736L11.2538 8.00365L13.9453 6.44833ZM13.9453 13.6765L7.6875 10.0624L10.7109 8.31583L16.5188 12.1886L13.9453 13.6765ZM7.40625 10.549L13.6641 14.163V21.3883L7.40625 17.7743V10.549ZM14.2266 21.3883V14.163L16.7578 12.6921V14.883C16.7578 14.9576 16.7874 15.0292 16.8402 15.0819C16.8929 15.1346 16.9645 15.1643 17.0391 15.1643C17.1137 15.1643 17.1852 15.1346 17.2379 15.0819C17.2907 15.0292 17.3203 14.9576 17.3203 14.883V12.3686L20.4703 10.549V15.108C20.1724 15.0266 19.8651 14.985 19.5563 14.9843C18.9476 14.9858 18.3494 15.1425 17.8182 15.4395C17.2869 15.7365 16.8402 16.1641 16.5201 16.6818C16.2 17.1995 16.0172 17.7902 15.9889 18.3982C15.9607 19.0061 16.0878 19.6113 16.3584 20.1565L14.2266 21.3883ZM19.5703 21.5936C18.9723 21.5936 18.3878 21.4163 17.8906 21.0841C17.3934 20.7519 17.0059 20.2797 16.777 19.7272C16.5482 19.1748 16.4883 18.5669 16.605 17.9804C16.7216 17.3939 17.0096 16.8552 17.4324 16.4323C17.8553 16.0095 18.394 15.7215 18.9805 15.6049C19.567 15.4882 20.1749 15.5481 20.7273 15.7769C21.2798 16.0058 21.752 16.3933 22.0842 16.8905C22.4164 17.3877 22.5938 17.9722 22.5938 18.5702C22.593 19.3718 22.2742 20.1404 21.7074 20.7073C21.1405 21.2741 20.372 21.5929 19.5703 21.5936Z" fill="white"/>
<path d="M20.9055 17.1106L19.1617 19.4113L18.2476 18.3369C18.1995 18.2791 18.1304 18.2427 18.0555 18.2359C17.9806 18.229 17.9061 18.2522 17.8483 18.3003C17.7905 18.3484 17.7541 18.4175 17.7473 18.4924C17.7404 18.5673 17.7636 18.6419 17.8117 18.6997L18.9367 20.0441C18.9631 20.0749 18.9959 20.0997 19.0328 20.1167C19.0697 20.1337 19.1098 20.1425 19.1505 20.1425C19.1927 20.1412 19.2341 20.1304 19.2716 20.111C19.3091 20.0915 19.3417 20.0638 19.367 20.03L21.3217 17.4509C21.3583 17.4266 21.3888 17.3939 21.4105 17.3557C21.4322 17.3174 21.4447 17.2746 21.4468 17.2306C21.449 17.1867 21.4408 17.1428 21.4229 17.1026C21.405 17.0624 21.378 17.0269 21.3439 16.9991C21.3098 16.9712 21.2697 16.9517 21.2268 16.9422C21.1838 16.9327 21.1392 16.9334 21.0965 16.9442C21.0539 16.9551 21.0144 16.9758 20.9812 17.0047C20.948 17.0336 20.9221 17.0699 20.9055 17.1106Z" fill="white"/>
</g>
<defs>
<clipPath id="clip0_18965_3739">
<rect width="18" height="18" fill="white" transform="translate(6 5)"/>
</clipPath>
</defs>
</svg>
