<svg width="61" height="64" viewBox="0 0 61 64" fill="none" xmlns="http://www.w3.org/2000/svg">
<path d="M51.2115 9.88795C45.5539 3.95198 38.0104 0.696777 30.0092 0.696777C21.9896 0.696777 14.4461 3.95198 8.78853 9.88795C3.1126 15.8048 0 23.6939 0 32.0808C0 40.4677 3.1126 48.3377 8.78853 54.2736C14.4461 60.1905 21.9896 63.4648 30.0092 63.4648C38.0287 63.4648 45.5539 60.2096 51.2298 54.2736C56.8874 48.3568 60.0183 40.4677 60.0183 32.0808C60 23.6939 56.8874 15.8048 51.2115 9.88795Z" fill="#C1768D"/>
<path d="M25.1699 36.6142L19.6616 30.8534C18.601 29.7442 16.8561 29.7442 15.7955 30.8534C14.7348 31.9627 14.7348 33.7875 15.7955 34.8967L23.2369 42.679C24.2975 43.7882 26.0424 43.7882 27.103 42.679L42.5845 26.4882C43.6452 25.379 43.6452 23.5541 42.5845 22.4449C41.5239 21.3357 39.779 21.3357 38.7184 22.4449L25.1699 36.6142Z" fill="white"/>
</svg>
