<svg width="20" height="20" viewBox="0 0 20 20" fill="none" xmlns="http://www.w3.org/2000/svg">
<path fill-rule="evenodd" clip-rule="evenodd" d="M11.3719 16.4311H5.28076C5.10751 16.4311 4.96704 16.2906 4.96704 16.1174V3.88245C4.96704 3.7092 5.10751 3.56873 5.28076 3.56873H13.1918C13.2742 3.56873 13.3542 3.6012 13.4136 3.66061L14.9428 5.18983C15.0023 5.24924 15.0347 5.32924 15.0347 5.41167V10.9026C16.2607 11.4094 17.1233 12.6169 17.1233 14.0261C17.1233 14.6505 16.9539 15.2353 16.6587 15.7371L17.255 16.3161C17.4601 16.2448 17.6982 16.2886 17.8637 16.4488L17.8639 16.4491L19.5468 18.0823C19.7803 18.3084 19.7872 18.6846 19.5592 18.9199L19.559 18.9202L18.9517 19.5457L18.9514 19.5461C18.7255 19.779 18.35 19.7856 18.115 19.5599C18.1146 19.5595 18.1142 19.5591 18.1138 19.5587L16.4318 17.9256C16.2652 17.7649 16.2139 17.5281 16.2793 17.3207L15.7137 16.7719C15.1594 17.1701 14.4795 17.4046 13.7448 17.4046C12.8199 17.4046 11.9819 17.033 11.3719 16.4311ZM12.8781 4.19618C11.7302 4.19618 5.59449 4.19618 5.59449 4.19618V15.8036H10.8711C10.5511 15.2873 10.3663 14.6783 10.3663 14.0261C10.3663 12.1601 11.8788 10.6477 13.7448 10.6477C13.9715 10.6477 14.193 10.67 14.4073 10.7126V5.72539H13.1918C13.0185 5.72539 12.8781 5.58492 12.8781 5.41167V4.19618ZM13.9636 5.09794L13.5055 4.63987V5.09794H13.9636ZM16.2874 16.251C16.2553 16.2877 16.2225 16.3236 16.1889 16.3587L16.6717 16.8272L16.7731 16.7227L16.2874 16.251ZM13.7448 11.2751C12.2253 11.2751 10.9938 12.5066 10.9938 14.0261C10.9938 15.5456 12.2253 16.7771 13.7448 16.7771C15.2643 16.7771 16.4958 15.5456 16.4958 14.0261C16.4958 12.5066 15.2643 11.2751 13.7448 11.2751ZM13.7448 11.5298C15.1235 11.5298 16.2411 12.6474 16.2411 14.0261C16.2411 15.4048 15.1235 16.5225 13.7448 16.5225C12.3661 16.5225 11.2485 15.4048 11.2485 14.0261C11.2485 12.6474 12.3661 11.5298 13.7448 11.5298ZM13.7448 12.1572C12.7126 12.1572 11.8759 12.9939 11.8759 14.0261C11.8759 15.0583 12.7126 15.895 13.7448 15.895C14.777 15.895 15.6137 15.0583 15.6137 14.0261C15.6137 12.9939 14.777 12.1572 13.7448 12.1572ZM16.8936 17.4994C17.0866 17.6868 18.3358 18.8997 18.5255 19.0839L19.0846 18.508L17.4523 16.9239L16.8936 17.4994ZM7.20747 12.9219C7.03429 12.9219 6.89374 12.7814 6.89374 12.6082C6.89374 12.4351 7.03429 12.2945 7.20747 12.2945H10.0009C10.174 12.2945 10.3146 12.4351 10.3146 12.6082C10.3146 12.7814 10.174 12.9219 10.0009 12.9219H7.20747ZM7.20747 7.98269C7.03429 7.98269 6.89374 7.8421 6.89374 7.66896C6.89374 7.49579 7.03429 7.35524 7.20747 7.35524H12.7955C12.9687 7.35524 13.1093 7.49579 13.1093 7.66896C13.1093 7.8421 12.9687 7.98269 12.7955 7.98269H7.20747ZM7.20747 6.33583C7.03429 6.33583 6.89374 6.19528 6.89374 6.0221C6.89374 5.84896 7.03429 5.70837 7.20747 5.70837H11.2181C11.3912 5.70837 11.5318 5.84896 11.5318 6.0221C11.5318 6.19528 11.3912 6.33583 11.2181 6.33583H7.20747ZM7.20747 9.62826C7.03429 9.62826 6.89374 9.48771 6.89374 9.31453C6.89374 9.14139 7.03429 9.00081 7.20747 9.00081H12.7955C12.9687 9.00081 13.1093 9.14139 13.1093 9.31453C13.1093 9.48771 12.9687 9.62826 12.7955 9.62826H7.20747ZM7.20747 11.2751C7.03429 11.2751 6.89374 11.1345 6.89374 10.9614C6.89374 10.7882 7.03429 10.6477 7.20747 10.6477H11.3363C11.5095 10.6477 11.6501 10.7882 11.6501 10.9614C11.6501 11.1345 11.5095 11.2751 11.3363 11.2751H7.20747ZM7.20747 14.5688C7.03429 14.5688 6.89374 14.4282 6.89374 14.255C6.89374 14.0819 7.03429 13.9413 7.20747 13.9413H9.67923C9.85241 13.9413 9.99296 14.0819 9.99296 14.255C9.99296 14.4282 9.85241 14.5688 9.67923 14.5688H7.20747ZM0.815312 6.79904L0.800567 6.80947C0.659155 6.90936 0.463234 6.87563 0.363312 6.73422C0.26343 6.59277 0.297155 6.39685 0.438567 6.29696L1.33849 5.66136C1.3859 5.62783 1.44072 5.60877 1.49672 5.60469C1.54806 5.60088 1.601 5.60971 1.65088 5.63273C1.65253 5.63347 1.65747 5.63583 1.65829 5.63626C1.71002 5.66175 1.75163 5.69971 1.78127 5.74473C1.80931 5.7872 1.82708 5.83653 1.8319 5.88896L1.93241 6.9861C1.94821 7.15853 1.82104 7.31136 1.64861 7.32716C1.52445 7.33853 1.41049 7.27579 1.35049 7.1754C1.05994 8.06469 0.902842 9.0141 0.902842 9.9999C0.902842 15.0212 4.97955 19.0979 10.0009 19.0979C11.4143 19.0979 12.753 18.775 13.9468 18.1988C14.1028 18.1235 14.2904 18.189 14.3657 18.345C14.441 18.5009 14.3755 18.6886 14.2195 18.7639C12.9432 19.3799 11.5121 19.7254 10.0009 19.7254C4.63323 19.7254 0.275391 15.3676 0.275391 9.9999C0.275391 8.87873 0.465587 7.80159 0.815312 6.79904ZM19.1889 13.1936L19.1976 13.1875C19.3386 13.087 19.5347 13.1199 19.6351 13.261C19.7356 13.402 19.7027 13.598 19.5616 13.6985L18.6643 14.3377C18.6165 14.3718 18.561 14.3912 18.5044 14.3952C18.4537 14.3988 18.4014 14.3902 18.352 14.3676C18.35 14.3667 18.344 14.3638 18.3431 14.3634C18.2914 14.3377 18.2497 14.2997 18.2202 14.2546C18.1925 14.2126 18.175 14.1639 18.17 14.1121L18.0651 13.0154C18.0486 12.843 18.1751 12.6897 18.3475 12.6732C18.4739 12.6611 18.5902 12.726 18.6496 12.8295C18.9412 11.9388 19.0989 10.9876 19.0989 9.9999C19.0989 4.97857 15.0222 0.901865 10.0009 0.901865C8.58743 0.901865 7.2488 1.22481 6.05492 1.80104C5.899 1.8763 5.71131 1.81081 5.63602 1.65485C5.56076 1.49892 5.62625 1.31124 5.78221 1.23594C7.05861 0.619904 8.48971 0.274414 10.0009 0.274414C15.3685 0.274414 19.7264 4.63226 19.7264 9.9999C19.7264 11.1184 19.5371 12.1931 19.1889 13.1936Z" fill="#393939"/>
</svg>
