<svg width="22" height="23" viewBox="0 0 22 23" fill="none" xmlns="http://www.w3.org/2000/svg">
<path d="M12.0312 6H7.90625C7.81508 6 7.72765 6.03622 7.66318 6.10068C7.59872 6.16515 7.5625 6.25258 7.5625 6.34375C7.5625 6.43492 7.59872 6.52235 7.66318 6.58682C7.72765 6.65128 7.81508 6.6875 7.90625 6.6875H12.0312C12.1224 6.6875 12.2099 6.65128 12.2743 6.58682C12.3388 6.52235 12.375 6.43492 12.375 6.34375C12.375 6.25258 12.3388 6.16515 12.2743 6.10068C12.2099 6.03622 12.1224 6 12.0312 6Z" fill="#393939"/>
<path d="M7.90625 8.75H9.28125C9.37242 8.75 9.45985 8.71378 9.52432 8.64932C9.58878 8.58485 9.625 8.49742 9.625 8.40625C9.625 8.31508 9.58878 8.22765 9.52432 8.16318C9.45985 8.09872 9.37242 8.0625 9.28125 8.0625H7.90625C7.81508 8.0625 7.72765 8.09872 7.66318 8.16318C7.59872 8.22765 7.5625 8.31508 7.5625 8.40625C7.5625 8.49742 7.59872 8.58485 7.66318 8.64932C7.72765 8.71378 7.81508 8.75 7.90625 8.75Z" fill="#393939"/>
<path d="M16.8438 16.1406C16.7526 16.1406 16.6651 16.1768 16.6007 16.2413C16.5362 16.3058 16.5 16.3932 16.5 16.4844V19.0625H6.1875V6C6.18749 5.49191 5.99885 5.00192 5.65812 4.625H15.125C15.4897 4.625 15.8394 4.76987 16.0973 5.02773C16.3551 5.28559 16.5 5.63533 16.5 6V7.71875C16.5 7.80992 16.5362 7.89735 16.6007 7.96182C16.6651 8.02628 16.7526 8.0625 16.8438 8.0625C16.9349 8.0625 17.0224 8.02628 17.0868 7.96182C17.1513 7.89735 17.1875 7.80992 17.1875 7.71875V6C17.1875 5.45299 16.9702 4.92839 16.5834 4.54159C16.1966 4.1548 15.672 3.9375 15.125 3.9375H4.125C3.57799 3.9375 3.05339 4.1548 2.66659 4.54159C2.2798 4.92839 2.0625 5.45299 2.0625 6V9.09375C2.0625 9.18492 2.09872 9.27235 2.16318 9.33682C2.22765 9.40128 2.31508 9.4375 2.40625 9.4375H5.5V19.4062C5.5 19.4974 5.53622 19.5849 5.60068 19.6493C5.66515 19.7138 5.75258 19.75 5.84375 19.75H16.8438C16.9349 19.75 17.0224 19.7138 17.0868 19.6493C17.1513 19.5849 17.1875 19.4974 17.1875 19.4062V16.4844C17.1875 16.3932 17.1513 16.3058 17.0868 16.2413C17.0224 16.1768 16.9349 16.1406 16.8438 16.1406ZM2.75 6C2.75 5.63533 2.89487 5.28559 3.15273 5.02773C3.41059 4.76987 3.76033 4.625 4.125 4.625C4.48967 4.625 4.83941 4.76987 5.09727 5.02773C5.35513 5.28559 5.5 5.63533 5.5 6V8.75H2.75V6Z" fill="#393939"/>
<path d="M7.90625 17C7.81508 17 7.72765 17.0362 7.66318 17.1007C7.59872 17.1651 7.5625 17.2526 7.5625 17.3438C7.5625 17.4349 7.59872 17.5224 7.66318 17.5868C7.72765 17.6513 7.81508 17.6875 7.90625 17.6875H10.1406C10.2318 17.6875 10.3192 17.6513 10.3837 17.5868C10.4482 17.5224 10.4844 17.4349 10.4844 17.3438C10.4844 17.2526 10.4482 17.1651 10.3837 17.1007C10.3192 17.0362 10.2318 17 10.1406 17H7.90625Z" fill="#393939"/>
<path d="M20.5244 10.7678L18.0923 8.3358C18.0279 8.27178 17.9408 8.23584 17.85 8.23584C17.7592 8.23584 17.6721 8.27178 17.6076 8.3358L12.2589 13.6845C12.2182 13.726 12.1881 13.7768 12.1712 13.8324L11.2001 17.2355C11.1821 17.2953 11.1808 17.359 11.1962 17.4195C11.2117 17.4801 11.2433 17.5353 11.2878 17.5792C11.352 17.6438 11.4391 17.6803 11.5301 17.6806C11.5621 17.6803 11.5939 17.6757 11.6247 17.6669L15.0278 16.6958C15.0837 16.6796 15.1346 16.6494 15.1756 16.6081L20.5244 11.2594C20.5884 11.195 20.6243 11.1079 20.6243 11.017C20.6243 10.9262 20.5884 10.8391 20.5244 10.7747V10.7678ZM12.6731 14.5835L14.2767 16.187L12.032 16.8281L12.6731 14.5835ZM14.9333 15.8725L12.9876 13.9269L17.85 9.06627L19.7939 11.0102L14.9333 15.8725Z" fill="#393939"/>
<path d="M12.375 10.4688C12.375 10.3776 12.3388 10.2901 12.2743 10.2257C12.2099 10.1612 12.1224 10.125 12.0312 10.125H7.90625C7.81508 10.125 7.72765 10.1612 7.66318 10.2257C7.59872 10.2901 7.5625 10.3776 7.5625 10.4688C7.5625 10.5599 7.59872 10.6474 7.66318 10.7118C7.72765 10.7763 7.81508 10.8125 7.90625 10.8125H12.0312C12.1224 10.8125 12.2099 10.7763 12.2743 10.7118C12.3388 10.6474 12.375 10.5599 12.375 10.4688Z" fill="#393939"/>
</svg>
