<svg width="25" height="24" viewBox="0 0 25 24" fill="none" xmlns="http://www.w3.org/2000/svg">
<path fill-rule="evenodd" clip-rule="evenodd" d="M16.803 2.74979H8.151C5.139 2.74979 3.25 4.88379 3.25 7.90379V16.0498C3.25 19.0698 5.131 21.2038 8.151 21.2038H16.798C19.823 21.2038 21.703 19.0698 21.703 16.0498V7.90379C21.707 4.88379 19.826 2.74979 16.803 2.74979Z" stroke="#776F69" stroke-width="1.5" stroke-linecap="round" stroke-linejoin="round"/>
<path fill-rule="evenodd" clip-rule="evenodd" d="M11.2037 8.785C11.2037 9.805 10.3777 10.631 9.35772 10.631C8.33872 10.631 7.51172 9.805 7.51172 8.785C7.51172 7.765 8.33872 6.939 9.35772 6.939C10.3767 6.94 11.2027 7.766 11.2037 8.785Z" stroke="#776F69" stroke-width="1.5" stroke-linecap="round" stroke-linejoin="round"/>
<path d="M21.707 14.951C20.784 14.001 19.009 12.082 17.079 12.082C15.148 12.082 14.035 16.315 12.178 16.315C10.321 16.315 8.634 14.401 7.146 15.628C5.658 16.854 4.25 19.361 4.25 19.361" stroke="#776F69" stroke-width="1.5" stroke-linecap="round" stroke-linejoin="round"/>
</svg>
