<svg width="24" height="24" viewBox="0 0 24 24" fill="none" xmlns="http://www.w3.org/2000/svg">
<g filter="url(#filter0_d_107_6080)">
<path d="M12 0.25C5.79568 0.25 0.75 5.29568 0.75 11.5C0.75 17.7043 5.79568 22.75 12 22.75C18.2043 22.75 23.25 17.7043 23.25 11.5C23.25 5.29568 18.2043 0.25 12 0.25ZM12 1.75C17.3937 1.75 21.7559 6.10634 21.7559 11.5C21.7559 16.8937 17.3937 21.2559 12 21.2559C6.60634 21.2559 2.25 16.8937 2.25 11.5C2.25 6.10634 6.60634 1.75 12 1.75ZM11.9897 5.50439C11.7916 5.50788 11.6029 5.58964 11.4648 5.73182C11.3268 5.87399 11.2506 6.06502 11.2529 6.26318V6.89453C10.0419 7.12171 9.00586 7.90151 9.00586 9.25293C9.00586 10.1904 9.42849 10.9487 9.99609 11.3901C10.5637 11.8316 11.2046 12.0273 11.7671 12.2148C12.3296 12.4023 12.8152 12.5816 13.0913 12.7964C13.3675 13.0112 13.5 13.1919 13.5 13.7544C13.5 15.0044 10.5059 15.0044 10.5059 13.7544C10.5081 13.6545 10.4903 13.5552 10.4536 13.4622C10.4169 13.3693 10.362 13.2846 10.2922 13.2132C10.2223 13.1418 10.1389 13.085 10.0468 13.0463C9.95468 13.0075 9.85577 12.9876 9.75586 12.9876C9.65594 12.9876 9.55703 13.0075 9.46494 13.0463C9.37284 13.085 9.28941 13.1418 9.21955 13.2132C9.14968 13.2846 9.09479 13.3693 9.0581 13.4622C9.0214 13.5552 9.00364 13.6545 9.00586 13.7544C9.00586 15.1048 10.0429 15.886 11.2529 16.1143V16.7427C11.2507 16.8426 11.2685 16.9419 11.3052 17.0348C11.3419 17.1278 11.3968 17.2124 11.4666 17.2839C11.5365 17.3553 11.6199 17.412 11.712 17.4508C11.8041 17.4895 11.903 17.5095 12.0029 17.5095C12.1028 17.5095 12.2018 17.4895 12.2938 17.4508C12.3859 17.412 12.4694 17.3553 12.5392 17.2839C12.6091 17.2124 12.664 17.1278 12.7007 17.0348C12.7374 16.9419 12.7551 16.8426 12.7529 16.7427V16.1143C13.9632 15.8862 15.0015 15.1049 15.0015 13.7544C15.0015 12.8169 14.5774 12.0587 14.0098 11.6172C13.4422 11.1757 12.8013 10.9785 12.2388 10.791C11.6763 10.6035 11.1907 10.4257 10.9145 10.2109C10.6384 9.99615 10.5059 9.81543 10.5059 9.25293C10.5059 8.00293 13.5 8.00293 13.5 9.25293C13.5 9.45204 13.5791 9.64299 13.7199 9.78378C13.8607 9.92457 14.0516 10.0037 14.2507 10.0037C14.4498 10.0037 14.6408 9.92457 14.7816 9.78378C14.9224 9.64299 15.0015 9.45204 15.0015 9.25293C15.0015 7.90354 13.9629 7.12452 12.7529 6.896V6.26318C12.7541 6.16284 12.7351 6.06328 12.6972 5.97039C12.6592 5.87751 12.6029 5.7932 12.5318 5.72244C12.4606 5.65169 12.376 5.59593 12.2829 5.55848C12.1898 5.52102 12.0901 5.50263 11.9897 5.50439Z" fill="#393939"/>
</g>
<defs>
<filter id="filter0_d_107_6080" x="-3.25" y="0.25" width="30.5" height="30.5" filterUnits="userSpaceOnUse" color-interpolation-filters="sRGB">
<feFlood flood-opacity="0" result="BackgroundImageFix"/>
<feColorMatrix in="SourceAlpha" type="matrix" values="0 0 0 0 0 0 0 0 0 0 0 0 0 0 0 0 0 0 127 0" result="hardAlpha"/>
<feOffset dy="4"/>
<feGaussianBlur stdDeviation="2"/>
<feComposite in2="hardAlpha" operator="out"/>
<feColorMatrix type="matrix" values="0 0 0 0 0 0 0 0 0 0 0 0 0 0 0 0 0 0 0.25 0"/>
<feBlend mode="normal" in2="BackgroundImageFix" result="effect1_dropShadow_107_6080"/>
<feBlend mode="normal" in="SourceGraphic" in2="effect1_dropShadow_107_6080" result="shape"/>
</filter>
</defs>
</svg>
