<svg width="24" height="25" viewBox="0 0 24 25" fill="none" xmlns="http://www.w3.org/2000/svg">
<path d="M12 0.5C5.37266 0.5 0 5.87266 0 12.5C0 19.1273 5.37266 24.5 12 24.5C18.6273 24.5 24 19.1273 24 12.5C23.9926 5.87578 18.6242 0.507422 12 0.5ZM22.3783 16.7039L18.9656 17.2928C19.3563 15.8602 19.5672 14.3846 19.5936 12.9H23.19C23.1449 14.2059 22.8701 15.4936 22.3783 16.7039ZM0.809961 12.9H4.40645C4.43281 14.3846 4.64375 15.8602 5.03438 17.2928L1.62168 16.7039C1.12988 15.4936 0.855078 14.2059 0.809961 12.9ZM1.62168 8.29609L5.03438 7.70723C4.64375 9.13984 4.43281 10.6154 4.40645 12.1H0.809961C0.855078 10.7941 1.12988 9.50645 1.62168 8.29609ZM12.4 6.92246C13.8373 6.94082 15.2711 7.07168 16.6881 7.31406L18.1 7.55762C18.5338 9.03379 18.7672 10.5615 18.7939 12.1H12.4V6.92246ZM16.8244 6.52559C15.3625 6.27578 13.883 6.14082 12.4 6.12246V1.32246C14.6932 1.54277 16.6852 3.64238 17.8141 6.69805L16.8244 6.52559ZM11.6 6.12246C10.117 6.14082 8.63789 6.27578 7.17598 6.52559L6.18594 6.69688C7.31484 3.64043 9.30684 1.54004 11.6 1.3207V6.12246ZM7.3123 7.31406C8.7291 7.07168 10.1627 6.94082 11.6 6.92246V12.1H5.20605C5.23281 10.5615 5.46621 9.03379 5.9 7.55762L7.3123 7.31406ZM5.20605 12.9H11.6V18.0775C10.1627 18.0592 8.72891 17.9283 7.31191 17.6859L5.9 17.4424C5.46621 15.9662 5.23281 14.4385 5.20605 12.9ZM7.17559 18.4744C8.6375 18.7246 10.1168 18.8602 11.6 18.8797V23.6797C9.30684 23.4592 7.31484 21.3596 6.18594 18.3039L7.17559 18.4744ZM12.4 18.8797C13.883 18.8602 15.3621 18.7246 16.824 18.4744L17.8141 18.3031C16.6852 21.3596 14.6932 23.46 12.4 23.6793V18.8797ZM16.6877 17.6859C15.2709 17.9283 13.8373 18.0592 12.4 18.0775V12.9H18.7939C18.7672 14.4385 18.5338 15.9662 18.1 17.4424L16.6877 17.6859ZM19.5936 12.1C19.5672 10.6154 19.3563 9.13984 18.9656 7.70723L22.3783 8.29609C22.8701 9.50645 23.1449 10.7941 23.19 12.1H19.5936ZM21.9736 7.41445L18.7023 6.85C18.1143 4.93145 17.0141 3.20957 15.5199 1.86992C18.3139 2.80234 20.6309 4.79277 21.9736 7.41445ZM8.48008 1.86992C6.98594 3.20957 5.88574 4.93145 5.29766 6.85L2.02637 7.41445C3.36914 4.79277 5.68613 2.80234 8.48008 1.86992ZM2.02637 17.5855L5.29766 18.15C5.88574 20.0686 6.98594 21.7904 8.48008 23.1301C5.68613 22.1977 3.36914 20.2072 2.02637 17.5855ZM15.5199 23.1301C17.0141 21.7904 18.1143 20.0686 18.7023 18.15L21.9736 17.5855C20.6309 20.2072 18.3139 22.1977 15.5199 23.1301Z" fill="#393939"/>
</svg>
