<svg width="19" height="19" viewBox="0 0 19 19" fill="none" xmlns="http://www.w3.org/2000/svg">
<path d="M7.06261 14.7627C6.80259 14.7627 6.5918 14.9735 6.5918 15.2335C6.5918 15.4935 6.80259 15.7043 7.06261 15.7043H11.7708C12.0307 15.7043 12.2416 15.4935 12.2416 15.2335C12.2416 14.9735 12.0307 14.7627 11.7708 14.7627H7.06261Z" fill="#C1768D"/>
<path fill-rule="evenodd" clip-rule="evenodd" d="M11.4585 0.708963C10.2611 -0.236321 8.57147 -0.236321 7.37413 0.708963L1.25354 5.54101C0.461879 6.16601 0 7.11911 0 8.12775V15.7043C0 17.5245 1.47553 19 3.29571 19H15.5369C17.3571 19 18.8326 17.5245 18.8326 15.7043V8.12775C18.8326 7.11911 18.3707 6.16601 17.5791 5.54101L11.4585 0.708963ZM7.95762 1.44803C8.81291 0.772824 10.0197 0.772824 10.875 1.44803L16.9956 6.28008C17.561 6.72651 17.891 7.4073 17.891 8.12775V15.7043C17.891 17.0044 16.837 18.0584 15.5369 18.0584H3.29571C1.99559 18.0584 0.94163 17.0044 0.94163 15.7043V8.12775C0.94163 7.4073 1.27154 6.72651 1.83702 6.28008L7.95762 1.44803Z" fill="#C1768D"/>
</svg>
