<svg width="20" height="20" viewBox="0 0 20 20" fill="none" xmlns="http://www.w3.org/2000/svg">
<g clip-path="url(#clip0_107_6028)">
<path d="M10 0C4.47254 0 0 4.47293 0 10C0 15.5275 4.47293 20 10 20C15.5275 20 20 15.5271 20 10C20 4.47254 15.527 0 10 0ZM10 18.4375C5.33621 18.4375 1.5625 14.6635 1.5625 10C1.5625 5.33621 5.33652 1.5625 10 1.5625C14.6638 1.5625 18.4375 5.33652 18.4375 10C18.4375 14.6638 14.6634 18.4375 10 18.4375Z" fill="#393939"/>
<path d="M10 8.37225C9.56852 8.37225 9.21875 8.72202 9.21875 9.1535V14.1845C9.21875 14.616 9.56852 14.9657 10 14.9657C10.4315 14.9657 10.7812 14.6159 10.7812 14.1844V9.1535C10.7812 8.72202 10.4315 8.37225 10 8.37225Z" fill="#393939"/>
<path d="M10 7.41602C10.5825 7.41602 11.0547 6.94382 11.0547 6.36133C11.0547 5.77884 10.5825 5.30664 10 5.30664C9.41751 5.30664 8.94531 5.77884 8.94531 6.36133C8.94531 6.94382 9.41751 7.41602 10 7.41602Z" fill="#393939"/>
</g>
<defs>
<clipPath id="clip0_107_6028">
<rect width="20" height="20" fill="white"/>
</clipPath>
</defs>
</svg>
