<svg width="20" height="20" viewBox="0 0 20 20" fill="none" xmlns="http://www.w3.org/2000/svg">
<path d="M18.9544 5.84007C18.9551 5.82222 18.9606 5.80499 18.9578 5.78684L18.3541 1.83084C18.2301 1.03761 17.6468 0.461914 16.9668 0.461914H3.00768C2.29414 0.461914 1.68368 1.06499 1.55506 1.90191L1.04122 5.79268C1.03722 5.82407 1.04183 5.85361 1.04737 5.88314C1.04583 5.91114 1.03906 5.93791 1.03906 5.96622V18.0345C1.03906 18.8641 1.71229 19.5388 2.53968 19.5388H17.4612C18.2886 19.5388 18.9615 18.8641 18.9615 18.0345V5.96622C18.9615 5.92653 18.9578 5.88376 18.9544 5.84007ZM17.7828 1.91914L18.2018 4.6653C17.9821 4.54007 17.7301 4.46591 17.4609 4.46591H12.1363L11.7108 1.04007H16.9671C17.3603 1.04007 17.7031 1.41022 17.7828 1.91914ZM8.3686 4.77545L8.77106 1.04007H11.1283L11.5923 4.77422L11.6584 7.41268L10.1634 6.39545C10.0664 6.32961 9.93999 6.32868 9.84276 6.39238L8.26891 7.42068L8.3686 4.77576V4.77545ZM2.12737 1.98376C2.21137 1.43699 2.58183 1.04007 3.00768 1.04007H8.18952L7.82029 4.46591H2.53968C2.25752 4.46591 1.99629 4.54899 1.77075 4.68468L2.12737 1.98376ZM18.3834 18.0345C18.3834 18.5453 17.9695 18.9607 17.4612 18.9607H2.53968C2.03106 18.9607 1.61722 18.5453 1.61722 18.0345V5.96622C1.61722 5.45761 2.03106 5.04407 2.53968 5.04407H7.77999L7.66983 7.95761C7.66552 8.06561 7.72214 8.16684 7.81629 8.22007C7.91014 8.27361 8.02614 8.26991 8.1166 8.21053L9.99722 6.98161L11.7988 8.20745C11.8095 8.21484 11.8215 8.21791 11.8326 8.22376C11.8424 8.22868 11.8517 8.23422 11.8624 8.23791C11.8948 8.24961 11.9277 8.25761 11.9612 8.25761H11.9686C11.9711 8.25761 11.9732 8.25607 11.9757 8.25607C12.0083 8.25453 12.0397 8.24684 12.0698 8.23453C12.0751 8.23238 12.08 8.23114 12.0849 8.22899C12.1138 8.21545 12.14 8.19638 12.1634 8.1733C12.1686 8.16807 12.1729 8.16253 12.1775 8.15699C12.1849 8.14838 12.1935 8.14099 12.2 8.13145C12.2061 8.12253 12.2071 8.11207 12.212 8.10284C12.2212 8.08561 12.2289 8.06838 12.2344 8.0493C12.24 8.02991 12.2431 8.01145 12.2446 7.99176C12.2455 7.9813 12.2501 7.97207 12.2498 7.96161L12.1766 5.04438H17.4603C17.9301 5.04438 18.3243 5.39638 18.376 5.85391C18.3791 5.89145 18.3824 5.92899 18.3824 5.96653V18.0345H18.3834Z" fill="#C1768D"/>
<path d="M16.6146 13.5986H13.4325C13.2728 13.5986 13.1436 13.7282 13.1436 13.8876V17.0694C13.1436 17.2291 13.2728 17.3583 13.4325 17.3583H16.6146C16.7743 17.3583 16.9036 17.2288 16.9036 17.0694V13.8876C16.9036 13.7279 16.7743 13.5986 16.6146 13.5986ZM16.3257 16.7805H13.7217V14.1768H16.3257V16.7805Z" fill="#C1768D"/>
<path d="M12.301 9.72461H7.70006C7.54036 9.72461 7.41113 9.85415 7.41113 10.0135C7.41113 10.1729 7.54036 10.3025 7.70006 10.3025H12.301C12.4607 10.3025 12.5899 10.1729 12.5899 10.0135C12.5899 9.85415 12.4607 9.72461 12.301 9.72461Z" fill="#C1768D"/>
<path d="M12.301 11.6758H7.70006C7.54036 11.6758 7.41113 11.8053 7.41113 11.9647C7.41113 12.1241 7.54036 12.2536 7.70006 12.2536H12.301C12.4607 12.2536 12.5899 12.1241 12.5899 11.9647C12.5899 11.8053 12.4607 11.6758 12.301 11.6758Z" fill="#C1768D"/>
<path d="M12.301 13.627H7.70006C7.54036 13.627 7.41113 13.7565 7.41113 13.9159C7.41113 14.0753 7.54036 14.2048 7.70006 14.2048H12.301C12.4607 14.2048 12.5899 14.0753 12.5899 13.9159C12.5899 13.7565 12.4607 13.627 12.301 13.627Z" fill="#C1768D"/>
</svg>
