<svg width="17" height="22" viewBox="0 0 17 22" fill="none" xmlns="http://www.w3.org/2000/svg">
<path d="M15.4974 3.62288C13.4477 3.0263 11.4654 2.21885 9.58228 1.21348C9.25138 1.00966 8.87037 0.901733 8.48174 0.901733C8.0931 0.901733 7.7121 1.00966 7.38119 1.21348C5.49822 2.21872 3.51616 3.02616 1.46675 3.62288C1.03022 3.76075 0.650739 4.03757 0.386134 4.41113C0.121528 4.7847 -0.0136867 5.23453 0.001095 5.69208L0.232095 12.6641C0.746875 16.1667 4.42048 19.0878 6.565 20.5165C7.13229 20.8958 7.79934 21.0982 8.48174 21.0982C9.16413 21.0982 9.83118 20.8958 10.3985 20.5165C12.543 19.0878 16.2166 16.1667 16.7382 12.5847L16.9622 5.69278C16.9772 5.23523 16.8421 4.78534 16.5777 4.41165C16.3132 4.03797 15.9339 3.76097 15.4974 3.62288ZM15.3464 12.4597C14.9103 15.4277 11.5729 18.0507 9.62204 19.3509C9.28467 19.5769 8.88778 19.6975 8.48174 19.6975C8.07569 19.6975 7.6788 19.5769 7.34144 19.3509C5.39054 18.0507 2.05322 15.4271 1.62398 12.5395L1.39997 5.64756C1.39488 5.49571 1.43945 5.34635 1.52692 5.22212C1.61438 5.09789 1.73998 5.00558 1.88465 4.95918C4.0443 4.32885 6.13172 3.47332 8.11256 2.4067C8.22282 2.3363 8.35091 2.29889 8.48174 2.29889C8.61256 2.29889 8.74065 2.3363 8.85091 2.4067C10.832 3.47328 12.9198 4.32862 15.0798 4.95862C15.2243 5.00516 15.3498 5.09753 15.4371 5.22174C15.5244 5.34596 15.5689 5.49525 15.5638 5.647L15.3464 12.4597ZM9.71976 9.8176C9.7171 10.0143 9.66676 10.2075 9.57305 10.3804C9.47934 10.5534 9.34506 10.7011 9.18174 10.8108V12.7167C9.18174 12.9024 9.10799 13.0804 8.97671 13.2117C8.84544 13.343 8.66739 13.4167 8.48174 13.4167C8.29608 13.4167 8.11804 13.343 7.98676 13.2117C7.85548 13.0804 7.78174 12.9024 7.78174 12.7167V10.8108C7.61841 10.7011 7.48413 10.5534 7.39042 10.3804C7.29671 10.2075 7.24637 10.0143 7.24371 9.8176C7.24371 9.48926 7.37415 9.17436 7.60632 8.94219C7.8385 8.71001 8.15339 8.57958 8.48174 8.57958C8.81008 8.57958 9.12497 8.71001 9.35715 8.94219C9.58932 9.17436 9.71976 9.48926 9.71976 9.8176Z" fill="black"/>
</svg>
