<svg width="24" height="24" viewBox="0 0 24 24" fill="none" xmlns="http://www.w3.org/2000/svg">
<path d="M5.683 22.0647C5.53593 22.0647 5.39066 22.0323 5.25754 21.9698C5.12442 21.9073 5.00673 21.8162 4.91286 21.703C4.81898 21.5898 4.75123 21.4572 4.71444 21.3148C4.67765 21.1724 4.67272 21.0237 4.7 20.8792L5.122 18.6292C5.13567 18.5433 5.1278 18.4554 5.09908 18.3734C5.07037 18.2914 5.02172 18.2177 4.9575 18.1592C4.02301 17.2672 3.27911 16.1951 2.77078 15.0074C2.26244 13.8198 2.00023 12.5415 2 11.2497C2.0365 8.63173 3.10975 6.13512 4.98438 4.30736C6.859 2.4796 9.38198 1.46989 12 1.49966C14.618 1.46989 17.141 2.4796 19.0156 4.30736C20.8903 6.13512 21.9635 8.63173 22 11.2497C21.9635 13.8676 20.8903 16.3642 19.0156 18.192C17.141 20.0197 14.618 21.0294 12 20.9997C11.0046 20.9983 10.0149 20.8506 9.0625 20.5612C8.99772 20.5402 8.92943 20.5322 8.86156 20.5377C8.79369 20.5432 8.72757 20.562 8.667 20.5932L6.1585 21.9432C6.01255 22.0225 5.84913 22.0643 5.683 22.0647ZM12 2.49966C9.64714 2.46973 7.37843 3.37404 5.69131 5.01429C4.00418 6.65455 3.03634 8.8969 3 11.2497C3.00076 12.4074 3.23635 13.553 3.69253 14.6172C4.1487 15.6813 4.81598 16.6418 5.654 17.4407C5.83693 17.6143 5.97383 17.8307 6.05238 18.0703C6.13093 18.31 6.14867 18.5654 6.104 18.8137L5.6825 21.0637L8.191 19.7137C8.36736 19.6197 8.56062 19.5617 8.75957 19.5429C8.95853 19.5242 9.15922 19.5452 9.35 19.6047C10.2091 19.8658 11.1021 19.9989 12 19.9997C14.3529 20.0296 16.6216 19.1253 18.3087 17.485C19.9958 15.8448 20.9637 13.6024 21 11.2497C20.9637 8.8969 19.9958 6.65455 18.3087 5.01429C16.6216 3.37404 14.3529 2.46973 12 2.49966Z" fill="#393939"/>
<path d="M12 14.5C11.8674 14.5 11.7402 14.4473 11.6464 14.3536C11.5527 14.2598 11.5 14.1326 11.5 14V12.35C11.4997 12.0267 11.6044 11.712 11.7983 11.4533C11.9923 11.1946 12.265 11.0058 12.5755 10.9155C12.9306 10.8088 13.249 10.6056 13.4952 10.3284C13.7414 10.0512 13.9058 9.7111 13.9699 9.34595C14.034 8.9808 13.9953 8.60502 13.8583 8.26056C13.7212 7.9161 13.491 7.61653 13.1936 7.39528C12.8961 7.17403 12.543 7.03983 12.1736 7.00764C11.8043 6.97546 11.4333 7.04656 11.102 7.21302C10.7708 7.37947 10.4923 7.63473 10.2977 7.95028C10.1031 8.26583 10 8.62927 10 9C10 9.13261 9.94732 9.25979 9.85355 9.35355C9.75979 9.44732 9.63261 9.5 9.5 9.5C9.36739 9.5 9.24021 9.44732 9.14645 9.35355C9.05268 9.25979 9 9.13261 9 9C9.00079 8.2046 9.31712 7.44199 9.87956 6.87956C10.442 6.31712 11.2046 6.0008 12 6C12.7206 5.99935 13.4173 6.25807 13.9628 6.72885C14.5083 7.19963 14.8661 7.85102 14.9708 8.56393C15.0756 9.27683 14.9202 10.0036 14.5332 10.6114C14.1462 11.2192 13.5533 11.6674 12.863 11.874C12.7592 11.9036 12.6678 11.9659 12.6024 12.0517C12.537 12.1375 12.5011 12.2421 12.5 12.35V14C12.5 14.1326 12.4473 14.2598 12.3536 14.3536C12.2598 14.4473 12.1326 14.5 12 14.5Z" fill="#393939"/>
<path d="M12 16.75C12.4142 16.75 12.75 16.4142 12.75 16C12.75 15.5858 12.4142 15.25 12 15.25C11.5858 15.25 11.25 15.5858 11.25 16C11.25 16.4142 11.5858 16.75 12 16.75Z" fill="#393939"/>
</svg>
