<svg width="20" height="20" viewBox="0 0 20 20" fill="none" xmlns="http://www.w3.org/2000/svg">
<g clip-path="url(#clip0_107_5980)">
<path d="M18.5956 8.71897C18.5191 6.5374 17.6356 4.4974 16.0844 2.94615C14.4584 1.3199 12.2975 0.424591 9.99999 0.424591C5.35968 0.424591 1.56812 4.11803 1.40468 8.71897C0.696553 9.03365 0.200928 9.7424 0.200928 10.5662V12.8355C0.200928 13.9499 1.10749 14.8568 2.22218 14.8568C2.94343 14.8568 3.52999 14.2702 3.52999 13.549V9.8524C3.52999 9.17522 3.01062 8.62303 2.3503 8.5574C2.59405 4.54897 5.93093 1.36209 9.99999 1.36209C12.0475 1.36209 13.9728 2.16022 15.4219 3.60928C16.7525 4.9399 17.5312 6.67428 17.6484 8.55772C16.9887 8.62397 16.4703 9.17584 16.4703 9.8524V13.5487C16.4703 14.2315 16.9978 14.7871 17.6659 14.8449V15.779C17.6659 16.8308 16.81 17.6865 15.7581 17.6865H14.3453C14.2759 17.4883 14.1672 17.3052 14.0147 17.1533C13.7475 16.8849 13.3912 16.7371 13.0119 16.7371H11.5556C11.3466 16.7371 11.1459 16.7815 10.9622 16.8671C10.4609 17.0974 10.1372 17.603 10.1372 18.1552C10.1372 18.5346 10.285 18.8908 10.5528 19.1574C10.8206 19.4258 11.1769 19.5737 11.5556 19.5737H13.0119C13.6156 19.5737 14.1478 19.1833 14.3462 18.624H15.7581C17.3272 18.624 18.6034 17.3477 18.6034 15.779V14.678C19.3072 14.3615 19.7991 13.6552 19.7991 12.8349V10.5655C19.7991 9.7424 19.3034 9.03365 18.5956 8.71897ZM2.59218 9.8524V13.5487C2.59218 13.7527 2.42624 13.919 2.22187 13.919C1.62437 13.919 1.13812 13.4327 1.13812 12.8352V10.5658C1.13812 9.96803 1.62437 9.48209 2.22187 9.48209C2.42624 9.48209 2.59218 9.64834 2.59218 9.8524ZM13.4822 18.2558C13.4356 18.4765 13.2375 18.6368 13.0116 18.6368H11.5553C11.4272 18.6368 11.3069 18.5868 11.215 18.4949C11.1244 18.4046 11.0744 18.284 11.0744 18.1558C11.0744 17.9687 11.1841 17.7977 11.3559 17.7187C11.4172 17.6899 11.4844 17.6752 11.5553 17.6752H13.0116C13.1397 17.6752 13.26 17.7249 13.3516 17.8168C13.4422 17.9071 13.4922 18.0277 13.4922 18.1558C13.4925 18.1902 13.4887 18.2246 13.4822 18.2558ZM18.8616 12.8352C18.8616 13.4327 18.3753 13.919 17.7778 13.919C17.5737 13.919 17.4075 13.753 17.4075 13.5487V9.8524C17.4075 9.64834 17.5734 9.48209 17.7778 9.48209C18.3753 9.48209 18.8616 9.96834 18.8616 10.5658V12.8352Z" fill="#C1768D"/>
<path d="M13.0351 12.998C14.1305 12.998 15.0214 12.1067 15.0214 11.0117V6.96455C15.0214 6.43518 14.8145 5.93643 14.4389 5.5608C14.0633 5.18518 13.5648 4.9783 13.0351 4.9783H6.96452C5.86921 4.9783 4.97827 5.86924 4.97827 6.96455V11.0117C4.97827 12.1071 5.86921 12.998 6.96452 12.998H7.00171V14.0467C7.00171 14.4467 7.24015 14.8017 7.6089 14.9514C7.72796 14.9992 7.85171 15.023 7.97421 15.023C8.22952 15.023 8.47827 14.9217 8.66046 14.7333L10.4051 12.998H13.0351ZM9.88171 12.1967L7.99358 14.0746C7.98515 14.0833 7.9789 14.0899 7.96108 14.0821C7.93952 14.0733 7.93952 14.0592 7.93952 14.0467V12.5292C7.93952 12.2705 7.72983 12.0605 7.47077 12.0605H6.96483C6.3864 12.0605 5.91608 11.5899 5.91608 11.0117V6.96455C5.91608 6.38611 6.3864 5.9158 6.96483 5.9158H13.0355C13.3148 5.9158 13.5776 6.02518 13.7764 6.22361C13.9751 6.42236 14.0842 6.68549 14.0842 6.96455V11.0117C14.0842 11.5902 13.6136 12.0605 13.0355 12.0605H10.2123C10.0883 12.0605 9.96952 12.1096 9.88171 12.1967Z" fill="#C1768D"/>
<path d="M7.72257 8.3699C7.34132 8.3699 7.03101 8.68053 7.03101 9.06147C7.03101 9.4424 7.34163 9.75303 7.72257 9.75303C8.10413 9.75303 8.41476 9.4424 8.41476 9.06147C8.41476 8.68053 8.10444 8.3699 7.72257 8.3699Z" fill="#C1768D"/>
<path d="M9.99991 8.3699C9.61866 8.3699 9.30835 8.68053 9.30835 9.06147C9.30835 9.4424 9.61898 9.75303 9.99991 9.75303C10.3818 9.75303 10.6921 9.4424 10.6921 9.06147C10.6921 8.68053 10.3818 8.3699 9.99991 8.3699Z" fill="#C1768D"/>
<path d="M12.2763 8.3699C11.895 8.3699 11.5847 8.68053 11.5847 9.06147C11.5847 9.4424 11.8953 9.75303 12.2763 9.75303C12.6578 9.75303 12.9685 9.4424 12.9685 9.06147C12.9685 8.68053 12.6578 8.3699 12.2763 8.3699Z" fill="#C1768D"/>
</g>
<defs>
<clipPath id="clip0_107_5980">
<rect width="20" height="20" fill="white"/>
</clipPath>
</defs>
</svg>
