<svg width="16" height="16" viewBox="0 0 16 16" fill="none" xmlns="http://www.w3.org/2000/svg">
<path d="M15.0312 8C15.0312 8.22378 14.9424 8.43839 14.7841 8.59662C14.6259 8.75485 14.4113 8.84375 14.1875 8.84375H8.84375V14.1875C8.84375 14.4113 8.75485 14.6259 8.59662 14.7841C8.43839 14.9424 8.22378 15.0312 8 15.0312C7.77622 15.0312 7.56161 14.9424 7.40338 14.7841C7.24514 14.6259 7.15625 14.4113 7.15625 14.1875V8.84375H1.8125C1.58872 8.84375 1.37411 8.75485 1.21588 8.59662C1.05764 8.43839 0.96875 8.22378 0.96875 8C0.96875 7.77622 1.05764 7.56161 1.21588 7.40338C1.37411 7.24514 1.58872 7.15625 1.8125 7.15625H7.15625V1.8125C7.15625 1.58872 7.24514 1.37411 7.40338 1.21588C7.56161 1.05764 7.77622 0.96875 8 0.96875C8.22378 0.96875 8.43839 1.05764 8.59662 1.21588C8.75485 1.37411 8.84375 1.58872 8.84375 1.8125V7.15625H14.1875C14.4113 7.15625 14.6259 7.24514 14.7841 7.40338C14.9424 7.56161 15.0312 7.77622 15.0312 8Z" fill="#1A1A1A"/>
</svg>
