<svg width="22" height="22" viewBox="0 0 22 22" fill="none" xmlns="http://www.w3.org/2000/svg">
<path d="M11 4.46875C10.2521 4.46875 9.52107 4.69052 8.89925 5.10601C8.27743 5.52149 7.79278 6.11204 7.50658 6.80298C7.22039 7.49391 7.14551 8.25419 7.29141 8.98769C7.43731 9.72118 7.79744 10.3949 8.32625 10.9237C8.85507 11.4526 9.52883 11.8127 10.2623 11.9586C10.9958 12.1045 11.7561 12.0296 12.447 11.7434C13.138 11.4572 13.7285 10.9726 14.144 10.3507C14.5595 9.72893 14.7813 8.99786 14.7813 8.25C14.7801 7.2475 14.3814 6.28638 13.6725 5.57751C12.9636 4.86863 12.0025 4.46989 11 4.46875ZM11 11.3438C10.3881 11.3438 9.78997 11.1623 9.28121 10.8224C8.77244 10.4824 8.37591 9.99924 8.14175 9.43393C7.90759 8.86862 7.84632 8.24657 7.9657 7.64644C8.08507 7.04631 8.37972 6.49506 8.81239 6.06239C9.24506 5.62972 9.79631 5.33507 10.3964 5.2157C10.9966 5.09632 11.6186 5.15759 12.1839 5.39175C12.7492 5.62591 13.2324 6.02244 13.5724 6.5312C13.9123 7.03997 14.0938 7.63811 14.0938 8.25C14.0928 9.07023 13.7666 9.85661 13.1866 10.4366C12.6066 11.0166 11.8202 11.3428 11 11.3438Z" fill="#393939"/>
<path d="M11 0C8.81273 0.00250195 6.71577 0.872499 5.16913 2.41913C3.6225 3.96577 2.7525 6.06273 2.75 8.25C2.75 14.1725 10.4354 21.5918 10.7623 21.9047C10.8263 21.9659 10.9115 22 11 22C11.0885 22 11.1737 21.9659 11.2377 21.9047C11.5646 21.5918 19.25 14.1725 19.25 8.25C19.2475 6.06273 18.3775 3.96577 16.8309 2.41913C15.2842 0.872499 13.1873 0.00250195 11 0ZM11 21.173C9.69179 19.8605 3.4375 13.3183 3.4375 8.25C3.4375 6.2443 4.23426 4.32075 5.65251 2.90251C7.07075 1.48426 8.9943 0.6875 11 0.6875C13.0057 0.6875 14.9293 1.48426 16.3475 2.90251C17.7657 4.32075 18.5625 6.2443 18.5625 8.25C18.5625 13.3158 12.3082 19.86 11 21.173Z" fill="#393939"/>
</svg>
