<svg width="33" height="14" viewBox="0 0 33 14" fill="none" xmlns="http://www.w3.org/2000/svg">
<path fill-rule="evenodd" clip-rule="evenodd" d="M33.0001 7.09492C33.0001 4.74834 31.8635 2.89673 29.691 2.89673C27.5094 2.89673 26.1895 4.74834 26.1895 7.07662C26.1895 9.83573 27.7478 11.229 29.9843 11.229C31.0751 11.229 31.9001 10.9815 32.5234 10.6332V8.79984C31.9001 9.11152 31.1851 9.30396 30.2776 9.30396C29.3885 9.30396 28.6002 8.99229 28.4994 7.91065H32.9817C32.9818 7.79154 33.0001 7.31488 33.0001 7.09492ZM28.4719 6.22409C28.4719 5.18827 29.1044 4.75749 29.6819 4.75749C30.241 4.75749 30.8369 5.18833 30.8369 6.22409H28.4719Z" fill="black"/>
<path fill-rule="evenodd" clip-rule="evenodd" d="M22.6502 2.89648C21.7519 2.89648 21.1744 3.31817 20.8535 3.61148L20.7344 3.04317H18.7178V13.7313L21.0094 13.2455L21.0185 10.6513C21.3485 10.8896 21.8343 11.2288 22.641 11.2288C24.2818 11.2288 25.7759 9.9088 25.7759 7.00305C25.7668 4.34478 24.2543 2.89648 22.6502 2.89648ZM22.1002 9.21217C21.5593 9.21217 21.2386 9.01966 21.0185 8.78132L21.0094 5.38061C21.2477 5.11475 21.5777 4.93146 22.1002 4.93146C22.9343 4.93146 23.5118 5.86642 23.5118 7.06724C23.5118 8.29557 22.9435 9.21217 22.1002 9.21217Z" fill="black"/>
<path fill-rule="evenodd" clip-rule="evenodd" d="M15.5645 2.3558L17.8652 1.86083V0L15.5645 0.485881V2.3558Z" fill="black"/>
<path d="M17.8652 3.05225H15.5645V11.0728H17.8652V3.05225Z" fill="black"/>
<path fill-rule="evenodd" clip-rule="evenodd" d="M13.0993 3.7308L12.9526 3.05248H10.9727V11.0731H13.2643V5.63739C13.805 4.93155 14.7217 5.05993 15.0059 5.16072V3.05248C14.7125 2.94253 13.6401 2.74087 13.0993 3.7308Z" fill="black"/>
<path fill-rule="evenodd" clip-rule="evenodd" d="M8.5163 1.06348L6.27966 1.54014L6.27051 8.8824C6.27051 10.239 7.28796 11.2382 8.64461 11.2382C9.39628 11.2382 9.94622 11.1007 10.2487 10.9357V9.07491C9.95544 9.19408 8.50714 9.6157 8.50714 8.25912V5.00504H10.2487V3.05262H8.50714L8.5163 1.06348Z" fill="black"/>
<path fill-rule="evenodd" clip-rule="evenodd" d="M2.31914 5.38063C2.31914 5.02312 2.61244 4.88565 3.09826 4.88565C3.79489 4.88565 4.67488 5.09647 5.37157 5.47234V3.31818C4.61075 3.01572 3.85908 2.89648 3.09826 2.89648C1.23749 2.89648 0 3.86819 0 5.49064C0 8.02061 3.48328 7.61728 3.48328 8.70809C3.48328 9.12972 3.11663 9.26725 2.60329 9.26725C1.84247 9.26725 0.870836 8.95557 0.100863 8.53395V10.7156C0.953331 11.0822 1.81501 11.2381 2.60329 11.2381C4.50989 11.2381 5.82072 10.2939 5.82072 8.65311C5.81157 5.92149 2.31914 6.40731 2.31914 5.38063Z" fill="black"/>
</svg>
