<svg width="16" height="16" viewBox="0 0 16 16" fill="none" xmlns="http://www.w3.org/2000/svg">
<path d="M6.96347 9.25691C6.98372 9.81756 7.43903 10.2567 8 10.2567C8.561 10.2567 9.01628 9.81753 9.0365 9.25691L9.2355 3.7465C9.24588 3.45838 9.14559 3.19644 8.9455 2.98903C8.74544 2.78156 8.48728 2.67188 8.19903 2.67188H7.80103C7.51275 2.67188 7.25463 2.78153 7.0545 2.989C6.85438 3.19647 6.75409 3.45841 6.7645 3.7465L6.96347 9.25691ZM7.41434 3.33612C7.52097 3.22559 7.64741 3.17188 7.801 3.17188H8.199C8.35256 3.17188 8.47903 3.22559 8.58566 3.33612C8.69225 3.44662 8.74137 3.57497 8.73584 3.72844L8.53684 9.23884C8.52637 9.52922 8.29056 9.75666 8 9.75666C7.70944 9.75666 7.47363 9.52922 7.46313 9.23884L7.26412 3.72844C7.25859 3.575 7.30775 3.44666 7.41434 3.33612ZM8 10.8112C7.30606 10.8112 6.74153 11.3758 6.74153 12.0697C6.74153 12.7636 7.30609 13.3281 8 13.3281C8.69391 13.3281 9.25847 12.7636 9.25847 12.0697C9.25847 11.3757 8.69394 10.8112 8 10.8112ZM8 12.8281C7.58178 12.8281 7.24153 12.4879 7.24153 12.0697C7.24153 11.6514 7.58178 11.3112 8 11.3112C8.41822 11.3112 8.75847 11.6514 8.75847 12.0697C8.75847 12.4879 8.41825 12.8281 8 12.8281ZM8 0.25C3.72662 0.25 0.25 3.72662 0.25 8C0.25 12.2734 3.72662 15.75 8 15.75C12.2734 15.75 15.75 12.2734 15.75 8C15.75 3.72662 12.2734 0.25 8 0.25ZM8 15.25C4.00234 15.25 0.75 11.9977 0.75 8C0.75 4.00234 4.00234 0.75 8 0.75C11.9977 0.75 15.25 4.00234 15.25 8C15.25 11.9977 11.9977 15.25 8 15.25Z" fill="#F01F0E"/>
</svg>
