<svg width="16" height="16" viewBox="0 0 16 16" fill="none" xmlns="http://www.w3.org/2000/svg">
<path d="M14.3333 12.6667H12V9.28533C14.258 8.96067 16 7.01333 16 4.66667C16 2.09333 13.906 0 11.3333 0C10.03 0 8.84933 0.537333 8.002 1.40267C7.12667 0.506667 5.93067 0 4.66667 0C2.09333 0 0 2.09333 0 4.66667C0 7.01333 1.74133 8.96133 4 9.28533V12.6667H1.66667C1.48267 12.6667 1.33333 12.816 1.33333 13C1.33333 13.184 1.48267 13.3333 1.66667 13.3333H4V15.6667C4 15.8507 4.14933 16 4.33333 16C4.51733 16 4.66667 15.8507 4.66667 15.6667V13.3333H7C7.184 13.3333 7.33333 13.184 7.33333 13C7.33333 12.816 7.184 12.6667 7 12.6667H4.66667V9.33333C5.93067 9.33333 7.12667 8.82667 8.002 7.93067C8.84933 8.79533 10.03 9.33333 11.3333 9.33333V12.6667H9C8.816 12.6667 8.66667 12.816 8.66667 13C8.66667 13.184 8.816 13.3333 9 13.3333H11.3333V15.6667C11.3333 15.8507 11.4827 16 11.6667 16C11.8507 16 12 15.8507 12 15.6667V13.3333H14.3333C14.5173 13.3333 14.6667 13.184 14.6667 13C14.6667 12.816 14.5173 12.6667 14.3333 12.6667ZM4.66667 8.66667C2.46067 8.66667 0.666667 6.87267 0.666667 4.66667C0.666667 2.46067 2.46067 0.666667 4.66667 0.666667C5.77067 0.666667 6.81333 1.118 7.568 1.91333C7.002 2.686 6.66667 3.63733 6.66667 4.66667C6.66667 5.696 7.00133 6.64733 7.568 7.42C6.814 8.21533 5.77133 8.66667 4.66667 8.66667ZM7.33333 4.66667C7.33333 2.46067 9.12733 0.666667 11.3333 0.666667C13.5393 0.666667 15.3333 2.46067 15.3333 4.66667C15.3333 6.87267 13.5393 8.66667 11.3333 8.66667C9.12733 8.66667 7.33333 6.87267 7.33333 4.66667Z" fill="#C1768D"/>
</svg>
