<svg width="16" height="16" viewBox="0 0 16 16" fill="none" xmlns="http://www.w3.org/2000/svg">
<path d="M15 4H12V4.66667H14.862L11.1513 8.37733C10.4693 7.792 9.604 7.41533 8.65467 7.34533C8.58467 6.396 8.20733 5.53067 7.62267 4.84867L11.3333 1.138V4H12V1C12 0.448667 11.5513 0 11 0H8V0.666667H10.862L7.15133 4.37733C6.39333 3.72667 5.40867 3.33333 4.33333 3.33333C1.944 3.33333 0 5.27733 0 7.66667C0 9.948 1.772 11.8233 4.012 11.988C4.17733 14.228 6.052 16 8.33333 16C10.7227 16 12.6667 14.056 12.6667 11.6667C12.6667 10.592 12.2733 9.60733 11.6227 8.84867L15.3333 5.138V8H16V5C16 4.44867 15.5513 4 15 4ZM0.666667 7.66667C0.666667 5.64467 2.31133 4 4.33333 4C6.35533 4 8 5.64467 8 7.66667C8 9.68867 6.35533 11.3333 4.33333 11.3333C2.31133 11.3333 0.666667 9.68867 0.666667 7.66667ZM8.33333 15.3333C6.41933 15.3333 4.84333 13.8587 4.68067 11.986C6.79333 11.8173 8.484 10.1267 8.65267 8.014C10.5253 8.17667 12 9.75267 12 11.6667C12 13.6887 10.3553 15.3333 8.33333 15.3333Z" fill="#C1768D"/>
</svg>
