<svg width="15" height="16" viewBox="0 0 15 16" fill="none" xmlns="http://www.w3.org/2000/svg">
<path d="M14.5869 4.66108L13.2362 6.01173C13.0985 6.14943 12.8759 6.14943 12.7382 6.01173L9.48607 2.75963C9.34837 2.62192 9.34837 2.39926 9.48607 2.26156L10.8367 0.910908C11.3846 0.363031 12.2753 0.363031 12.8261 0.910908L14.5869 2.67173C15.1377 3.21961 15.1377 4.11028 14.5869 4.66108ZM8.32586 3.42177L0.632148 11.1155L0.0110251 14.6752C-0.0739398 15.1557 0.345025 15.5717 0.825516 15.4897L4.38525 14.8657L12.079 7.17194C12.2167 7.03424 12.2167 6.81157 12.079 6.67387L8.82686 3.42177C8.68623 3.28407 8.46357 3.28407 8.32586 3.42177ZM3.63522 10.4563C3.47408 10.2951 3.47408 10.0373 3.63522 9.87617L8.14714 5.36424C8.30828 5.2031 8.56611 5.2031 8.72725 5.36424C8.88839 5.52538 8.88839 5.78321 8.72725 5.94434L4.21532 10.4563C4.05418 10.6174 3.79636 10.6174 3.63522 10.4563ZM2.57755 12.9203H3.98387V13.9838L2.09413 14.3149L1.18295 13.4037L1.51402 11.5139H2.57755V12.9203Z" fill="#393939"/>
</svg>
