<svg width="16" height="16" viewBox="0 0 16 16" fill="none" xmlns="http://www.w3.org/2000/svg">
<path d="M15 0H12V0.666667H14.862L11.818 3.71067C11.06 3.06 10.0753 2.66667 9 2.66667C8.142 2.66667 7.342 2.91733 6.668 3.34867C5.97067 2.902 5.16533 2.66667 4.33333 2.66667C1.944 2.66667 0 4.61067 0 7C0 9.27733 1.766 11.15 4 11.3207V13.3333H2V14H4V16H4.66667V14H6.66667V13.3333H4.66667V11.3207C5.38 11.266 6.06467 11.038 6.668 10.6513C7.34133 11.0833 8.142 11.3333 9 11.3333C11.3893 11.3333 13.3333 9.38933 13.3333 7C13.3333 5.92533 12.94 4.94067 12.2893 4.182L15.3333 1.138V4H16V1C16 0.448667 15.5513 0 15 0ZM4.33333 10.6667C2.312 10.6667 0.666667 9.022 0.666667 7C0.666667 4.978 2.312 3.33333 4.33333 3.33333C4.95467 3.33333 5.55867 3.48933 6.09733 3.78533C5.21933 4.57867 4.66667 5.726 4.66667 7C4.66667 8.274 5.21933 9.42133 6.09733 10.2147C5.55867 10.5107 4.95467 10.6667 4.33333 10.6667ZM9 10.6667C6.97867 10.6667 5.33333 9.022 5.33333 7C5.33333 4.978 6.97867 3.33333 9 3.33333C11.0213 3.33333 12.6667 4.978 12.6667 7C12.6667 9.022 11.0213 10.6667 9 10.6667Z" fill="#C1768D"/>
</svg>
