<svg width="36" height="32" viewBox="0 0 36 32" fill="none" xmlns="http://www.w3.org/2000/svg">
<path d="M8.53419 31.3013L8.22989 25.0517C3.39427 22.5006 0.520508 18.2792 0.520508 13.6921C0.520508 10.0014 2.36164 6.54266 5.7048 3.95331C8.9963 1.40401 13.3628 0 17.9999 0C22.6369 0 27.0034 1.40401 30.295 3.95338C33.6381 6.54273 35.4793 10.0014 35.4793 13.6922C35.4793 17.383 33.6381 20.8418 30.295 23.4312C27.0035 25.9804 22.637 27.3844 17.9999 27.3844C17.8662 27.3844 17.7279 27.3829 17.5746 27.3797L9.5492 31.8642C8.9043 32.2152 8.53419 31.8351 8.53419 31.3013ZM17.9999 1.36551C9.11469 1.36551 1.88609 6.89529 1.88609 13.6923C1.88609 17.863 4.61973 21.7219 9.19841 24.0142C9.41891 24.1246 9.56271 24.3453 9.57467 24.5916L9.84457 30.135L17.0713 26.0968C17.1784 26.0365 17.3 26.0066 17.4228 26.0103C17.6428 26.0163 17.8261 26.0191 17.9997 26.0191C26.8849 26.0191 34.1135 20.4893 34.1135 13.6924C34.1135 6.8955 26.8851 1.36551 17.9999 1.36551Z" fill="#C1768D"/>
</svg>
