<svg width="46" height="46" viewBox="0 0 46 46" fill="none" xmlns="http://www.w3.org/2000/svg">
<g clip-path="url(#clip0_192_1304)">
<path d="M23.36 5.63282C28.0996 5.63282 32.3906 7.55399 35.4966 10.66C38.6026 13.766 40.5238 18.057 40.5238 22.7966C40.5238 27.5362 38.6026 31.8272 35.4966 34.9332C32.3906 38.0393 28.0996 39.9605 23.36 39.9605C21.7402 39.9605 20.1705 39.7348 18.6808 39.3132C17.2279 38.902 15.8518 38.3031 14.5803 37.5444L6.19609 40.3366L6.19684 40.3389C5.90991 40.4344 5.5998 40.2792 5.50426 39.9923C5.45613 39.8478 5.47165 39.6974 5.53552 39.5715L8.73348 31.7773C7.94046 30.4885 7.31288 29.0872 6.88058 27.603C6.43507 26.0736 6.19616 24.4606 6.19616 22.7966C6.19616 18.057 8.11733 13.766 11.2234 10.66C14.3294 7.55397 18.6204 5.63282 23.36 5.63282ZM34.7222 11.4344C31.8144 8.52662 27.7972 6.72806 23.36 6.72806C18.9227 6.72806 14.9055 8.5266 11.9977 11.4344C9.08996 14.3422 7.29139 18.3594 7.29139 22.7966C7.29139 24.3642 7.51389 25.875 7.92875 27.2992C8.35418 28.7599 8.98139 30.1343 9.77791 31.3906C9.89347 31.5403 9.92824 31.7459 9.85129 31.9335L9.34467 31.7256L9.84952 31.9331L6.98029 38.9261L14.427 36.4462C14.5862 36.3762 14.7761 36.383 14.9353 36.4812L14.6478 36.9473L14.9344 36.4831C16.1775 37.2501 17.5348 37.8529 18.9761 38.2607C20.3672 38.6544 21.8377 38.8652 23.36 38.8652C27.7972 38.8652 31.8144 37.0667 34.7222 34.1589C37.63 31.2511 39.4286 27.2339 39.4286 22.7966C39.4286 18.3594 37.63 14.3422 34.7222 11.4344Z" fill="#C1768D"/>
<path d="M22.3053 27.114C22.2985 26.8733 22.295 26.691 22.295 26.5707C22.295 25.859 22.3947 25.2435 22.5976 24.7277C22.7454 24.3392 22.9827 23.9472 23.3128 23.5483C23.5534 23.2595 23.9901 22.8401 24.6159 22.2865C25.2451 21.7295 25.6509 21.2893 25.84 20.9593C26.0291 20.6326 26.1219 20.2716 26.1219 19.883C26.1219 19.1782 25.8469 18.5593 25.2967 18.0229C24.7466 17.4899 24.0692 17.2217 23.2715 17.2217C22.4979 17.2217 21.8549 17.4659 21.3391 17.9472C20.8199 18.432 20.483 19.1885 20.3214 20.2166L18.4578 19.9931C18.6263 18.6177 19.1248 17.5621 19.9535 16.8297C20.7821 16.0974 21.879 15.7329 23.2406 15.7329C24.6847 15.7329 25.8365 16.1249 26.6961 16.9123C27.5557 17.6962 27.9855 18.6452 27.9855 19.7627C27.9855 20.4057 27.8342 21.0005 27.5317 21.5438C27.2291 22.087 26.6411 22.7507 25.7609 23.5277C25.1695 24.0538 24.7844 24.4389 24.6022 24.6865C24.4199 24.9375 24.2858 25.2228 24.1999 25.5426C24.1105 25.8658 24.0623 26.3885 24.0486 27.114L22.3053 27.114ZM22.1953 30.7518V28.6853H24.2583V30.7518H22.1953Z" fill="#C1768D"/>
</g>
<defs>
<clipPath id="clip0_192_1304">
<rect width="46" height="46" fill="white"/>
</clipPath>
</defs>
</svg>
