<svg width="20" height="13" viewBox="0 0 20 13" fill="none" xmlns="http://www.w3.org/2000/svg">
<path d="M11 10.1565H1C0.734784 10.1565 0.48043 10.2634 0.292893 10.4537C0.105357 10.6439 0 10.9019 0 11.171C0 11.44 0.105357 11.6981 0.292893 11.8883C0.48043 12.0786 0.734784 12.1854 1 12.1854H11C11.2652 12.1854 11.5196 12.0786 11.7071 11.8883C11.8946 11.6981 12 11.44 12 11.171C12 10.9019 11.8946 10.6439 11.7071 10.4537C11.5196 10.2634 11.2652 10.1565 11 10.1565ZM1 2.04088H19C19.2652 2.04088 19.5196 1.934 19.7071 1.74375C19.8946 1.5535 20 1.29547 20 1.02642C20 0.757369 19.8946 0.499338 19.7071 0.309091C19.5196 0.118843 19.2652 0.0119629 19 0.0119629H1C0.734784 0.0119629 0.48043 0.118843 0.292893 0.309091C0.105357 0.499338 0 0.757369 0 1.02642C0 1.29547 0.105357 1.5535 0.292893 1.74375C0.48043 1.934 0.734784 2.04088 1 2.04088V2.04088ZM19 5.08425H1C0.734784 5.08425 0.48043 5.19113 0.292893 5.38138C0.105357 5.57162 0 5.82965 0 6.09871C0 6.36776 0.105357 6.62579 0.292893 6.81603C0.48043 7.00628 0.734784 7.11316 1 7.11316H19C19.2652 7.11316 19.5196 7.00628 19.7071 6.81603C19.8946 6.62579 20 6.36776 20 6.09871C20 5.82965 19.8946 5.57162 19.7071 5.38138C19.5196 5.19113 19.2652 5.08425 19 5.08425Z" fill="#393939"/>
</svg>
