<svg width="46" height="46" viewBox="0 0 46 46" fill="none" xmlns="http://www.w3.org/2000/svg">
<path fill-rule="evenodd" clip-rule="evenodd" d="M15.8125 3.59375C16.2095 3.59375 16.5312 3.91553 16.5312 4.3125C16.5312 11.0607 22.0018 16.5312 28.75 16.5312C29.147 16.5312 29.4688 16.853 29.4688 17.25C29.4688 17.647 29.147 17.9688 28.75 17.9688C22.0018 17.9688 16.5312 23.4393 16.5312 30.1875C16.5312 30.5845 16.2095 30.9062 15.8125 30.9062C15.4155 30.9062 15.0938 30.5845 15.0938 30.1875C15.0938 23.4393 9.62324 17.9688 2.875 17.9688C2.47805 17.9688 2.15625 17.647 2.15625 17.25C2.15625 16.853 2.47805 16.5312 2.875 16.5312C9.62324 16.5312 15.0938 11.0607 15.0938 4.3125C15.0938 3.91553 15.4155 3.59375 15.8125 3.59375ZM15.8125 8.69608C14.4522 12.7121 11.2746 15.8897 7.25858 17.25C11.2746 18.6103 14.4522 21.7879 15.8125 25.8039C17.1728 21.7879 20.3504 18.6103 24.3664 17.25C20.3504 15.8897 17.1728 12.7121 15.8125 8.69608Z" fill="#C1768D"/>
<path fill-rule="evenodd" clip-rule="evenodd" d="M21.9219 28.0312C22.3188 28.0312 22.6406 28.353 22.6406 28.75C22.6406 32.1241 25.3759 34.8594 28.75 34.8594C29.147 34.8594 29.4688 35.1812 29.4688 35.5781C29.4688 35.9752 29.147 36.2969 28.75 36.2969C25.3759 36.2969 22.6406 39.0321 22.6406 42.4062C22.6406 42.8034 22.3188 43.125 21.9219 43.125C21.5249 43.125 21.2031 42.8034 21.2031 42.4062C21.2031 39.0321 18.4678 36.2969 15.0938 36.2969C14.6968 36.2969 14.375 35.9752 14.375 35.5781C14.375 35.1812 14.6968 34.8594 15.0938 34.8594C18.4678 34.8594 21.2031 32.1241 21.2031 28.75C21.2031 28.353 21.5249 28.0312 21.9219 28.0312ZM21.9219 31.9685C21.1749 33.5505 19.8943 34.8311 18.3123 35.5781C19.8943 36.3253 21.1749 37.6057 21.9219 39.1877C22.6689 37.6057 23.9495 36.3253 25.5315 35.5781C23.9495 34.8311 22.6689 33.5505 21.9219 31.9685Z" fill="#C1768D"/>
<path fill-rule="evenodd" clip-rule="evenodd" d="M35.3984 17.7891C35.3984 17.3921 35.0767 17.0703 34.6797 17.0703C34.2827 17.0703 33.9609 17.3921 33.9609 17.7891C33.9609 21.6594 30.8235 24.7969 26.9531 24.7969C26.5562 24.7969 26.2344 25.1187 26.2344 25.5156C26.2344 25.9126 26.5562 26.2344 26.9531 26.2344C30.8235 26.2344 33.9609 29.3719 33.9609 33.2422C33.9609 33.6392 34.2827 33.9609 34.6797 33.9609C35.0767 33.9609 35.3984 33.6392 35.3984 33.2422C35.3984 29.3719 38.5358 26.2344 42.4062 26.2344C42.8034 26.2344 43.125 25.9126 43.125 25.5156C43.125 25.1187 42.8034 24.7969 42.4062 24.7969C38.5358 24.7969 35.3984 21.6594 35.3984 17.7891ZM30.3677 25.5156C32.2869 24.6662 33.8303 23.1228 34.6797 21.2036C35.5291 23.1228 37.0724 24.6662 38.9918 25.5156C37.0724 26.365 35.5291 27.9085 34.6797 29.8276C33.8303 27.9085 32.2869 26.365 30.3677 25.5156Z" fill="#C1768D"/>
</svg>
