<svg width="43" height="21" viewBox="0 0 43 21" fill="none" xmlns="http://www.w3.org/2000/svg">
<path fill-rule="evenodd" clip-rule="evenodd" d="M1.69835 20.5785C1.98411 20.5785 2.26987 20.4691 2.48865 20.2526L15.0933 7.6457L25.4655 18.0201C25.903 18.4554 26.6085 18.4554 27.0461 18.0201L40.767 4.29696V10.5323C40.767 11.1485 41.2671 11.6486 41.8832 11.6486C42.4994 11.6486 42.9998 11.1485 42.9998 10.5323V1.6068C43.0151 0.999564 42.4771 0.472695 41.881 0.48609H32.9533C32.3371 0.48609 31.837 0.986168 31.837 1.60234C31.837 2.2185 32.3371 2.71858 32.9533 2.71858H39.1886L26.2558 15.6514L15.8836 5.27702C15.446 4.84168 14.7406 4.84168 14.303 5.27702L0.908045 18.672C0.472709 19.1095 0.472709 19.815 0.908045 20.2526C1.12683 20.4691 1.41259 20.5785 1.69835 20.5785Z" fill="#C1768D"/>
</svg>
