<svg width="17" height="20" viewBox="0 0 17 20" fill="none" xmlns="http://www.w3.org/2000/svg">
<path d="M3.39821 6.48419C2.82556 6.48384 2.26213 6.62144 1.76029 6.88419C1.25845 7.14694 0.834505 7.52632 0.527878 7.98704C0.22125 8.44775 0.0418975 8.97486 0.00649636 9.51933C-0.0289047 10.0638 0.0807958 10.608 0.325397 11.1012C0.569998 11.5944 0.941557 12.0207 1.40552 12.3405C1.86949 12.6602 2.41079 12.863 2.9791 12.93C3.54742 12.997 4.12428 12.9259 4.65605 12.7235C5.18781 12.5211 5.65722 12.1939 6.02062 11.7723L10.5883 14.6733C10.1794 15.4068 10.0821 16.2619 10.3165 17.0618C10.5509 17.8617 11.099 18.5452 11.8476 18.9709C12.5961 19.3966 13.4878 19.532 14.3381 19.349C15.1885 19.166 15.9325 18.6787 16.4163 17.9878C16.9001 17.297 17.0866 16.4554 16.9373 15.6372C16.788 14.8189 16.3144 14.0867 15.6142 13.5918C14.9141 13.097 14.0411 12.8774 13.1758 12.9785C12.3105 13.0796 11.5191 13.4936 10.9652 14.135L6.3969 11.234C6.65778 10.7678 6.79424 10.2476 6.79424 9.71932C6.79424 9.19102 6.65778 8.67083 6.3969 8.20463L10.9652 5.30369C11.5201 5.94647 12.3131 6.3615 13.1802 6.46292C14.0472 6.56435 14.9221 6.34441 15.6237 5.8486C16.3253 5.35279 16.8 4.61904 16.9497 3.79914C17.0993 2.97924 16.9124 2.13592 16.4276 1.44361C15.9428 0.751307 15.1973 0.262993 14.3451 0.0796789C13.493 -0.103635 12.5995 0.0320759 11.8495 0.458741C11.0994 0.885405 10.5502 1.57038 10.3155 2.37197C10.0808 3.17356 10.1784 4.03044 10.5883 4.76536L6.02062 7.66631C5.70254 7.29672 5.30233 6.99898 4.84884 6.79456C4.39536 6.59014 3.8999 6.48413 3.39821 6.48419ZM13.5863 13.6015C14.1236 13.6015 14.6489 13.7533 15.0957 14.0377C15.5425 14.322 15.8907 14.7263 16.0963 15.1992C16.3019 15.6721 16.3558 16.1925 16.2509 16.6945C16.1461 17.1966 15.8873 17.6577 15.5074 18.0197C15.1274 18.3816 14.6433 18.6281 14.1163 18.728C13.5893 18.8278 13.0431 18.7766 12.5466 18.5807C12.0502 18.3848 11.6259 18.0531 11.3273 17.6275C11.0288 17.2019 10.8695 16.7015 10.8695 16.1896C10.8703 15.5034 11.1568 14.8456 11.6661 14.3604C12.1754 13.8752 12.866 13.6023 13.5863 13.6015ZM13.5863 0.660943C14.1236 0.660943 14.6489 0.812733 15.0957 1.09712C15.5425 1.3815 15.8907 1.78571 16.0963 2.25863C16.3019 2.73154 16.3558 3.25192 16.2509 3.75397C16.1461 4.25601 15.8873 4.71717 15.5074 5.07912C15.1274 5.44107 14.6433 5.68757 14.1163 5.78743C13.5893 5.88729 13.0431 5.83604 12.5466 5.64015C12.0502 5.44426 11.6259 5.11254 11.3273 4.68693C11.0288 4.26132 10.8695 3.76093 10.8695 3.24905C10.8703 2.56288 11.1568 1.90503 11.6661 1.41983C12.1754 0.934636 12.866 0.661714 13.5863 0.660943ZM3.39821 12.3074C2.86087 12.3074 2.3356 12.1556 1.88882 11.8713C1.44204 11.5869 1.09382 11.1827 0.888188 10.7097C0.682558 10.2368 0.628756 9.71645 0.733586 9.21441C0.838415 8.71237 1.09717 8.25121 1.47712 7.88925C1.85708 7.5273 2.34117 7.28081 2.86818 7.18094C3.39519 7.08108 3.94146 7.13233 4.43789 7.32822C4.93433 7.52411 5.35864 7.85584 5.65716 8.28145C5.95569 8.70706 6.11503 9.20744 6.11503 9.71932C6.11422 10.4055 5.82773 11.0633 5.3184 11.5485C4.80907 12.0337 4.11851 12.3067 3.39821 12.3074Z" fill="#393939"/>
</svg>
