<svg width="26" height="26" viewBox="0 0 26 26" fill="none" xmlns="http://www.w3.org/2000/svg">
<g clip-path="url(#clip0_18233_2836)">
<path d="M13 26C20.1797 26 26 20.1797 26 13C26 5.8203 20.1797 0 13 0C5.8203 0 0 5.8203 0 13C0 20.1797 5.8203 26 13 26Z" fill="#F0F0F0"/>
<path d="M17.8949 10.174H14.6315L12.9999 7.3479L11.3684 10.174H8.10498L9.73679 13.0001L8.10498 15.8261H11.3684L12.9999 18.6522L14.6315 15.8261H17.8949L16.2631 13.0001L17.8949 10.174ZM15.0045 13.0001L14.0023 14.7362H11.9977L10.9953 13.0001L11.9977 11.2639H14.0023L15.0045 13.0001ZM12.9999 9.52779L13.373 10.1739H12.627L12.9999 9.52779ZM9.99298 11.2639H10.7391L10.366 11.9101L9.99298 11.2639ZM9.99298 14.7362L10.3661 14.09L10.7391 14.7362H9.99298ZM12.9999 16.4723L12.6269 15.8261H13.373L12.9999 16.4723ZM16.0069 14.7362H15.2608L15.6339 14.09L16.0069 14.7362ZM15.2608 11.2639H16.0069L15.6339 11.9101L15.2608 11.2639Z" fill="#0052B4"/>
<path d="M21.0923 2.82617H4.90756C3.72115 3.77111 2.7037 4.91887 1.90796 6.2175H24.0918C23.2961 4.91892 22.2786 3.77111 21.0923 2.82617Z" fill="#0052B4"/>
<path d="M4.90756 23.174H21.0922C22.2786 22.2291 23.2961 21.0813 24.0918 19.7827H1.90796C2.70375 21.0813 3.7212 22.2291 4.90756 23.174Z" fill="#0052B4"/>
</g>
<defs>
<clipPath id="clip0_18233_2836">
<rect width="26" height="26" fill="white"/>
</clipPath>
</defs>
</svg>
