<svg width="22" height="22" viewBox="0 0 22 22" fill="none" xmlns="http://www.w3.org/2000/svg">
<g clip-path="url(#clip0_18233_3493)">
<path d="M11 0C4.93488 0 0 4.93488 0 11C0 17.0651 4.93488 22 11 22C17.0651 22 22 17.0651 22 11C22 4.93488 17.0651 0 11 0ZM11 20.625C5.69387 20.625 1.375 16.3075 1.375 11C1.375 5.6925 5.69387 1.375 11 1.375C16.3061 1.375 20.625 5.6925 20.625 11C20.625 16.3075 16.3061 20.625 11 20.625Z" fill="#767676"/>
<path d="M14.4376 8.25H13.68C13.5768 7.7385 13.3486 7.2765 13.0447 6.875H14.4376C14.8171 6.875 15.1251 6.567 15.1251 6.1875C15.1251 5.808 14.8171 5.5 14.4376 5.5H10.3126H7.5626C7.1831 5.5 6.8751 5.808 6.8751 6.1875C6.8751 6.567 7.1831 6.875 7.5626 6.875H10.3126C11.2077 6.875 11.964 7.45113 12.2486 8.25H7.5626C7.1831 8.25 6.8751 8.558 6.8751 8.9375C6.8751 9.317 7.1831 9.625 7.5626 9.625H12.2486C11.964 10.4239 11.2077 11 10.3126 11H7.5626C7.47322 11 7.38385 11.0179 7.29997 11.0522C7.13222 11.1224 6.99747 11.2558 6.92735 11.4249C6.85722 11.5926 6.85722 11.7824 6.92735 11.9501C6.96172 12.0354 7.0126 12.111 7.07722 12.1743L12.5758 17.6729C12.7106 17.8076 12.8866 17.875 13.0626 17.875C13.2386 17.875 13.4146 17.8076 13.5493 17.6742C13.8175 17.4061 13.8175 16.9703 13.5493 16.7021L9.22222 12.375H10.3126C11.9736 12.375 13.361 11.1925 13.68 9.625H14.4376C14.8171 9.625 15.1251 9.317 15.1251 8.9375C15.1251 8.558 14.8171 8.25 14.4376 8.25Z" fill="#767676"/>
</g>
<defs>
<clipPath id="clip0_18233_3493">
<rect width="22" height="22" fill="white"/>
</clipPath>
</defs>
</svg>
