<svg width="24" height="24" viewBox="0 0 24 24" fill="none" xmlns="http://www.w3.org/2000/svg">
<path d="M13 10.5V12.5C13 12.776 13.224 13 13.5 13C13.776 13 14 12.776 14 12.5V10.5C14 8.57 12.43 7 10.5 7H8.5C8.224 7 8 7.224 8 7.5V16.5C8 16.776 8.224 17 8.5 17C8.776 17 9 16.776 9 16.5V8H10.5C11.879 8 13 9.121 13 10.5Z" fill="#767676"/>
<path d="M16.5 7C16.224 7 16 7.224 16 7.5V16H14.5C13.121 16 12 14.879 12 13.5V11.5C12 11.224 11.776 11 11.5 11C11.224 11 11 11.224 11 11.5V13.5C11 15.43 12.57 17 14.5 17H16.5C16.776 17 17 16.776 17 16.5V7.5C17 7.224 16.776 7 16.5 7Z" fill="#767676"/>
<path d="M12 1C5.935 1 1 5.935 1 12C1 18.065 5.935 23 12 23C18.065 23 23 18.065 23 12C23 5.935 18.065 1 12 1ZM12 22C6.486 22 2 17.514 2 12C2 6.486 6.486 2 12 2C17.514 2 22 6.486 22 12C22 17.514 17.514 22 12 22Z" fill="#767676"/>
</svg>
