<svg width="24" height="24" viewBox="0 0 24 24" fill="none" xmlns="http://www.w3.org/2000/svg">
<path d="M12 1.19995C5.79568 1.19995 0.75 6.24563 0.75 12.45C0.75 18.6543 5.79568 23.6999 12 23.6999C18.2043 23.6999 23.25 18.6543 23.25 12.45C23.25 6.24563 18.2043 1.19995 12 1.19995ZM12 2.69995C17.3937 2.69995 21.7559 7.05629 21.7559 12.45C21.7559 17.8436 17.3937 22.2058 12 22.2058C6.60634 22.2058 2.25 17.8436 2.25 12.45C2.25 7.05629 6.60634 2.69995 12 2.69995ZM11.9897 6.45435C11.7916 6.45783 11.6029 6.5396 11.4648 6.68177C11.3268 6.82394 11.2506 7.01497 11.2529 7.21313V7.84448C10.0419 8.07166 9.00586 8.85146 9.00586 10.2029C9.00586 11.1404 9.42849 11.8986 9.99609 12.3401C10.5637 12.7816 11.2046 12.9773 11.7671 13.1648C12.3296 13.3523 12.8152 13.5316 13.0913 13.7463C13.3675 13.9611 13.5 14.1418 13.5 14.7043C13.5 15.9543 10.5059 15.9543 10.5059 14.7043C10.5081 14.6045 10.4903 14.5051 10.4536 14.4122C10.4169 14.3193 10.362 14.2346 10.2922 14.1632C10.2223 14.0917 10.1389 14.035 10.0468 13.9962C9.95468 13.9575 9.85577 13.9375 9.75586 13.9375C9.65594 13.9375 9.55703 13.9575 9.46494 13.9962C9.37284 14.035 9.28941 14.0917 9.21955 14.1632C9.14968 14.2346 9.09479 14.3193 9.0581 14.4122C9.0214 14.5051 9.00364 14.6045 9.00586 14.7043C9.00586 16.0547 10.0429 16.836 11.2529 17.0642V17.6926C11.2507 17.7925 11.2685 17.8918 11.3052 17.9848C11.3419 18.0777 11.3968 18.1624 11.4666 18.2338C11.5365 18.3052 11.6199 18.362 11.712 18.4007C11.8041 18.4395 11.903 18.4594 12.0029 18.4594C12.1028 18.4594 12.2018 18.4395 12.2938 18.4007C12.3859 18.362 12.4694 18.3052 12.5392 18.2338C12.6091 18.1624 12.664 18.0777 12.7007 17.9848C12.7374 17.8918 12.7551 17.7925 12.7529 17.6926V17.0642C13.9632 16.8361 15.0015 16.0549 15.0015 14.7043C15.0015 13.7668 14.5774 13.0086 14.0098 12.5671C13.4422 12.1257 12.8013 11.9285 12.2388 11.741C11.6763 11.5535 11.1907 11.3757 10.9145 11.1609C10.6384 10.9461 10.5059 10.7654 10.5059 10.2029C10.5059 8.95288 13.5 8.95288 13.5 10.2029C13.5 10.402 13.5791 10.5929 13.7199 10.7337C13.8607 10.8745 14.0516 10.9536 14.2507 10.9536C14.4498 10.9536 14.6408 10.8745 14.7816 10.7337C14.9224 10.5929 15.0015 10.402 15.0015 10.2029C15.0015 8.85349 13.9629 8.07447 12.7529 7.84595V7.21313C12.7541 7.11279 12.7351 7.01323 12.6972 6.92034C12.6592 6.82746 12.6029 6.74315 12.5318 6.67239C12.4606 6.60164 12.376 6.54588 12.2829 6.50843C12.1898 6.47098 12.0901 6.45258 11.9897 6.45435Z" fill="#767676"/>
</svg>
